<svg width="227" height="24" viewBox="0 0 227 24" fill="none" xmlns="http://www.w3.org/2000/svg">
<g clip-path="url(#clip0_6004_9430)">
<path fill-rule="evenodd" clip-rule="evenodd" d="M72.9791 16.2538L71.8417 12.6726H71.8177L70.6834 16.2538H72.9791ZM70.8718 11.5362C70.9688 11.2613 71.1587 11.1235 71.4421 11.1235H72.2179C72.5168 11.1235 72.7073 11.2613 72.7881 11.5362L75.4803 19.1521C75.545 19.3305 75.5388 19.4719 75.4626 19.5773C75.3854 19.6821 75.2539 19.7348 75.0681 19.7348H74.5104C74.2109 19.7348 74.021 19.5971 73.9401 19.3227L73.3782 17.5274H70.2833L69.7198 19.3101C69.6389 19.5934 69.4485 19.7348 69.1495 19.7348H68.5918C68.4055 19.7348 68.2741 19.6821 68.1974 19.5773C68.1207 19.4719 68.1144 19.3305 68.1796 19.1521L70.8718 11.5362Z" fill="#352610"/>
<path fill-rule="evenodd" clip-rule="evenodd" d="M121.524 16.2538L120.386 12.6726H120.362L119.228 16.2538H121.524ZM119.416 11.5362C119.513 11.2613 119.703 11.1235 119.987 11.1235H120.763C121.062 11.1235 121.252 11.2613 121.333 11.5362L124.025 19.1521C124.09 19.3305 124.083 19.4719 124.007 19.5773C123.93 19.6821 123.799 19.7348 123.613 19.7348H123.055C122.756 19.7348 122.566 19.5971 122.485 19.3227L121.923 17.5274H118.828L118.265 19.3101C118.184 19.5934 117.993 19.7348 117.694 19.7348H117.137C116.95 19.7348 116.819 19.6821 116.742 19.5773C116.665 19.4719 116.659 19.3305 116.724 19.1521L119.416 11.5362Z" fill="#352610"/>
<path fill-rule="evenodd" clip-rule="evenodd" d="M82.1993 18.4008C82.6036 18.4008 82.913 18.2828 83.1269 18.047C83.3414 17.8117 83.4483 17.5112 83.4483 17.1454C83.4483 16.7792 83.3393 16.4808 83.1212 16.2496C82.9031 16.0174 82.5958 15.9021 82.1993 15.9021H80.5261V18.4008H82.1993ZM82.0542 14.6406C82.3934 14.6406 82.6542 14.5331 82.8363 14.3176C83.0179 14.1021 83.1092 13.8402 83.1092 13.5308C83.1092 13.222 83.0179 12.9658 82.8363 12.7623C82.6542 12.5594 82.3819 12.4581 82.0172 12.4581H80.5261V14.6406H82.0542ZM78.9734 11.6333C78.9734 11.2936 79.1393 11.1235 79.4706 11.1235H82.0417C82.4299 11.1235 82.7878 11.1726 83.1154 11.2691C83.4426 11.3661 83.7238 11.5096 83.9581 11.7001C84.1923 11.89 84.3765 12.1221 84.5101 12.3971C84.6431 12.6715 84.7099 12.9872 84.7099 13.3425C84.7099 13.7474 84.6191 14.111 84.437 14.4345C84.2549 14.758 83.9982 15.0089 83.6669 15.1868V15.2108C83.9017 15.2834 84.1052 15.3882 84.2795 15.526C84.4532 15.6637 84.5967 15.8228 84.7099 16.0049C84.8231 16.187 84.9081 16.3832 84.965 16.5934C85.0214 16.8037 85.0495 17.0176 85.0495 17.2357C85.0495 17.6651 84.9708 18.0366 84.8132 18.3517C84.6556 18.6674 84.4391 18.9282 84.1647 19.1343C83.8892 19.3404 83.572 19.4922 83.212 19.5888C82.8525 19.6863 82.4742 19.7348 82.0777 19.7348H79.4706C79.1393 19.7348 78.9734 19.5648 78.9734 19.2251V11.6333Z" fill="#352610"/>
<path fill-rule="evenodd" clip-rule="evenodd" d="M88.7852 19.007C88.6876 18.9178 88.6214 18.8192 88.5848 18.7102C88.5483 18.6006 88.5911 18.4655 88.7121 18.3032L88.9788 17.915C89.0763 17.7783 89.1791 17.7032 89.2881 17.6907C89.3977 17.6787 89.5287 17.7173 89.6826 17.806C89.7551 17.8545 89.8459 17.915 89.9555 17.9881C90.0645 18.0611 90.1939 18.1295 90.3431 18.1942C90.4928 18.2589 90.6588 18.3157 90.8403 18.3643C91.0224 18.4123 91.2186 18.4368 91.4288 18.4368C91.8332 18.4368 92.1483 18.3455 92.3748 18.1639C92.6012 17.9818 92.7144 17.7455 92.7144 17.4543C92.7144 17.1799 92.6153 16.953 92.4175 16.7756C92.2193 16.5976 91.9704 16.4354 91.6715 16.2903C91.3725 16.1448 91.0511 15.9987 90.7073 15.8536C90.3635 15.7081 90.0421 15.5343 89.7431 15.3319C89.4442 15.13 89.1953 14.8816 88.997 14.5858C88.7988 14.291 88.7001 13.9211 88.7001 13.4761C88.7001 13.0968 88.7742 12.753 88.9245 12.4456C89.0742 12.1383 89.2777 11.8754 89.5365 11.6578C89.7953 11.4392 90.1005 11.2712 90.4527 11.1543C90.8043 11.037 91.1868 10.9785 91.5989 10.9785C91.8494 10.9785 92.0899 11.001 92.32 11.0453C92.5511 11.0896 92.7608 11.1439 92.9508 11.2086C93.1412 11.2733 93.3108 11.3443 93.4605 11.421C93.6097 11.4982 93.7292 11.5686 93.8179 11.6333C94.0772 11.819 94.1294 12.0496 93.976 12.3246L93.7574 12.7243C93.6682 12.9027 93.5633 12.9914 93.4422 12.9914C93.3207 12.9914 93.1955 12.959 93.0661 12.8943C92.8881 12.7895 92.68 12.6841 92.4415 12.5792C92.2031 12.4743 91.9141 12.4211 91.5744 12.4211C91.1701 12.4211 90.8508 12.5103 90.6165 12.6883C90.3817 12.8662 90.2648 13.1004 90.2648 13.3916C90.2648 13.6582 90.3635 13.8789 90.5617 14.0526C90.7595 14.2263 91.0083 14.3823 91.3078 14.519C91.6068 14.6568 91.9276 14.7966 92.272 14.938C92.6153 15.0794 92.9367 15.2516 93.2361 15.453C93.5346 15.6554 93.7835 15.9063 93.9817 16.2053C94.18 16.5043 94.2791 16.8804 94.2791 17.3333C94.2791 17.6808 94.2139 18.0105 94.085 18.3215C93.9556 18.633 93.7699 18.9037 93.5273 19.1343C93.2847 19.3644 92.9878 19.5465 92.6356 19.6801C92.284 19.8136 91.8817 19.8804 91.4288 19.8804C91.1215 19.8804 90.8304 19.8496 90.556 19.7891C90.2805 19.7286 90.0301 19.654 89.8036 19.5648C89.5777 19.4756 89.3774 19.3811 89.2036 19.2794C89.0294 19.1787 88.8901 19.0879 88.7852 19.007Z" fill="#352610"/>
<path fill-rule="evenodd" clip-rule="evenodd" d="M100.016 12.4581H97.6991C97.36 12.4581 97.1899 12.2938 97.1899 11.9651V11.6286C97.1899 11.2921 97.36 11.1235 97.6991 11.1235H103.884C104.216 11.1235 104.382 11.2921 104.382 11.6286V11.9651C104.382 12.2938 104.216 12.4581 103.884 12.4581H101.568V19.2246C101.568 19.5642 101.398 19.7348 101.059 19.7348H100.513C100.182 19.7348 100.016 19.5642 100.016 19.2246V12.4581Z" fill="#352610"/>
<path fill-rule="evenodd" clip-rule="evenodd" d="M110.592 15.1623C111.012 15.1623 111.344 15.0402 111.586 14.7971C111.829 14.5534 111.95 14.2159 111.95 13.7854C111.95 13.5094 111.896 13.2679 111.786 13.0608C111.677 12.8536 111.505 12.7013 111.271 12.6042C111.165 12.5552 111.042 12.5192 110.901 12.4947C110.759 12.4701 110.571 12.4581 110.337 12.4581H109.185V15.1623H110.592ZM107.632 11.6333C107.632 11.2936 107.798 11.1235 108.13 11.1235H110.458C110.887 11.1235 111.22 11.1418 111.459 11.1783C111.697 11.2148 111.909 11.2733 112.095 11.3541C112.532 11.5404 112.882 11.8336 113.144 12.2333C113.407 12.6334 113.539 13.1249 113.539 13.7072C113.539 13.966 113.506 14.2159 113.442 14.4585C113.377 14.7011 113.284 14.926 113.163 15.1315C113.041 15.3381 112.892 15.5218 112.714 15.6841C112.536 15.8453 112.334 15.971 112.107 16.0597V16.0837L112.18 16.1928C112.205 16.2334 112.235 16.2799 112.272 16.3326C112.308 16.3853 112.346 16.4515 112.387 16.5329L113.806 19.1281C113.911 19.306 113.929 19.4515 113.86 19.5648C113.792 19.678 113.656 19.7348 113.454 19.7348H112.799C112.532 19.7348 112.334 19.6174 112.205 19.3832L110.688 16.5204H109.185V19.2251C109.185 19.5648 109.019 19.7348 108.687 19.7348H108.13C107.798 19.7348 107.632 19.5648 107.632 19.2251V11.6333Z" fill="#352610"/>
<path fill-rule="evenodd" clip-rule="evenodd" d="M126.431 15.3924C126.431 14.77 126.54 14.1903 126.758 13.6519C126.976 13.1145 127.282 12.6476 127.674 12.2516C128.066 11.8556 128.533 11.5446 129.075 11.3176C129.616 11.0917 130.215 10.9785 130.87 10.9785C131.217 10.9785 131.539 11.0083 131.834 11.0693C132.129 11.1298 132.394 11.2023 132.628 11.2879C132.863 11.3724 133.069 11.4653 133.247 11.5665C133.425 11.6677 133.57 11.7585 133.684 11.8394C133.926 12.0256 133.958 12.2599 133.78 12.5427L133.562 12.8943C133.401 13.161 133.17 13.2016 132.871 13.0159C132.685 12.8943 132.426 12.7629 132.095 12.6215C131.763 12.4806 131.375 12.4096 130.93 12.4096C130.462 12.4096 130.047 12.4879 129.687 12.646C129.327 12.803 129.026 13.0175 128.784 13.2883C128.541 13.5596 128.358 13.8747 128.232 14.2342C128.107 14.5942 128.044 14.9724 128.044 15.3684C128.044 15.7728 128.109 16.161 128.238 16.533C128.367 16.905 128.555 17.2326 128.802 17.5154C129.048 17.7987 129.352 18.0246 129.711 18.1942C130.071 18.3643 130.482 18.4493 130.943 18.4493C131.185 18.4493 131.413 18.4227 131.628 18.37C131.842 18.3178 132.038 18.2552 132.216 18.1822C132.394 18.1091 132.554 18.0288 132.695 17.9396C132.837 17.8509 132.956 17.77 133.053 17.6969C133.336 17.4867 133.57 17.5154 133.756 17.782L133.999 18.1091C134.193 18.3679 134.169 18.6027 133.926 18.8129C133.805 18.9095 133.649 19.0211 133.459 19.1469C133.269 19.2721 133.047 19.3889 132.792 19.498C132.537 19.607 132.251 19.6983 131.931 19.7709C131.612 19.8434 131.262 19.8804 130.882 19.8804C130.203 19.8804 129.59 19.7651 129.045 19.5345C128.498 19.3039 128.032 18.9888 127.643 18.5886C127.256 18.1884 126.956 17.7131 126.746 17.1637C126.536 16.6138 126.431 16.0232 126.431 15.3924Z" fill="#352610"/>
<path fill-rule="evenodd" clip-rule="evenodd" d="M139.444 12.4581H137.128C136.788 12.4581 136.619 12.2938 136.619 11.9651V11.6286C136.619 11.2921 136.788 11.1235 137.128 11.1235H143.314C143.644 11.1235 143.811 11.2921 143.811 11.6286V11.9651C143.811 12.2938 143.644 12.4581 143.314 12.4581H140.997V19.2246C140.997 19.5642 140.827 19.7348 140.487 19.7348H139.942C139.61 19.7348 139.444 19.5642 139.444 19.2246V12.4581Z" fill="#352610"/>
<path fill-rule="evenodd" clip-rule="evenodd" d="M151.488 11.7058C151.423 11.5279 151.429 11.3865 151.506 11.2816C151.583 11.1768 151.714 11.1235 151.9 11.1235H152.543C152.842 11.1235 153.032 11.2654 153.113 11.5482L155.199 17.9729H155.223L157.334 11.5482C157.406 11.2654 157.592 11.1235 157.892 11.1235H158.51C158.696 11.1235 158.827 11.1768 158.904 11.2816C158.981 11.3865 158.987 11.5279 158.923 11.7058L156.169 19.3341C156.08 19.6013 155.89 19.7348 155.599 19.7348H154.823C154.532 19.7348 154.342 19.6013 154.253 19.3341L151.488 11.7058Z" fill="#352610"/>
<path fill-rule="evenodd" clip-rule="evenodd" d="M162.5 11.6333C162.5 11.2936 162.666 11.1235 162.997 11.1235H167.336C167.676 11.1235 167.845 11.2921 167.845 11.6286V11.9651C167.845 12.2938 167.676 12.4581 167.336 12.4581H164.053V14.7376H166.454C166.794 14.7376 166.963 14.902 166.963 15.2307V15.5667C166.963 15.9037 166.794 16.0717 166.454 16.0717H164.053V18.4008H167.339C167.679 18.4008 167.848 18.5646 167.848 18.8933V19.2298C167.848 19.5663 167.679 19.7348 167.339 19.7348H162.997C162.666 19.7348 162.5 19.5648 162.5 19.2251V11.6333Z" fill="#352610"/>
<path fill-rule="evenodd" clip-rule="evenodd" d="M211.885 11.6333C211.885 11.2936 212.051 11.1235 212.383 11.1235H216.722C217.062 11.1235 217.231 11.2921 217.231 11.6286V11.9651C217.231 12.2938 217.062 12.4581 216.722 12.4581H213.438V14.7376H215.839C216.179 14.7376 216.348 14.902 216.348 15.2307V15.5667C216.348 15.9037 216.179 16.0717 215.839 16.0717H213.438V18.4008H216.724C217.064 18.4008 217.234 18.5646 217.234 18.8933V19.2298C217.234 19.5663 217.064 19.7348 216.724 19.7348H212.383C212.051 19.7348 211.885 19.5648 211.885 19.2251V11.6333Z" fill="#352610"/>
<path fill-rule="evenodd" clip-rule="evenodd" d="M171.439 11.6333C171.439 11.2936 171.604 11.1235 171.936 11.1235H172.591C172.873 11.1235 173.076 11.2373 173.197 11.4632L176.253 16.0962C176.334 16.2256 176.419 16.367 176.508 16.5204C176.597 16.6743 176.674 16.8199 176.738 16.9571C176.819 17.111 176.896 17.2686 176.969 17.4298H176.993C176.977 17.2686 176.961 17.111 176.945 16.9571C176.928 16.8199 176.918 16.6743 176.914 16.5204C176.91 16.367 176.908 16.2256 176.908 16.0962V11.6333C176.908 11.2936 177.078 11.1235 177.418 11.1235H177.963C178.303 11.1235 178.473 11.2936 178.473 11.6333V19.2251C178.473 19.5648 178.303 19.7348 177.963 19.7348H177.309C177.034 19.7348 176.835 19.6216 176.714 19.3947L173.646 14.7741C173.565 14.6453 173.482 14.5034 173.397 14.3494C173.312 14.1961 173.237 14.0505 173.173 13.9128C173.084 13.7594 173.003 13.6018 172.93 13.4401H172.906C172.914 13.6018 172.926 13.7594 172.942 13.9128C172.958 14.0505 172.97 14.1961 172.979 14.3494C172.987 14.5034 172.991 14.6453 172.991 14.7741V19.2251C172.991 19.5648 172.825 19.7348 172.494 19.7348H171.936C171.604 19.7348 171.439 19.5648 171.439 19.2251V11.6333Z" fill="#352610"/>
<path fill-rule="evenodd" clip-rule="evenodd" d="M184.355 12.4581H182.038C181.699 12.4581 181.53 12.2938 181.53 11.9651V11.6286C181.53 11.2921 181.699 11.1235 182.038 11.1235H188.224C188.556 11.1235 188.721 11.2921 188.721 11.6286V11.9651C188.721 12.2938 188.556 12.4581 188.224 12.4581H185.907V19.2246C185.907 19.5642 185.737 19.7348 185.398 19.7348H184.853C184.521 19.7348 184.355 19.5642 184.355 19.2246V12.4581Z" fill="#352610"/>
<path fill-rule="evenodd" clip-rule="evenodd" d="M191.689 11.6333C191.689 11.2936 191.855 11.1235 192.186 11.1235H192.732C193.071 11.1235 193.242 11.2936 193.242 11.6333V16.6294C193.242 17.2117 193.413 17.6609 193.757 17.9755C194.1 18.2912 194.563 18.4493 195.145 18.4493C195.728 18.4493 196.192 18.2912 196.54 17.9755C196.887 17.6609 197.062 17.2117 197.062 16.6294V11.6333C197.062 11.2936 197.228 11.1235 197.559 11.1235H198.117C198.448 11.1235 198.614 11.2936 198.614 11.6333V16.642C198.614 17.1267 198.531 17.5675 198.366 17.9641C198.2 18.3601 197.965 18.6997 197.662 18.9825C197.359 19.2658 196.995 19.486 196.571 19.6435C196.146 19.8011 195.675 19.8804 195.158 19.8804C194.632 19.8804 194.157 19.8011 193.732 19.6435C193.308 19.486 192.944 19.2658 192.641 18.9825C192.338 18.6997 192.103 18.3601 191.938 17.9641C191.772 17.5675 191.689 17.1267 191.689 16.642V11.6333Z" fill="#352610"/>
<path fill-rule="evenodd" clip-rule="evenodd" d="M205.196 15.1623C205.616 15.1623 205.947 15.0402 206.19 14.7971C206.433 14.5534 206.554 14.2159 206.554 13.7854C206.554 13.5094 206.499 13.2679 206.39 13.0608C206.281 12.8536 206.109 12.7013 205.875 12.6042C205.77 12.5552 205.646 12.5192 205.505 12.4947C205.363 12.4701 205.175 12.4581 204.941 12.4581H203.789V15.1623H205.196ZM202.236 11.6333C202.236 11.2936 202.402 11.1235 202.734 11.1235H205.062C205.49 11.1235 205.824 11.1418 206.063 11.1783C206.301 11.2148 206.513 11.2733 206.699 11.3541C207.136 11.5404 207.486 11.8336 207.748 12.2333C208.011 12.6334 208.143 13.1249 208.143 13.7072C208.143 13.966 208.11 14.2159 208.046 14.4585C207.981 14.7011 207.888 14.926 207.767 15.1315C207.645 15.3381 207.495 15.5218 207.318 15.6841C207.14 15.8453 206.938 15.971 206.711 16.0597V16.0837L206.784 16.1928C206.809 16.2334 206.839 16.2799 206.876 16.3326C206.912 16.3853 206.95 16.4515 206.99 16.5329L208.41 19.1281C208.514 19.306 208.533 19.4515 208.464 19.5648C208.395 19.678 208.26 19.7348 208.057 19.7348H207.403C207.136 19.7348 206.938 19.6174 206.809 19.3832L205.293 16.5204H203.789V19.2251C203.789 19.5648 203.623 19.7348 203.292 19.7348H202.734C202.402 19.7348 202.236 19.5648 202.236 19.2251V11.6333Z" fill="#352610"/>
<path fill-rule="evenodd" clip-rule="evenodd" d="M220.643 19.007C220.546 18.9178 220.479 18.8192 220.443 18.7102C220.406 18.6006 220.449 18.4655 220.571 18.3032L220.837 17.915C220.934 17.7783 221.037 17.7032 221.146 17.6907C221.256 17.6787 221.387 17.7173 221.541 17.806C221.614 17.8545 221.704 17.915 221.814 17.9881C221.923 18.0611 222.052 18.1295 222.202 18.1942C222.351 18.2589 222.517 18.3157 222.699 18.3643C222.881 18.4123 223.077 18.4368 223.287 18.4368C223.691 18.4368 224.007 18.3455 224.233 18.1639C224.46 17.9818 224.573 17.7455 224.573 17.4543C224.573 17.1799 224.473 16.953 224.276 16.7756C224.077 16.5976 223.829 16.4354 223.53 16.2903C223.231 16.1448 222.909 15.9987 222.565 15.8536C222.222 15.7081 221.901 15.5343 221.601 15.3319C221.302 15.13 221.054 14.8816 220.856 14.5858C220.657 14.291 220.558 13.9211 220.558 13.4761C220.558 13.0968 220.633 12.753 220.783 12.4456C220.932 12.1383 221.136 11.8754 221.395 11.6578C221.654 11.4392 221.959 11.2712 222.311 11.1543C222.663 11.037 223.045 10.9785 223.457 10.9785C223.708 10.9785 223.948 11.001 224.179 11.0453C224.409 11.0896 224.619 11.1439 224.809 11.2086C224.999 11.2733 225.169 11.3443 225.319 11.421C225.468 11.4982 225.587 11.5686 225.676 11.6333C225.935 11.819 225.988 12.0496 225.835 12.3246L225.616 12.7243C225.527 12.9027 225.422 12.9914 225.3 12.9914C225.179 12.9914 225.054 12.959 224.925 12.8943C224.747 12.7895 224.538 12.6841 224.3 12.5792C224.061 12.4743 223.773 12.4211 223.432 12.4211C223.029 12.4211 222.709 12.5103 222.475 12.6883C222.24 12.8662 222.123 13.1004 222.123 13.3916C222.123 13.6582 222.222 13.8789 222.42 14.0526C222.618 14.2263 222.866 14.3823 223.166 14.519C223.465 14.6568 223.786 14.7966 224.13 14.938C224.473 15.0794 224.795 15.2516 225.095 15.453C225.393 15.6554 225.642 15.9063 225.84 16.2053C226.038 16.5043 226.138 16.8804 226.138 17.3333C226.138 17.6808 226.072 18.0105 225.944 18.3215C225.814 18.633 225.628 18.9037 225.385 19.1343C225.143 19.3644 224.846 19.5465 224.494 19.6801C224.143 19.8136 223.74 19.8804 223.287 19.8804C222.98 19.8804 222.688 19.8496 222.414 19.7891C222.139 19.7286 221.888 19.654 221.662 19.5648C221.436 19.4756 221.235 19.3811 221.062 19.2794C220.887 19.1787 220.749 19.0879 220.643 19.007Z" fill="#352610"/>
<path fill-rule="evenodd" clip-rule="evenodd" d="M26.4264 23.9999C26.0794 23.9999 25.7419 23.8199 25.5556 23.4974L13.8572 3.23413L8.44206 12.6129C8.2631 12.9234 7.93128 13.1148 7.57284 13.1148H1.28849C0.733885 13.1148 0.284668 12.6656 0.284668 12.111C0.284668 11.5564 0.733885 11.1072 1.28849 11.1072H6.99319L12.9874 0.724048C13.1669 0.413613 13.4982 0.222656 13.8572 0.222656C14.2156 0.222656 14.5469 0.413613 14.7264 0.724048L27.2951 22.4941C27.5716 22.9736 27.4073 23.5877 26.9273 23.8647C26.7692 23.956 26.5965 23.9999 26.4264 23.9999Z" fill="#352610"/>
<path fill-rule="evenodd" clip-rule="evenodd" d="M40.5822 23.9994C40.2233 23.9994 39.892 23.8084 39.7125 23.4975L27.1443 1.72842C26.8673 1.2479 27.0316 0.634335 27.5116 0.35677C27.9916 0.0802483 28.6052 0.244074 28.8833 0.724074L40.5822 20.9879L45.9968 11.6091C46.1763 11.2987 46.5076 11.1072 46.8661 11.1072H53.1504C53.705 11.1072 54.1542 11.5564 54.1542 12.111C54.1542 12.6656 53.705 13.1149 53.1504 13.1149H47.4462L41.4515 23.4975C41.272 23.8084 40.9407 23.9994 40.5822 23.9994Z" fill="#352610"/>
<path fill-rule="evenodd" clip-rule="evenodd" d="M33.5048 24C33.1574 24 32.8203 23.82 32.6341 23.4976L20.0659 1.72854C19.7888 1.24802 19.9532 0.634453 20.4332 0.356888C20.9137 0.0798447 21.5273 0.244714 21.8048 0.724193L34.373 22.4943C34.6501 22.9738 34.4857 23.5878 34.0057 23.8649C33.8476 23.9562 33.6749 24 33.5048 24Z" fill="#352610"/>
</g>
<defs>
<clipPath id="clip0_6004_9430">
<rect width="225.913" height="24" fill="white" transform="translate(0.284668)"/>
</clipPath>
</defs>
</svg>
