<svg width="85" height="48" viewBox="0 0 85 48" fill="none" xmlns="http://www.w3.org/2000/svg">
<g clip-path="url(#clip0_61_656)">
<path d="M17.8533 36.6945L11.388 39.8037V33.6934L17.8533 30.6472V36.6945Z" fill="#6A6A6A"/>
<path d="M4.92253 14.1406L11.388 11.0315V17.1419L4.92253 20.1879V14.1406Z" fill="url(#paint0_linear_61_656)"/>
<path d="M17.8664 14.1406L11.3715 11.0315V17.1419L17.8664 20.1879V14.1406Z" fill="#828282"/>
<path d="M17.8664 14.1406L11.3715 11.0315V17.1419L17.8664 20.1879V14.1406Z" fill="#7D7D7D"/>
<path d="M0.302246 28.4814L17.8515 36.6963V30.6346L0.302246 22.3881V28.4814Z" fill="url(#paint1_linear_61_656)"/>
<path d="M4.92253 36.6945L11.388 39.8037V33.6934L4.92253 30.6472V36.6945Z" fill="url(#paint2_linear_61_656)"/>
<path d="M0.302246 22.3583L17.8664 14.1398V20.1884L0.302246 28.4516V22.3583Z" fill="url(#paint3_linear_61_656)"/>
<path d="M9.02392 42.7049L11.3872 40.6462L13.7508 42.7049V45.8271L11.3872 47.9831L9.02374 45.8271L9.02392 42.7049Z" fill="#828282"/>
<path d="M9.02847 42.7274L11.3808 40.6781L13.7332 42.7274V45.8352L11.3808 47.9812L9.02834 45.8352L9.02847 42.7274Z" fill="#6A6A6A"/>
<path d="M13.3478 42.9593L11.3872 42.0542L9.42666 42.9593V45.5493L11.3872 46.4548L13.3478 45.5493V42.9593Z" fill="white"/>
<path d="M10.5565 41.3896L11.3876 40.9933L11.3876 45.0742L10.5565 45.4705L10.5565 41.3896Z" fill="white"/>
<path d="M10.5565 35.7187L11.3876 35.322V39.7632L10.5565 40.1594V35.7187Z" fill="white"/>
<path d="M13.0493 34.5606L12.2182 34.1644L12.2182 40.1765L13.0493 40.5732V34.5606Z" fill="url(#paint4_linear_61_656)"/>
<path d="M13.0493 29.6845L12.2182 29.2883V32.6969L13.0493 33.0931V29.6845Z" fill="url(#paint5_linear_61_656)"/>
<path d="M12.2182 40.1432L11.3871 39.7465V44.6321L12.2182 45.0288V40.1432Z" fill="url(#paint6_linear_61_656)"/>
<path d="M12.2182 37.0313L11.3871 36.6351V38.5861L12.2182 38.9828V37.0313Z" fill="url(#paint7_linear_61_656)"/>
<path d="M12.2182 29.9218L11.3871 29.5256V35.3409L12.2182 35.7372V29.9218Z" fill="url(#paint8_linear_61_656)"/>
<path fill-rule="evenodd" clip-rule="evenodd" d="M11.4572 9.8553C11.5471 9.87606 11.61 9.95709 11.6078 10.0493C11.6051 10.1673 11.6022 10.2865 11.5993 10.4069C11.5343 13.0893 11.4554 16.347 12.5738 19.6679C13.1209 21.2923 12.9103 23.1376 12.2594 25.3658C12.2017 25.5633 12.1404 25.7642 12.0758 25.9686C13.3611 28.1063 14.6038 31.1982 15.0587 34.3461C15.6424 38.3856 14.9351 42.5871 11.2622 44.9496C11.2071 44.985 11.1378 44.9904 11.078 44.9638C9.52599 44.274 8.58742 42.3488 8.22523 40.1527C7.86079 37.943 8.06561 35.3863 8.87162 33.3354C9.10815 32.7335 9.33836 32.1532 9.56057 31.593C10.403 29.4693 11.1304 27.6355 11.6514 26.0191C11.3267 25.4916 11.0013 25.0291 10.6881 24.647C7.91158 21.2602 7.7331 18.2499 8.42173 15.7428C8.76407 14.4965 9.31875 13.3807 9.86124 12.4126C10.0589 12.0599 10.2528 11.7302 10.4343 11.4215C10.7571 10.8725 11.0407 10.3901 11.2367 9.96356C11.2753 9.87976 11.3673 9.83453 11.4572 9.8553ZM11.8041 25.5318C11.8322 25.4394 11.8595 25.3477 11.8861 25.2567C12.5303 23.0515 12.7136 21.3014 12.2052 19.792C11.1299 16.5992 11.1398 13.4671 11.199 10.8778C11.0624 11.1206 10.9119 11.3768 10.7545 11.6445C10.5751 11.95 10.3868 12.2703 10.2005 12.6027C9.66412 13.5599 9.12689 14.644 8.79677 15.8458C8.14048 18.2351 8.29489 21.1144 10.9889 24.4005C11.2554 24.7255 11.5295 25.1055 11.8041 25.5318ZM11.9152 26.4626C11.3984 28.0149 10.7063 29.7597 9.91909 31.7441C9.69753 32.3026 9.46843 32.8801 9.2336 33.4777C8.45611 35.4559 8.25461 37.9408 8.60898 40.0894C8.95729 42.2014 9.82907 43.92 11.1413 44.5641C14.5475 42.3127 15.2436 38.3449 14.6738 34.4018C14.2463 31.4435 13.1098 28.5379 11.9152 26.4626Z" fill="white"/>
<path d="M9.72537 32.6415L10.5565 32.2453L10.5565 36.9039L9.72537 37.3006V32.6415Z" fill="white"/>
<path d="M9.72537 26.7438L10.5565 26.3474V29.8291L9.72537 30.2258V26.7438Z" fill="white"/>
<path d="M9.4267 7.16851L9.84731 7.36915L9.84735 10.1146L9.4267 9.91392V7.16851Z" fill="#6A6A6A"/>
<path d="M9.4267 5.34892L9.84735 5.54957V6.66856L9.4267 6.46791V5.34892Z" fill="#6A6A6A"/>
<path d="M13.1137 10.457L13.5819 10.6803V13.4257L13.1137 13.2024V10.457Z" fill="#6A6A6A"/>
<path d="M13.1137 8.63741L13.5819 8.86071V9.97971L13.1137 9.75641V8.63741Z" fill="#6A6A6A"/>
<path d="M11.1093 1.82394L11.5643 2.04097L11.5643 4.78643L11.1093 4.56939V1.82394Z" fill="#363636"/>
<path d="M11.1093 0.00439453L11.5643 0.221385V1.34043L11.1093 1.12339V0.00439453Z" fill="#363636"/>
<path fill-rule="evenodd" clip-rule="evenodd" d="M11.4453 39.6063L16.2253 41.8682L11.4453 44.1302L6.66551 41.8682L11.4453 39.6063ZM11.4453 40.0011L7.49975 41.8682L11.4453 43.7354L15.391 41.8682L11.4453 40.0011Z" fill="#352610"/>
<path d="M22.5326 28.4814L4.96855 36.7341V30.6414L22.5326 22.3881V28.4814Z" fill="url(#paint9_linear_61_656)"/>
<path d="M22.5326 22.3583L4.96855 14.1053V20.1985L22.5326 28.4516V22.3583Z" fill="url(#paint10_linear_61_656)"/>
<path d="M31.8102 26.7918C31.771 26.7918 31.7341 26.777 31.6994 26.7475C31.6697 26.7179 31.6553 26.681 31.6553 26.6367C31.6553 26.617 31.6602 26.5949 31.6697 26.5703L33.4496 21.8072C33.4645 21.758 33.4915 21.7161 33.5307 21.6816C33.5753 21.6422 33.6343 21.6226 33.7081 21.6226H34.5128C34.5866 21.6226 34.6433 21.6422 34.683 21.6816C34.7221 21.7161 34.7519 21.758 34.7712 21.8072L36.5512 26.5703C36.5561 26.5949 36.5584 26.617 36.5584 26.6367C36.5584 26.681 36.5435 26.7179 36.5143 26.7475C36.4845 26.777 36.4503 26.7918 36.4107 26.7918H35.7681C35.6992 26.7918 35.6479 26.777 35.6132 26.7475C35.5835 26.713 35.5642 26.681 35.5543 26.6515L35.2071 25.7506H33.0138L32.6666 26.6515C32.6571 26.681 32.6346 26.713 32.6004 26.7475C32.5707 26.777 32.5216 26.7918 32.4527 26.7918H31.8102ZM33.2722 24.9013H34.9486L34.1066 22.6195L33.2722 24.9013Z" fill="#352610"/>
<path d="M37.4252 26.7918C37.3761 26.7918 37.3343 26.7745 37.2996 26.7401C37.2654 26.7056 37.2478 26.6638 37.2478 26.6146V21.7998C37.2478 21.7506 37.2654 21.7087 37.2996 21.6743C37.3343 21.6398 37.3761 21.6226 37.4252 21.6226H38.1119C38.161 21.6226 38.2028 21.6398 38.2375 21.6743C38.2717 21.7087 38.2893 21.7506 38.2893 21.7998V25.913H40.6299C40.6843 25.913 40.7285 25.9303 40.7631 25.9647C40.7974 25.9992 40.8145 26.0435 40.8145 26.0976V26.6146C40.8145 26.6638 40.7974 26.7056 40.7631 26.7401C40.7285 26.7745 40.6843 26.7918 40.6299 26.7918H37.4252Z" fill="#352610"/>
<path d="M41.7087 26.7918C41.6596 26.7918 41.6177 26.7745 41.5831 26.7401C41.5488 26.7056 41.5317 26.6638 41.5317 26.6146V21.8072C41.5317 21.753 41.5488 21.7087 41.5831 21.6743C41.6177 21.6398 41.6596 21.6226 41.7087 21.6226H43.6877C44.0718 21.6226 44.4068 21.6841 44.6923 21.8072C44.9777 21.9253 45.1993 22.1075 45.3569 22.3536C45.5145 22.5948 45.5933 22.8976 45.5933 23.2619C45.5933 23.6312 45.5145 23.9364 45.3569 24.1776C45.1993 24.4139 44.9777 24.5912 44.6923 24.7093C44.4068 24.8275 44.0718 24.8866 43.6877 24.8866H42.5876V26.6146C42.5876 26.6638 42.5701 26.7056 42.5359 26.7401C42.5061 26.7745 42.4643 26.7918 42.4102 26.7918H41.7087ZM42.5728 24.0669H43.6508C43.9367 24.0669 44.1555 24.0004 44.3082 23.8675C44.4608 23.7297 44.5369 23.5278 44.5369 23.2619C44.5369 23.0158 44.4658 22.8189 44.323 22.6712C44.1803 22.5186 43.9561 22.4422 43.6508 22.4422H42.5728V24.0669Z" fill="#352610"/>
<path d="M46.5768 26.7918C46.5273 26.7918 46.4854 26.777 46.4512 26.7475C46.4165 26.713 46.3994 26.6687 46.3994 26.6146V21.8072C46.3994 21.753 46.4165 21.7087 46.4512 21.6743C46.4854 21.6398 46.5273 21.6226 46.5768 21.6226H47.2486C47.3027 21.6226 47.3446 21.6398 47.3743 21.6743C47.4085 21.7087 47.4261 21.753 47.4261 21.8072V23.7124H49.6045V21.8072C49.6045 21.753 49.6216 21.7087 49.6563 21.6743C49.6905 21.6398 49.7324 21.6226 49.7815 21.6226H50.4461C50.5006 21.6226 50.5447 21.6398 50.5794 21.6743C50.6136 21.7087 50.6307 21.753 50.6307 21.8072V26.6146C50.6307 26.6638 50.6136 26.7056 50.5794 26.7401C50.5447 26.7745 50.5006 26.7918 50.4461 26.7918H49.7815C49.7324 26.7918 49.6905 26.7745 49.6563 26.7401C49.6216 26.7056 49.6045 26.6638 49.6045 26.6146V24.6355H47.4261V26.6146C47.4261 26.6638 47.4085 26.7056 47.3743 26.7401C47.3446 26.7745 47.3027 26.7918 47.2486 26.7918H46.5768Z" fill="#352610"/>
<path d="M51.462 26.7918C51.4224 26.7918 51.3854 26.777 51.3512 26.7475C51.3215 26.7179 51.3066 26.681 51.3066 26.6367C51.3066 26.617 51.3116 26.5949 51.3215 26.5703L53.101 21.8072C53.1159 21.758 53.1429 21.7161 53.1825 21.6816C53.2266 21.6422 53.2856 21.6226 53.3595 21.6226H54.1646C54.2384 21.6226 54.2952 21.6422 54.3343 21.6816C54.374 21.7161 54.4032 21.758 54.423 21.8072L56.2025 26.5703C56.2075 26.5949 56.2102 26.617 56.2102 26.6367C56.2102 26.681 56.1953 26.7179 56.1656 26.7475C56.1364 26.777 56.1017 26.7918 56.0625 26.7918H55.42C55.3511 26.7918 55.2993 26.777 55.2651 26.7475C55.2353 26.713 55.2155 26.681 55.2056 26.6515L54.8589 25.7506H52.6656L52.3184 26.6515C52.3085 26.681 52.2865 26.713 52.2518 26.7475C52.2225 26.777 52.173 26.7918 52.1041 26.7918H51.462ZM52.9241 24.9013H54.6005L53.7584 22.6195L52.9241 24.9013Z" fill="#352610"/>
<path d="M58.7925 26.8658C58.3345 26.8658 57.9455 26.787 57.6253 26.6294C57.3106 26.467 57.0692 26.2381 56.9017 25.9427C56.7347 25.6424 56.641 25.283 56.6212 24.8645C56.6163 24.6627 56.614 24.4461 56.614 24.2147C56.614 23.9833 56.6163 23.7617 56.6212 23.5501C56.641 23.1365 56.7347 22.7796 56.9017 22.4793C57.0742 22.179 57.3178 21.9501 57.633 21.7925C57.9532 21.6301 58.3395 21.5488 58.7925 21.5488C59.127 21.5488 59.4274 21.5931 59.693 21.6818C59.9592 21.7704 60.1857 21.8934 60.3725 22.051C60.5598 22.2036 60.7048 22.3833 60.8084 22.5901C60.9115 22.7968 60.966 23.0208 60.9709 23.2621C60.9759 23.3064 60.961 23.3433 60.9264 23.3728C60.8971 23.4024 60.8602 23.4171 60.8156 23.4171H60.1141C60.06 23.4171 60.0159 23.4048 59.9812 23.3802C59.947 23.3507 59.9222 23.3039 59.9074 23.2399C59.8286 22.915 59.693 22.6934 59.5012 22.5753C59.3094 22.4571 59.0703 22.3981 58.7848 22.3981C58.4552 22.3981 58.1918 22.4916 57.9946 22.6787C57.7978 22.8608 57.692 23.1636 57.6771 23.587C57.6623 23.9907 57.6623 24.4042 57.6771 24.8276C57.692 25.251 57.7978 25.5562 57.9946 25.7433C58.1918 25.9254 58.4552 26.0165 58.7848 26.0165C59.0703 26.0165 59.3094 25.9574 59.5012 25.8393C59.693 25.7162 59.8286 25.4947 59.9074 25.1747C59.9222 25.1057 59.947 25.059 59.9812 25.0344C60.0159 25.0097 60.06 24.9974 60.1141 24.9974H60.8156C60.8602 24.9974 60.8971 25.0122 60.9264 25.0418C60.961 25.0713 60.9759 25.1082 60.9709 25.1525C60.966 25.3937 60.9115 25.6178 60.8084 25.8245C60.7048 26.0313 60.5598 26.2134 60.3725 26.371C60.1857 26.5236 59.9592 26.6442 59.693 26.7328C59.4274 26.8214 59.127 26.8658 58.7925 26.8658Z" fill="#352610"/>
<path d="M62.0236 26.7918C61.9746 26.7918 61.9327 26.7745 61.898 26.7401C61.8638 26.7056 61.8467 26.6638 61.8467 26.6146V21.8072C61.8467 21.753 61.8638 21.7087 61.898 21.6743C61.9327 21.6398 61.9746 21.6226 62.0236 21.6226H63.9364C64.5322 21.6226 65.0023 21.7604 65.3467 22.0361C65.6916 22.3118 65.8636 22.713 65.8636 23.2398C65.8636 23.6041 65.7727 23.9069 65.5903 24.1481C65.4134 24.3893 65.1747 24.5641 64.8744 24.6724L65.9523 26.5555C65.9672 26.585 65.9744 26.6121 65.9744 26.6367C65.9744 26.681 65.9573 26.7179 65.9226 26.7475C65.8934 26.777 65.8587 26.7918 65.8195 26.7918H65.1472C65.0639 26.7918 64.9996 26.7696 64.9554 26.7253C64.9113 26.681 64.8766 26.6367 64.8519 26.5924L63.8995 24.8422H62.8729V26.6146C62.8729 26.6638 62.8558 26.7056 62.8211 26.7401C62.7918 26.7745 62.7499 26.7918 62.6959 26.7918H62.0236ZM62.8729 24.0078H63.9144C64.2147 24.0078 64.4385 23.9413 64.5862 23.8084C64.7339 23.6706 64.8077 23.4786 64.8077 23.2324C64.8077 22.9862 64.7339 22.7942 64.5862 22.6564C64.4434 22.5136 64.2192 22.4422 63.9144 22.4422H62.8729V24.0078Z" fill="#352610"/>
<path d="M68.1564 26.7918C68.1073 26.7918 68.0655 26.7745 68.0308 26.7401C67.9966 26.7056 67.9795 26.6638 67.9795 26.6146V24.9456L66.2364 21.8589C66.2315 21.849 66.2265 21.8367 66.2216 21.8219C66.2166 21.8072 66.2144 21.7924 66.2144 21.7776C66.2144 21.7333 66.2292 21.6964 66.2585 21.6669C66.2882 21.6373 66.3224 21.6226 66.362 21.6226H67.0195C67.0784 21.6226 67.1253 21.6373 67.1595 21.6669C67.1991 21.6964 67.2261 21.7284 67.241 21.7629L68.4964 23.9118L69.7441 21.7629C69.7639 21.7284 69.7909 21.6964 69.8256 21.6669C69.8648 21.6373 69.9139 21.6226 69.9733 21.6226H70.6231C70.6672 21.6226 70.7041 21.6373 70.7338 21.6669C70.7631 21.6964 70.778 21.7333 70.778 21.7776C70.778 21.7924 70.7757 21.8072 70.7708 21.8219C70.7708 21.8367 70.7658 21.849 70.7559 21.8589L69.0133 24.9456V26.6146C69.0133 26.6638 68.9957 26.7056 68.9615 26.7401C68.9269 26.7745 68.8827 26.7918 68.8287 26.7918H68.1564Z" fill="#352610"/>
<path d="M71.7016 26.7918C71.6525 26.7918 71.6107 26.7745 71.576 26.7401C71.5418 26.7056 71.5247 26.6638 71.5247 26.6146V21.8072C71.5247 21.753 71.5418 21.7087 71.576 21.6743C71.6107 21.6398 71.6525 21.6226 71.7016 21.6226H73.6806C74.0647 21.6226 74.3997 21.6841 74.6852 21.8072C74.9707 21.9253 75.1922 22.1075 75.3498 22.3536C75.5074 22.5948 75.5862 22.8976 75.5862 23.2619C75.5862 23.6312 75.5074 23.9364 75.3498 24.1776C75.1922 24.4139 74.9707 24.5912 74.6852 24.7093C74.3997 24.8275 74.0647 24.8866 73.6806 24.8866H72.5806V26.6146C72.5806 26.6638 72.563 26.7056 72.5288 26.7401C72.4991 26.7745 72.4572 26.7918 72.4032 26.7918H71.7016ZM72.5657 24.0669H73.6437C73.9292 24.0669 74.1484 24.0004 74.3011 23.8675C74.4537 23.7297 74.5298 23.5278 74.5298 23.2619C74.5298 23.0158 74.4587 22.8189 74.316 22.6712C74.1732 22.5186 73.949 22.4422 73.6437 22.4422H72.5657V24.0669Z" fill="#352610"/>
<path d="M77.7066 26.7918C77.6575 26.7918 77.6156 26.7745 77.581 26.7401C77.5468 26.7056 77.5297 26.6638 77.5297 26.6146V22.5309H76.1635C76.114 22.5309 76.0721 22.5136 76.0379 22.4792C76.0032 22.4447 75.9861 22.4028 75.9861 22.3536V21.8072C75.9861 21.753 76.0032 21.7087 76.0379 21.6743C76.0721 21.6398 76.114 21.6226 76.1635 21.6226H79.9296C79.9837 21.6226 80.0278 21.6398 80.0625 21.6743C80.0967 21.7087 80.1143 21.753 80.1143 21.8072V22.3536C80.1143 22.4028 80.0967 22.4447 80.0625 22.4792C80.0278 22.5136 79.9837 22.5309 79.9296 22.5309H78.5707V26.6146C78.5707 26.6638 78.5536 26.7056 78.5189 26.7401C78.4847 26.7745 78.4401 26.7918 78.3861 26.7918H77.7066Z" fill="#352610"/>
<path d="M82.7559 26.8658C82.3178 26.8658 81.9413 26.7944 81.6261 26.6516C81.3109 26.5039 81.0651 26.2799 80.8877 25.9796C80.7103 25.6744 80.6143 25.2953 80.5995 24.8424C80.5945 24.6307 80.5923 24.4214 80.5923 24.2147C80.5923 24.0079 80.5945 23.7962 80.5995 23.5796C80.6143 23.1316 80.713 22.7574 80.8949 22.4571C81.0772 22.1568 81.3258 21.9304 81.641 21.7778C81.9607 21.6252 82.3326 21.5488 82.7559 21.5488C83.1791 21.5488 83.5511 21.6252 83.8712 21.7778C84.1909 21.9304 84.4422 22.1568 84.6241 22.4571C84.8065 22.7574 84.9051 23.1316 84.9195 23.5796C84.9294 23.7962 84.9343 24.0079 84.9343 24.2147C84.9343 24.4214 84.9294 24.6307 84.9195 24.8424C84.9051 25.2953 84.8087 25.6744 84.6318 25.9796C84.4543 26.2799 84.2058 26.5039 83.8856 26.6516C83.5709 26.7944 83.194 26.8658 82.7559 26.8658ZM82.7559 26.0165C83.076 26.0165 83.3367 25.923 83.5389 25.7359C83.7407 25.5439 83.8487 25.2337 83.8636 24.8054C83.8735 24.5888 83.8784 24.3894 83.8784 24.2073C83.8784 24.0202 83.8735 23.8208 83.8636 23.6091C83.8537 23.3236 83.7996 23.0922 83.701 22.915C83.6078 22.7328 83.4795 22.6024 83.3174 22.5236C83.1548 22.4399 82.9675 22.3981 82.7559 22.3981C82.5492 22.3981 82.3646 22.4399 82.202 22.5236C82.0395 22.6024 81.9093 22.7328 81.8107 22.915C81.7171 23.0922 81.6653 23.3236 81.6558 23.6091C81.6509 23.8208 81.6482 24.0202 81.6482 24.2073C81.6482 24.3894 81.6509 24.5888 81.6558 24.8054C81.6703 25.2337 81.7788 25.5439 81.9805 25.7359C82.1822 25.923 82.4407 26.0165 82.7559 26.0165Z" fill="#352610"/>
<path d="M31.9453 32.6905C31.9138 32.6905 31.8872 32.6797 31.8656 32.6577C31.8436 32.6361 31.8328 32.6095 31.8328 32.578V32.1146C31.8328 32.0804 31.8436 32.052 31.8656 32.0304C31.8872 32.0084 31.9138 31.9976 31.9453 31.9976H32.4136C32.4447 31.9976 32.4713 32.0084 32.4929 32.0304C32.5149 32.052 32.5257 32.0804 32.5257 32.1146V32.578C32.5257 32.6095 32.5149 32.6361 32.4929 32.6577C32.4713 32.6797 32.4447 32.6905 32.4136 32.6905H31.9453Z" fill="#352610"/>
<path d="M34.3795 32.7374C34.0891 32.7374 33.8428 32.6874 33.6397 32.5875C33.4398 32.4844 33.2867 32.3394 33.1809 32.1521C33.0746 31.9616 33.0152 31.7338 33.003 31.4685C32.9998 31.3402 32.998 31.2029 32.998 31.0561C32.998 30.9097 32.9998 30.7692 33.003 30.6346C33.0152 30.3725 33.0746 30.1461 33.1809 29.9556C33.2898 29.7651 33.4447 29.6201 33.6442 29.5202C33.8473 29.4171 34.0922 29.3657 34.3795 29.3657C34.592 29.3657 34.7825 29.3936 34.9509 29.4499C35.1193 29.5062 35.263 29.5841 35.3818 29.6841C35.5003 29.7809 35.5926 29.8948 35.6579 30.0258C35.7236 30.1573 35.7578 30.2992 35.761 30.4523C35.7641 30.4802 35.7547 30.5036 35.7331 30.5225C35.7141 30.541 35.6907 30.5504 35.6628 30.5504H35.2179C35.1833 30.5504 35.1553 30.5428 35.1337 30.527C35.1117 30.5085 35.0959 30.4788 35.0869 30.4383C35.0369 30.2321 34.9509 30.0916 34.8293 30.0168C34.7073 29.9416 34.556 29.9043 34.375 29.9043C34.1656 29.9043 33.9986 29.9637 33.8738 30.0821C33.7491 30.1978 33.682 30.3897 33.6726 30.658C33.6631 30.9142 33.6631 31.1763 33.6726 31.4451C33.682 31.7135 33.7491 31.9071 33.8738 32.0255C33.9986 32.1413 34.1656 32.1989 34.375 32.1989C34.556 32.1989 34.7073 32.1615 34.8293 32.0863C34.9509 32.0084 35.0369 31.8679 35.0869 31.6649C35.0959 31.6212 35.1117 31.5915 35.1337 31.5762C35.1553 31.5604 35.1833 31.5527 35.2179 31.5527H35.6628C35.6907 31.5527 35.7141 31.5622 35.7331 31.5807C35.7547 31.5996 35.7641 31.623 35.761 31.6509C35.7578 31.804 35.7236 31.9458 35.6579 32.0773C35.5926 32.2083 35.5003 32.3236 35.3818 32.4236C35.263 32.5204 35.1193 32.5969 34.9509 32.6532C34.7825 32.7095 34.592 32.7374 34.3795 32.7374Z" fill="#352610"/>
<path d="M36.0784 32.6906C36.0536 32.6906 36.0302 32.6812 36.0081 32.6627C35.9892 32.6438 35.9802 32.6204 35.9802 32.5925C35.9802 32.5799 35.9834 32.5659 35.9892 32.5502L37.1181 29.5297C37.1275 29.4986 37.1447 29.472 37.1694 29.45C37.1978 29.4252 37.2352 29.4126 37.282 29.4126H37.7922C37.839 29.4126 37.875 29.4252 37.9002 29.45C37.925 29.472 37.9439 29.4986 37.9561 29.5297L39.0849 32.5502C39.0881 32.5659 39.0894 32.5799 39.0894 32.5925C39.0894 32.6204 39.08 32.6438 39.0615 32.6627C39.0426 32.6812 39.021 32.6906 38.9958 32.6906H38.5883C38.5446 32.6906 38.5122 32.6812 38.4901 32.6627C38.4712 32.6407 38.459 32.6204 38.4527 32.6015L38.2325 32.0305H36.8416L36.6214 32.6015C36.6156 32.6204 36.6012 32.6407 36.5796 32.6627C36.5606 32.6812 36.5296 32.6906 36.4859 32.6906H36.0784ZM37.0055 31.492H38.0686L37.5346 30.0448L37.0055 31.492Z" fill="#352610"/>
<path d="M39.6392 32.6906C39.6077 32.6906 39.5815 32.6798 39.5595 32.6578C39.5374 32.6362 39.5266 32.6096 39.5266 32.5781V29.5297C39.5266 29.4955 39.5374 29.4671 39.5595 29.4455C39.5815 29.4234 39.6077 29.4126 39.6392 29.4126H40.8941C41.1377 29.4126 41.3498 29.4518 41.5308 29.5297C41.7123 29.6044 41.8528 29.7201 41.9523 29.8764C42.0522 30.029 42.1022 30.2213 42.1022 30.4523C42.1022 30.6864 42.0522 30.8801 41.9523 31.0327C41.8528 31.1827 41.7123 31.2952 41.5308 31.37C41.3498 31.4452 41.1377 31.4825 40.8941 31.4825H40.1962V32.5781C40.1962 32.6096 40.1854 32.6362 40.1638 32.6578C40.1448 32.6798 40.1183 32.6906 40.0841 32.6906H39.6392ZM40.1872 30.9625H40.8707C41.0517 30.9625 41.1909 30.9206 41.2877 30.8364C41.3845 30.7486 41.4327 30.6207 41.4327 30.4523C41.4327 30.2961 41.3872 30.1713 41.2967 30.0777C41.2062 29.9809 41.0643 29.9322 40.8707 29.9322H40.1872V30.9625Z" fill="#352610"/>
<path d="M42.7259 32.6906C42.6948 32.6906 42.6683 32.6798 42.6462 32.6578C42.6246 32.6362 42.6138 32.6096 42.6138 32.5781V29.5252C42.6138 29.4936 42.6246 29.4671 42.6462 29.4455C42.6683 29.4234 42.6948 29.4126 42.7259 29.4126H43.1663C43.2005 29.4126 43.227 29.4234 43.246 29.4455C43.2676 29.4671 43.2784 29.4936 43.2784 29.5252V32.5781C43.2784 32.6096 43.2676 32.6362 43.246 32.6578C43.227 32.6798 43.2005 32.6906 43.1663 32.6906H42.7259Z" fill="#352610"/>
<path d="M44.8469 32.6906C44.8153 32.6906 44.7888 32.6798 44.7672 32.6578C44.7451 32.6362 44.7343 32.6096 44.7343 32.5781V29.9885H43.8679C43.8369 29.9885 43.8103 29.9777 43.7882 29.9556C43.7666 29.934 43.7554 29.9075 43.7554 29.8764V29.5297C43.7554 29.4955 43.7666 29.4671 43.7882 29.4455C43.8103 29.4234 43.8369 29.4126 43.8679 29.4126H46.2562C46.2905 29.4126 46.3188 29.4234 46.3404 29.4455C46.3625 29.4671 46.3733 29.4955 46.3733 29.5297V29.8764C46.3733 29.9075 46.3625 29.934 46.3404 29.9556C46.3188 29.9777 46.2905 29.9885 46.2562 29.9885H45.3944V32.5781C45.3944 32.6096 45.3836 32.6362 45.362 32.6578C45.3399 32.6798 45.312 32.6906 45.2773 32.6906H44.8469Z" fill="#352610"/>
<path d="M46.304 32.6906C46.2792 32.6906 46.2558 32.6812 46.2337 32.6627C46.2153 32.6438 46.2058 32.6204 46.2058 32.5925C46.2058 32.5799 46.209 32.5659 46.2153 32.5502L47.3437 29.5297C47.3531 29.4986 47.3702 29.472 47.3955 29.45C47.4234 29.4252 47.4607 29.4126 47.5076 29.4126H48.0182C48.065 29.4126 48.101 29.4252 48.1258 29.45C48.1506 29.472 48.1695 29.4986 48.1821 29.5297L49.3105 32.5502C49.3137 32.5659 49.3155 32.5799 49.3155 32.5925C49.3155 32.6204 49.306 32.6438 49.2871 32.6627C49.2686 32.6812 49.2466 32.6906 49.2218 32.6906H48.8143C48.7706 32.6906 48.7377 32.6812 48.7157 32.6627C48.6972 32.6407 48.6846 32.6204 48.6783 32.6015L48.4581 32.0305H47.0676L46.8475 32.6015C46.8412 32.6204 46.8272 32.6407 46.8051 32.6627C46.7867 32.6812 46.7552 32.6906 46.7115 32.6906H46.304ZM47.2316 31.492H48.2942L47.7606 30.0448L47.2316 31.492Z" fill="#352610"/>
<path d="M49.8648 32.6906C49.8337 32.6906 49.8072 32.6798 49.7851 32.6578C49.7635 32.6362 49.7527 32.6096 49.7527 32.5781V29.5252C49.7527 29.4936 49.7635 29.4671 49.7851 29.4455C49.8072 29.4234 49.8337 29.4126 49.8648 29.4126H50.3002C50.3317 29.4126 50.3583 29.4234 50.3799 29.4455C50.402 29.4671 50.4128 29.4936 50.4128 29.5252V32.1332H51.8974C51.9316 32.1332 51.9595 32.1445 51.9816 32.1661C52.0032 32.1881 52.0144 32.2161 52.0144 32.2503V32.5781C52.0144 32.6096 52.0032 32.6362 51.9816 32.6578C51.9595 32.6798 51.9316 32.6906 51.8974 32.6906H49.8648Z" fill="#352610"/>
</g>
<defs>
<linearGradient id="paint0_linear_61_656" x1="0.302246" y1="10.6016" x2="22.5326" y2="10.6016" gradientUnits="userSpaceOnUse">
<stop stop-color="#494949"/>
<stop offset="1" stop-color="#6A6A6A"/>
</linearGradient>
<linearGradient id="paint1_linear_61_656" x1="0.302246" y1="10.6018" x2="22.5326" y2="10.6018" gradientUnits="userSpaceOnUse">
<stop stop-color="#6A6A6A"/>
<stop offset="0.473958" stop-color="#949494"/>
<stop offset="1" stop-color="#494949"/>
</linearGradient>
<linearGradient id="paint2_linear_61_656" x1="0.302246" y1="10.6005" x2="22.5326" y2="10.6005" gradientUnits="userSpaceOnUse">
<stop stop-color="#494949"/>
<stop offset="1" stop-color="#6A6A6A"/>
</linearGradient>
<linearGradient id="paint3_linear_61_656" x1="0.302246" y1="10.6016" x2="22.5326" y2="10.6016" gradientUnits="userSpaceOnUse">
<stop stop-color="#989898"/>
<stop offset="0.594144" stop-color="#6A6A6A"/>
<stop offset="1" stop-color="#494949"/>
</linearGradient>
<linearGradient id="paint4_linear_61_656" x1="11.4186" y1="-200.732" x2="-20.4767" y2="38.18" gradientUnits="userSpaceOnUse">
<stop offset="0.321739" stop-color="#808080" stop-opacity="0"/>
<stop offset="0.68219" stop-color="white"/>
</linearGradient>
<linearGradient id="paint5_linear_61_656" x1="11.4186" y1="-276.626" x2="-76.2524" y2="113.251" gradientUnits="userSpaceOnUse">
<stop offset="0.321739" stop-color="#808080" stop-opacity="0"/>
<stop offset="0.68219" stop-color="white"/>
</linearGradient>
<linearGradient id="paint6_linear_61_656" x1="11.4175" y1="-310.163" x2="-44.1255" y2="32.7502" gradientUnits="userSpaceOnUse">
<stop offset="0.0260417" stop-color="#808080" stop-opacity="0"/>
<stop offset="0.385417" stop-color="#808080" stop-opacity="0.86"/>
<stop offset="0.666667" stop-color="white"/>
</linearGradient>
<linearGradient id="paint7_linear_61_656" x1="11.4174" y1="-634.257" x2="-243.294" y2="64.6822" gradientUnits="userSpaceOnUse">
<stop offset="0.0260417" stop-color="#808080" stop-opacity="0"/>
<stop offset="0.385417" stop-color="#808080" stop-opacity="0.86"/>
<stop offset="0.666667" stop-color="white"/>
</linearGradient>
<linearGradient id="paint8_linear_61_656" x1="11.4174" y1="-184.809" x2="-29.0346" y2="108.876" gradientUnits="userSpaceOnUse">
<stop offset="0.0260417" stop-color="#808080" stop-opacity="0"/>
<stop offset="0.385417" stop-color="#808080" stop-opacity="0.86"/>
<stop offset="0.666667" stop-color="white"/>
</linearGradient>
<linearGradient id="paint9_linear_61_656" x1="0.302246" y1="39.8692" x2="22.5326" y2="39.8692" gradientUnits="userSpaceOnUse">
<stop stop-color="#6A6A6A"/>
<stop offset="0.512013" stop-color="#828282"/>
<stop offset="1" stop-color="#6A6A6A"/>
</linearGradient>
<linearGradient id="paint10_linear_61_656" x1="4.96855" y1="22.8925" x2="22.5326" y2="22.8925" gradientUnits="userSpaceOnUse">
<stop stop-color="#626262"/>
<stop offset="0.476587" stop-color="#808080" stop-opacity="0.54"/>
<stop offset="1" stop-color="#808080"/>
</linearGradient>
<clipPath id="clip0_61_656">
<rect width="84.6529" height="48" fill="white" transform="translate(0.302246)"/>
</clipPath>
</defs>
</svg>
