<svg width="201" height="24" viewBox="0 0 201 24" fill="none" xmlns="http://www.w3.org/2000/svg">
<g clip-path="url(#clip0_61_563)">
<path fill-rule="evenodd" clip-rule="evenodd" d="M160.167 11.4276V18.7336C160.167 19.1186 160.212 19.4406 160.301 19.6996C160.39 19.9591 160.52 20.1696 160.69 20.3326C160.86 20.4956 161.072 20.6141 161.324 20.6876C161.599 20.765 161.883 20.8026 162.169 20.7991C162.629 20.7991 163.044 20.6881 163.414 20.4656C163.784 20.2451 164.084 19.9262 164.282 19.5446C164.489 19.1521 164.593 18.7116 164.593 18.2231V11.4281H167.685V23.1081H165.15L164.927 21.5096H164.771C164.489 21.8803 164.156 22.2092 163.781 22.4866C163.403 22.7681 162.977 22.9866 162.503 23.1416C162.028 23.2971 161.509 23.3751 160.946 23.3751C159.759 23.3751 158.818 23.0496 158.121 22.3981C157.424 21.7466 157.076 20.6956 157.076 19.2446V11.4276H160.167ZM183.297 11.1611C184.484 11.1611 185.484 11.3721 186.3 11.7941C187.115 12.2161 187.731 12.8676 188.146 13.7481C188.561 14.6296 188.769 15.7656 188.769 17.1571V17.9566H180.606C180.635 18.6376 180.743 19.2151 180.928 19.6886C181.113 20.1626 181.403 20.5141 181.796 20.7436C182.188 20.9736 182.711 21.0876 183.364 21.0876C183.72 21.0876 184.042 21.0431 184.331 20.9541C184.604 20.8739 184.858 20.7379 185.076 20.5546C185.284 20.3771 185.447 20.1546 185.566 19.8886C185.684 19.6221 185.743 19.3186 185.743 18.9781H188.768C188.768 19.7181 188.635 20.3626 188.368 20.9101C188.11 21.4466 187.729 21.9145 187.256 22.2756C186.781 22.6386 186.214 22.9126 185.554 23.0976C184.894 23.2826 184.164 23.3751 183.364 23.3751C182.074 23.3751 180.991 23.1566 180.117 22.7201C179.242 22.2836 178.582 21.6131 178.137 20.7101C177.692 19.8071 177.47 18.6601 177.47 17.2681C177.47 15.8621 177.692 14.7106 178.137 13.8151C178.582 12.9196 179.238 12.2531 180.105 11.8161C180.973 11.3801 182.037 11.1611 183.297 11.1611H183.297ZM195.574 11.1611C196.256 11.1611 196.894 11.2316 197.487 11.3721C198.08 11.5131 198.599 11.7201 199.044 11.9941C199.489 12.2681 199.837 12.6086 200.089 13.0156C200.341 13.4226 200.467 13.8781 200.467 14.3811V14.6701C200.467 14.7586 200.459 14.8181 200.445 14.8476H197.487V14.6701C197.487 14.4036 197.405 14.1781 197.242 13.9926C197.079 13.8076 196.845 13.6631 196.542 13.5596C196.237 13.4561 195.871 13.4041 195.441 13.4041C195.144 13.4041 194.874 13.4261 194.629 13.4706C194.41 13.5071 194.196 13.5745 193.995 13.6706C193.817 13.7596 193.68 13.8671 193.584 13.9926C193.487 14.1186 193.439 14.2701 193.439 14.4476C193.439 14.6996 193.546 14.9031 193.762 15.0586C193.977 15.2141 194.262 15.3436 194.618 15.4471C194.974 15.5506 195.366 15.6621 195.797 15.7801C196.33 15.9281 196.89 16.0726 197.476 16.2131C198.061 16.3541 198.606 16.5431 199.111 16.7796C199.6 17.0041 200.021 17.3525 200.334 17.7901C200.645 18.2266 200.801 18.8151 200.801 19.5551C200.801 20.2661 200.663 20.8656 200.389 21.3541C200.118 21.8401 199.723 22.246 199.244 22.5311C198.754 22.8276 198.184 23.0421 197.531 23.1751C196.879 23.3081 196.175 23.3751 195.419 23.3751C194.603 23.3751 193.869 23.2861 193.217 23.1086C192.564 22.9311 192.008 22.6831 191.549 22.3646C191.089 22.0466 190.737 21.6646 190.492 21.2206C190.247 20.7766 190.125 20.2736 190.125 19.7106V19.5331C190.125 19.4741 190.132 19.4296 190.147 19.4001H193.127V19.5776C193.142 19.9476 193.261 20.2476 193.483 20.4771C193.706 20.7071 193.998 20.8731 194.362 20.9771C194.725 21.0806 195.107 21.1321 195.507 21.1321C195.863 21.1321 196.208 21.0986 196.542 21.0321C196.875 20.9656 197.157 20.8431 197.387 20.6656C197.617 20.4881 197.732 20.2586 197.732 19.9771C197.732 19.6221 197.587 19.3481 197.298 19.1556C197.009 18.9636 196.631 18.8081 196.164 18.6896C195.697 18.5711 195.189 18.4376 194.64 18.2896C194.131 18.17 193.627 18.0329 193.128 17.8786C192.648 17.7343 192.188 17.5292 191.76 17.2681C191.357 17.0214 191.018 16.6828 190.77 16.2801C190.518 15.8731 190.392 15.3586 190.392 14.7366C190.392 14.1296 190.526 13.6006 190.792 13.1486C191.059 12.6971 191.426 12.3236 191.893 12.0271C192.36 11.7316 192.908 11.5131 193.539 11.3721C194.169 11.2321 194.847 11.1611 195.574 11.1611ZM58.2404 11.4276V18.7336C58.2404 19.1186 58.2849 19.4406 58.3734 19.6996C58.4629 19.9591 58.5924 20.1696 58.7634 20.3326C58.9334 20.4956 59.1444 20.6141 59.3969 20.6876C59.6718 20.765 59.9564 20.8026 60.2419 20.7991C60.7014 20.7991 61.1169 20.6881 61.4874 20.4656C61.8566 20.2451 62.157 19.9262 62.3549 19.5446C62.5624 19.1521 62.6659 18.7116 62.6659 18.2231V11.4281H65.7574V23.1081H63.2224L62.9999 21.5096H62.8439C62.5618 21.8803 62.2287 22.2092 61.8544 22.4866C61.4764 22.7681 61.0494 22.9866 60.5754 23.1416C60.1009 23.2971 59.5819 23.3751 59.0189 23.3751C57.8324 23.3751 56.8909 23.0496 56.1939 22.3981C55.4969 21.7466 55.1489 20.6956 55.1489 19.2446V11.4276H58.2404ZM129.498 11.1611C130.684 11.1611 131.685 11.3721 132.501 11.7941C133.316 12.2161 133.931 12.8676 134.347 13.7481C134.762 14.6296 134.969 15.7656 134.969 17.1571V17.9566H126.807C126.836 18.6376 126.944 19.2151 127.13 19.6886C127.315 20.1626 127.604 20.5141 127.997 20.7436C128.389 20.9736 128.912 21.0876 129.565 21.0876C129.892 21.0916 130.218 21.0466 130.532 20.9541C130.806 20.8739 131.059 20.7379 131.277 20.5546C131.485 20.3771 131.648 20.1546 131.767 19.8886C131.885 19.6221 131.945 19.3186 131.945 18.9781H134.97C134.97 19.7181 134.836 20.3626 134.569 20.9101C134.311 21.4466 133.93 21.9145 133.457 22.2756C132.982 22.6386 132.415 22.9126 131.756 23.0976C131.096 23.2826 130.366 23.3751 129.565 23.3751C128.275 23.3751 127.193 23.1566 126.318 22.7201C125.443 22.2836 124.783 21.6131 124.338 20.7101C123.893 19.8071 123.671 18.6601 123.671 17.2681C123.671 15.8621 123.893 14.7106 124.338 13.8151C124.783 12.9196 125.439 12.2531 126.307 11.8161C127.174 11.3801 128.238 11.1611 129.498 11.1611ZM153.384 8.09657V11.4276H155.519V13.8036H153.384V19.8886C153.384 20.2436 153.465 20.5141 153.629 20.6986C153.792 20.8846 154.059 20.9766 154.429 20.9766H155.519V23.0196C155.342 23.0791 155.134 23.1346 154.897 23.1861C154.659 23.2381 154.407 23.2821 154.141 23.3196C153.874 23.3561 153.629 23.3751 153.406 23.3751C152.665 23.3751 152.065 23.2416 151.605 22.9751C151.145 22.7086 150.812 22.3501 150.604 21.8981C150.396 21.4471 150.293 20.9471 150.293 20.3991V13.8041H148.847V11.4276H150.404L150.982 8.09657H153.384ZM7.43093 11.4976L13.8559 22.6111L20.2819 11.4976L26.8959 22.9356C26.9061 22.9532 26.9115 22.9733 26.9115 22.9937C26.9115 23.0141 26.906 23.0342 26.8958 23.0518C26.8856 23.0695 26.8708 23.0841 26.8531 23.0942C26.8354 23.1044 26.8153 23.1097 26.7949 23.1096H0.916933C0.89661 23.1095 0.876664 23.1041 0.859094 23.0939C0.841523 23.0836 0.826945 23.069 0.816818 23.0514C0.806691 23.0338 0.801371 23.0138 0.801392 22.9935C0.801412 22.9731 0.806771 22.9532 0.816933 22.9356L7.43043 11.4976H7.43093ZM94.4704 11.1611C95.2414 11.1611 95.9159 11.3021 96.4944 11.5831C97.0724 11.8646 97.5209 12.3086 97.8394 12.9156C98.1584 13.5231 98.3179 14.3146 98.3179 15.2916V23.1086H95.2264V15.7801C95.2264 15.4101 95.1819 15.0951 95.0934 14.8366C95.0146 14.5948 94.8812 14.3744 94.7034 14.1926C94.5265 14.019 94.3086 13.8929 94.0699 13.8261C93.795 13.7491 93.5104 13.7117 93.2249 13.7151C92.7649 13.7151 92.3499 13.8261 91.9794 14.0481C91.6123 14.2662 91.3123 14.581 91.1119 14.9581C90.9039 15.3436 90.8009 15.7881 90.8009 16.2911V23.1086H87.7094V11.4276H90.2669L90.5119 13.0266H90.6669C90.9326 12.6428 91.2595 12.3051 91.6344 12.0271C92.0213 11.7417 92.4538 11.5239 92.9134 11.3831C93.3879 11.2356 93.9064 11.1611 94.4704 11.1611ZM143.644 11.1611C144.414 11.1611 145.089 11.3021 145.668 11.5831C146.246 11.8646 146.694 12.3086 147.013 12.9156C147.332 13.5231 147.491 14.3146 147.491 15.2916V23.1086H144.4V15.7801C144.4 15.4101 144.355 15.0951 144.266 14.8366C144.188 14.5949 144.055 14.3746 143.877 14.1926C143.7 14.0189 143.482 13.8928 143.243 13.8261C142.968 13.7491 142.684 13.7117 142.398 13.7151C141.938 13.7151 141.523 13.8261 141.153 14.0481C140.786 14.2661 140.486 14.5809 140.285 14.9581C140.077 15.3436 139.974 15.7881 139.974 16.2911V23.1086H136.882V11.4276H139.44L139.685 13.0266H139.84C140.106 12.6428 140.433 12.3052 140.808 12.0271C141.195 11.7417 141.627 11.5239 142.087 11.3831C142.561 11.2356 143.08 11.1611 143.644 11.1611ZM81.6379 11.1611C82.3789 11.1611 83.0199 11.2946 83.5614 11.5611C84.1029 11.8276 84.5289 12.2606 84.8404 12.8601C85.1519 13.4601 85.3074 14.2336 85.3074 15.1806V23.1086H82.2159V15.7361C82.2159 15.3661 82.1749 15.0511 82.0934 14.7921C82.0119 14.5331 81.8969 14.3256 81.7484 14.1701C81.5945 14.0113 81.4036 13.8931 81.1929 13.8261C80.9633 13.751 80.723 13.7135 80.4814 13.7151C80.0664 13.7151 79.6954 13.8261 79.3694 14.0481C79.0429 14.2701 78.7869 14.5736 78.6019 14.9581C78.4169 15.3436 78.3239 15.7881 78.3239 16.2911V23.1086H75.2324V15.7361C75.2324 15.3661 75.1914 15.0511 75.1099 14.7921C75.0284 14.5331 74.9134 14.3256 74.7649 14.1701C74.614 14.0129 74.4272 13.8948 74.2204 13.8261C73.9874 13.7494 73.7432 13.7119 73.4979 13.7151C73.0979 13.7151 72.7304 13.8261 72.3969 14.0481C72.0634 14.2701 71.8034 14.5736 71.6184 14.9581C71.4329 15.3436 71.3404 15.7881 71.3404 16.2911V23.1086H68.2489V11.4276H70.8064L71.0514 13.0266H71.2069C71.453 12.6482 71.7571 12.3109 72.1079 12.0271C72.4595 11.7443 72.8586 11.5262 73.2864 11.3831C73.7419 11.2323 74.2191 11.1573 74.6989 11.1611C75.4399 11.1611 76.0809 11.3096 76.6224 11.6056C77.1639 11.9016 77.5824 12.3756 77.8794 13.0266H78.0344C78.2824 12.6461 78.5906 12.3086 78.9469 12.0271C79.3127 11.7408 79.727 11.5227 80.1699 11.3831C80.6447 11.2328 81.14 11.1579 81.6379 11.1611ZM42.5829 7.87507L48.4544 23.1091H44.8739L43.7839 20.1111H37.1339L36.0439 23.1091H32.6189L38.4909 7.87457H42.5829V7.87507ZM103.833 11.4281V23.1091H100.741V11.4276H103.833V11.4281ZM175.847 11.1396C176.099 11.1396 176.328 11.1656 176.536 11.2176C176.744 11.2691 176.899 11.3171 177.003 11.3616V14.1596H176.047C175.587 14.1596 175.183 14.2231 174.835 14.3481C174.497 14.4669 174.195 14.6695 173.956 14.9371C173.719 15.2031 173.545 15.5291 173.434 15.9141C173.323 16.2991 173.267 16.7506 173.267 17.2686V23.1086H170.176V11.4286H172.733L172.978 13.2491H173.134C173.277 12.8726 173.472 12.5176 173.712 12.1941C173.949 11.8763 174.252 11.6147 174.602 11.4281C174.957 11.2361 175.372 11.1396 175.847 11.1396ZM52.7474 7.05357V23.1086H49.6554V7.05357H52.7474ZM112.751 7.87457L116.042 17.6011C116.101 17.7646 116.168 17.9601 116.242 18.1896C116.316 18.4196 116.39 18.6446 116.465 18.8671C116.539 19.0891 116.598 19.2891 116.643 19.4666H116.776C116.835 19.3036 116.898 19.1151 116.965 18.9001C117.032 18.6856 117.099 18.4671 117.165 18.2451C117.232 18.0231 117.295 17.8161 117.354 17.6236L120.646 7.87457H124.093L118.556 23.1086H114.686L109.171 7.87457H112.752H112.751ZM40.5144 10.7616H40.3814C40.2925 11.093 40.1962 11.4224 40.0924 11.7496C39.9734 12.1271 39.8544 12.4901 39.7364 12.8381C39.6174 13.1856 39.5214 13.4706 39.4469 13.6931L38.0909 17.4451H42.8284L41.4714 13.6921C41.4119 13.5296 41.3414 13.3336 41.2599 13.1036C41.1702 12.8498 41.0852 12.5945 41.0049 12.3376C40.9171 12.0608 40.8318 11.7833 40.7489 11.5051C40.6749 11.2559 40.5968 11.0078 40.5149 10.7611L40.5144 10.7616ZM129.543 13.4486C128.979 13.4486 128.508 13.5411 128.13 13.7261C127.758 13.9061 127.453 14.2023 127.263 14.5701C127.063 14.9476 126.926 15.4251 126.851 16.0026H131.789C131.789 15.5581 131.733 15.1736 131.622 14.8476C131.511 14.5226 131.359 14.2556 131.166 14.0481C130.974 13.8412 130.733 13.6849 130.465 13.5931C130.168 13.4931 129.856 13.4446 129.543 13.4486ZM183.342 13.4486C182.778 13.4486 182.307 13.5411 181.93 13.7261C181.557 13.9061 181.253 14.2023 181.062 14.5701C180.862 14.9476 180.725 15.4251 180.651 16.0026H185.588C185.588 15.5581 185.533 15.1736 185.421 14.8476C185.31 14.5226 185.158 14.2556 184.965 14.0481C184.773 13.8413 184.533 13.6851 184.265 13.5931C183.968 13.4931 183.656 13.4445 183.342 13.4486ZM13.7559 0.558071C13.7661 0.540418 13.7808 0.525756 13.7984 0.515562C13.816 0.505367 13.8361 0.5 13.8564 0.5C13.8768 0.5 13.8968 0.505367 13.9145 0.515562C13.9321 0.525756 13.9468 0.540418 13.9569 0.558071L18.1454 7.80157L13.8564 15.2191L9.56743 7.80157L13.7559 0.558071ZM103.833 7.05307V9.71807H100.741V7.05307H103.833Z" fill="#352610"/>
</g>
<defs>
<clipPath id="clip0_61_563">
<rect width="200" height="23" fill="white" transform="translate(0.800781 0.5)"/>
</clipPath>
</defs>
</svg>
