<svg width="57" height="56" viewBox="0 0 57 56" fill="none" xmlns="http://www.w3.org/2000/svg">
<g clip-path="url(#clip0_114_3936)">
<path fill-rule="evenodd" clip-rule="evenodd" d="M28.826 3.57C28.7081 3.50329 28.5748 3.46865 28.4393 3.46953C28.3039 3.47041 28.171 3.50677 28.054 3.575L7.481 15.455C7.36375 15.5222 7.26631 15.6192 7.19854 15.7361C7.13076 15.8531 7.09505 15.9858 7.095 16.121V39.879C7.095 40.15 7.242 40.408 7.481 40.545L10.646 42.372L20.619 15.032C20.684 14.8526 20.8026 14.6976 20.9588 14.5881C21.1151 14.4786 21.3012 14.4199 21.492 14.42H26.708C27.034 14.42 27.259 14.742 27.144 15.045L16.042 45.485L18.186 46.722L29.746 15.032C29.811 14.8526 29.9296 14.6976 30.0858 14.5881C30.2421 14.4786 30.4282 14.4199 30.619 14.42H35.835C36.157 14.42 36.382 14.742 36.272 15.045L23.582 49.835L28.054 52.415C28.1723 52.4803 28.3049 52.5153 28.44 52.517C28.5754 52.5184 28.7087 52.4835 28.826 52.416L33.344 49.807L29.888 40.33C29.8141 40.1231 29.8141 39.8969 29.888 39.69L32.599 32.255C32.6312 32.1649 32.6904 32.0869 32.7687 32.0317C32.8469 31.9766 32.9403 31.947 33.036 31.947C33.1317 31.947 33.2251 31.9766 33.3033 32.0317C33.3816 32.0869 33.4408 32.1649 33.473 32.255L38.738 46.692L40.882 45.455L34.45 27.827C34.3762 27.62 34.3762 27.394 34.45 27.187L37.161 19.752C37.1934 19.6622 37.2527 19.5846 37.3308 19.5297C37.4089 19.4748 37.502 19.4454 37.5975 19.4454C37.693 19.4454 37.7861 19.4748 37.8642 19.5297C37.9423 19.5846 38.0016 19.6622 38.034 19.752L46.276 42.34L49.4 40.536C49.5172 40.4687 49.6146 40.3717 49.6823 40.2548C49.7501 40.1379 49.7859 40.0051 49.786 39.87V16.116C49.7853 15.981 49.7494 15.8484 49.6817 15.7316C49.6139 15.6148 49.5168 15.5177 49.4 15.45L28.826 3.57ZM5.748 43.552L9.438 45.682V45.684L14.833 48.8V48.798L26.322 55.431C26.9669 55.8052 27.6993 56.0023 28.445 56.0023C29.1907 56.0023 29.9231 55.8052 30.568 55.431L51.142 43.552C51.7874 43.1796 52.3235 42.6438 52.6961 41.9985C53.0688 41.3532 53.265 40.6212 53.265 39.876V16.12C53.2652 15.3747 53.0691 14.6424 52.6964 13.9969C52.3237 13.3514 51.7876 12.8155 51.142 12.443L30.563 0.570001C29.9182 0.196403 29.1862 -0.000231168 28.441 6.33694e-07C27.6955 -0.000407392 26.9631 0.196232 26.318 0.570001L5.748 12.444C5.10241 12.8165 4.56631 13.3524 4.19362 13.9979C3.82094 14.6434 3.62482 15.3757 3.625 16.121V39.875C3.625 41.391 4.434 42.794 5.748 43.552Z" fill="#352610"/>
</g>
<defs>
<clipPath id="clip0_114_3936">
<rect width="56" height="56" fill="white" transform="translate(0.125)"/>
</clipPath>
</defs>
</svg>
