<svg width="53" height="40" viewBox="0 0 53 40" fill="none" xmlns="http://www.w3.org/2000/svg">
<path d="M37.0359 26.9583C37.0359 28.1014 37.0359 29.2445 37.0359 30.4222C36.6536 30.2793 36.2714 30.1364 35.8776 29.9892C34.4084 29.4805 32.87 29.185 31.3961 29.8485C30.656 30.2888 30.2083 30.814 29.9347 31.6346C29.831 32.6074 29.823 33.4957 30.3907 34.3239C31.021 35.0027 31.6671 35.2355 32.5814 35.3313C33.8723 35.365 34.9651 35.2019 36.1699 34.7522C36.5128 34.6378 36.8557 34.5235 37.2091 34.4058C37.2091 35.5489 37.2091 36.692 37.2091 37.8697C34.6118 38.9248 31.7061 39.4911 28.9964 38.4346C27.4041 37.6566 26.1877 36.4394 25.6048 34.7522C25.1913 32.6557 25.2763 30.3969 26.4167 28.5387C27.4839 27.0768 29.0029 26.263 30.7683 25.98C33.0381 25.7296 34.9892 25.9349 37.0359 26.9583Z" fill="#352610"/>
<path d="M31.0513 2.25638C32.7477 3.48343 34.3467 4.87548 35.6505 6.5207C35.6505 6.57785 35.6505 6.63501 35.6505 6.6939C34.621 6.71206 33.5984 6.70123 32.5707 6.63243C30.6387 6.5047 28.7098 6.49425 26.7742 6.49812C26.2233 6.49905 25.6725 6.49812 25.1216 6.49702C23.2022 6.49645 21.2932 6.53522 19.3774 6.65571C18.3937 6.71537 17.4108 6.70981 16.4255 6.6939C20.2138 2.10809 25.3877 -1.67034 31.0513 2.25638Z" fill="#352610"/>
<path d="M16.0791 26.2652C17.4508 26.2652 18.8226 26.2652 20.2358 26.2652C20.293 26.6653 20.3502 27.0654 20.409 27.4776C20.495 27.4191 20.581 27.3606 20.6695 27.3003C22.0271 26.409 23.1305 26.2211 24.739 26.2652C24.739 27.3512 24.739 28.4371 24.739 29.556C24.4318 29.5953 24.1246 29.6345 23.808 29.675C22.6487 29.8685 21.5256 30.2063 20.6521 31.0287C20.2795 31.6916 20.3259 32.3335 20.3204 33.0822C20.3173 33.2388 20.3142 33.3954 20.311 33.5568C20.3016 34.0562 20.2958 34.5555 20.29 35.055C20.2842 35.3939 20.2783 35.7329 20.272 36.0718C20.2569 36.902 20.2465 37.732 20.2358 38.5622C18.8641 38.5622 17.4924 38.5622 16.0791 38.5622C16.0791 34.5042 16.0791 30.4462 16.0791 26.2652Z" fill="#352610"/>
<path fill-rule="evenodd" clip-rule="evenodd" d="M22.0204 8.05056L22.8362 8.04881C23.4054 8.04778 23.9745 8.04745 24.5437 8.04756C25.1156 8.04757 25.6875 8.04639 26.2594 8.044C30.9239 8.02488 35.5818 8.07641 40.1967 8.83739L40.9217 8.95317C41.5902 9.06117 42.2575 9.17537 42.9246 9.29203L43.4282 9.37999C46.0279 9.85148 49.3317 10.615 51.0649 12.756C51.1949 13.2997 51.1702 13.6004 50.9032 14.0942C49.387 16.1368 46.2242 16.7526 43.6815 17.2477C43.36 17.3103 43.0485 17.3709 42.7514 17.4323H42.2318L42.4039 17.8161C42.6614 18.3914 42.9175 18.9673 43.1735 19.5432L43.4445 20.147L43.7033 20.7305L43.9424 21.2665L43.9424 21.2666C44.0158 21.4535 44.0615 21.5699 44.0992 21.6889C44.1616 21.8854 44.2023 22.0888 44.3101 22.6283H37.0358L35.8235 19.8571L35.1307 18.4715H31.8399V18.2983C32.8892 18.1651 33.9005 18.1147 34.9575 18.1251C33.4502 15.5629 32.706 14.298 31.7135 13.2738C30.7456 12.2751 29.5416 11.5053 27.1636 9.98482C25.2343 9.71143 23.7647 10.4179 22.2214 11.5071C20.2116 13.173 18.453 15.8017 17.2913 18.1251L17.6594 18.119C18.6528 18.1096 19.5996 18.15 20.5821 18.2983V18.4715H17.1181L16.4578 19.7705L16.2529 20.1707L16.0864 20.5012L15.9187 20.831C15.703 21.3079 15.5208 21.7993 15.3387 22.2903C15.2969 22.403 15.2551 22.5157 15.2129 22.6283H7.93863C8.06371 22.0029 8.16076 21.5942 8.41357 21.0384L8.59421 20.6372L8.78297 20.2251L9.14966 19.4146L9.32743 19.0231C9.56434 18.4957 9.79134 17.9646 10.017 17.4323L9.49877 17.3647C6.67745 16.9594 3.5662 16.1935 1.41125 14.239C1.18392 13.7952 1.18392 13.7952 1.14062 13.2106C1.51899 12.1134 2.27223 11.6197 3.2765 11.0876C4.67251 10.4526 6.09212 10.05 7.58471 9.71945C7.92286 9.64204 8.25865 9.55454 8.59421 9.46659C11.1116 8.82273 13.7252 8.57496 16.3127 8.32965C16.5815 8.30417 16.85 8.27872 17.1181 8.25285L17.5698 8.2064C19.0531 8.06588 20.5319 8.05129 22.0204 8.05056ZM38.075 10.3312C41.6061 10.4337 46.8559 10.7546 49.7875 12.9184C50.0885 13.3698 50.0829 13.607 50.0257 14.1416C48.8598 15.7025 45.6919 16.4103 43.7421 16.846L43.7415 16.8461C43.6389 16.869 43.5396 16.8912 43.4442 16.9127C42.9256 16.9828 42.4064 17.0381 41.8854 17.0859L41.7221 16.7801C40.6673 14.8107 39.5896 12.8729 38.3808 10.9936C38.15 10.6244 38.0934 10.5338 38.0795 10.4372C38.075 10.4058 38.075 10.3737 38.075 10.3312ZM13.9633 10.6884L14.1737 10.3312C11.6202 10.3087 8.99724 10.7507 6.51952 11.3445L6.06593 11.457C5.40873 11.619 4.75838 11.7838 4.12389 12.0213C3.30105 12.365 2.57536 12.6811 2.21229 13.5354C2.21777 13.7549 2.22048 13.8631 2.25283 13.9616C2.28431 14.0574 2.34383 14.144 2.46126 14.3148C4.71656 16.0331 7.61131 16.6585 10.3634 17.0859C11.5267 14.9327 12.7253 12.7996 13.9633 10.6884Z" fill="#352610"/>
<path fill-rule="evenodd" clip-rule="evenodd" d="M44.8345 25.8549L44.3534 25.854C42.7189 25.851 41.4531 26.0485 39.9802 26.785V29.7293H40.4998C40.8425 29.5875 41.1869 29.4488 41.5369 29.3261C42.8879 29.0247 44.8225 28.9207 46.0638 29.5778C46.3072 29.9174 46.4304 30.0893 46.5142 30.2786C46.6001 30.4727 46.6447 30.685 46.7349 31.1149C45.1021 30.3775 43.3429 30.2231 41.5782 30.4965C40.3741 30.7967 39.425 31.4126 38.7401 32.4619C38.2059 33.6371 38.2119 35.2627 38.5946 36.484C39.0878 37.5865 40.1148 38.2791 41.2142 38.714C42.5953 39.1244 44.2094 39.1191 45.5083 38.4914L46.0746 38.2052L46.6449 37.9177L47.0813 37.6964V38.5624H51.0648L51.0663 38.4146C51.0757 37.4369 51.0852 36.4594 51.0902 35.4817C51.0923 35.0617 51.0947 34.6417 51.0973 34.2217C51.1039 33.6041 51.1105 32.9865 51.1134 32.3689L51.1156 31.78C51.1405 30.0413 50.9894 28.891 49.7794 27.5752C48.4349 26.244 46.6609 25.8877 44.8345 25.8549ZM46.9081 33.8861C46.4009 33.6117 45.895 33.3809 45.3493 33.1933C44.2297 33.0067 43.4082 33.0302 42.7513 34.0593C42.617 34.8113 42.6644 35.1355 43.0761 35.7805C43.6427 36.1544 43.8393 36.198 44.4941 36.2134C45.4869 36.1874 46.2143 35.8116 46.9081 35.0985C46.937 34.7509 46.9505 34.5893 46.9484 34.428C46.9467 34.2878 46.9332 34.1478 46.9081 33.8861Z" fill="#352610"/>
<path fill-rule="evenodd" clip-rule="evenodd" d="M14.031 30.6784C13.9404 29.3944 13.421 28.2254 12.4642 27.3566C10.0472 25.5959 5.34986 25.0469 2.74285 26.7849L2.68387 27.1104L2.69211 27.5007L2.69719 27.9235L2.71038 28.3653C2.71855 28.8779 2.72888 29.39 2.74285 29.9024L3.26245 29.7292C5.04367 29.1109 7.01308 28.843 8.80477 29.556C9.1095 29.8788 9.2644 30.0429 9.37241 30.2335C9.48408 30.4306 9.54561 30.6561 9.67076 31.1148C7.99951 30.5149 6.43082 30.2799 4.64803 30.422C3.38072 30.7672 2.24628 31.3882 1.51965 32.5112C0.959457 33.6431 0.974713 35.1146 1.35727 36.3107C2.00775 37.6117 2.77063 38.2581 4.13655 38.7775C6.00858 39.2578 7.73737 38.8787 9.41029 38.0089L9.67076 37.8695L9.84396 38.5623H14.0007L14.0016 38.4242C14.008 37.5049 14.0143 36.5857 14.0176 35.6663C14.019 35.2713 14.0206 34.8763 14.0224 34.4813C14.0268 33.9008 14.0311 33.3203 14.033 32.7398L14.0345 32.1858C14.0397 31.6829 14.0406 31.1812 14.031 30.6784ZM9.67074 33.886C9.35403 33.6983 9.0346 33.514 8.70462 33.3508C7.45739 32.8821 6.35942 33.0135 5.514 34.0592C5.36566 34.8143 5.42495 35.132 5.83874 35.7803C6.40538 36.1543 6.60203 36.1978 7.2568 36.2133C8.24955 36.1873 8.97695 35.8114 9.67074 35.0984C9.69971 34.7508 9.71317 34.5892 9.71113 34.4278C9.70937 34.2877 9.6959 34.1476 9.67074 33.886Z" fill="#352610"/>
</svg>
