<svg width="54" height="54" viewBox="0 0 54 54" fill="none" xmlns="http://www.w3.org/2000/svg">
<g clip-path="url(#clip0_358_7088)">
<path d="M53.9053 25.2069C52.9133 10.6011 40.2727 -0.430146 25.6737 0.56201C18.4012 1.05765 12.0146 4.44582 7.55732 9.52145L7.54407 9.51262C7.51227 9.55326 7.48488 9.5939 7.4575 9.63454C3.03108 14.742 0.540064 21.528 1.03473 28.8036C1.08067 29.498 1.16194 30.1783 1.26175 30.8532C1.26175 30.8859 1.27059 30.9124 1.275 30.9442C1.34302 31.3886 1.42075 31.8339 1.50644 32.2695C1.58766 32.6721 1.67837 33.0727 1.77851 33.471C4.84016 45.6773 16.2732 54.3222 29.2707 53.4378C43.8696 52.4448 54.9034 39.803 53.9106 25.198L53.9053 25.2069ZM48.1371 25.6009C48.2598 27.3979 48.1459 29.1578 47.8244 30.8541C47.8244 30.8453 47.8155 30.8365 47.8155 30.8267C45.8916 26.1319 42.0915 22.7393 38.7533 20.8654C39.4291 12.9096 36.7305 9.55326 33.6741 9.00903C33.0819 8.89776 32.4732 8.90875 31.8854 9.04132C31.2976 9.17388 30.7431 9.42524 30.2559 9.77994C29.7687 10.1346 29.3592 10.5852 29.0525 11.1039C28.7457 11.6227 28.5482 12.1987 28.4722 12.7965C28.3977 13.3733 28.4377 13.959 28.5899 14.5202C28.7422 15.0815 29.0035 15.6072 29.3592 16.0672C29.7148 16.5273 30.1576 16.9127 30.6623 17.2013C31.1671 17.49 31.7238 17.6762 32.3005 17.7494C32.5134 17.7768 32.7219 17.7856 32.926 17.7812C32.9408 18.0651 32.9485 18.3494 32.9489 18.6337C30.1231 17.9358 27.4837 17.7944 25.0757 18.0126C24.1702 18.0721 23.269 18.1856 22.3771 18.3528C22.6774 15.667 23.688 12.6463 25.6428 10.442C27.5332 8.30578 30.3457 7.08568 33.4109 7.39843C33.9921 7.45763 34.6131 7.60252 35.1705 7.78894C35.1979 7.79777 35.2253 7.8066 35.2482 7.81102C42.3503 10.7053 47.5797 17.4499 48.1326 25.6009H48.1371ZM29.6655 29.6473C29.6655 29.6473 29.6655 29.6517 29.6611 29.6561C28.9911 30.6191 28.2319 31.5169 27.3936 32.3375C26.1239 30.9961 25.049 29.4829 24.2003 27.8423C24.1597 27.7557 24.1146 27.6789 24.0731 27.5923V27.5835C23.5758 26.5202 23.1781 25.4132 22.885 24.2766C24.7665 23.8322 26.6127 23.6687 28.3776 23.7553L28.6585 23.7686H28.6674C29.7742 23.8596 30.9261 24.0637 32.1186 24.3905C31.565 26.2522 30.7399 28.022 29.67 29.6429L29.6655 29.6473ZM20.6131 7.45321L20.5998 7.47088C17.4931 11.481 16.4587 16.4657 16.5047 20.2938C9.27541 23.6864 7.72427 27.701 8.77632 30.6218C8.80282 30.7039 8.83551 30.7808 8.86731 30.8586C9.32057 31.9415 10.1852 32.8001 11.2711 33.2457C12.357 33.6913 13.5754 33.6875 14.6585 33.2351C15.7412 32.7818 16.5997 31.9171 17.0452 30.831C17.4908 29.7449 17.487 28.5263 17.0347 27.443C16.9523 27.2506 16.857 27.0641 16.7493 26.8846C16.9764 26.7344 17.2211 26.586 17.4843 26.4314C18.2908 29.2303 19.4842 31.5936 20.8763 33.5709C21.3798 34.3192 21.924 35.0401 22.5176 35.7345C20.0416 36.8186 16.9216 37.4538 14.0322 36.8636C11.2391 36.2929 8.77632 34.4694 7.51138 31.6563C7.26906 31.1047 7.08663 30.5286 6.96724 29.938C6.89266 29.4307 6.83668 28.9209 6.79941 28.4095C6.15457 18.9156 12.042 10.465 20.6131 7.45321ZM28.8758 47.6731C23.2392 48.0583 17.9692 46.1358 13.9871 42.715C19.0125 43.4005 23.847 41.8032 27.1401 39.8489C33.6927 44.4165 37.9469 43.7539 39.9512 41.3818C40.3438 40.9239 40.6388 40.3907 40.818 39.8147C40.9971 39.2387 41.0567 38.6322 40.993 38.0323C40.9293 37.4325 40.7437 36.852 40.4476 36.3265C40.1515 35.801 39.7511 35.3416 39.271 34.9765C38.8086 34.6239 38.2812 34.3659 37.7191 34.2173C37.1569 34.0687 36.571 34.0323 35.9948 34.1102C35.4186 34.1882 34.8634 34.3789 34.3609 34.6716C33.8584 34.9642 33.4186 35.353 33.0664 35.8158C32.9401 35.9837 32.8261 36.1657 32.7263 36.3468C32.486 36.224 32.2316 36.0879 31.9737 35.9386C33.82 34.0334 35.3331 31.8315 36.4496 29.4247C36.8493 28.61 37.2006 27.7725 37.5017 26.9164C39.6791 28.5226 41.792 30.9036 42.7266 33.7016C43.6294 36.4051 43.284 39.4531 41.4793 41.9534C41.1228 42.4385 40.7153 42.8839 40.2639 43.2821L40.2462 43.2998C36.985 45.869 33.0233 47.3919 28.8811 47.6687L28.8758 47.6731Z" fill="#352610"/>
</g>
<defs>
<clipPath id="clip0_358_7088">
<rect width="53" height="53" fill="white" transform="translate(0.5 0.5)"/>
</clipPath>
</defs>
</svg>
