<svg width="139" height="36" viewBox="0 0 139 36" fill="none" xmlns="http://www.w3.org/2000/svg">
<g clip-path="url(#clip0_61_677)">
<path fill-rule="evenodd" clip-rule="evenodd" d="M93.4931 -0.019997L83.7925 0.000212598V28.7787L93.2708 28.7854L93.7183 28.7858C94.9672 28.7871 96.2161 28.7883 97.465 28.7889L97.5797 28.7889C98.0214 28.7889 98.4631 28.789 98.9048 28.7896C99.4139 28.7903 99.9229 28.791 100.432 28.7909L101.009 28.7909C101.084 28.7911 101.16 28.7913 101.235 28.7915C102.718 28.7955 104.22 28.7997 105.683 28.5465L105.949 28.4957C107.646 28.1761 109.396 27.7719 110.922 26.94L111.278 26.7308C112.184 26.2067 113.059 25.6763 113.818 24.9477L114.08 24.6828C114.186 24.5779 114.293 24.4728 114.399 24.3675C116.976 21.7482 117.862 18.1085 117.872 14.5281L117.873 14.2951C117.875 13.0463 117.826 11.8479 117.571 10.6225L117.502 10.3071C117.328 9.50866 117.139 8.76169 116.792 8.01963L116.667 7.76069C116.169 6.48392 115.399 5.36391 114.437 4.39243C110.366 0.425658 104.977 -0.0567553 99.5721 -0.0339256C99.1699 -0.0321462 98.7677 -0.0309475 98.3655 -0.0306494C97.7826 -0.0303781 97.7826 -0.0303781 96.5422 -0.0289176L93.4931 -0.019997ZM96.127 5.14693L90.2595 5.17388V23.605L96.2483 23.6118L96.5317 23.6122C97.3212 23.6135 98.1107 23.6147 98.9002 23.6152L99.617 23.6155C100.003 23.6164 100.389 23.6172 100.775 23.6173L101.138 23.6173C101.186 23.6174 101.235 23.6177 101.284 23.6179C101.78 23.6203 102.272 23.6228 102.765 23.5531L103.086 23.4972C105.355 23.1599 107.462 22.6452 109.182 21.0249C110.71 19.3456 111.342 17.076 111.331 14.8473C111.328 14.6075 111.325 14.368 111.326 14.1282C111.333 12.872 111.191 11.7126 110.808 10.5075C110.146 8.73132 109.08 7.3506 107.353 6.48919L107.074 6.35951C104.813 5.2556 102.276 5.10683 99.7996 5.12836C99.5572 5.13059 99.3148 5.13208 99.0724 5.13273C98.9584 5.13285 98.8809 5.13293 98.8034 5.13304C98.6391 5.13329 98.4749 5.13372 97.9625 5.13504L96.127 5.14693Z" fill="#352610"/>
<path opacity="0.6" d="M0.90625 33.8442C46.4344 33.8442 91.9625 33.8442 138.87 33.8442C138.87 34.5556 138.87 35.267 138.87 35.9999C93.3422 35.9999 47.814 35.9999 0.90625 35.9999C0.90625 35.2885 0.90625 34.5772 0.90625 33.8442Z" fill="#352610"/>
<path fill-rule="evenodd" clip-rule="evenodd" d="M40.1398 0H33.1338C33.1338 0.0907873 33.1338 0.143339 33.1439 0.193887C33.1577 0.263363 33.1905 0.329053 33.2685 0.48503C33.3706 0.689131 33.4703 0.894856 33.5557 1.10647C33.7003 1.48051 33.8446 1.85059 34.0205 2.21126C34.25 2.65893 34.4666 3.10134 34.6495 3.57036C34.7741 3.8906 34.9045 4.20055 35.0604 4.50674C35.4005 5.20601 35.5705 5.55568 35.7339 5.90846C35.8972 6.26133 36.0539 6.61731 36.3673 7.32934C36.5678 7.78297 36.7689 8.23588 36.9782 8.68549C37.2506 9.26456 37.5037 9.84208 37.7281 10.4416C37.8583 10.8026 37.9953 11.1214 38.1858 11.4555C38.4072 11.8321 38.5909 12.2202 38.7707 12.6181L38.8935 12.8937C39.1781 13.5279 39.4505 14.1629 39.6952 14.8136C39.8078 15.1269 39.9176 15.402 40.0876 15.6885C40.1726 15.8213 40.2134 15.885 40.2475 15.952C40.279 16.0138 40.3048 16.0784 40.3545 16.2026C40.4939 16.5758 40.6365 16.9432 40.8109 17.3015C40.8231 17.3252 40.8353 17.3489 40.8474 17.3726C41.0176 17.7037 41.1866 18.0325 41.3288 18.3772L41.3454 18.4202C41.481 18.7703 41.6154 19.1171 41.7801 19.4551C41.7964 19.4868 41.8127 19.5185 41.8289 19.5502C41.9939 19.8714 42.1578 20.1906 42.295 20.5254C42.4883 21.0274 42.6975 21.5084 42.9422 21.988C43.1435 22.3825 43.3279 22.7741 43.4878 23.1871C43.629 23.5537 43.787 23.9019 43.9661 24.2515C44.1016 24.5159 44.2302 24.7773 44.3429 25.0523C44.4887 25.4309 44.6344 25.8029 44.8145 26.1668C44.9406 26.4148 45.0036 26.5388 45.066 26.6632C45.1283 26.7876 45.19 26.9123 45.3134 27.1617L45.9601 28.7784H56.0919L56.1997 28.1317H56.4152C56.4829 27.7703 56.6283 27.4559 56.7849 27.1248C57.0091 26.6575 57.2314 26.1904 57.4371 25.7146C57.5928 25.3483 57.753 24.9844 57.9147 24.6207L58.1345 24.1273L58.2438 23.8818C58.317 23.7177 58.3901 23.5535 58.4631 23.3892C58.6977 22.8528 58.9378 22.3233 59.2059 21.8028C59.5721 21.0929 59.8967 20.3776 60.187 19.6336C60.4631 18.9229 60.7668 18.2385 61.1112 17.5582C61.3588 17.0695 61.6046 16.5841 61.8044 16.0734C62.2061 15.0308 62.6595 14.0109 63.1652 13.015C63.4009 12.5515 63.62 12.0876 63.8187 11.607C64.1187 10.8682 64.4446 10.1432 64.7753 9.41766C64.8632 9.22472 64.9508 9.03162 65.038 8.83832C65.2422 8.35876 65.4525 7.88329 65.6712 7.41018C65.7049 7.3375 65.7386 7.26483 65.7723 7.19216C66.0911 6.50439 66.41 5.81659 66.7086 5.11976C66.8482 4.79419 66.9927 4.47189 67.1398 4.1497L67.1484 4.13079C67.268 3.8692 67.3874 3.60786 67.5006 3.34342C67.6042 3.09602 67.7086 2.85016 67.829 2.6104C68.2628 1.76696 68.6183 0.899704 68.9182 0H61.9122C61.7497 0.487637 61.5773 0.964915 61.3868 1.44162L61.3072 1.64455C61.1363 2.07304 60.9435 2.48404 60.7343 2.89508C60.5366 3.29002 60.3531 3.69164 60.1696 4.09334C60.1487 4.13907 60.1278 4.18481 60.1068 4.23054L59.9549 4.56231C59.4482 5.67259 58.9536 6.78822 58.4596 7.90417C57.9387 9.08071 57.4113 10.2536 56.8664 11.4193L56.7323 11.7081L56.6167 11.9548C56.3466 12.603 56.1059 13.1484 55.8018 13.8111C55.6222 14.204 55.4495 14.5997 55.2768 14.9955L55.1811 15.2139C55.0315 15.5559 54.8832 15.8984 54.7378 16.2422C54.6081 16.5409 54.4702 16.8288 54.3202 17.1175C54.0911 17.5694 53.8999 18.0273 53.7168 18.4993C53.6206 18.7354 53.5141 18.9592 53.3973 19.1856C53.2393 19.4923 53.1049 19.8006 52.9796 20.122C52.7249 20.772 52.4296 21.4016 52.1332 22.0333L52.1039 22.0958L51.8946 22.5446C51.7131 22.9341 51.5313 23.3234 51.3494 23.7126H50.7027C50.3739 23.0785 50.1009 22.4369 49.8404 21.7725C49.5496 21.0356 49.229 20.3226 48.8703 19.6168C47.9411 17.7862 47.1371 15.8966 46.3326 14.0056C45.5147 12.083 44.6961 10.159 43.7447 8.29435C43.3078 7.40172 42.8907 6.47194 42.5308 5.54416C42.2366 4.8014 41.888 4.07285 41.5378 3.34093C41.0177 2.2539 40.4941 1.15944 40.1398 0Z" fill="#352610"/>
<path d="M71.7207 0C73.8548 0 75.989 0 78.1878 0C78.1878 9.49689 78.1878 18.9938 78.1878 28.7784C76.0536 28.7784 73.9195 28.7784 71.7207 28.7784C71.7207 19.2816 71.7207 9.78467 71.7207 0Z" fill="#352610"/>
<path fill-rule="evenodd" clip-rule="evenodd" d="M13.8404 0H23.7565C26.3173 5.12152 28.6112 10.361 30.9048 15.6C32.7455 19.8043 34.5861 24.0084 36.5644 28.1511C36.6281 28.3044 36.6596 28.3804 36.6753 28.4595C36.6907 28.5373 36.6907 28.6182 36.6907 28.7784H29.6847C28.7045 26.818 27.8611 24.7974 27.0979 22.7425H10.6068C9.79847 24.7904 8.86944 26.864 7.91224 28.7784H0.90625V28.6707L0.906271 28.6706C1.02611 28.5508 1.07933 28.4976 1.12001 28.4361C1.1525 28.387 1.17701 28.3326 1.22108 28.2347C1.42967 27.6837 1.65158 27.1416 1.89194 26.6037L2.01104 26.3398C2.28238 25.7364 2.56025 25.1382 2.8604 24.5486C3.19234 23.9001 3.49688 23.25 3.76927 22.5741C4.01139 21.9706 4.26596 21.3768 4.54397 20.7889C4.71873 20.4223 4.89069 20.0562 5.05174 19.6833C5.2064 19.3198 5.36496 18.9584 5.5253 18.5974L5.63529 18.3503C5.88035 17.7993 6.12634 17.2487 6.37631 16.6999C6.48857 16.4548 6.60023 16.2095 6.70964 15.9632C6.9604 15.3971 7.21438 14.8325 7.47115 14.2691L7.62257 13.9379C7.9539 13.2125 8.2896 12.4919 8.65326 11.7822C8.8209 11.4649 8.97203 11.1487 9.10097 10.8137C9.45061 9.88007 9.84705 8.97672 10.265 8.07194C10.34 7.90967 10.4148 7.74733 10.4894 7.58491C10.8103 6.88575 11.1318 6.18691 11.4586 5.49053C11.7819 4.80187 12.1001 4.11214 12.3981 3.41205C12.476 3.22757 12.554 3.04316 12.6322 2.85881L12.7503 2.58093C12.861 2.32036 12.9725 2.06045 13.0878 1.80192C13.3561 1.20581 13.5969 0.608701 13.8404 0ZM19.1218 5.06587H18.5829C18.521 5.18808 18.4588 5.31028 18.3966 5.43254C17.9145 6.3798 17.4305 7.33089 17.0482 8.32214C16.816 8.94693 16.568 9.55097 16.2655 10.1452C15.895 10.8702 15.5398 11.5987 15.2357 12.3544L15.2301 12.3687C15.073 12.7686 14.9178 13.1639 14.7229 13.5472C14.6606 13.6684 14.5974 13.7907 14.5336 13.9139C13.9523 15.0376 13.33 16.2404 13.0859 17.4611H24.6188C24.4076 16.7217 24.136 16.0646 23.8106 15.3711C23.3122 14.3134 22.8244 13.2508 22.3554 12.1796C22.2126 11.8383 22.0695 11.4999 21.9036 11.1692C21.6965 10.7637 21.5019 10.3712 21.3449 9.94311C21.2217 9.59554 21.0667 9.27047 20.9001 8.94161C20.5967 8.34738 20.3131 7.75418 20.0729 7.13103C19.8015 6.41955 19.4669 5.74367 19.1218 5.06587Z" fill="#352610"/>
<path d="M0.90625 33.8442C10.9011 33.8442 20.8959 33.8442 31.1937 33.8442C31.1937 34.52 31.1937 35.1959 31.1937 35.8921C21.1988 35.8921 11.204 35.8921 0.90625 35.8921C0.90625 35.2163 0.90625 34.5405 0.90625 33.8442Z" fill="#352610"/>
<path fill-rule="evenodd" clip-rule="evenodd" d="M124.776 3.58638C123.151 3.57525 121.526 3.56579 119.9 3.557V0.10791C121.722 0.112066 123.544 0.1176 125.365 0.126443C126.252 0.130775 127.139 0.134919 128.026 0.136639C128.804 0.138055 129.582 0.140268 130.359 0.144612L130.486 0.145381C130.856 0.147645 131.226 0.149909 131.596 0.150215C131.84 0.150148 132.086 0.146908 132.333 0.143655C134.013 0.121522 135.738 0.0988019 137.173 1.07123C138.133 1.82133 138.631 2.59267 138.817 3.77258C138.822 3.81181 138.833 3.87267 138.844 3.93308C138.85 3.96606 138.856 3.9989 138.861 4.02802L138.87 4.09272C138.861 4.09435 138.853 4.09593 138.87 4.09593C138.881 4.38492 138.887 4.67117 138.888 4.96014L138.889 5.21536C138.891 5.49257 138.892 5.76977 138.892 6.04699L138.893 6.33578C138.895 6.84045 138.896 7.34512 138.896 7.8498C138.897 8.36801 138.9 8.88619 138.903 9.4044C138.905 9.80555 138.905 10.2067 138.905 10.6078C138.906 10.7987 138.907 10.9896 138.908 11.1804C138.919 12.8316 138.793 14.3865 137.646 15.6857C136.295 16.9005 134.85 17.0473 133.116 17.0423L132.682 17.0423C132.292 17.0424 131.902 17.0417 131.512 17.041C131.143 17.0404 130.774 17.0403 130.406 17.0402L130.286 17.0401C129.513 17.0398 128.741 17.0389 127.968 17.0378C127.088 17.0366 126.208 17.036 125.328 17.0355C123.519 17.0344 121.71 17.0324 119.9 17.0301V13.581L121.096 13.5762C122.399 13.5708 123.702 13.5636 125.005 13.5555C125.795 13.5507 126.585 13.5465 127.375 13.5436C128.064 13.5411 128.753 13.5375 129.441 13.5326C129.806 13.53 130.17 13.528 130.535 13.5273C130.943 13.5263 131.35 13.5233 131.757 13.5198L132.122 13.5202C132.895 13.5109 133.477 13.4578 134.063 12.9069C134.391 12.3453 134.346 11.7282 134.236 11.1019C133.995 10.7314 133.704 10.5212 133.282 10.3962C133.043 10.3459 132.829 10.3325 132.585 10.3304L132.306 10.3272L132.002 10.3253L131.68 10.3221C131.329 10.3186 130.978 10.316 130.627 10.3133L129.896 10.3065C129.256 10.3006 128.615 10.2953 127.974 10.2901C127.371 10.2851 126.768 10.2796 126.165 10.2741L126.013 10.2727C124.73 10.2611 123.447 10.2502 122.164 10.2396V6.79053L123.159 6.78748C124.246 6.78384 125.333 6.77785 126.42 6.77071C127.078 6.76646 127.737 6.76299 128.396 6.76132C129.032 6.75969 129.668 6.75597 130.304 6.75083C130.546 6.74924 130.788 6.74838 131.031 6.74829C131.371 6.74804 131.711 6.74512 132.051 6.74159L132.353 6.74323C132.974 6.73329 133.519 6.64559 134.02 6.25161C134.345 5.71745 134.314 5.13271 134.236 4.52706C134.065 4.14222 133.819 3.93679 133.434 3.75872C132.914 3.63143 132.407 3.631 131.877 3.63055L131.77 3.63042L131.381 3.62714C131.03 3.62438 130.68 3.62256 130.329 3.62116C129.998 3.61964 129.667 3.61714 129.336 3.61463L129.229 3.61383C128.535 3.60879 127.841 3.60483 127.147 3.60125C126.357 3.59713 125.566 3.5918 124.776 3.58638ZM138.87 11.2097V5.49713C138.853 5.63855 138.817 5.79666 138.782 5.95249C138.754 6.0746 138.727 6.19532 138.709 6.30552C138.431 7.39479 137.954 8.03007 137.038 8.62288C137.996 9.2504 138.517 9.84194 138.817 10.9402C138.83 10.9924 138.837 11.0345 138.844 11.0764C138.851 11.1178 138.858 11.1591 138.87 11.2097Z" fill="#352610"/>
<path d="M61.5889 15.521C61.6956 15.5921 61.8023 15.6633 61.9122 15.7366C61.8411 15.95 61.7699 16.1634 61.6966 16.3833C61.5899 16.3121 61.4832 16.241 61.3733 16.1677C61.4676 15.6423 61.4676 15.6423 61.5889 15.521Z" fill="#161616"/>
</g>
<defs>
<clipPath id="clip0_61_677">
<rect width="137.964" height="36" fill="white" transform="translate(0.90625)"/>
</clipPath>
</defs>
</svg>
