<svg width="87" height="32" viewBox="0 0 87 32" fill="none" xmlns="http://www.w3.org/2000/svg">
<g clip-path="url(#clip0_6004_9312)">
<path d="M15.1727 3.528C15.2554 3.54134 15.2821 3.648 15.2181 3.70134C14.3807 4.4 14.0741 5.368 13.7434 6.40267C13.1541 8.256 13.1541 10.168 13.7621 12.0053C13.8047 12.1333 13.7007 12.2613 13.5647 12.2453C12.7354 12.1467 11.9727 11.8293 11.2767 11.288C10.6607 10.8053 10.3007 10.136 9.78872 9.55734C9.13539 8.824 8.40472 8.432 7.59406 8.384C7.47939 8.376 7.43139 8.31734 7.45006 8.20534C7.78872 5.94134 8.19939 3.76 8.68472 1.66667C8.80472 1.144 8.99939 0.661336 9.26872 0.221337C9.31406 0.14667 9.39139 0.0933365 9.48206 0.0800032C9.97539 0.0133365 10.4314 0.216003 10.8474 0.688003C12.0847 2.096 13.3647 3.22134 15.1727 3.528Z" fill="#352610"/>
<path d="M0.29538 8.69862V7.96796C0.434046 7.63996 0.79938 6.86129 1.39138 5.63462C1.90605 4.57062 1.82338 3.52796 1.14338 2.51196C1.09005 2.43462 1.08471 2.35196 1.13005 2.26929C1.95671 0.706622 3.59405 0.773289 4.82071 1.82129C5.54338 2.43729 6.55138 2.74396 7.49005 2.66662C7.55138 2.66129 7.60471 2.71729 7.59405 2.77862C7.26071 4.96262 6.88205 7.06662 6.45538 9.09596C6.31405 9.77062 6.91138 10.1946 7.27405 10.64C7.48738 10.904 7.29271 11.296 6.95138 11.2853C6.52471 11.2693 6.13271 11.12 5.77805 10.8346C4.92738 10.1573 4.08738 9.32796 3.08471 8.88796C2.66071 8.70396 2.22071 8.56529 1.76471 8.47196C1.30871 8.38129 0.818046 8.45596 0.29538 8.69862Z" fill="#352610"/>
<path d="M16.603 1.8871L16.5925 1.8852C16.4621 1.8615 16.3372 1.94801 16.3135 2.07842L13.3039 18.6392C13.2802 18.7696 13.3667 18.8945 13.4971 18.9182L13.5076 18.9201C13.638 18.9438 13.7629 18.8573 13.7866 18.7269L16.7962 2.16615C16.8199 2.03574 16.7334 1.9108 16.603 1.8871Z" fill="#352610"/>
<path d="M8.17806 9.45055C8.08472 9.66122 8.03406 9.87722 8.02872 10.0986C8.02339 10.2879 7.94339 10.3279 7.79139 10.2186C7.51139 10.0186 7.31939 9.75455 7.21806 9.42122C7.18606 9.31189 7.22872 9.19455 7.32472 9.13322C7.51406 9.00789 7.73539 8.97855 7.98339 9.04522C8.15939 9.09055 8.25006 9.28255 8.17806 9.45055Z" fill="#352610"/>
<path d="M38.3647 14.92C41.3007 13.2107 45.4127 14.112 47.1674 17.1254C47.2234 17.224 47.202 17.304 47.1034 17.36L45.0394 18.5467C44.946 18.6 44.8687 18.5814 44.8127 18.488C43.2847 15.9974 39.7967 15.96 38.4554 18.688C37.53 20.5734 37.5674 22.44 38.5674 24.2853C39.682 26.336 42.2927 26.7067 44.0314 25.2667C44.3754 24.9813 44.6234 24.6533 44.778 24.2774C44.818 24.1814 44.9327 24.1414 45.0207 24.1947L47.1327 25.432C47.2207 25.4827 47.2447 25.6 47.186 25.6827C45.4714 28.12 43.1434 29.08 40.202 28.56C39.2687 28.3973 38.3834 27.9733 37.546 27.2907C33.7567 24.2053 33.986 17.472 38.3647 14.92Z" fill="#352610"/>
<path d="M17.778 20.8266C18.8634 21.4639 19.5834 22.4879 19.6794 23.7413C19.85 25.9866 19.0607 27.9519 16.6554 28.3546C15.6367 28.5253 14.4394 28.5733 13.0634 28.5013C13.0234 28.4986 13.0047 28.4773 13.0127 28.4373C13.242 27.0479 13.41 26.2079 13.514 25.9146C13.522 25.8906 13.538 25.8826 13.562 25.8853C15.97 26.2399 17.042 25.5439 16.7754 23.7973C16.6394 22.8933 16.098 22.4399 15.1567 22.4373C13.8314 22.4346 12.4954 22.4319 11.154 22.4239C11.0767 22.4239 11.0127 22.4879 11.0127 22.5653C11.0154 23.3866 11.0207 24.2133 11.0314 25.0479C11.0447 26.1653 10.794 27.2533 10.5887 28.3466C10.5674 28.4613 10.498 28.5199 10.3807 28.5199L8.29804 28.5173C8.17804 28.5173 8.1167 28.4559 8.1167 28.3359L8.1087 14.4613C8.1087 14.3546 8.19404 14.2666 8.3007 14.2666L12.8127 14.2693C13.0234 14.2693 13.1114 14.3733 13.0714 14.5813L12.7007 16.5199C12.6607 16.7359 12.53 16.8453 12.3087 16.8479L11.1247 16.8506C11.058 16.8533 11.0047 16.9066 11.0074 16.9706L11.0154 19.6693C11.0154 19.7786 11.1034 19.8639 11.2127 19.8613C12.138 19.8346 13.2554 19.8373 14.562 19.8693C15.5834 19.8933 16.282 19.4159 16.2554 18.2799C16.2367 17.6053 15.962 17.1759 15.4287 16.9919C15.1967 16.9119 15.106 16.7199 15.162 16.4133C15.162 16.4133 15.2607 15.8559 15.4607 14.7386C15.522 14.3866 15.7274 14.2506 16.0767 14.3306C18.058 14.7813 19.0794 15.9893 19.1407 17.9573C19.178 19.1386 18.7247 19.9973 17.778 20.5386C17.6127 20.6319 17.6127 20.7279 17.778 20.8266Z" fill="#352610"/>
<path d="M24.6261 25.4748L23.5061 28.4428C23.4901 28.4881 23.4474 28.5175 23.3994 28.5175L20.4767 28.5361C20.3941 28.5361 20.3381 28.4535 20.3674 28.3788L25.8927 14.3308C25.9114 14.2881 25.9541 14.2588 25.9994 14.2588H28.9754C29.0207 14.2588 29.0634 14.2881 29.0821 14.3308L34.6047 28.3761C34.6341 28.4508 34.5781 28.5335 34.4981 28.5335L31.5807 28.5228C31.5327 28.5228 31.4901 28.4935 31.4741 28.4481L30.3487 25.4748C30.3327 25.4295 30.2901 25.4001 30.2421 25.4001H24.7327C24.6847 25.4001 24.6421 25.4295 24.6261 25.4748ZM29.1887 22.8055C29.2527 22.8055 29.2954 22.7415 29.2741 22.6828L27.5887 18.1841C27.5594 18.1068 27.4474 18.1068 27.4181 18.1841L25.7007 22.6855C25.6767 22.7441 25.7221 22.8081 25.7834 22.8081L29.1887 22.8055Z" fill="#352610"/>
<path d="M55.7567 20.3361L61.1487 28.3921C61.1887 28.4508 61.1461 28.5308 61.0767 28.5308L57.8581 28.5201C57.8287 28.5201 57.7994 28.5041 57.7834 28.4801L53.9301 22.4268C53.9007 22.3761 53.8314 22.3708 53.7914 22.4161L52.1274 24.2801C52.1141 24.2961 52.1061 24.3148 52.1061 24.3388L52.0981 28.4374C52.0981 28.4854 52.0581 28.5254 52.0101 28.5254L49.2927 28.5334C49.2447 28.5334 49.2047 28.4934 49.2047 28.4454L49.2021 14.3468C49.2021 14.2988 49.2421 14.2588 49.2901 14.2588L52.0154 14.2534C52.0634 14.2534 52.1034 14.2934 52.1034 14.3414L52.1007 20.0881C52.1007 20.1681 52.2021 20.2054 52.2554 20.1441L57.3327 14.2881C57.3487 14.2694 57.3727 14.2588 57.3994 14.2588H60.9194C60.9967 14.2588 61.0367 14.3494 60.9861 14.4054L55.7647 20.2294C55.7381 20.2588 55.7354 20.3041 55.7567 20.3361Z" fill="#352610"/>
<path d="M65.7434 19.8001L71.1674 19.7947C71.2314 19.7947 71.2847 19.8481 71.2847 19.9121L71.29 22.2587C71.29 22.3227 71.2367 22.3761 71.1727 22.3761L65.738 22.3627C65.674 22.3627 65.6207 22.4161 65.6207 22.4801L65.6287 25.8321C65.6287 25.8961 65.682 25.9494 65.746 25.9494L72.6074 25.9441C72.6714 25.9441 72.7247 25.9974 72.7247 26.0614L72.722 28.4107C72.722 28.4747 72.6687 28.5281 72.6047 28.5281L62.842 28.5254C62.778 28.5254 62.7247 28.4721 62.7247 28.4081L62.722 14.3681C62.722 14.3041 62.7754 14.2507 62.8394 14.2507L72.5167 14.2747C72.5807 14.2747 72.634 14.3281 72.634 14.3921L72.6287 16.7147C72.6287 16.7787 72.5754 16.8321 72.5114 16.8321L65.7354 16.8401C65.6714 16.8401 65.618 16.8934 65.618 16.9574L65.626 19.6827C65.626 19.7467 65.6794 19.8001 65.7434 19.8001Z" fill="#352610"/>
<path d="M86.962 20.4773V22.2959C86.4314 25.3626 84.8954 27.3146 82.3487 28.1546C81.4314 28.4559 80.3434 28.5866 79.0874 28.5466C77.7407 28.5013 76.4767 28.5013 75.2954 28.5466C75.194 28.5519 75.1114 28.4693 75.1114 28.3679L75.1087 14.4586C75.1087 14.3573 75.1887 14.2746 75.29 14.2719C77.2447 14.2399 79.0047 14.2426 80.57 14.2773C83.9727 14.3546 86.506 17.1386 86.962 20.4773ZM78.0207 16.9386V25.8453C78.0207 25.9146 78.0767 25.9706 78.146 25.9706H79.946C82.226 25.9706 84.074 24.0319 84.074 21.6399V21.1439C84.074 18.7519 82.226 16.8133 79.946 16.8133H78.146C78.0767 16.8133 78.0207 16.8693 78.0207 16.9386Z" fill="#352610"/>
<path d="M11.3807 31.9999C11.2394 31.9999 11.0954 31.9999 10.9514 31.9999L12.4101 23.5359C12.4287 23.4346 12.4874 23.3732 12.5887 23.3546C12.6581 23.3412 12.7247 23.3466 12.7914 23.3652C12.9007 23.3999 12.9434 23.4719 12.9247 23.5839L11.3807 31.9999Z" fill="#352610"/>
</g>
<defs>
<clipPath id="clip0_6004_9312">
<rect width="86.6667" height="32" fill="white" transform="translate(0.29538)"/>
</clipPath>
</defs>
</svg>
