<svg width="148" height="32" viewBox="0 0 148 32" fill="none" xmlns="http://www.w3.org/2000/svg">
<g clip-path="url(#clip0_61_132)">
<path d="M119.235 0.126184C115.246 0.730909 113.193 3.14981 113.522 6.82855C113.627 7.9624 114.233 9.13406 115.101 9.86477C116.234 10.8096 117.353 11.238 121.921 12.4852C124.067 13.0648 124.962 13.8081 124.962 14.9923C124.949 16.5419 123 17.4364 120.354 17.1215C118.972 16.9577 117.919 16.4411 117.01 15.4837L116.299 14.7278L114.706 15.8868C113.824 16.5293 113.114 17.0963 113.114 17.1467C113.114 17.1971 113.35 17.5246 113.64 17.8774C114.667 19.1246 116.115 19.9813 117.998 20.4852C118.669 20.6742 119.34 20.7246 121.276 20.7246C123.474 20.7246 123.803 20.6994 124.698 20.4222C126.568 19.8679 127.582 19.2002 128.398 17.9908C129.49 16.3656 129.622 13.5687 128.687 11.7923C127.898 10.3057 126.37 9.39863 123.185 8.55453C119.09 7.45847 118.485 7.2317 118.103 6.62697C117.8 6.14823 117.787 5.40492 118.063 4.838C118.221 4.53563 118.485 4.32146 119.024 4.06949C119.683 3.75453 119.907 3.71674 121.078 3.71674C121.802 3.71674 122.645 3.79233 122.934 3.88051C123.632 4.06949 124.659 4.8002 125.159 5.43012C125.37 5.70729 125.581 5.92146 125.633 5.92146C125.752 5.92146 128.78 3.66634 128.78 3.56555C128.78 3.33878 128.134 2.57028 127.503 2.02855C125.975 0.71831 124.225 0.138783 121.605 0.0631921C120.736 0.0379953 119.67 0.0631921 119.235 0.126184Z" fill="#352610"/>
<path d="M137.798 0.126184C133.809 0.730909 131.755 3.14981 132.084 6.82855C132.19 7.9624 132.795 9.13406 133.664 9.86477C134.796 10.8096 135.915 11.238 140.483 12.4852C142.629 13.0648 143.525 13.8081 143.525 14.9923C143.511 16.5419 141.563 17.4364 138.917 17.1215C137.535 16.9577 136.481 16.4411 135.573 15.4837L134.862 14.7278L133.269 15.8868C132.387 16.5293 131.676 17.0963 131.676 17.1467C131.676 17.1971 131.913 17.5246 132.203 17.8774C133.23 19.1246 134.678 19.9813 136.56 20.4852C137.232 20.6742 137.903 20.7246 139.838 20.7246C142.037 20.7246 142.366 20.6994 143.261 20.4222C145.131 19.8679 146.144 19.2002 146.961 17.9908C148.053 16.3656 148.185 13.5687 147.25 11.7923C146.46 10.3057 144.933 9.39863 141.747 8.55453C137.653 7.45847 137.047 7.2317 136.666 6.62697C136.363 6.14823 136.35 5.40492 136.626 4.838C136.784 4.53563 137.047 4.32146 137.587 4.06949C138.245 3.75453 138.469 3.71674 139.641 3.71674C140.365 3.71674 141.208 3.79233 141.497 3.88051C142.195 4.06949 143.222 4.8002 143.722 5.43012C143.933 5.70729 144.143 5.92146 144.196 5.92146C144.314 5.92146 147.342 3.66634 147.342 3.56555C147.342 3.33878 146.697 2.57028 146.065 2.02855C144.538 0.71831 142.787 0.138783 140.168 0.0631921C139.299 0.0379953 138.232 0.0631921 137.798 0.126184Z" fill="#352610"/>
<path d="M1.08228 10.3939V20.4097H5.59778C10.4819 20.4097 11.7984 20.2963 13.3255 19.7545C15.0237 19.1624 16.1032 18.2427 16.6693 16.9451C17.2354 15.6475 17.1828 13.4049 16.5377 12.1955C15.9189 11.0112 14.6025 10.1419 12.9437 9.81439L12.2065 9.67581L13.0095 9.39864C14.8921 8.74352 15.7873 7.53408 15.9189 5.49313C16.0769 3.08683 15.0632 1.62541 12.7331 0.9325C11.2981 0.516752 9.86316 0.415964 5.13702 0.390767L1.08228 0.365571V10.3939ZM10.653 4.38447C11.3244 4.72463 11.6141 5.20337 11.6141 5.98447C11.6141 7.15612 11.0743 7.77345 9.78417 8.06321C9.17859 8.18919 5.90057 8.31518 5.59778 8.21439C5.46613 8.1766 5.42664 7.63486 5.42664 6.08526V4.00652L7.76996 4.05691C9.87632 4.0947 10.1528 4.1325 10.653 4.38447ZM10.4292 11.9813C11.3903 12.1325 11.93 12.3845 12.3118 12.8758C12.8252 13.5309 12.8252 15.0553 12.325 15.7231C12.1802 15.912 11.772 16.2018 11.4034 16.3782C10.7979 16.6679 10.6135 16.6931 8.09908 16.7309L5.42664 16.7813V14.312V11.8427H7.50667C8.63884 11.8427 9.95531 11.9057 10.4292 11.9813Z" fill="#352610"/>
<path d="M25.5423 0.718329C25.4764 0.919904 23.9098 5.40494 22.0799 10.7089L18.7361 20.3467L20.7371 20.3845C21.8298 20.3971 22.7908 20.3971 22.8698 20.3593C22.9488 20.3341 23.3042 19.427 23.6597 18.3435L24.3048 16.3782H28.3332H32.3484L33.0462 18.3939L33.7439 20.4097H35.9161C37.1009 20.4097 38.0751 20.3719 38.0619 20.3089C38.0619 20.2585 36.5085 15.7734 34.6128 10.3309L31.1636 0.441164L28.4253 0.403369L25.6739 0.378172L25.5423 0.718329ZM29.7155 8.59235C30.4264 10.6963 31.032 12.4853 31.0583 12.5608C31.1109 12.6868 30.5185 12.7246 28.3332 12.7246C26.082 12.7246 25.5554 12.6868 25.6081 12.5608C25.6476 12.4727 26.2532 10.6837 26.964 8.59235C27.6749 6.50101 28.2937 4.78762 28.3332 4.78762C28.3858 4.78762 29.0046 6.50101 29.7155 8.59235Z" fill="#352610"/>
<path d="M40.7078 10.3939V20.4097H42.8141H44.9205L44.9468 13.3671L44.9863 6.32463L48.7383 13.3671L52.4902 20.4097H55.031H57.5586L57.5323 10.4191L57.4928 0.441161L55.4259 0.403366L53.3459 0.365571L53.3196 7.08053L53.2801 13.7955L49.7519 7.08053L46.237 0.378169H43.4724H40.7078V10.3939Z" fill="#352610"/>
<path d="M62.0345 10.3939V20.4097H64.2067H66.3789V16.8947V13.3797L66.9845 12.7372L67.5769 12.1073L70.46 16.2522L73.3562 20.4097H76.0023H78.6484L78.451 20.1199C78.3457 19.9687 76.4763 17.4112 74.2909 14.438L70.3283 9.02069L70.6311 8.70573C70.8813 8.44116 77.2662 1.37345 77.9376 0.592345C78.1219 0.39077 78.0034 0.378172 75.6469 0.378172L73.1588 0.39077L69.8017 4.23329L66.4447 8.06321L66.3789 4.25849L66.3131 0.441164L64.1804 0.403369L62.0345 0.378172V10.3939Z" fill="#352610"/>
<path d="M81.3864 10.3939V20.4097H87.9029H94.4194V18.5199V16.6301H90.0751H85.7307L85.7044 8.52935L85.6649 0.441164L83.5322 0.403369L81.3864 0.378172V10.3939Z" fill="#352610"/>
<path d="M97.0535 10.3939V20.4097H103.833H110.613V18.5199V16.6301H106.005H101.398V14.2616V11.8931H105.281L109.165 11.9057V10.1042V8.31518H105.281H101.398V6.17345V4.03172H106.005H110.613V2.20494V0.378172H103.833H97.0535V10.3939Z" fill="#352610"/>
<path d="M1.00269 28.1323C0.976356 28.2205 0.963191 29.115 0.976356 30.1102L1.01585 31.937H73.3561H145.696V29.9843V28.0315L73.3824 27.9937C14.2332 27.9685 1.05534 27.9937 1.00269 28.1323Z" fill="#352610"/>
</g>
<defs>
<clipPath id="clip0_61_132">
<rect width="146.919" height="32" fill="white" transform="translate(0.951172)"/>
</clipPath>
</defs>
</svg>
