<svg width="101" height="51" viewBox="0 0 101 51" fill="none" xmlns="http://www.w3.org/2000/svg">
<path d="M2.50194 45.3457C3.01129 45.3457 3.40912 45.4555 3.69375 45.6752C3.97839 45.895 4.11988 46.2162 4.11988 46.639C4.11988 46.9536 4.03166 47.1983 3.85521 47.3748C3.67877 47.5512 3.45739 47.6744 3.19272 47.7443C3.3442 47.7709 3.48569 47.8192 3.61553 47.8858C3.74536 47.954 3.86021 48.0422 3.95676 48.1504C4.05497 48.2586 4.13153 48.3885 4.18812 48.5366C4.24472 48.6864 4.27302 48.8529 4.27302 49.036C4.27302 49.2474 4.22642 49.4405 4.13487 49.6169C4.04332 49.7934 3.91514 49.9432 3.75201 50.068C3.58888 50.1929 3.39746 50.2911 3.17441 50.361C2.95136 50.4309 2.70833 50.4658 2.442 50.4658H0.962219V45.344H2.4986L2.50194 45.3457ZM1.71293 47.483H2.32216C2.45699 47.483 2.58848 47.4713 2.71166 47.4497C2.8365 47.428 2.94637 47.3881 3.04125 47.3281C3.13613 47.2682 3.2127 47.1883 3.26929 47.0884C3.32589 46.9886 3.35419 46.8571 3.35419 46.6939C3.35419 46.4343 3.26596 46.2445 3.08952 46.1247C2.91308 46.0048 2.67838 45.9466 2.38708 45.9466H1.71293V47.483ZM1.71293 49.8649H2.36377C2.51525 49.8649 2.6584 49.85 2.79489 49.82C2.92972 49.79 3.04957 49.7401 3.15277 49.6702C3.25598 49.6003 3.3392 49.5071 3.40079 49.3889C3.46238 49.2724 3.49401 49.1309 3.49401 48.9627C3.49401 48.7946 3.45739 48.6548 3.38415 48.5433C3.31091 48.4318 3.21436 48.3419 3.09617 48.2703C2.97633 48.2004 2.8415 48.1504 2.69002 48.1205C2.53855 48.0905 2.38707 48.0755 2.23393 48.0755H1.71293V49.8649Z" fill="#352610"/>
<path d="M5.33002 45.3457H6.0774V49.8334H8.26463V50.4676H5.33002V45.3457Z" fill="#352610"/>
<path d="M11.0711 45.2725C11.4173 45.2725 11.7369 45.3274 12.0299 45.4389C12.3228 45.5504 12.5758 45.7152 12.7906 45.935C13.0053 46.1547 13.1718 46.4277 13.2899 46.7556C13.4098 47.0835 13.468 47.4664 13.468 47.9058C13.468 48.3452 13.4064 48.7114 13.2816 49.0394C13.1568 49.3673 12.9853 49.6419 12.7689 49.865C12.5525 50.088 12.2962 50.2545 11.9999 50.3693C11.7036 50.4825 11.384 50.5408 11.0361 50.5408C10.6882 50.5408 10.3703 50.4859 10.0773 50.3743C9.78437 50.2628 9.53136 50.098 9.31664 49.8783C9.10191 49.6586 8.93545 49.3856 8.81727 49.0577C8.69742 48.7297 8.63916 48.3469 8.63916 47.9075C8.63916 47.468 8.70075 47.1018 8.82559 46.7739C8.95043 46.446 9.12021 46.1713 9.33827 45.9483C9.55466 45.7269 9.81101 45.5588 10.1073 45.4439C10.4019 45.3307 10.7232 45.2725 11.0711 45.2725ZM9.45312 47.9058C9.45312 48.252 9.49474 48.5533 9.57963 48.808C9.66286 49.0627 9.77938 49.2741 9.92586 49.4422C10.0723 49.6103 10.2438 49.7351 10.4419 49.8167C10.64 49.8983 10.8497 49.9382 11.0727 49.9382C11.2958 49.9382 11.5022 49.8983 11.6953 49.8167C11.8884 49.7351 12.0565 49.6103 12.1996 49.4422C12.3428 49.2741 12.456 49.0627 12.5376 48.808C12.6191 48.5533 12.6591 48.252 12.6591 47.9058C12.6591 47.5596 12.6174 47.2416 12.5326 46.987C12.4477 46.7323 12.3328 46.5225 12.1863 46.3561C12.0399 46.1913 11.8684 46.0681 11.6703 45.9899C11.4722 45.9117 11.2625 45.8717 11.0395 45.8717C10.8164 45.8717 10.6083 45.9117 10.4136 45.9932C10.2188 46.0748 10.0507 46.1996 9.90922 46.3677C9.76773 46.5359 9.65787 46.7473 9.57631 47.0019C9.49474 47.2566 9.45479 47.5579 9.45479 47.9041L9.45312 47.9058Z" fill="#352610"/>
<path d="M16.7306 49.9232C17.0019 49.9232 17.225 49.9016 17.4014 49.8583C17.5778 49.815 17.7526 49.7534 17.9257 49.6718L18.0972 50.2727C17.9074 50.3643 17.6994 50.4326 17.4746 50.4758C17.2499 50.5191 16.9753 50.5407 16.649 50.5407C16.3228 50.5407 15.9949 50.4841 15.6986 50.3693C15.4006 50.2561 15.1409 50.088 14.9229 49.8649C14.7032 49.6436 14.53 49.3672 14.4019 49.0393C14.2737 48.7114 14.2104 48.3335 14.2104 47.9058C14.2104 47.478 14.272 47.1151 14.3969 46.7872C14.5217 46.4592 14.6932 46.1829 14.9129 45.9582C15.1326 45.7335 15.3939 45.562 15.6969 45.4455C15.9998 45.329 16.3311 45.2708 16.689 45.2708C17.0252 45.2708 17.3015 45.2974 17.5179 45.3523C17.7343 45.4072 17.9357 45.4805 18.1188 45.572L17.9407 46.158C17.8375 46.1147 17.741 46.0747 17.6528 46.0398C17.5629 46.0048 17.4746 45.9765 17.3848 45.9549C17.2949 45.9332 17.2033 45.9166 17.1085 45.9066C17.0136 45.8966 16.907 45.89 16.7872 45.89C16.5492 45.89 16.3228 45.9266 16.108 45.9998C15.8933 46.0731 15.7069 46.1913 15.5471 46.3527C15.3873 46.5158 15.2591 46.7256 15.1642 46.9836C15.0694 47.2416 15.0228 47.5512 15.0228 47.9141C15.0228 48.2769 15.0694 48.5949 15.1609 48.8496C15.2525 49.1042 15.3756 49.3106 15.5304 49.4671C15.6852 49.6252 15.865 49.7401 16.0714 49.8133C16.2778 49.8866 16.4976 49.9232 16.7306 49.9232Z" fill="#352610"/>
<path d="M19.0393 50.4676V45.3457H19.7867V47.6628L21.9406 45.3457H22.8678L20.7538 47.6145L23.0309 50.4676H22.0871L20.2178 48.1255L19.7867 48.5883V50.4659H19.0393V50.4676Z" fill="#352610"/>
<path d="M25.7142 49.9232C25.9855 49.9232 26.2086 49.9016 26.385 49.8583C26.5615 49.815 26.7362 49.7534 26.9093 49.6718L27.0808 50.2727C26.891 50.3643 26.683 50.4326 26.4583 50.4758C26.2335 50.5191 25.9589 50.5407 25.6326 50.5407C25.3064 50.5407 24.9785 50.4841 24.6822 50.3693C24.3842 50.2561 24.1245 50.088 23.9065 49.8649C23.6868 49.6436 23.5137 49.3672 23.3855 49.0393C23.2573 48.7114 23.1941 48.3335 23.1941 47.9058C23.1941 47.478 23.2556 47.1151 23.3805 46.7872C23.5053 46.4592 23.6768 46.1829 23.8965 45.9582C24.1162 45.7335 24.3776 45.562 24.6805 45.4455C24.9835 45.329 25.3147 45.2708 25.6726 45.2708C26.0088 45.2708 26.2851 45.2974 26.5015 45.3523C26.7179 45.4072 26.9193 45.4805 27.1024 45.572L26.9243 46.158C26.8211 46.1147 26.7246 46.0747 26.6364 46.0398C26.5465 46.0048 26.4583 45.9765 26.3684 45.9549C26.2785 45.9332 26.1869 45.9166 26.0921 45.9066C25.9972 45.8966 25.8906 45.89 25.7708 45.89C25.5328 45.89 25.3064 45.9266 25.0917 45.9998C24.8769 46.0731 24.6905 46.1913 24.5307 46.3527C24.3709 46.5158 24.2427 46.7256 24.1478 46.9836C24.053 47.2416 24.0064 47.5512 24.0064 47.9141C24.0064 48.2769 24.053 48.5949 24.1445 48.8496C24.2361 49.1042 24.3593 49.3106 24.5141 49.4671C24.6689 49.6252 24.8486 49.7401 25.055 49.8133C25.2614 49.8866 25.4812 49.9232 25.7142 49.9232Z" fill="#352610"/>
<path d="M27.9414 50.4676V45.3457H28.6888V47.4996H31.119V45.3457H31.8664V50.4676H31.119V48.1338H28.6888V50.4676H27.9414Z" fill="#352610"/>
<path d="M34.5929 45.3457H35.2588L37.2995 50.4676H36.5188L35.9579 49.0443H33.8522L33.2996 50.4676H32.5272L34.5929 45.3457ZM34.0553 48.4501H35.7382L35.3969 47.5646C35.3054 47.3315 35.2205 47.1068 35.1456 46.8904C35.069 46.674 34.9941 46.451 34.9175 46.2229H34.9009C34.8243 46.451 34.7461 46.6707 34.6645 46.8821C34.583 47.0935 34.4964 47.3215 34.4048 47.5646L34.0553 48.4501Z" fill="#352610"/>
<path d="M38.7077 45.3457V50.4676H37.9603V45.3457H38.7077Z" fill="#352610"/>
<path d="M39.9994 45.3457H40.6503L42.984 48.5899C43.0705 48.7097 43.1554 48.8312 43.2353 48.9561C43.3169 49.0809 43.3901 49.2024 43.455 49.3223H43.4717C43.46 49.1325 43.4534 48.9428 43.4467 48.753C43.4417 48.5632 43.4384 48.3735 43.4384 48.1837V45.3457H44.1708V50.4675H43.52L41.2112 47.2632C41.1297 47.15 41.0464 47.0202 40.9599 46.8771C40.8733 46.7339 40.7918 46.5908 40.7169 46.4509H40.7002C40.7118 46.679 40.7185 46.9053 40.7252 47.1334C40.7302 47.3614 40.7335 47.5895 40.7335 47.8159V50.4658H40.0011V45.344L39.9994 45.3457Z" fill="#352610"/>
<path d="M48.8049 45.3457C49.3143 45.3457 49.7121 45.4555 49.9968 45.6752C50.2814 45.895 50.4229 46.2162 50.4229 46.639C50.4229 46.9536 50.3347 47.1983 50.1582 47.3748C49.9818 47.5512 49.7604 47.6744 49.4957 47.7443C49.6472 47.7709 49.7887 47.8192 49.9185 47.8858C50.0484 47.954 50.1632 48.0422 50.2598 48.1504C50.358 48.2586 50.4345 48.3885 50.4911 48.5366C50.5477 48.6864 50.576 48.8529 50.576 49.036C50.576 49.2474 50.5294 49.4405 50.4379 49.6169C50.3463 49.7934 50.2182 49.9432 50.055 50.068C49.8919 50.1929 49.7005 50.2911 49.4774 50.361C49.2544 50.4309 49.0114 50.4658 48.745 50.4658H47.2652V45.344H48.8016L48.8049 45.3457ZM48.0159 47.483H48.6252C48.76 47.483 48.8915 47.4713 49.0147 47.4497C49.1395 47.428 49.2494 47.3881 49.3443 47.3281C49.4391 47.2682 49.5157 47.1883 49.5723 47.0884C49.6289 46.9886 49.6572 46.8571 49.6572 46.6939C49.6572 46.4343 49.569 46.2445 49.3925 46.1247C49.2161 46.0048 48.9814 45.9466 48.6901 45.9466H48.0159V47.483ZM48.0159 49.8649H48.6668C48.8183 49.8649 48.9614 49.85 49.0979 49.82C49.2327 49.79 49.3526 49.7401 49.4558 49.6702C49.559 49.6003 49.6422 49.5071 49.7038 49.3889C49.7654 49.2724 49.797 49.1309 49.797 48.9627C49.797 48.7946 49.7604 48.6548 49.6872 48.5433C49.6139 48.4318 49.5174 48.3419 49.3992 48.2703C49.2793 48.2004 49.1445 48.1504 48.993 48.1205C48.8416 48.0905 48.6901 48.0755 48.537 48.0755H48.0159V49.8649Z" fill="#352610"/>
<path d="M51.5698 45.3457H52.3172V48.4102C52.3172 48.9578 52.4171 49.3473 52.6185 49.5803C52.8182 49.8134 53.1411 49.9299 53.5856 49.9299C54.03 49.9299 54.3463 49.8001 54.5494 49.5404C54.7524 49.2807 54.854 48.9362 54.854 48.5084V45.3457H55.6013V48.4834C55.6013 49.1825 55.4232 49.7002 55.0654 50.0364C54.7075 50.3727 54.2148 50.5408 53.5856 50.5408C52.9564 50.5408 52.457 50.3743 52.1024 50.0414C51.7479 49.7085 51.5698 49.1758 51.5698 48.4434V45.3457Z" fill="#352610"/>
<path d="M57.5855 45.3457V50.4676H56.8381V45.3457H57.5855Z" fill="#352610"/>
<path d="M58.8788 45.3457H59.6262V49.8334H61.8135V50.4676H58.8788V45.3457Z" fill="#352610"/>
<path d="M64.2537 45.3457C64.6166 45.3457 64.9528 45.3973 65.2624 45.5005C65.572 45.6037 65.8384 45.7568 66.0631 45.9599C66.2878 46.163 66.4642 46.4177 66.5907 46.724C66.7173 47.0302 66.7822 47.3865 66.7822 47.7926C66.7822 48.2853 66.7056 48.7031 66.5541 49.0443C66.4027 49.3856 66.1979 49.6619 65.9399 49.8733C65.6819 50.0847 65.3839 50.2362 65.046 50.3294C64.7065 50.4209 64.3486 50.4676 63.9691 50.4676H62.5875V45.3457H64.2537ZM63.3349 49.85H63.8958C64.1555 49.85 64.4102 49.8217 64.6599 49.7651C64.9095 49.7085 65.1309 49.602 65.3224 49.4488C65.5154 49.294 65.6703 49.0843 65.7901 48.818C65.91 48.5516 65.9682 48.2104 65.9682 47.7943C65.9682 47.5013 65.9249 47.2416 65.8384 47.0136C65.7518 46.7855 65.627 46.5941 65.4638 46.441C65.3007 46.2862 65.1043 46.168 64.8746 46.0881C64.6449 46.0065 64.3885 45.9666 64.1056 45.9666H63.3332V49.8533L63.3349 49.85Z" fill="#352610"/>
<path d="M67.8059 45.3457H70.8953V45.9632H68.5533V47.4996H70.6839V48.1088H68.5533V49.8483H70.9186V50.4658H67.8042V45.344L67.8059 45.3457Z" fill="#352610"/>
<path d="M71.8791 45.3457H73.5453C73.81 45.3457 74.0447 45.384 74.2477 45.4589C74.4508 45.5355 74.6206 45.6403 74.7554 45.7752C74.8903 45.91 74.9935 46.0714 75.065 46.2595C75.1349 46.446 75.1699 46.6507 75.1699 46.8738C75.1699 47.0685 75.1399 47.245 75.08 47.4014C75.0201 47.5579 74.9418 47.6961 74.8436 47.8126C74.7454 47.9291 74.6339 48.029 74.5057 48.1139C74.3776 48.1988 74.2494 48.267 74.1196 48.3203L75.4695 50.4676H74.6323L73.4204 48.4601H72.5832V50.4676H71.8757V45.3457H71.8791ZM72.5865 47.8492H73.204C73.3722 47.8492 73.5286 47.8309 73.6718 47.7959C73.8149 47.761 73.9398 47.706 74.0463 47.6328C74.1512 47.5596 74.2361 47.463 74.2977 47.3448C74.3593 47.225 74.3909 47.0818 74.3909 46.9137C74.3909 46.5825 74.2993 46.3394 74.1179 46.1813C73.9365 46.0248 73.6718 45.9449 73.3256 45.9449H72.5865V47.8475V47.8492Z" fill="#352610"/>
<path d="M77.685 45.2725C77.9347 45.2725 78.1761 45.2924 78.4091 45.334C78.6422 45.374 78.8719 45.4489 79.0999 45.5571L78.9218 46.1746C78.6888 46.0665 78.479 45.9882 78.2909 45.9433C78.1045 45.8967 77.9131 45.875 77.7183 45.875C77.4087 45.875 77.1657 45.9433 76.9859 46.0781C76.8078 46.2129 76.7179 46.4027 76.7179 46.6474C76.7179 46.8538 76.7845 47.0186 76.9177 47.1434C77.0508 47.2683 77.2689 47.3765 77.5718 47.468L78.0845 47.6311C78.5506 47.7776 78.8802 47.9774 79.0716 48.2287C79.2647 48.4801 79.3596 48.7647 79.3596 49.0776C79.3596 49.3007 79.3146 49.5021 79.2248 49.6835C79.1349 49.865 79.01 50.0198 78.8502 50.1463C78.6904 50.2745 78.5023 50.371 78.2859 50.4392C78.0695 50.5075 77.8298 50.5408 77.5702 50.5408C77.3105 50.5408 77.0459 50.5175 76.7779 50.4709C76.5099 50.4243 76.2419 50.3394 75.9772 50.2145L76.1553 49.6053C76.3883 49.7185 76.6164 49.8034 76.8378 49.8567C77.0608 49.9116 77.2939 49.9382 77.5369 49.9382C77.8299 49.9382 78.0795 49.87 78.2843 49.7351C78.4907 49.6003 78.5939 49.3989 78.5939 49.1342C78.5939 49.036 78.5789 48.9461 78.5489 48.8612C78.519 48.778 78.4674 48.6981 78.3941 48.6216C78.3209 48.545 78.2227 48.4751 78.0978 48.4101C77.973 48.3452 77.8165 48.2836 77.6268 48.2237L77.1141 48.0606C76.7396 47.9407 76.4533 47.7793 76.2519 47.5729C76.0504 47.3665 75.9506 47.0885 75.9506 46.7356C75.9506 46.2862 76.0987 45.93 76.3933 45.667C76.688 45.404 77.1174 45.2725 77.6817 45.2725H77.685Z" fill="#352610"/>
<path d="M85.1656 45.3457V45.9632H82.9051V47.6211H84.9858V48.2303H82.9051V50.4658H82.1577V45.344H85.1656V45.3457Z" fill="#352610"/>
<path d="M86.0345 45.3457H86.7819V48.4102C86.7819 48.9578 86.8817 49.3473 87.0831 49.5803C87.2829 49.8134 87.6058 49.9299 88.0503 49.9299C88.4947 49.9299 88.811 49.8001 89.014 49.5404C89.2171 49.2807 89.3187 48.9362 89.3187 48.5084V45.3457H90.066V48.4834C90.066 49.1825 89.8879 49.7002 89.5301 50.0364C89.1722 50.3727 88.6795 50.5408 88.0503 50.5408C87.4211 50.5408 86.9217 50.3743 86.5671 50.0414C86.2126 49.7085 86.0345 49.1758 86.0345 48.4434V45.3457Z" fill="#352610"/>
<path d="M91.3028 45.3457H91.9536L94.2874 48.5899C94.3739 48.7097 94.4588 48.8312 94.5387 48.9561C94.6203 49.0809 94.6935 49.2024 94.7584 49.3223H94.7751C94.7651 49.1325 94.7568 48.9428 94.7501 48.753C94.7451 48.5632 94.7418 48.3735 94.7418 48.1837V45.3457H95.4742V50.4675H94.8233L92.5146 47.2632C92.433 47.15 92.3481 47.0202 92.2632 46.8771C92.1767 46.7339 92.0951 46.5908 92.0186 46.4509H92.0019C92.0136 46.679 92.0202 46.9053 92.0269 47.1334C92.0319 47.3614 92.0352 47.5895 92.0352 47.8159V50.4658H91.3028V45.344V45.3457Z" fill="#352610"/>
<path d="M98.4338 45.3457C98.7966 45.3457 99.1329 45.3973 99.4425 45.5005C99.7521 45.6037 100.018 45.7568 100.243 45.9599C100.468 46.163 100.644 46.4177 100.771 46.724C100.899 47.0302 100.962 47.3865 100.962 47.7926C100.962 48.2853 100.886 48.7031 100.734 49.0443C100.583 49.3856 100.378 49.6619 100.12 49.8733C99.862 50.0847 99.564 50.2362 99.2261 50.3294C98.8865 50.4209 98.5286 50.4676 98.1491 50.4676H96.7675V45.3457H98.4338ZM97.5149 49.85H98.0759C98.3356 49.85 98.5902 49.8217 98.8399 49.7651C99.0896 49.7085 99.311 49.602 99.5024 49.4488C99.6955 49.294 99.8503 49.0843 99.9702 48.818C100.09 48.5516 100.148 48.2104 100.148 47.7943C100.148 47.5013 100.105 47.2416 100.018 47.0136C99.9319 46.7855 99.807 46.5941 99.6439 46.441C99.4808 46.2862 99.2844 46.168 99.0546 46.0881C98.8249 46.0065 98.5686 45.9666 98.2856 45.9666H97.5133V49.8533L97.5149 49.85Z" fill="#352610"/>
<path d="M25.0667 21.9387H7.84015V18.598H25.0667C27.3405 18.598 29.1898 16.7486 29.1898 14.4749C29.1898 12.2011 27.3405 10.3518 25.0667 10.3518H7.84015V7.01099H25.0667C29.1831 7.01099 32.5305 10.3601 32.5305 14.4749C32.5305 18.5896 29.1815 21.9387 25.0667 21.9387Z" fill="#352610"/>
<path d="M26.7063 35.0821H7.84015V31.7413H26.7063C29.0483 31.7413 30.9542 29.8354 30.9542 27.4933V26.1883C30.9542 23.8463 29.0483 21.9404 26.7063 21.9404H7.84015V18.5996H26.7063C30.891 18.5996 34.295 22.0036 34.295 26.1883V27.4933C34.295 31.678 30.891 35.0821 26.7063 35.0821Z" fill="#352610"/>
<path d="M54.7974 21.9387H37.5709V18.598H54.7974C57.0712 18.598 58.9205 16.7486 58.9205 14.4749C58.9205 12.2011 57.0712 10.3518 54.7974 10.3518H37.5709V7.01099H54.7974C58.9138 7.01099 62.2612 10.3601 62.2612 14.4749C62.2612 18.5896 58.9122 21.9387 54.7974 21.9387Z" fill="#352610"/>
<path d="M56.4353 35.0821H37.5692V31.7413H56.4353C58.7773 31.7413 60.6832 29.8354 60.6832 27.4933V26.1883C60.6832 23.8463 58.7773 21.9404 56.4353 21.9404H37.5692V18.5996H56.4353C60.62 18.5996 64.024 22.0036 64.024 26.1883V27.4933C64.024 31.678 60.62 35.0821 56.4353 35.0821Z" fill="#352610"/>
<path d="M93.6848 7.01099H67.4247V10.3518H93.6848V7.01099Z" fill="#352610"/>
<path d="M70.7189 35.0654H67.3781V26.6594C67.3781 22.215 70.9935 18.5996 75.4395 18.5996H93.6848V21.9404H75.4395C72.8362 21.9404 70.7189 24.0577 70.7189 26.6594V35.0654Z" fill="#352610"/>
<path d="M11.151 42.0067H0.963867V0.0864258H11.151V3.4272H4.30464V38.6659H11.151V42.0067Z" fill="#352610"/>
<path d="M100.559 42.0067H90.3723V38.6659H97.2186V3.4272H90.3723V0.0864258H100.559V42.0067Z" fill="#352610"/>
</svg>
