<svg width="201" height="23" viewBox="0 0 201 23" fill="none" xmlns="http://www.w3.org/2000/svg">
<path fill-rule="evenodd" clip-rule="evenodd" d="M0.5 0.00732422H10.2144L0.735405 9.6263C0.656983 6.26636 0.511595 3.14546 0.5 0.00732422ZM88.5414 1.27216C89.3418 1.27216 90.2206 1.36585 90.7385 1.50639C91.2093 1.64692 91.8842 1.928 92.2294 2.13099C92.5747 2.31838 93.0769 2.73999 93.3594 3.05229C93.6419 3.34898 94.0028 3.86428 94.1754 4.1922C94.3324 4.52012 94.505 5.03543 94.6619 5.95672H93.7517C92.9043 5.95672 92.8415 5.94111 92.7316 5.5195C92.6846 5.28527 92.4805 4.86366 92.3079 4.58258C92.1353 4.30151 91.6488 3.86428 91.2407 3.61444C90.7699 3.31775 90.1108 3.08352 89.483 2.97422C88.7611 2.86491 88.1962 2.86491 87.5998 2.98983C87.1133 3.06791 86.517 3.27091 86.2659 3.42706C85.9991 3.58321 85.6224 3.94236 85.4341 4.23905C85.1673 4.64505 85.0731 5.0042 85.0731 5.67565C85.0888 6.42518 85.1516 6.65941 85.5126 7.06541C85.748 7.33086 86.2031 7.69001 86.5327 7.84617C86.8622 8.00232 88.1334 8.37708 89.3575 8.67377C90.5816 8.95485 91.9783 9.34523 92.4648 9.51699C92.9356 9.68876 93.5948 10.1104 93.94 10.4383C94.2853 10.7506 94.6933 11.344 94.866 11.7187C95.1014 12.234 95.1955 12.7493 95.1798 13.5926C95.1798 14.467 95.0857 14.9823 94.8346 15.5445C94.6462 15.9817 94.2539 16.5751 93.9871 16.8561C93.7046 17.1372 93.1554 17.5432 92.7787 17.7306C92.3864 17.9336 91.6959 18.1678 91.2407 18.2615C90.7856 18.3552 89.9225 18.4333 89.3261 18.4333C88.7141 18.4333 87.8509 18.3552 87.3958 18.2615C86.9407 18.1678 86.2031 17.918 85.748 17.715C85.2928 17.512 84.5866 17.0435 84.1786 16.6688C83.7235 16.2472 83.2841 15.6382 83.0173 15.0604C82.7976 14.5607 82.5621 13.9517 82.4209 13.2959L83.3939 13.2803C84.3355 13.2803 84.3826 13.2959 84.4925 13.7175C84.5396 13.9517 84.7907 14.4358 85.0418 14.8106C85.2772 15.1697 85.7637 15.6382 86.1089 15.8724C86.4542 16.091 87.1133 16.3721 87.5998 16.5126C88.1962 16.6844 88.8553 16.7468 89.7969 16.7C90.7385 16.6375 91.3192 16.5282 91.79 16.2784C92.151 16.091 92.6218 15.7162 92.8101 15.4352C93.0612 15.0604 93.171 14.6544 93.2181 13.9205C93.2495 13.1397 93.1867 12.765 92.967 12.359C92.7787 12.031 92.3236 11.5938 91.8214 11.2971C91.225 10.938 90.3462 10.6413 88.9338 10.3134C87.8038 10.0479 86.4699 9.70438 85.952 9.53261C85.4341 9.36084 84.7279 9.00169 84.3983 8.72062C84.053 8.43954 83.645 7.93986 83.4567 7.59632C83.2213 7.12787 83.1428 6.65941 83.1428 5.80057C83.1428 4.87927 83.237 4.45766 83.5352 3.84867C83.7392 3.42706 84.2257 2.81806 84.618 2.47453C85.0417 2.11538 85.6852 1.75623 86.2659 1.56885C86.8465 1.39708 87.694 1.27216 88.5414 1.27216ZM26.5829 1.39708L34.9476 1.50639L35.8421 1.928C36.3443 2.16223 36.9564 2.58384 37.2232 2.86491C37.49 3.14598 37.8038 3.72375 37.9294 4.16097C38.0549 4.58258 38.1648 5.20719 38.1648 5.56634C38.1648 5.90988 38.0549 6.5501 37.9294 7.00294C37.7881 7.48702 37.4743 8.04916 37.1761 8.36147C36.8622 8.68939 36.3757 8.97046 35.9206 9.09538C35.4969 9.20469 35.1987 9.37646 35.2301 9.47015C35.2615 9.54823 35.591 9.65753 35.9677 9.71999C36.36 9.76684 36.8779 9.92299 37.1447 10.0479C37.3958 10.1728 37.8352 10.532 38.1177 10.8443C38.4002 11.1566 38.6984 11.6719 38.7925 11.9998C38.871 12.3277 38.9338 13.0773 38.9338 13.6863C38.9338 14.4983 38.8553 14.9667 38.5728 15.5601C38.3688 15.9817 37.9608 16.5595 37.6626 16.8249C37.3801 17.106 36.8151 17.4651 36.4385 17.6369C36.0461 17.8087 35.2615 18.0273 34.7122 18.121C34.1472 18.2147 32.0756 18.2771 26.5515 18.2927L26.5829 1.39708ZM28.7329 8.5957C33.7706 8.5957 34.053 8.56447 34.6808 8.25216C35.0731 8.04916 35.5126 7.65878 35.7009 7.34648C35.9363 6.97171 36.0304 6.5501 36.0304 5.94111C36.0304 5.36855 35.9258 4.9105 35.7166 4.56697C35.5439 4.27028 35.1202 3.89551 34.7749 3.70813C34.2257 3.41144 33.849 3.3646 31.4636 3.31775L28.7643 3.27091L28.7329 8.5957ZM28.7329 16.4033C34.5082 16.3096 34.8377 16.2784 35.4341 15.9661C35.8107 15.7631 36.2658 15.3883 36.4542 15.1072C36.7523 14.6856 36.8151 14.3889 36.8151 13.3271C36.8151 12.2653 36.7523 11.9686 36.4856 11.6094C36.2815 11.344 35.8264 11.0473 35.387 10.8911C34.775 10.6881 34.0373 10.6257 31.6676 10.6257H28.7329V16.4033ZM40.0323 1.41269H41.7586L41.79 8.73623C41.8214 14.9979 41.8685 16.1066 42.0725 16.3252C42.1981 16.4502 42.6375 16.6219 43.7988 16.7937V18.3552L42.7316 18.2459C42.151 18.1991 41.4448 18.0429 41.1623 17.9024C40.8484 17.7306 40.5502 17.4027 40.3462 16.9811C40.048 16.3565 40.0323 15.9661 40.0323 8.86116V1.41269ZM67.967 1.41269H69.866L69.8032 5.90988C69.7875 8.37708 69.7247 10.4851 69.6934 10.6101C69.6463 10.7194 69.6934 10.8443 69.7718 10.8755C69.866 10.9067 71.1372 9.84491 75.2646 6.09726H77.6971L76.9595 6.78433C76.5358 7.14348 75.3274 8.23655 74.2445 9.20469C73.1617 10.1572 72.1259 10.9848 71.9375 11.0161C71.7021 11.0629 71.5766 11.2034 71.5766 11.4064C71.5766 11.5782 71.6864 11.7187 71.812 11.7187C71.9375 11.7187 72.9576 12.6557 74.0562 13.7956C75.1547 14.9199 76.5829 16.4033 78.4033 18.2927L75.8923 18.2615L72.9106 15.076C71.2784 13.3115 69.866 11.9061 69.7718 11.9374C69.6934 11.9686 69.6463 12.1247 69.662 12.2809C69.6934 12.4527 69.7404 13.858 69.8503 18.2771H67.967V1.41269ZM148.319 1.41269H159.147V3.13037H150.202V8.908H158.049V10.6257H150.202V18.2771H148.319V1.41269ZM49.9193 5.89426C50.3117 5.94111 50.9394 6.06603 51.3318 6.19095C51.7241 6.30026 52.3675 6.62818 52.7599 6.90925C53.1679 7.19033 53.6701 7.64317 53.8898 7.89301C54.1095 8.15847 54.4862 8.78308 54.7216 9.29838C54.957 9.81368 55.1924 10.6569 55.2552 11.1722C55.318 11.6875 55.318 12.5307 55.2552 13.046C55.1767 13.5613 55.0198 14.264 54.8942 14.6076C54.7844 14.9511 54.5019 15.5132 54.2822 15.8568C54.0625 16.2003 53.623 16.7156 53.2778 17.0123C52.9482 17.309 52.2734 17.7306 51.8026 17.9492C51.2219 18.2147 50.5628 18.3552 49.7624 18.4021C48.8522 18.4645 48.3186 18.4021 47.4554 18.1366C46.5295 17.8711 46.1529 17.6525 45.431 16.9967C44.9131 16.5126 44.3638 15.7943 44.097 15.279C43.8459 14.7793 43.5634 13.858 43.4535 13.249C43.328 12.3746 43.328 11.8437 43.4535 11.0161C43.5634 10.4227 43.8145 9.57946 44.0028 9.14223C44.2068 8.72062 44.6149 8.08039 44.9288 7.73686C45.2269 7.39332 45.9018 6.89364 46.404 6.61256C46.9375 6.31587 47.7222 6.05042 48.2715 5.97234C48.7894 5.89426 49.527 5.86303 49.9193 5.89426ZM47.1573 8.1897C46.8748 8.36147 46.5138 8.68939 46.3412 8.908C46.1686 9.12661 45.8704 9.65753 45.6664 10.0791C45.431 10.6257 45.3211 11.1878 45.3054 11.953C45.3054 12.562 45.3839 13.3583 45.4937 13.7487C45.6193 14.1391 45.9018 14.7325 46.1372 15.076C46.3726 15.4195 46.8591 15.9192 47.2357 16.1691C47.785 16.5438 48.0989 16.6532 48.962 16.7C49.5584 16.7312 50.2646 16.6688 50.6256 16.5438C50.9708 16.4345 51.5358 16.091 51.8654 15.7943C52.1949 15.482 52.65 14.8886 52.8854 14.4514C53.2464 13.7643 53.2935 13.4989 53.2935 12.1091C53.2935 10.6725 53.2621 10.4851 52.8227 9.70438C52.5716 9.23592 52.1008 8.65816 51.8026 8.42393C51.5044 8.17409 50.9394 7.86178 50.5471 7.73686C50.1547 7.61194 49.5898 7.50263 49.2916 7.51825C48.9934 7.51825 48.4912 7.59632 48.193 7.69001C47.8949 7.78371 47.424 8.00232 47.1573 8.1897ZM62.0819 5.87865C62.3487 5.90988 62.8352 5.97234 63.1805 6.0348C63.5257 6.08165 64.0907 6.26903 64.436 6.45641C64.7812 6.62818 65.2677 6.92487 65.5031 7.09664C65.7542 7.28402 66.1466 7.73686 66.3977 8.12724C66.6488 8.51762 66.8842 9.01731 66.9313 9.26715C67.0254 9.68876 67.0254 9.68876 66.1309 9.68876C65.252 9.68876 65.2207 9.67315 64.9068 9.12661C64.7342 8.81431 64.2947 8.34585 63.9338 8.11162C63.5571 7.86178 62.8823 7.58071 62.4429 7.48702C61.7524 7.33086 61.4542 7.34648 60.7166 7.56509C60.1202 7.72124 59.5866 8.01793 59.1629 8.40831C58.8176 8.72062 58.3311 9.37646 58.1114 9.84491C57.7505 10.5788 57.6877 10.9068 57.6877 12.1091C57.6877 13.1241 57.7662 13.7175 57.9859 14.2172C58.1428 14.6076 58.4567 15.1697 58.6921 15.4664C58.9432 15.7631 59.5082 16.2003 59.979 16.4502C60.6224 16.7625 61.0461 16.8718 61.7367 16.8718C62.2232 16.8718 62.898 16.7625 63.2276 16.6375C63.5414 16.497 64.0122 16.2003 64.2633 15.9661C64.4987 15.7319 64.844 15.279 65.0009 14.9667C65.2991 14.3733 65.3148 14.3733 66.2407 14.3733C67.151 14.3733 67.1824 14.3889 67.0882 14.7325C67.0254 14.9199 66.8214 15.3883 66.6331 15.7787C66.4291 16.1691 66.0367 16.7 65.7385 16.9655C65.4561 17.2309 65.048 17.5432 64.8283 17.6838C64.6086 17.8243 64.0436 18.0429 63.5728 18.1834C63.102 18.324 62.2859 18.4333 61.7681 18.4333C61.2502 18.4333 60.4812 18.3396 60.0417 18.2147C59.618 18.0898 58.9118 17.7462 58.4724 17.4651C58.0487 17.1841 57.4366 16.6063 57.107 16.1691C56.7932 15.7475 56.3694 14.9042 56.1811 14.2953C55.8986 13.3896 55.8515 12.9523 55.9143 11.7187C55.9771 10.5008 56.0713 10.0479 56.4479 9.22031C56.7147 8.65816 57.2326 7.89301 57.6249 7.51825C58.0016 7.12787 58.7078 6.64379 59.1786 6.42518C59.6494 6.22218 60.4027 6.00357 60.8264 5.94111C61.2659 5.87865 61.8308 5.84742 62.0819 5.87865ZM102.729 5.90988C103.074 5.94111 103.717 6.08165 104.141 6.22218C104.706 6.39395 105.177 6.70625 105.804 7.33086C106.432 7.95547 106.777 8.47077 107.029 9.14223C107.233 9.65753 107.452 10.5476 107.531 11.141C107.625 11.7968 107.609 12.6088 107.515 13.3271C107.421 14.0298 107.154 14.873 106.809 15.5913C106.385 16.4502 106.071 16.8561 105.443 17.3558C104.973 17.715 104.235 18.0898 103.749 18.2303C103.184 18.3864 102.509 18.4489 101.787 18.4021C101.128 18.3552 100.437 18.1991 100.061 18.0117C99.7153 17.8399 99.166 17.4027 98.8522 17.0435C98.4912 16.6688 98.1616 16.4345 98.0204 16.4814C97.8478 16.5438 97.8164 16.6375 97.9419 16.8718C98.0361 17.0435 98.0989 18.4645 98.0989 22.9617H96.3726V6.09726H98.0989V6.64379C98.0989 6.94048 98.0361 7.33086 97.9419 7.50263C97.8321 7.72124 97.8478 7.84617 97.989 7.90863C98.0989 7.97109 98.4598 7.70563 98.8522 7.28402C99.2131 6.89364 99.7467 6.45641 100.029 6.31587C100.296 6.17534 100.892 6.00357 101.316 5.94111C101.755 5.89426 102.383 5.87865 102.729 5.90988ZM99.4956 8.58008C99.0248 9.04854 98.6795 9.59507 98.4755 10.1572C98.2767 10.7298 98.1773 11.4377 98.1773 12.2809C98.1773 13.4208 98.2401 13.655 98.7266 14.6232C99.1189 15.3883 99.4642 15.8255 99.9507 16.1691C100.531 16.5595 100.814 16.6532 101.755 16.7C102.65 16.7468 103.011 16.6844 103.513 16.4502C103.858 16.2784 104.329 15.9349 104.549 15.685C104.753 15.4352 105.098 14.8262 105.287 14.3421C105.538 13.6863 105.632 13.0929 105.632 12.234C105.632 11.5626 105.538 10.6413 105.396 10.2041C105.224 9.61069 104.941 9.15784 104.423 8.61131C103.937 8.11162 103.45 7.7837 103.042 7.6744C102.697 7.58071 102.211 7.51825 101.944 7.51825C101.693 7.53386 101.191 7.61194 100.845 7.70563C100.453 7.81494 99.9507 8.14286 99.4956 8.58008ZM114.028 5.90988C114.373 5.94111 115.048 6.08165 115.519 6.22218C116.131 6.40957 116.586 6.67502 117.104 7.19033C117.512 7.58071 117.92 8.17409 118.03 8.51762C118.187 8.95485 118.25 10.4851 118.344 18.2771H116.617L116.664 17.3558C116.68 16.8405 116.649 16.3877 116.586 16.3408C116.508 16.294 116.162 16.5751 115.801 16.9655C115.425 17.3715 114.844 17.8399 114.499 18.0117C113.981 18.2927 113.589 18.3552 112.223 18.3552C110.826 18.3552 110.481 18.3084 109.948 18.0273C109.602 17.8399 109.163 17.512 108.975 17.3246C108.786 17.1216 108.519 16.6844 108.394 16.3721C108.253 16.0442 108.143 15.4664 108.143 15.076C108.143 14.6856 108.253 14.1079 108.394 13.7956C108.519 13.4676 108.786 13.0304 108.975 12.8274C109.163 12.6244 109.744 12.2653 110.261 12.0154C110.874 11.7344 112.145 11.3908 113.855 11.0629C115.315 10.7818 116.539 10.4851 116.57 10.3914C116.602 10.3134 116.555 9.92299 116.46 9.53261C116.335 9.09538 116.052 8.61131 115.691 8.26778C115.346 7.90863 114.86 7.62755 114.42 7.50263C114.012 7.39332 113.432 7.36209 113.008 7.42456C112.615 7.48702 112.129 7.62755 111.909 7.73686C111.69 7.84617 111.329 8.14286 111.093 8.3927C110.858 8.62693 110.607 9.01731 110.513 9.26715C110.356 9.65753 110.277 9.68876 109.477 9.68876C108.896 9.68876 108.614 9.6263 108.614 9.50138C108.614 9.39207 108.786 8.95485 108.99 8.51762C109.179 8.09601 109.665 7.45579 110.042 7.12787C110.418 6.78433 110.983 6.40957 111.282 6.28464C111.58 6.15972 112.192 6.00357 112.616 5.95672C113.055 5.89426 113.683 5.87865 114.028 5.90988ZM111.172 13.3427C110.889 13.4833 110.513 13.78 110.34 14.0298C110.167 14.264 110.026 14.6388 110.026 14.8886C110.026 15.1229 110.105 15.482 110.183 15.7006C110.277 15.9192 110.575 16.2315 110.858 16.4033C111.219 16.6219 111.627 16.7156 112.302 16.7156C112.82 16.7156 113.526 16.6219 113.871 16.5282C114.232 16.4189 114.797 16.0442 115.205 15.6225C115.613 15.2166 116.005 14.6544 116.115 14.2953C116.209 13.9517 116.366 13.374 116.46 13.0148C116.555 12.64 116.696 12.3434 116.774 12.3434C116.868 12.3434 116.931 12.2809 116.931 12.1872C116.931 12.1091 116.837 12.031 116.743 12.0467C116.633 12.0467 115.44 12.2809 114.106 12.562C112.772 12.843 111.438 13.1866 111.172 13.3427ZM125.484 5.87865C125.751 5.90988 126.238 5.97234 126.583 6.0348C126.928 6.08165 127.477 6.26903 127.807 6.42518C128.121 6.58133 128.686 6.98733 129.031 7.31525C129.392 7.62755 129.8 8.14286 129.957 8.43954C130.114 8.73623 130.271 9.14223 130.334 9.34523C130.428 9.67315 130.396 9.68876 129.486 9.68876C128.623 9.68876 128.529 9.65753 128.325 9.26715C128.199 9.01731 127.901 8.64254 127.65 8.42393C127.415 8.1897 126.96 7.8774 126.661 7.72124C126.285 7.51825 125.798 7.44017 125.092 7.44017C124.37 7.44017 123.884 7.54948 123.444 7.76809C123.099 7.95547 122.597 8.33024 122.33 8.62693C122.047 8.908 121.671 9.45453 121.482 9.84491C121.231 10.329 121.09 10.9224 121.043 11.7187C120.996 12.4995 121.059 13.171 121.216 13.7487C121.357 14.2172 121.686 14.9199 121.985 15.2946C122.298 15.7319 122.832 16.1691 123.366 16.4345C124.04 16.7781 124.433 16.8874 125.17 16.8718C125.83 16.8718 126.332 16.7625 126.803 16.5126C127.195 16.3252 127.713 15.9192 127.948 15.6225C128.199 15.3259 128.435 14.9199 128.466 14.7325C128.545 14.4046 128.639 14.3733 130.585 14.3733L130.271 15.2009C130.098 15.6382 129.753 16.2628 129.518 16.5595C129.282 16.8561 128.78 17.2934 128.388 17.5276C127.995 17.7774 127.336 18.0741 126.897 18.1991C126.473 18.3396 125.688 18.4333 125.17 18.4333C124.653 18.4333 123.836 18.324 123.366 18.1834C122.895 18.0429 122.251 17.7618 121.953 17.5744C121.655 17.3871 121.121 16.9186 120.792 16.5438C120.447 16.1691 120.007 15.5132 119.819 15.076C119.631 14.6544 119.411 13.8112 119.317 13.2022C119.238 12.562 119.223 11.7187 119.301 11.1722C119.364 10.6569 119.536 9.92299 119.678 9.53261C119.819 9.14223 120.148 8.53324 120.4 8.17409C120.651 7.79932 121.09 7.33086 121.373 7.12787C121.639 6.92487 122.173 6.61256 122.55 6.42518C122.911 6.25341 123.617 6.0348 124.119 5.95672C124.605 5.87865 125.233 5.84742 125.484 5.87865ZM137.333 5.90988C137.725 5.94111 138.353 6.06603 138.745 6.19095C139.138 6.30026 139.766 6.61256 140.158 6.86241C140.55 7.11225 141.068 7.58071 141.335 7.90863C141.586 8.25216 141.947 8.87677 142.151 9.29838C142.355 9.75122 142.559 10.5944 142.747 12.5151L137.568 12.4995C134.728 12.4839 132.358 12.5151 132.311 12.562C132.264 12.6088 132.311 12.7337 132.421 12.843C132.515 12.9523 132.75 13.4364 132.923 13.9049C133.096 14.3733 133.504 15.076 133.849 15.4664C134.179 15.8568 134.806 16.3408 135.23 16.5438C135.858 16.8561 136.187 16.903 137.035 16.8561C137.835 16.8093 138.243 16.6844 138.84 16.3252C139.295 16.0442 139.813 15.5445 140.079 15.1229C140.55 14.3889 140.55 14.3889 141.46 14.3889C142.072 14.3733 142.355 14.4358 142.355 14.5763C142.355 14.67 142.151 15.1229 141.9 15.5445C141.664 15.9817 141.115 16.6375 140.691 17.0279C140.268 17.4027 139.609 17.8555 139.216 18.0273C138.651 18.2771 138.18 18.3552 136.862 18.3552C135.418 18.3552 135.105 18.3084 134.351 17.9492C133.88 17.7306 133.19 17.2778 132.813 16.9342C132.437 16.6063 131.966 16.0442 131.762 15.7006C131.573 15.3571 131.275 14.6544 131.134 14.1391C130.93 13.4364 130.883 12.843 130.93 11.7968C130.977 10.9224 131.134 10.0791 131.338 9.53261C131.526 9.01731 131.997 8.29901 132.499 7.75247C132.954 7.25279 133.661 6.67502 134.084 6.47203C134.492 6.26903 135.23 6.0348 135.732 5.97234C136.219 5.90988 136.941 5.87865 137.333 5.90988ZM134.116 8.56447C133.771 8.89239 133.394 9.40769 133.284 9.70438C133.174 10.0011 132.97 10.4539 132.829 10.7038C132.594 11.1722 132.594 11.1722 132.954 11.0161C133.158 10.938 134.885 10.8755 136.784 10.8755C138.683 10.8755 140.409 10.938 140.629 11.0161C140.958 11.1254 140.99 11.1097 140.848 10.9224C140.739 10.7974 140.566 10.3914 140.456 10.0011C140.315 9.56384 140.001 9.04854 139.577 8.64254C139.106 8.17409 138.651 7.89301 138.086 7.73686C137.631 7.61194 137.003 7.50263 136.705 7.51825C136.407 7.51825 135.842 7.62755 135.45 7.73686C135.042 7.86178 134.477 8.20532 134.116 8.56447ZM164.875 5.87865C165.142 5.90988 165.629 5.97234 165.974 6.0348C166.319 6.08165 166.931 6.30026 167.355 6.50326C167.763 6.70625 168.359 7.11225 168.689 7.40894C169.003 7.69001 169.458 8.26778 169.693 8.68939C169.929 9.111 170.227 9.87615 170.368 10.3914C170.494 10.9067 170.604 11.6563 170.604 12.0779C170.604 12.4839 170.525 13.1866 170.431 13.6394C170.337 14.0766 170.054 14.8418 169.819 15.3102C169.583 15.7943 169.003 16.5282 168.501 16.9967C167.81 17.6369 167.402 17.8711 166.57 18.121C165.974 18.2927 165.079 18.4333 164.562 18.4333C164.044 18.4333 163.275 18.3396 162.835 18.2147C162.411 18.0898 161.705 17.7462 161.266 17.4651C160.842 17.1841 160.23 16.6063 159.9 16.1691C159.54 15.7162 159.163 14.9355 158.959 14.2953C158.692 13.4208 158.645 12.9211 158.708 11.7187C158.755 10.4851 158.849 10.0635 159.241 9.22031C159.508 8.65816 160.026 7.89301 160.418 7.51825C160.795 7.12787 161.501 6.64379 161.972 6.42518C162.443 6.22218 163.196 6.00357 163.62 5.94111C164.059 5.87865 164.624 5.84742 164.875 5.87865ZM162.647 8.01793C162.411 8.14285 162.019 8.45516 161.799 8.705C161.564 8.93923 161.219 9.45453 161.03 9.84491C160.779 10.329 160.638 10.9224 160.591 11.7187C160.544 12.5151 160.607 13.171 160.764 13.7487C160.905 14.2172 161.219 14.8886 161.47 15.2322C161.737 15.6069 162.27 16.0285 162.772 16.294C163.416 16.6219 163.84 16.7156 164.562 16.7156C165.283 16.7156 165.707 16.6219 166.351 16.294C166.821 16.0442 167.371 15.6538 167.559 15.3883C167.763 15.1385 168.077 14.5763 168.265 14.1391C168.532 13.5457 168.626 13.0617 168.626 12.1091C168.626 11.1566 168.532 10.6725 168.265 10.0791C168.077 9.65753 167.7 9.06415 167.418 8.78308C167.135 8.48639 166.633 8.11162 166.288 7.93986C165.943 7.76809 165.268 7.59632 164.797 7.56509C164.326 7.53386 163.745 7.56509 163.51 7.64317C163.275 7.70563 162.898 7.8774 162.647 8.01793ZM177.477 5.80057C177.493 5.80057 177.509 6.20657 177.509 7.65878H176.803C176.41 7.65878 175.83 7.76809 175.516 7.90863C175.186 8.03355 174.762 8.29901 174.558 8.48639C174.354 8.67377 174.025 9.111 173.852 9.45453C173.523 10.0479 173.507 10.3134 173.428 18.2771H171.545V6.09726H173.428V6.56572C173.428 6.83118 173.366 7.20594 173.271 7.42456C173.167 7.68481 173.167 7.84096 173.271 7.89301C173.366 7.93986 173.695 7.6744 174.025 7.31525C174.354 6.94048 174.904 6.50326 175.249 6.3471C175.578 6.19095 176.222 6.00357 176.646 5.94111C177.085 5.87865 177.446 5.81619 177.477 5.80057ZM183.551 5.90988C183.99 5.95672 184.696 6.11288 185.12 6.26903C185.56 6.42518 186.219 6.81556 186.595 7.14348C186.972 7.4714 187.443 8.01793 187.631 8.36147C187.835 8.705 188.039 9.14223 188.086 9.34523C188.18 9.67315 188.133 9.68876 187.239 9.68876C186.376 9.68876 186.282 9.65753 186.078 9.26715C185.952 9.01731 185.654 8.64254 185.403 8.42393C185.167 8.1897 184.712 7.8774 184.414 7.72124C184.053 7.53386 183.535 7.44017 182.845 7.44017C182.123 7.44017 181.652 7.53386 181.197 7.76809C180.852 7.93986 180.334 8.33024 180.051 8.61131C179.769 8.908 179.376 9.45453 179.188 9.84491C178.906 10.4383 178.843 10.8131 178.843 12.1872C178.843 13.655 178.89 13.9049 179.266 14.6076C179.486 15.0448 179.879 15.5757 180.13 15.8099C180.365 16.0442 180.883 16.3721 181.275 16.5438C181.715 16.7468 182.311 16.8718 182.845 16.8718C183.425 16.8718 183.975 16.7468 184.492 16.5126C184.932 16.3096 185.418 15.9817 185.591 15.7631C185.764 15.5445 186.015 15.1541 186.14 14.873C186.376 14.3733 186.407 14.3577 187.286 14.3733C187.976 14.3733 188.18 14.4202 188.18 14.6076C188.18 14.7325 188.024 15.1697 187.835 15.5913C187.631 15.9973 187.192 16.6063 186.847 16.9498C186.501 17.2778 185.826 17.7462 185.356 17.9648C184.602 18.3084 184.288 18.3552 182.845 18.3396C181.495 18.3396 181.056 18.2771 180.459 17.9961C180.035 17.8087 179.329 17.309 178.89 16.8874C178.325 16.3877 177.917 15.8099 177.603 15.1385C177.352 14.5919 177.085 13.6863 177.007 13.1241C176.897 12.4214 176.897 11.7656 177.022 11.0161C177.116 10.4227 177.399 9.50138 177.65 8.98608C177.933 8.40831 178.403 7.79932 178.874 7.37771C179.282 7.00294 179.926 6.56572 180.302 6.40957C180.663 6.2378 181.369 6.0348 181.872 5.97234C182.358 5.89426 183.127 5.86303 183.551 5.90988ZM195.164 5.90988C195.604 5.95672 196.31 6.11288 196.734 6.28464C197.173 6.4408 197.816 6.79995 198.177 7.08102C198.523 7.36209 199.04 7.89301 199.307 8.28339C199.574 8.67377 199.888 9.26715 200.014 9.61069C200.139 9.95422 200.296 10.7506 200.5 12.4995H195.29C190.754 12.4995 190.064 12.5307 190.064 12.7337C190.064 12.8587 190.142 12.968 190.221 12.968C190.315 12.968 190.378 13.0617 190.378 13.171C190.378 13.2646 190.582 13.78 190.833 14.2953C191.084 14.8106 191.555 15.4976 191.884 15.8099C192.229 16.1222 192.763 16.497 193.093 16.6375C193.406 16.7625 194.066 16.8718 194.536 16.8718C195.007 16.8718 195.588 16.7937 195.839 16.7C196.074 16.6219 196.545 16.3565 196.875 16.1222C197.204 15.888 197.644 15.4039 198.224 14.3733H199.166C199.684 14.3733 200.108 14.4046 200.108 14.4514C200.108 14.4983 199.951 14.8574 199.762 15.2634C199.558 15.6694 199.088 16.3408 198.695 16.7625C198.303 17.1841 197.612 17.715 197.126 17.9336C196.373 18.2928 196.074 18.3552 194.615 18.3552C193.108 18.3552 192.889 18.3084 191.963 17.8868C191.351 17.6057 190.707 17.1372 190.283 16.6844C189.907 16.2628 189.405 15.5289 189.169 15.0448C188.761 14.2016 188.73 13.9986 188.73 12.1872C188.73 10.3134 188.745 10.1884 189.232 9.22031C189.499 8.65816 190.017 7.90863 190.362 7.54948C190.723 7.17471 191.366 6.70625 191.79 6.48764C192.229 6.26903 192.983 6.0348 193.485 5.97234C193.971 5.90988 194.74 5.87865 195.164 5.90988ZM191.994 8.36147C191.696 8.58008 191.304 9.14223 191.068 9.65753C190.848 10.1416 190.582 10.6881 190.487 10.8599C190.331 11.141 190.346 11.1566 190.707 11.0317C190.911 10.938 192.575 10.8599 194.379 10.8287C197.079 10.7974 197.754 10.8287 198.115 11.0161C198.35 11.141 198.57 11.2191 198.617 11.1722C198.664 11.1254 198.601 10.9067 198.476 10.6725C198.35 10.4227 198.115 9.90738 197.926 9.50138C197.754 9.07977 197.361 8.58008 197.094 8.36147C196.812 8.15847 196.231 7.86178 195.792 7.73686C195.368 7.61194 194.756 7.50263 194.458 7.51825C194.16 7.51825 193.595 7.62755 193.202 7.75247C192.81 7.8774 192.261 8.14286 191.994 8.36147ZM20.4937 10.0011L10.7637 19.6825L10.6852 14.9667C10.6381 12.359 10.6224 10.1884 10.6538 10.126C10.6852 10.0479 12.898 10.0011 20.4937 10.0011Z" fill="#352610"/>
<path d="M10.5439 5.05104C10.4969 2.41207 10.4812 0.210322 10.4969 0.163477C10.4969 0.116631 12.6626 0.101016 20.1014 0.179092L17.9513 2.39645C16.7743 3.61444 14.64 5.80057 10.6224 9.86053L10.5439 5.05104Z" fill="#352610"/>
<path d="M0.656937 10.0011H10.4655L0.892342 19.5264C0.735405 15.9049 0.735405 13.3232 0.656937 10.0011Z" fill="#352610"/>
</svg>
