<svg width="149" height="40" viewBox="0 0 149 40" fill="none" xmlns="http://www.w3.org/2000/svg">
<path d="M43.9228 35.8216C42.9669 35.8216 42.1661 35.5165 41.5203 34.9061C40.881 34.2958 40.5613 33.4541 40.5613 32.3811C40.5613 31.3661 40.8588 30.5278 41.4538 29.866C42.0554 29.1978 42.8782 28.8638 43.9228 28.8638C44.9864 28.8638 45.8631 29.3006 46.5531 30.1744L45.9359 30.6948C45.3978 30.0074 44.7268 29.6636 43.9228 29.6636C43.1631 29.6636 42.5554 29.9174 42.0996 30.4249C41.6501 30.926 41.4254 31.5781 41.4254 32.3811C41.4254 33.1843 41.6596 33.8268 42.128 34.3086C42.5966 34.784 43.1948 35.0217 43.9228 35.0217C44.7268 35.0217 45.3978 34.6813 45.9359 34.0002L46.5531 34.5303C45.8694 35.3912 44.9927 35.8216 43.9228 35.8216Z" fill="#352610"/>
<path d="M53.3952 35.7734L52.7969 34.1062H49.7868L49.1885 35.7734H48.3149L50.8693 28.9312H51.6954L54.2687 35.7734H53.3952ZM50.0526 33.3738H52.5311L51.2966 29.9527H51.2776L50.0526 33.3738Z" fill="#352610"/>
<path d="M56.5161 35.7734V28.9312H58.8805C59.6339 28.9312 60.1942 29.1238 60.5613 29.5094C60.9285 29.8949 61.1121 30.4088 61.1121 31.0513C61.1121 31.7516 60.8968 32.2783 60.4663 32.6317C60.0422 32.9851 59.4662 33.1618 58.7382 33.1618H57.3422V35.7734H56.5161ZM57.3422 32.3907H58.6622C59.2002 32.3907 59.5991 32.2687 59.8586 32.0245C60.1182 31.7804 60.248 31.4496 60.248 31.032C60.248 30.6015 60.1182 30.2739 59.8586 30.0489C59.6055 29.8178 59.2509 29.702 58.7951 29.702H57.3422V32.3907Z" fill="#352610"/>
<path d="M63.5728 35.7734V28.9312H64.4083V35.7734H63.5728Z" fill="#352610"/>
<path d="M68.7702 35.7734V29.702H66.7476V28.9312H71.6285V29.702H69.5964V35.7734H68.7702Z" fill="#352610"/>
<path d="M77.7888 35.7734L77.1906 34.1062H74.1804L73.5822 35.7734H72.7085L75.263 28.9312H76.089L78.6624 35.7734H77.7888ZM74.4463 33.3738H76.9248L75.6903 29.9527H75.6713L74.4463 33.3738Z" fill="#352610"/>
<path d="M80.9097 35.7734V28.9312H81.7357V35.0025H85.0784V35.7734H80.9097Z" fill="#352610"/>
<path d="M32.7455 36.4292H29.148H25.5506H14.7582H11.1607H7.56321L6.09764 36.4309H3.96411L3.96575 32.7783V29.1274V25.4765V14.5237V10.8728V7.22189L3.96411 5.73458V3.56934H5.36568L7.56321 3.57099H11.1607H14.7582H25.5506H29.148H32.7455V7.22189V10.8728V14.5237H29.148V10.8728V7.22189H25.5506H21.9531H18.3556H14.7582H11.1607H7.56321V10.8728V14.5237V18.1746V21.8256V25.4765V29.1274V32.7783H11.1607H14.7582H18.3556H21.9531H25.5506H29.148H32.7455V36.4292Z" fill="#352610"/>
<path d="M50.8974 11.5472C51.9894 11.8201 52.8281 12.3342 53.4138 13.0891C54.0152 13.8439 54.3158 14.7836 54.3158 15.9079C54.3158 17.3212 53.8411 18.4617 52.8914 19.329C51.9576 20.1963 50.6045 20.6299 48.832 20.6299H41.8525V3.52441H47.9299C49.7182 3.52441 51.0793 3.87765 52.0131 4.58441C52.9626 5.29117 53.4375 6.32703 53.4375 7.69228C53.4375 8.52759 53.2317 9.29048 52.8203 9.9811C52.4087 10.6717 51.7677 11.1858 50.8974 11.523V11.5472ZM45.1285 6.51186V10.5352H47.5263C48.2385 10.5352 48.8399 10.3666 49.3305 10.0292C49.8211 9.676 50.0665 9.17007 50.0665 8.51145C50.0665 7.17834 49.1485 6.51186 47.3127 6.51186H45.1285ZM47.8349 17.6425C48.7528 17.6425 49.4808 17.4578 50.0189 17.0884C50.5571 16.7189 50.8261 16.1808 50.8261 15.4742C50.8261 14.7836 50.5728 14.2455 50.0665 13.86C49.5759 13.4585 48.8399 13.2577 47.8586 13.2577H45.1285V17.6425H47.8349Z" fill="#352610"/>
<path d="M64.656 20.8228C62.5986 20.8228 60.9527 20.1883 59.7182 18.9194C58.4837 17.6345 57.8665 15.8436 57.8665 13.5468V3.52441H61.2138V13.3299C61.2138 14.5988 61.5145 15.6348 62.1158 16.4379C62.7331 17.241 63.5798 17.6425 64.656 17.6425C65.7005 17.6425 66.5473 17.257 67.1961 16.4861C67.8451 15.7152 68.1695 14.663 68.1695 13.3299V3.52441H71.5168V13.5468C71.5168 15.7954 70.9074 17.5702 69.6888 18.8712C68.486 20.1721 66.8084 20.8228 64.656 20.8228Z" fill="#352610"/>
<path d="M76.072 20.6299V3.52441H79.4192V20.6299H76.072Z" fill="#352610"/>
<path d="M84.1824 20.6299V3.52441H87.5297V17.6183H95.0315V20.6299H84.1824Z" fill="#352610"/>
<path d="M98.5784 20.6299V3.52441H104.157C106.8 3.52441 108.921 4.31945 110.519 5.90952C112.118 7.48359 112.917 9.54745 112.917 12.1012C112.917 14.655 112.134 16.7189 110.567 18.293C109.016 19.851 106.903 20.6299 104.228 20.6299H98.5784ZM101.878 17.6183H104.015C105.629 17.6183 106.935 17.0964 107.932 16.0524C108.945 15.0084 109.451 13.6913 109.451 12.1012C109.451 10.495 108.961 9.17007 107.979 8.12593C106.998 7.08193 105.748 6.56 104.228 6.56H101.878V17.6183Z" fill="#352610"/>
<path d="M116.869 20.6299V3.52441H127.647V6.56H120.145V10.6557H126.151V13.6432H120.145V17.6183H128.145V20.6299H116.869Z" fill="#352610"/>
<path d="M145.016 20.6299H141.075L137.3 14.7754H135.353V20.6299H132.053V3.52441H138.439C140.387 3.52441 141.85 4.04634 142.831 5.09034C143.813 6.11834 144.302 7.49159 144.302 9.21021C144.302 11.8764 143.148 13.595 140.838 14.3659L145.016 20.6299ZM135.353 6.53586V11.788H137.679C138.693 11.788 139.476 11.5552 140.029 11.0894C140.584 10.6074 140.861 9.95696 140.861 9.13793C140.861 8.33476 140.592 7.70041 140.054 7.23462C139.531 6.76883 138.788 6.53586 137.822 6.53586H135.353Z" fill="#352610"/>
<path d="M25.5503 10.873H21.9528H18.3554H14.7579H11.1604V14.5239V18.1748V21.8259V25.4768V29.1277H14.7579H18.3554H21.9528H25.5503V10.873ZM14.7579 25.4768V14.5239H21.9528V18.1748H18.3554V21.8259H21.9528V25.4768H14.7579Z" fill="#352610"/>
</svg>
