<svg width="60" height="60" viewBox="0 0 60 60" fill="none" xmlns="http://www.w3.org/2000/svg">
<path fill-rule="evenodd" clip-rule="evenodd" d="M26.6298 5.90744C27.6548 5.31295 28.817 5 30 5C31.1831 5 32.3453 5.31297 33.3703 5.90751L33.375 5.91024L49.125 14.969C50.1501 15.5648 51.0016 16.4213 51.5939 17.4528C52.1863 18.4844 52.4988 19.6545 52.5 20.846V38.9682C52.4988 40.1597 52.1863 41.3298 51.5939 42.3613C51.0016 43.3928 50.1501 44.2494 49.125 44.8451L49.1163 44.8501L33.375 53.9039L33.371 53.9063C32.3458 54.5011 31.1833 54.8142 30 54.8142C28.8167 54.8142 27.6543 54.5011 26.6292 53.9064L26.625 53.9039L10.8837 44.8501L10.875 44.8451C9.84989 44.2494 8.99843 43.3928 8.40606 42.3613C7.81368 41.3298 7.50121 40.1597 7.5 38.9682V20.846C7.50121 19.6545 7.81368 18.4844 8.40606 17.4528C8.99843 16.4213 9.84989 15.5648 10.875 14.969L10.8837 14.964L26.6298 5.90744ZM30 9.52941C29.605 9.52941 29.217 9.63405 28.875 9.83282L28.8663 9.83786L13.125 18.8916L13.1215 18.8937C12.7813 19.0922 12.4988 19.3769 12.302 19.7196C12.1047 20.0631 12.0006 20.4528 12 20.8496V38.9646C12.0006 39.3614 12.1047 39.7511 12.302 40.0946C12.4988 40.4373 12.7813 40.722 13.1215 40.9205L13.125 40.9225L28.875 49.9813C29.217 50.1801 29.605 50.2848 30 50.2848C30.395 50.2848 30.783 50.1801 31.125 49.9814L31.1337 49.9763L46.875 40.9225L46.8786 40.9205C47.2187 40.722 47.5012 40.4373 47.698 40.0946C47.8954 39.7508 47.9996 39.3607 48 38.9636V20.8506C47.9996 20.4535 47.8954 20.0634 47.698 19.7196C47.5012 19.3769 47.2187 19.0922 46.8786 18.8937L46.875 18.8916L31.125 9.83284C30.7829 9.63407 30.395 9.52941 30 9.52941Z" fill="#CF32E5"/>
<path fill-rule="evenodd" clip-rule="evenodd" d="M8.40988 17.359C9.0321 16.2763 10.4085 15.9064 11.4841 16.5326L30 27.3134L48.5159 16.5326C49.5915 15.9064 50.9679 16.2763 51.5901 17.359C52.2123 18.4417 51.8448 19.827 50.7691 20.4533L31.1266 31.8901C30.4296 32.2959 29.5703 32.2959 28.8734 31.8901L9.23087 20.4533C8.15523 19.827 7.78766 18.4417 8.40988 17.359Z" fill="#CF32E5"/>
<path fill-rule="evenodd" clip-rule="evenodd" d="M30 27.6424C31.2426 27.6424 32.25 28.6563 32.25 29.9071V52.7353C32.25 53.9861 31.2426 55 30 55C28.7574 55 27.75 53.9861 27.75 52.7353V29.9071C27.75 28.6563 28.7574 27.6424 30 27.6424Z" fill="#CF32E5"/>
</svg>
