<svg width="60" height="60" viewBox="0 0 60 60" fill="none" xmlns="http://www.w3.org/2000/svg">
<path fill-rule="evenodd" clip-rule="evenodd" d="M30 9.54545C18.7033 9.54545 9.54545 18.7033 9.54545 30C9.54545 41.2967 18.7033 50.4545 30 50.4545C41.2967 50.4545 50.4545 41.2967 50.4545 30C50.4545 18.7033 41.2967 9.54545 30 9.54545ZM5 30C5 16.1929 16.1929 5 30 5C43.8071 5 55 16.1929 55 30C55 43.8071 43.8071 55 30 55C16.1929 55 5 43.8071 5 30Z" fill="#CF32E5"/>
<path fill-rule="evenodd" clip-rule="evenodd" d="M41.8012 18.1988C42.4402 18.8377 42.6632 19.7827 42.3775 20.6399L37.3203 35.8116C37.0829 36.5239 36.5239 37.0829 35.8116 37.3203L20.6399 42.3775C19.7827 42.6632 18.8377 42.4402 18.1988 41.8012C17.5598 41.1623 17.3368 40.2173 17.6225 39.3601L22.6797 24.1884C22.9171 23.4761 23.4761 22.9171 24.1884 22.6797L39.3601 17.6225C40.2173 17.3368 41.1623 17.5598 41.8012 18.1988ZM26.8287 26.8287L23.6573 36.3427L33.1713 33.1713L36.3427 23.6573L26.8287 26.8287Z" fill="#CF32E5"/>
</svg>
