<svg width="55" height="41" viewBox="0 0 55 41" fill="none" xmlns="http://www.w3.org/2000/svg">
<g clip-path="url(#clip0_6004_15130)">
<path d="M27.5325 5.48697C27.5283 5.48271 27.5215 5.48271 27.5176 5.48697L17.8014 15.3063C17.7916 15.3161 17.7869 15.3144 17.7865 15.3004L17.7554 10.7095C17.7554 10.6938 17.7609 10.6806 17.772 10.6695L27.5543 0.783263C27.5615 0.776022 27.5726 0.776022 27.5798 0.783263C30.8182 4.05652 34.0603 7.33361 37.3063 10.6141C37.3553 10.6635 37.3566 10.6929 37.3562 10.7624C37.3429 12.2823 37.3361 13.809 37.3357 15.3421C37.3357 15.3775 37.3234 15.3826 37.2991 15.3574L27.5325 5.48697Z" fill="#352610"/>
<path d="M24.689 17.7371L27.5299 20.6082C27.5423 20.6206 27.5546 20.6206 27.567 20.6082L32.709 15.4116C32.721 15.3993 32.7329 15.3993 32.7452 15.4116L35.0111 17.6975C35.0238 17.7107 35.0238 17.7234 35.0111 17.7366L27.5359 25.2906C27.5257 25.3008 27.5154 25.3008 27.5052 25.2906L20.062 17.769C20.042 17.7486 20.042 17.7281 20.062 17.7077L27.5244 10.1665C27.5363 10.1541 27.5482 10.1541 27.5606 10.1665L29.8243 12.4591C29.8349 12.4698 29.8349 12.4809 29.8243 12.4915C29.6867 12.6329 29.5538 12.7688 29.4256 12.8988C28.1178 14.224 26.7926 15.5646 25.4494 16.92C25.2019 17.1701 24.948 17.4299 24.6886 17.6996C24.6763 17.7119 24.6767 17.7247 24.689 17.7371Z" fill="#352610"/>
<path d="M3.02098 31.334C3.38647 31.1981 3.80777 31.1219 4.28487 31.1053C4.89147 31.0844 5.49935 31.13 6.10893 31.2428C6.5068 31.3165 6.88593 31.3996 7.26548 31.5163C7.28465 31.5223 7.29743 31.5398 7.29743 31.5598V32.9106C7.29743 32.9225 7.29146 32.9276 7.27953 32.9255C6.42586 32.7824 5.58412 32.7163 4.75388 32.7278C4.4493 32.7317 4.17412 32.7806 3.92832 32.8748C3.4099 33.0729 3.22971 33.6037 3.13003 34.1016C3.10234 34.2413 3.08147 34.3879 3.06826 34.5408C3.00649 35.262 3.00266 36.0011 3.05761 36.7576C3.09552 37.2773 3.18115 37.8933 3.53216 38.2801C3.81075 38.5872 4.34068 38.669 4.74579 38.6741C5.66974 38.6856 6.51106 38.6477 7.26931 38.5604C7.28805 38.5583 7.29743 38.5664 7.29743 38.5855V39.927C7.29743 39.9414 7.29061 39.9508 7.27698 39.9551C6.35771 40.2503 5.37454 40.3103 4.41267 40.3014C3.9411 40.2971 3.5164 40.2405 3.13898 40.1318C2.38456 39.915 1.88658 39.3689 1.62333 38.6405C1.45549 38.1757 1.34644 37.6782 1.29574 37.1474C1.21268 36.2737 1.20373 35.4043 1.26976 34.5387C1.36305 33.3195 1.71534 31.8205 3.02098 31.334Z" fill="#352610"/>
<path d="M9.07003 32.0355C9.57013 31.4579 10.2432 31.2373 10.9938 31.1521C11.689 31.0728 12.3642 31.0822 13.0193 31.1797C13.2251 31.2108 13.421 31.2547 13.6076 31.3114C14.2121 31.4954 14.6653 31.846 14.9669 32.3631C15.3264 32.98 15.4726 33.7271 15.5356 34.4722C15.5974 35.1985 15.6038 35.9444 15.5556 36.7094C15.5049 37.5107 15.3695 38.3358 14.9878 39.0285C14.6517 39.6394 14.0472 40.0236 13.3686 40.1625C12.6117 40.3171 11.7942 40.3444 10.9162 40.2447C10.6854 40.2183 10.4604 40.1748 10.2419 40.1143C9.47982 39.9039 8.94266 39.4166 8.63084 38.6519C8.41529 38.1237 8.31178 37.5695 8.26279 37.0021C8.18611 36.1109 8.18824 35.2321 8.26875 34.3653C8.31987 33.8136 8.43105 33.2534 8.65214 32.7333C8.77184 32.4517 8.91114 32.2191 9.07003 32.0355ZM13.7162 34.2954C13.6579 33.8012 13.5028 33.2402 13.0726 32.9621C12.9026 32.8517 12.667 32.781 12.3667 32.7491C12.0489 32.7154 11.7248 32.7175 11.3942 32.7546C10.8332 32.8181 10.4523 33.0613 10.253 33.5908C10.0847 34.0368 10.0362 34.5267 10.0166 34.9987C9.98675 35.7233 9.99995 36.3942 10.0562 37.0119C10.0788 37.2568 10.1333 37.5047 10.2104 37.7365C10.3816 38.2506 10.7233 38.551 11.2511 38.6289C11.6046 38.6813 11.9608 38.6907 12.3199 38.657C12.5064 38.6396 12.6781 38.6051 12.8344 38.5531C13.5744 38.3064 13.7137 37.3642 13.7605 36.6813C13.8189 35.8336 13.804 35.0383 13.7162 34.2954Z" fill="#352610"/>
<path d="M22.1698 37.1107V31.1998C22.1698 31.1917 22.1762 31.1853 22.1843 31.1853H23.9444C23.9521 31.1853 23.9585 31.1917 23.9585 31.1998V40.2102C23.9585 40.2196 23.9512 40.2268 23.9419 40.2268H22.54C22.5263 40.2268 22.514 40.22 22.5072 40.2085L18.8147 34.3278C18.79 34.2882 18.7777 34.292 18.7777 34.3384V40.2055C18.7777 40.2196 18.7704 40.2268 18.7564 40.2268H16.9992C16.9817 40.2268 16.9728 40.2179 16.9728 40.2004V31.1998C16.9728 31.1917 16.9792 31.1853 16.9873 31.1853H18.3845C18.4028 31.1853 18.4169 31.193 18.4267 31.2087L22.1476 37.1171C22.1625 37.1401 22.1698 37.138 22.1698 37.1107Z" fill="#352610"/>
<path d="M27.2335 36.7884V40.2057C27.2335 40.2197 27.2262 40.227 27.2122 40.227H25.4665C25.4486 40.227 25.4396 40.218 25.4396 40.2001C25.4358 36.8736 25.4362 34.5298 25.4405 33.1697C25.4426 32.4885 25.6671 31.8807 26.2571 31.5109C26.715 31.2238 27.2445 31.1761 27.8384 31.1842C28.7035 31.1957 29.5708 31.2242 30.4407 31.2702C30.7427 31.286 31.0464 31.3103 31.3523 31.3431C31.36 31.3439 31.3655 31.3503 31.3655 31.358V32.8349C31.3655 32.8489 31.3583 32.8562 31.3442 32.8566C30.3035 32.8596 29.2722 32.8591 28.2494 32.8549C27.944 32.8536 27.7425 32.8732 27.6454 32.9141C27.3029 33.0576 27.2266 33.3396 27.2305 33.6915C27.2352 34.1682 27.2356 34.641 27.2322 35.11C27.2318 35.1228 27.242 35.133 27.2548 35.1335L30.7551 35.2293C30.7717 35.2297 30.7849 35.2434 30.7849 35.2604V36.6414C30.7849 36.6517 30.7764 36.6602 30.7661 36.6606L27.2641 36.7569C27.2437 36.7573 27.2335 36.768 27.2335 36.7884Z" fill="#352610"/>
<path d="M34.4275 38.3346C34.557 38.5109 34.8646 38.591 35.078 38.5915C36.0156 38.5927 36.9596 38.5932 37.9099 38.5919C37.9214 38.5919 37.9308 38.6012 37.9308 38.6128V40.2089C37.9308 40.2187 37.9231 40.2264 37.9138 40.2264C36.7879 40.2277 35.6595 40.2272 34.5285 40.226C34.0297 40.2255 33.4818 40.1071 33.0946 39.7885C32.6145 39.3932 32.5055 38.7129 32.5055 38.1148C32.5051 35.7374 32.5051 33.4375 32.5046 31.2151C32.5046 31.1951 32.5144 31.1853 32.5345 31.1853H34.2733C34.2908 31.1853 34.2993 31.1938 34.2993 31.2113C34.2993 33.6023 34.3014 35.8332 34.3053 37.9048C34.3057 38.0807 34.3462 38.2238 34.4275 38.3346Z" fill="#352610"/>
<path d="M43.4945 38.3133C43.7527 38.0935 43.8817 37.7949 43.8817 37.4179C43.8813 35.3484 43.8817 33.276 43.883 31.2011C43.883 31.1925 43.8902 31.1853 43.8988 31.1853H45.6675C45.6853 31.1853 45.6943 31.1942 45.6943 31.2121C45.6947 33.2863 45.6947 35.3237 45.6934 37.3254C45.693 37.872 45.6202 38.4334 45.3722 38.9199C44.9748 39.7007 44.2097 40.0777 43.3556 40.2047C42.6988 40.3022 42.0189 40.315 41.316 40.2434C40.6293 40.1736 39.8472 39.964 39.3629 39.44C38.8406 38.8739 38.6898 38.1454 38.6881 37.3919C38.6835 35.3144 38.6835 33.25 38.6877 31.1985C38.6877 31.1913 38.6937 31.1853 38.7013 31.1853H40.4611C40.4743 31.1853 40.4811 31.1921 40.4811 31.2053C40.4824 33.2509 40.4824 35.2926 40.4811 37.331C40.4807 37.7446 40.6008 38.1425 40.9561 38.3755C41.1955 38.5322 41.5116 38.6247 41.9043 38.6532C42.4278 38.6911 43.1098 38.6404 43.4945 38.3133Z" fill="#352610"/>
<path d="M50.1485 37.2309L48.456 40.2196C48.4539 40.2242 48.4492 40.2268 48.4441 40.2268H46.4905C46.4795 40.2268 46.4726 40.2149 46.4782 40.2055L49.2109 35.7016C49.2134 35.6973 49.2134 35.6914 49.2104 35.6871L46.4411 31.2066C46.4356 31.1972 46.442 31.1853 46.453 31.1853H48.4075C48.4121 31.1853 48.4168 31.1879 48.4194 31.1921L50.3171 34.2571C50.3227 34.266 50.3359 34.2656 50.341 34.2562L52.0705 31.1925C52.0726 31.1879 52.0773 31.1853 52.0824 31.1853H54.0245C54.0356 31.1853 54.0424 31.1972 54.0368 31.2066L51.2667 35.7851C51.2641 35.7893 51.2641 35.7953 51.2671 35.7996L53.9993 40.2055C54.0049 40.2149 53.9985 40.2268 53.9874 40.2268H52.0326C52.0279 40.2268 52.0232 40.2242 52.0206 40.22L50.1723 37.23C50.1668 37.2211 50.1536 37.2215 50.1485 37.2309Z" fill="#352610"/>
</g>
<defs>
<clipPath id="clip0_6004_15130">
<rect width="54.4681" height="40" fill="white" transform="translate(0.0866699 0.233887)"/>
</clipPath>
</defs>
</svg>
