<svg width="169" height="24" viewBox="0 0 169 24" fill="none" xmlns="http://www.w3.org/2000/svg">
<g clip-path="url(#clip0_61_543)">
<path d="M50.902 0.895443C50.9978 1.02872 50.9933 1.4364 50.9933 1.4364L50.8862 4.05591C50.8726 4.39657 50.5995 4.61516 50.2803 4.54162C50.2803 4.54162 47.5109 3.9034 45.8475 3.9034C43.1087 3.9034 41.0985 4.71951 39.817 6.3549C38.534 7.98936 38.0515 9.91035 38.3658 12.1197C38.6107 13.8446 39.327 15.2175 40.517 16.2419C41.7051 17.2665 43.1867 17.7773 44.9546 17.7773C46.9258 17.7773 49.0322 17.1025 51.273 15.7523C51.5044 15.6125 51.7387 15.5494 51.8533 15.6834C51.9597 15.8074 51.978 15.978 51.978 15.978L52.0079 19.3979C52.0108 19.7382 51.7607 20.11 51.452 20.2232C51.452 20.2232 47.4694 21.6812 45.1299 21.6812C42.1933 21.6812 39.6888 20.7893 37.6166 19.0029C35.5466 17.2191 34.3055 14.8886 33.8961 12.0139C33.3949 8.49299 34.2131 5.61215 36.351 3.36617C38.4915 1.12187 41.5108 0 45.4103 0C46.972 0 48.6751 0.217467 50.517 0.649229C50.6838 0.688429 50.7973 0.750776 50.902 0.895443Z" fill="#352610"/>
<path d="M57.1779 13.3363C57.1778 13.156 57.3691 12.8211 57.7516 12.3339C58.1333 11.845 58.5531 11.6001 59.0056 11.6001C59.5314 11.6001 60.3373 11.4469 61.6102 14.2967L62.4184 8.92219C62.0124 8.21267 60.5019 8.16264 59.5914 8.22443C58.7536 8.28155 57.9791 8.94235 57.1453 10.2511V9.09859C57.1453 8.75755 56.8774 8.47867 56.5504 8.47867H54.3451C54.0182 8.47867 53.7507 8.75755 53.7507 9.09859V19.8086C53.7507 20.1497 54.0182 20.4287 54.3451 20.4287H56.5838C56.9108 20.4287 57.1783 20.1497 57.1783 19.8086V13.3363H57.1779Z" fill="#352610"/>
<path d="M70.4689 8.47852C70.7959 8.47852 70.9783 8.74302 70.8734 9.06633L66.2069 23.4121C66.1029 23.7361 65.7496 23.9999 65.4225 23.9999H63.0315C62.7045 23.9999 62.5228 23.7361 62.6279 23.4128L63.8131 19.8699C63.918 19.5471 63.8844 19.0332 63.738 18.7284L59.0829 9.0331C58.9366 8.72846 59.0848 8.47852 59.4118 8.47852H61.6317C61.9585 8.47852 62.3427 8.72996 62.4848 9.03702L65.2004 14.8974C65.3425 15.2051 65.5377 15.1896 65.6337 14.8631L67.345 9.071C67.4413 8.74508 67.7878 8.47852 68.1147 8.47852H70.4689Z" fill="#352610"/>
<path d="M76.0744 6.17871C76.4012 6.17871 76.6689 6.45797 76.6689 6.79863V7.8729C76.6689 8.21394 76.9343 8.45288 77.2578 8.40434C77.2578 8.40434 78.0394 8.28637 78.7616 8.28637C80.2566 8.28637 81.5344 8.76331 82.5922 9.71811C83.6493 10.6724 84.2849 11.9255 84.502 13.4834C84.7796 15.4785 84.3183 17.1719 83.1136 18.5661C81.9135 19.9635 80.3169 20.6592 78.3224 20.6592C77.8712 20.6592 77.2651 20.5833 76.6691 20.4289V23.3801C76.6691 23.7217 76.4014 24.0002 76.0746 24.0002H73.8969C73.5699 24.0002 73.3024 23.7217 73.3024 23.3801V13.5463C73.3024 13.2051 73.1129 13.1229 72.8809 13.3637C72.8809 13.3637 72.1769 14.0945 71.7254 14.8651C71.4889 15.2758 71.2746 15.4816 71.0864 15.4816C70.955 15.4816 70.8781 15.4038 70.8568 15.252C70.8061 14.8907 70.972 14.2371 71.3519 13.2911C71.7329 12.3445 72.3539 11.4265 73.271 10.534V6.79863C73.271 6.45778 73.5389 6.17871 73.8657 6.17871H76.0744ZM76.6689 11.0756V16.9179C76.6689 17.2589 76.9265 17.6145 77.2408 17.7086C77.2408 17.7086 77.4466 17.7696 77.8083 17.7696C79.006 17.7696 79.8772 17.3593 80.419 16.5369C80.9622 15.7168 81.153 14.724 80.991 13.5612C80.744 11.7912 79.7428 10.909 77.9931 10.909C77.5927 10.909 77.1302 10.963 76.6689 11.0756Z" fill="#352610"/>
<path d="M89.9515 5.96082C90.2786 5.96082 90.5319 6.23896 90.5154 6.57962L90.4514 7.8596C90.4342 8.20046 90.6877 8.47859 91.0152 8.47859H92.344C92.6709 8.47859 92.9298 8.75728 92.9173 9.09814L92.8697 10.4933C92.8579 10.8343 92.5805 11.113 92.2537 11.113H90.9379C90.6108 11.113 90.3342 11.3919 90.3226 11.7326L90.2364 14.3629C90.2248 14.7039 90.2168 15.261 90.2179 15.6026C90.2179 15.6026 90.2179 15.6242 90.2569 15.9046C90.4033 16.96 90.818 17.4851 91.4973 17.4851C91.8574 17.4851 92.2408 17.3746 92.9348 17.0003C93.0263 16.951 93.1911 16.8915 93.2695 16.9453C93.4069 17.0408 93.4267 17.2443 93.4267 17.2443L93.7106 19.2876C93.7569 19.6247 93.546 20.0021 93.2414 20.1251C93.2414 20.1251 91.9239 20.659 90.9715 20.659C89.8649 20.659 88.9387 20.292 88.2025 19.5601C87.4638 18.8284 87.0143 17.8801 86.8519 16.7151C86.8026 16.3565 86.7871 16.0035 86.8039 15.6601L86.9495 11.7324C86.9617 11.3917 86.7046 11.1128 86.3774 11.1128H85.2503C84.9235 11.1128 84.6631 10.834 84.6711 10.4929L84.7056 9.09814C84.7138 8.75728 84.9882 8.4784 85.3156 8.4784H86.4431C86.77 8.4784 87.0444 8.19952 87.0518 7.85867L87.0804 6.58C87.0882 6.23896 87.3623 5.96045 87.6897 5.96045H89.9515V5.96082Z" fill="#352610"/>
<path d="M99.98 8.28613C101.647 8.28613 103.082 8.80768 104.285 9.84592C105.489 10.8866 106.206 12.2401 106.436 13.908C106.697 15.8068 106.291 17.4067 105.218 18.7076C104.146 20.0101 102.696 20.659 100.864 20.659C99.2403 20.659 97.7964 20.1031 96.528 18.9906C95.2618 17.8784 94.5181 16.5167 94.2958 14.911C94.0447 13.104 94.4776 11.5508 95.5948 10.2452C96.7102 8.94003 98.1716 8.28613 99.98 8.28613ZM100.491 17.7694C101.352 17.7694 102.001 17.3572 102.436 16.5303C102.872 15.7062 103.022 14.7982 102.885 13.8053C102.776 13.02 102.479 12.3846 101.995 11.9011C101.508 11.4193 100.922 11.1772 100.23 11.1772C99.3203 11.1772 98.6621 11.6023 98.2584 12.4544C97.8569 13.3047 97.7185 14.1915 97.846 15.1148C97.9565 15.9163 98.2739 16.5607 98.8018 17.0431C99.3289 17.5271 99.8914 17.7694 100.491 17.7694Z" fill="#352610"/>
<path d="M122.695 0C122.882 0 123.036 0.157174 123.036 0.349441L123.042 3.20582C123.042 3.39809 122.889 3.55527 122.702 3.55527H118.345C118.158 3.55527 118.004 3.71244 118.004 3.90452V20.7884C118.004 20.9805 117.851 21.1376 117.664 21.1376H114.042C113.855 21.1376 113.701 20.9805 113.701 20.7884V3.90452C113.701 3.71244 113.549 3.55527 113.362 3.55527H108.17C107.983 3.55527 107.829 3.39809 107.828 3.20582L107.82 0.349441C107.819 0.157174 107.972 0 108.159 0H122.695Z" fill="#352610"/>
<path d="M127.68 8.47852C128.007 8.47852 128.275 8.7574 128.275 9.09844V19.8085C128.275 20.1495 128.007 20.4286 127.68 20.4286H125.461C125.134 20.4286 124.867 20.1495 124.867 19.8085V9.09862C124.867 8.75758 125.134 8.4787 125.461 8.4787H127.68V8.47852Z" fill="#352610"/>
<path d="M124.747 5.16437C124.678 4.65925 124.79 4.22655 125.086 3.86703C125.381 3.50807 125.773 3.32812 126.257 3.32812C126.75 3.32812 127.193 3.50807 127.587 3.86703C127.982 4.22655 128.212 4.65925 128.281 5.16437C128.351 5.67752 128.24 6.11712 127.943 6.47571C127.646 6.8343 127.253 7.01462 126.76 7.01462C126.276 7.01462 125.835 6.83411 125.442 6.47571C125.048 6.11712 124.817 5.67752 124.747 5.16437Z" fill="#352610"/>
<path d="M132.594 8.4784C132.921 8.4784 133.189 8.75728 133.189 9.09832V9.40035C133.189 9.74158 133.189 10.032 133.189 10.0464C133.189 10.0608 133.4 9.90136 133.659 9.6923C133.659 9.6923 135.398 8.28613 136.589 8.28613C138.174 8.28613 139.244 9.01414 139.794 10.4714C141.042 9.01414 142.331 8.28613 143.661 8.28613C144.712 8.28613 145.584 8.6268 146.275 9.30683C146.966 9.98854 147.391 10.9064 147.548 12.0617C147.587 12.3521 147.626 12.6691 147.621 13.0116V19.8085C147.621 20.1496 147.352 20.4287 147.025 20.4287H144.825C144.497 20.4287 144.23 20.1496 144.23 19.8085V14.1854C144.23 13.8445 144.222 13.2868 144.212 12.9459C144.212 12.9459 144.21 12.8817 144.171 12.5886C144.02 11.4759 143.614 10.9208 142.958 10.9208C142.15 10.9208 141.307 11.5461 140.431 12.7953V19.8084C140.431 20.1494 140.163 20.4285 139.836 20.4285H137.631C137.304 20.4285 137.036 20.1494 137.036 19.8084V14.2214C137.036 13.8804 137.009 13.3233 136.978 12.9842C136.978 12.9842 136.962 12.8208 136.92 12.5108C136.776 11.45 136.351 10.9206 135.641 10.9206C134.912 10.9206 134.097 11.5396 133.196 12.7807V19.8082C133.196 20.1492 132.928 20.4283 132.601 20.4283H130.375C130.047 20.4283 129.78 20.1492 129.78 19.8082V9.09851C129.78 8.75747 130.047 8.47859 130.375 8.47859H132.594V8.4784Z" fill="#352610"/>
<path d="M159.658 14.8436C159.557 14.9406 159.225 14.9671 159.225 14.9671H152.887C152.56 14.9671 152.348 15.2399 152.418 15.5731C152.418 15.5731 152.642 16.6535 153.209 17.2066C153.776 17.7591 154.483 18.0389 155.329 18.0389C156.118 18.0389 157.209 17.7472 158.602 17.1668C158.858 17.0606 158.975 17.0076 159.222 17.1881C159.385 17.3089 159.343 17.6486 159.343 17.6486L159.24 19.18C159.217 19.5201 158.942 19.8808 158.629 19.9808C158.629 19.9808 156.503 20.659 155.337 20.659C153.606 20.659 152.152 20.1319 150.975 19.0796C149.798 18.0279 149.091 16.6203 148.853 14.8563C148.606 13.0353 149.001 11.4843 150.034 10.2051C151.069 8.92603 152.445 8.28613 154.162 8.28613C155.648 8.28613 156.899 8.7472 157.913 9.66784C158.93 10.5896 159.536 11.8028 159.74 13.3107C159.789 13.6831 159.811 14.0695 159.803 14.4639C159.8 14.6296 159.779 14.7288 159.658 14.8436ZM152.525 12.8503C152.609 12.9022 152.808 12.9119 152.808 12.9119H155.753C156.08 12.9119 156.347 12.7811 156.346 12.6204C156.346 12.6204 156.346 12.6204 156.326 12.4744C156.255 11.9532 156.049 11.5306 155.7 11.2099C155.354 10.8888 154.925 10.7283 154.416 10.7283C153.416 10.7283 152.811 11.2788 152.487 12.5035C152.457 12.6135 152.401 12.7725 152.525 12.8503Z" fill="#352610"/>
<path d="M168.271 9.42928C168.342 9.54595 168.352 9.91966 168.352 9.91966L168.414 11.5605C168.427 11.9011 168.19 12.0729 167.888 11.9424C167.888 11.9424 167.156 11.6265 166.492 11.4481C165.828 11.2655 165.327 11.1774 164.99 11.1774C164.491 11.1774 164.262 11.352 164.309 11.7008C164.357 12.054 164.878 12.5769 165.875 13.2791C167.018 14.0833 167.775 14.7547 168.146 15.2936C168.519 15.8331 168.74 16.3699 168.813 16.9126C168.957 17.9908 168.677 18.8789 167.971 19.5801C167.264 20.2825 166.283 20.6329 165.028 20.6329C163.903 20.6329 162.733 20.3665 161.517 19.8308C161.323 19.7453 161.163 19.687 161.051 19.4927C160.959 19.3312 160.963 18.8043 160.963 18.8043L161.017 17.5271C161.031 17.1861 161.298 16.9914 161.61 17.0933C161.61 17.0933 163.593 17.7431 164.282 17.7431C165.028 17.7431 165.373 17.5245 165.314 17.086C165.265 16.7166 164.691 16.1413 163.595 15.3597C162.497 14.5776 161.772 13.9524 161.424 13.4878C161.07 13.0202 160.868 12.575 160.81 12.1477C160.657 11.0111 160.932 10.083 161.635 9.36507C162.339 8.64528 163.321 8.28613 164.577 8.28613C165.596 8.28613 166.658 8.55027 167.766 9.07742C167.953 9.16646 168.157 9.24056 168.271 9.42928Z" fill="#352610"/>
<path d="M23.5717 6.02881C24.2261 6.02881 24.7613 6.58657 24.7613 7.26903V21.3867C24.7613 22.0695 24.2261 22.6273 23.5717 22.6273H19.1266C18.4719 22.6273 17.9368 22.0697 17.9368 21.3867V7.26903C17.9368 6.58676 18.4719 6.02881 19.1266 6.02881H23.5717Z" fill="#352610"/>
<path d="M12.4458 11.3787C12.6648 11.5685 13.1776 11.5037 13.1776 11.5037L17.2669 11.4855C17.2669 11.4855 17.545 11.4683 17.7242 11.2323C17.9322 10.9587 17.9266 10.5377 17.9266 10.5377C17.9266 10.5377 17.9266 6.19474 17.9266 3.21217C17.9266 0.889471 13.7729 0.00112135 10.3796 1.34307e-06C3.73501 -0.00242533 1.01638 3.28329 0.851557 12.0255C0.685797 20.8442 7.3108 22.9362 14.227 22.9207C17.2271 22.9132 23.7439 22.9207 23.7439 22.9207C23.7439 22.9207 24.2214 22.9207 24.5404 22.6818C24.8094 22.48 24.795 21.8972 24.795 21.8972V17.2777C24.795 17.2777 24.801 16.7773 24.591 16.4725C24.3197 16.078 23.7713 16.104 23.7713 16.104L9.47391 17.1896C9.47391 17.1896 8.2027 17.1232 7.79166 16.7147C6.99832 15.9253 6.31157 11.8788 6.27909 9.8383C6.24512 7.69909 6.45568 7.2972 9.59263 7.31493C12.8824 7.33341 12.446 8.08045 12.446 8.9688C12.4458 9.53571 12.2067 11.1717 12.4458 11.3787Z" fill="#5C4627"/>
<path d="M29.3111 5.87311C29.3111 6.55538 28.7759 7.11333 28.1213 7.11333H14.5767C13.9224 7.11333 13.3871 6.55557 13.3871 5.87311V1.24003C13.3871 0.557949 13.9224 0 14.5767 0H28.1213C28.7759 0 29.3111 0.557949 29.3111 1.24003V5.87311Z" fill="#352610"/>
</g>
<defs>
<clipPath id="clip0_61_543">
<rect width="168.001" height="24" fill="white" transform="translate(0.848877)"/>
</clipPath>
</defs>
</svg>
