<svg width="60" height="60" viewBox="0 0 60 60" fill="none" xmlns="http://www.w3.org/2000/svg">
<path fill-rule="evenodd" clip-rule="evenodd" d="M13.3333 32C14.4839 32 15.4167 32.8954 15.4167 34V48C15.4167 49.1046 14.4839 50 13.3333 50C12.1827 50 11.25 49.1046 11.25 48V34C11.25 32.8954 12.1827 32 13.3333 32Z" fill="#CF32E5"/>
<path fill-rule="evenodd" clip-rule="evenodd" d="M13.3333 10C14.4839 10 15.4167 10.8954 15.4167 12V26C15.4167 27.1046 14.4839 28 13.3333 28C12.1827 28 11.25 27.1046 11.25 26V12C11.25 10.8954 12.1827 10 13.3333 10Z" fill="#CF32E5"/>
<path fill-rule="evenodd" clip-rule="evenodd" d="M30 28C31.1506 28 32.0833 28.8954 32.0833 30V48C32.0833 49.1046 31.1506 50 30 50C28.8494 50 27.9167 49.1046 27.9167 48V30C27.9167 28.8954 28.8494 28 30 28Z" fill="#CF32E5"/>
<path fill-rule="evenodd" clip-rule="evenodd" d="M30 10C31.1506 10 32.0833 10.8954 32.0833 12V22C32.0833 23.1046 31.1506 24 30 24C28.8494 24 27.9167 23.1046 27.9167 22V12C27.9167 10.8954 28.8494 10 30 10Z" fill="#CF32E5"/>
<path fill-rule="evenodd" clip-rule="evenodd" d="M46.6667 36C47.8173 36 48.75 36.8954 48.75 38V48C48.75 49.1046 47.8173 50 46.6667 50C45.5161 50 44.5833 49.1046 44.5833 48V38C44.5833 36.8954 45.5161 36 46.6667 36Z" fill="#CF32E5"/>
<path fill-rule="evenodd" clip-rule="evenodd" d="M46.6667 10C47.8173 10 48.75 10.8954 48.75 12V30C48.75 31.1046 47.8173 32 46.6667 32C45.5161 32 44.5833 31.1046 44.5833 30V12C44.5833 10.8954 45.5161 10 46.6667 10Z" fill="#CF32E5"/>
<path fill-rule="evenodd" clip-rule="evenodd" d="M5 34C5 32.8954 5.93274 32 7.08333 32H19.5833C20.7339 32 21.6667 32.8954 21.6667 34C21.6667 35.1046 20.7339 36 19.5833 36H7.08333C5.93274 36 5 35.1046 5 34Z" fill="#CF32E5"/>
<path fill-rule="evenodd" clip-rule="evenodd" d="M21.6667 22C21.6667 20.8954 22.5994 20 23.75 20H36.25C37.4006 20 38.3333 20.8954 38.3333 22C38.3333 23.1046 37.4006 24 36.25 24H23.75C22.5994 24 21.6667 23.1046 21.6667 22Z" fill="#CF32E5"/>
<path fill-rule="evenodd" clip-rule="evenodd" d="M38.3333 38C38.3333 36.8954 39.2661 36 40.4167 36H52.9167C54.0673 36 55 36.8954 55 38C55 39.1046 54.0673 40 52.9167 40H40.4167C39.2661 40 38.3333 39.1046 38.3333 38Z" fill="#CF32E5"/>
</svg>
