<svg width="151" height="42" viewBox="0 0 151 42" fill="none" xmlns="http://www.w3.org/2000/svg">
<path d="M46.3772 19.6739C46.5062 19.7339 46.6472 19.7549 46.7942 19.7369C49.1762 19.4639 51.8102 19.2599 54.6992 19.1279C55.6442 19.0859 56.1152 19.5359 56.1092 20.4809L56.1062 20.6579C56.1032 21.5429 55.6592 22.0259 54.7742 22.1039C52.1012 22.3349 49.4222 22.4669 46.7312 22.4939C46.5062 22.4969 46.3352 22.5539 46.2242 22.6619C46.0922 22.7879 46.0952 22.9979 46.2272 23.1209C48.6842 25.4309 51.0632 27.6419 53.3612 29.7569C54.0182 30.3599 54.6962 31.0199 55.3952 31.7369C55.9832 32.3369 56.6642 32.9759 57.4412 33.6509C58.0442 34.1729 58.0112 34.7549 57.3452 35.3999C57.3152 35.4299 57.2822 35.4569 57.2492 35.4779C56.5202 35.9759 55.8032 35.8979 55.0952 35.2439C51.7382 32.1299 48.5432 29.1839 45.5102 26.4059C44.0402 25.0589 42.7232 23.7239 41.0792 22.4429C40.3382 21.8639 40.3142 21.2789 41.0132 20.6819C42.8762 19.0889 44.4272 17.2019 46.1522 15.4529C48.9812 12.5849 51.8672 9.59093 54.8102 6.46793C56.1512 5.04893 58.0022 7.18793 56.7002 8.55293C55.6682 9.63593 54.6752 10.6889 53.7242 11.7119C52.7312 12.7859 51.7142 13.8029 50.6732 14.7599C49.2722 16.0559 47.8202 17.6039 46.3172 19.4069C46.2452 19.4939 46.2752 19.6259 46.3772 19.6739Z" fill="#352610"/>
<path d="M9.89423 28.6139C9.98423 28.7849 10.2092 28.8269 10.3562 28.7039C12.6902 26.7479 15.0152 24.7829 17.3342 22.8089C17.7602 22.4459 18.2222 22.1069 18.7172 21.7919C20.3672 20.7419 18.4592 19.5029 17.8052 18.7919C15.8672 16.6769 13.9232 14.4719 11.9732 12.1769C11.7182 11.8799 11.4482 11.6009 11.1572 11.3459C10.1792 10.4909 9.33023 9.59392 8.60723 8.64892C7.35623 7.01992 9.60323 5.53792 10.8782 6.85192C11.9012 7.90792 12.9212 9.01492 13.9382 10.1699C14.9372 11.3069 15.9542 12.4169 16.9892 13.4999C18.8342 15.4319 20.7752 17.6189 22.8092 20.0579C23.4422 20.8139 23.2592 21.6029 22.5272 22.2059C19.2002 24.9419 15.9542 27.6449 12.7892 30.3119C11.0912 31.7429 9.63323 33.2819 7.90223 34.4789C7.56323 34.7129 7.09823 34.4969 7.05623 34.0889C7.02923 33.8459 7.01423 33.6029 7.01123 33.3599C6.96323 31.0349 6.96023 28.3859 7.00223 25.4069C7.03223 23.1779 6.85223 20.8919 7.00823 18.5819C7.07423 17.5889 7.06523 16.6079 6.97823 15.6389C6.90323 14.7959 7.28423 14.3039 8.12123 14.1689C8.22023 14.1539 8.31623 14.1539 8.41523 14.1749C9.21623 14.3339 9.61823 14.8199 9.62123 15.6329C9.63623 18.0299 9.69923 20.2529 9.81023 22.3019C9.91523 24.2849 9.82223 26.2229 9.80423 28.2119C9.80423 28.3649 9.83423 28.4999 9.89423 28.6139Z" fill="#352610"/>
<path d="M62.7362 28.7189C62.8292 28.7909 62.9612 28.7909 63.0512 28.7159C65.3132 26.8379 67.5332 24.9659 69.7112 23.0999C70.3502 22.5509 71.0012 22.0529 71.6582 21.6059C72.2012 21.2369 72.2042 20.5319 71.7662 20.0789C69.6152 17.8439 67.5182 15.5129 65.4812 13.0859C64.3382 11.7269 62.5352 10.2959 61.2722 8.58889C60.1562 7.08289 62.2832 5.58889 63.4442 6.73789C64.5632 7.84489 65.6192 8.96989 66.6152 10.1189C67.5962 11.2529 68.6492 12.4019 69.7682 13.5689C71.5592 15.4409 73.4282 17.5409 75.3692 19.8659C75.9902 20.6099 76.2092 21.4079 75.3662 22.1009C71.8412 24.9959 68.3642 27.8999 64.9322 30.8099C63.4592 32.0579 62.1752 33.4649 60.5912 34.4759C60.0542 34.8209 59.7392 34.3049 59.7242 33.8279C59.6972 33.1169 59.6852 32.4419 59.6912 31.7999C59.7242 27.9809 59.7152 24.5969 59.6642 21.6539C59.6312 19.5839 59.8322 17.5559 59.6942 15.4739C59.6432 14.6999 60.0572 14.2589 60.9422 14.1479C60.9782 14.1449 61.0142 14.1449 61.0502 14.1479C61.9652 14.2529 62.4092 14.7629 62.3882 15.6839C62.3402 17.8619 62.3912 19.9499 62.5382 21.9479C62.6822 23.9159 62.5352 25.8749 62.5472 27.8999C62.5472 28.1879 62.4902 28.5209 62.7362 28.7189Z" fill="#352610"/>
<path d="M135.036 13.902C134.553 14.421 134.556 15.216 135.108 15.693C138.495 18.621 141.432 21.303 143.916 23.736C144.348 24.156 144.219 24.825 143.799 25.206C142.92 26.007 142.038 26.838 141.153 27.702C139.338 29.472 136.947 31.176 135.171 33.006C134.322 33.885 133.506 34.635 132.723 35.262C131.259 36.435 129.51 34.404 130.896 33.093C133.026 31.077 135.159 29.112 137.295 27.201C138.099 26.481 138.948 25.752 139.839 25.011C140.214 24.702 140.229 24.129 139.866 23.805L130.47 15.36C130.11 15.039 130.116 14.475 130.479 14.157C131.712 13.083 132.861 11.928 134.127 10.911C135.654 9.68102 137.172 8.34002 138.675 6.88502C140.16 5.45102 142.089 7.41902 140.745 8.75402C139.992 9.50402 139.191 10.212 138.339 10.878C137.142 11.814 136.041 12.822 135.036 13.902Z" fill="#352610"/>
<path d="M100.551 31.3681C100.821 31.7821 101.232 31.9741 101.781 31.9411C104.232 31.7941 106.56 31.6201 108.768 31.4131C109.53 31.3441 109.908 30.9091 109.902 30.1111C109.893 29.3311 110.274 28.8781 111.045 28.7491C111.171 28.7281 111.3 28.7191 111.432 28.7251C112.269 28.7551 112.698 29.1901 112.716 30.0271C112.737 31.0201 112.734 31.8961 112.713 32.6551C112.689 33.4801 112.296 33.9211 111.531 33.9781C109.608 34.1281 107.625 34.2601 105.585 34.3711C104.337 34.4371 103.203 34.5331 102.186 34.6591C101.067 34.8001 99.9302 34.8961 98.7782 34.9501C98.3372 34.9711 97.9352 34.9021 97.5752 34.7431C97.3052 34.6231 97.1462 34.3411 97.1822 34.0501C97.5122 31.3051 97.8272 28.6801 98.1272 26.1751C98.4362 23.5921 98.7362 20.7961 99.0332 17.7871C99.3482 14.5471 99.7652 11.2261 100.281 7.82409C100.563 5.97309 103.305 6.09609 103.035 7.95609C102.771 9.78309 102.555 11.5441 102.387 13.2391C102.162 15.4831 101.991 17.0521 101.874 17.9491C101.604 20.0071 101.256 22.1341 101.157 24.2191C101.058 26.3641 100.824 28.6081 100.461 30.9541C100.437 31.0981 100.47 31.2451 100.551 31.3681Z" fill="#352610"/>
<path d="M118.05 30.6359C118.122 31.2389 118.626 31.6949 119.232 31.7039C120.375 31.7249 121.455 31.7219 122.466 31.6919C123.321 31.6679 123.753 30.8549 123.846 30.0449C123.981 28.8599 124.086 27.7229 124.167 26.6339C124.293 24.8879 124.638 23.1479 124.713 21.4199C124.764 20.2499 124.872 19.0349 125.034 17.7719C125.241 16.1549 125.334 14.4719 125.592 12.8939C125.871 11.1719 126.078 9.64789 126.21 8.32189C126.291 7.50889 126.747 7.12489 127.578 7.16689C128.421 7.20589 128.871 7.63789 128.862 8.50489C128.853 9.36889 128.781 10.2149 128.643 11.0429C128.406 12.4739 128.241 13.9349 128.142 15.4289C127.956 18.2399 127.581 20.8529 127.23 23.5829C127.014 25.2479 127.032 26.9009 126.774 28.5959C126.552 30.0719 126.339 31.5719 126.138 33.0959C126.045 33.8129 125.472 34.3709 124.746 34.4099C122.109 34.5509 119.439 34.5779 116.736 34.4909C116.427 34.4819 116.157 34.3859 115.926 34.2059C115.578 33.9329 115.398 33.5939 115.386 33.1889C115.287 30.1439 114.987 27.0779 114.486 23.9849C114.297 22.7999 114.183 21.5969 114.15 20.3819C114.123 19.4939 114.027 18.5669 113.856 17.5979C113.703 16.7459 113.598 15.7289 113.541 14.5469C113.442 12.5219 113.232 10.4939 112.905 8.46289C112.761 7.55989 113.145 7.06789 114.057 6.98689C114.126 6.98089 114.192 6.97789 114.261 6.97489C115.164 6.94189 115.641 7.37689 115.698 8.27989C115.857 10.8419 116.109 13.2989 116.454 15.6539C116.751 17.6939 116.976 19.6469 117.126 21.5099C117.354 24.3659 117.663 27.4079 118.05 30.6359Z" fill="#352610"/>
<path d="M26.7002 28.0199C26.8052 28.2089 26.9372 28.2869 27.1022 28.2509C28.7252 27.8849 30.6992 27.3119 33.0242 26.5349C33.8852 26.2469 34.4162 26.5469 34.6172 27.4319C34.6262 27.4619 34.6322 27.4919 34.6352 27.5219C34.7702 28.4249 34.4042 29.0129 33.5342 29.2859C31.2122 30.0209 28.6202 30.8729 25.7582 31.8359C24.8132 32.1539 23.8802 32.4119 22.9592 32.6099C22.5122 32.7059 22.1312 32.2799 22.2752 31.8479C23.4182 28.4009 24.5372 24.9059 25.6322 21.3629C25.8632 20.6099 26.2652 19.7669 26.4752 19.0529C27.6542 14.9759 28.8692 11.2769 30.1142 7.96189C30.1772 7.79089 30.2732 7.64689 30.3962 7.52989C30.5672 7.36789 30.8462 7.40689 30.9632 7.61389C32.2022 9.81289 33.1742 12.1529 34.1222 14.5259C35.1452 17.0849 36.5012 19.6199 37.7132 22.0919C38.5262 23.7539 39.2582 25.3319 39.9032 26.8259C40.9652 29.2769 42.1262 31.7939 43.3892 34.3799C44.2262 36.0959 41.7182 37.1369 40.8692 35.4599C39.7742 33.2969 38.9582 31.1729 37.8902 29.0249C37.3052 27.8489 36.8372 26.6129 36.2162 25.4459C35.2562 23.6429 34.3082 21.8489 33.5192 19.9709C32.8982 18.4979 32.2442 16.9619 31.5542 15.3689C31.4732 15.1799 31.3412 15.0299 31.1612 14.9159C30.9992 14.8169 30.7862 14.8979 30.7352 15.0809C30.4082 16.2389 30.0152 17.3789 29.5502 18.5039C29.3192 19.0679 29.1152 19.6469 28.9442 20.2409C28.7132 21.0329 28.3892 21.7739 28.1972 22.5659C27.7832 24.2759 27.2762 25.9979 26.6792 27.7289C26.6462 27.8249 26.6522 27.9299 26.7002 28.0199Z" fill="#352610"/>
<path d="M83.8802 14.9399C83.6882 14.8499 83.4602 14.9579 83.4092 15.1649C82.9892 16.8419 82.2722 18.3239 81.7802 19.8839C81.4862 20.8169 81.1382 21.7349 80.8952 22.6889C80.4692 24.3719 79.9742 26.0459 79.4102 27.7109C79.3052 28.0229 79.5842 28.3289 79.9052 28.2479C81.9362 27.7409 83.8952 27.1679 85.7762 26.5229C86.6732 26.2169 87.1982 26.5319 87.3452 27.4709L87.3782 27.6809C87.4832 28.3589 87.0812 29.0099 86.4302 29.2199C83.9732 30.0119 81.4292 30.8519 78.8042 31.7399C77.8292 32.0699 76.7972 32.3609 75.7142 32.6129C75.2462 32.7239 74.8382 32.2739 74.9942 31.8179C75.8132 29.4029 76.6112 26.9489 77.3882 24.4559C78.2972 21.5339 79.4102 18.4109 80.3192 15.3779C81.1322 12.6599 81.9452 10.3889 82.8212 7.95291C82.8842 7.78191 82.9832 7.64091 83.1182 7.52991C83.3042 7.37391 83.5862 7.42791 83.7062 7.64091C85.4612 10.8089 86.5622 14.1149 88.0562 17.2289C89.1242 19.4579 90.2522 21.7619 91.4432 24.1439C92.2592 25.7819 92.8802 27.5939 93.7022 29.2919C94.5152 30.9749 95.3222 32.6939 96.1232 34.4519C96.8972 36.1439 94.4282 37.0739 93.6182 35.5109C92.5622 33.4709 91.7882 31.4099 90.8012 29.4269C90.1922 28.1969 89.6882 26.8919 89.0432 25.6799C87.3782 22.5509 85.8032 19.1339 84.3182 15.4289C84.2252 15.1949 84.0782 15.0329 83.8802 14.9399Z" fill="#352610"/>
</svg>
