<svg width="178" height="34" viewBox="0 0 178 34" fill="none" xmlns="http://www.w3.org/2000/svg">
<path d="M20.6647 5.26927C19.5605 3.26027 17.5882 2.22077 15.5232 3.77477C14.8407 4.28752 14.3525 4.98402 14.0602 5.86252C13.67 7.02802 13.6507 8.24952 13.2605 9.40277C12.5902 11.3873 11.1657 12.726 8.98522 13.4173C8.89947 13.4435 8.80672 13.412 8.75772 13.3385L7.78297 11.8983C7.73922 11.8335 7.77597 11.7478 7.85122 11.732C10.1245 11.2945 11.4282 9.93477 11.7625 7.65277C11.8202 7.25202 11.8867 6.86877 11.9585 6.50302C12.4432 4.03377 13.8905 2.02302 16.3282 1.31952C18.8937 0.57927 21.076 2.12277 22.3027 4.34702C22.3342 4.40477 22.3097 4.47652 22.2502 4.50452C21.748 4.72677 21.279 4.99627 20.8397 5.30952C20.782 5.35152 20.6997 5.33227 20.6647 5.26927Z" fill="#352610"/>
<path d="M7.12495 7.36233C6.0732 8.72908 6.1607 10.4843 7.0077 11.9771C7.55545 12.9413 8.2887 13.7393 8.7822 14.7456C9.69745 16.6111 9.62395 18.5501 8.5652 20.5608C8.5267 20.6326 8.4462 20.6711 8.3657 20.6571L6.63145 20.3421C6.5807 20.3333 6.5562 20.2738 6.58595 20.2318C7.2667 19.2956 7.6762 17.9761 7.5187 16.8561C7.41195 16.0983 7.09695 15.3686 6.57195 14.6686C5.9962 13.9003 5.52895 13.1478 5.16845 12.4111C3.50595 9.01258 5.04945 4.64108 9.24945 4.46083C9.99145 4.42933 10.7545 4.52208 11.5402 4.73733C11.5997 4.75308 11.6347 4.81433 11.619 4.87383L11.2042 6.45233C11.1832 6.53108 11.101 6.57658 11.0222 6.55383C9.69395 6.15658 7.9947 6.23183 7.12495 7.36233Z" fill="#352610"/>
<path d="M14.692 6.64285C15.9362 7.53185 17.5287 7.8381 18.8447 7.3586C19.41 7.15385 19.9787 6.8301 20.5475 6.39085C21.0042 6.0391 21.5572 5.69085 22.2065 5.3496C24.3747 4.2086 26.9717 4.2331 28.8565 5.7976C30.533 7.18885 30.7325 9.54435 30.1567 11.6076C30.1427 11.6531 30.0955 11.6811 30.05 11.6688L28.3945 11.2296C28.335 11.2138 28.314 11.1753 28.3332 11.1176C28.8127 9.5846 28.6657 7.6911 27.1152 6.8791C25.8815 6.23335 24.6005 6.2281 23.2757 6.8651C22.1645 7.39885 21.3017 8.2476 20.2167 8.78835C18.346 9.72285 16.393 9.67035 14.3542 8.6291C14.2632 8.58185 14.2142 8.48035 14.2335 8.3806L14.5607 6.69535C14.573 6.63585 14.643 6.60785 14.692 6.64285Z" fill="#352610"/>
<path d="M31.6127 16.4412C30.904 14.742 29.3097 13.9895 27.579 13.7532C24.5462 13.342 22.4305 12.0522 21.4802 8.967C21.4645 8.91625 21.4837 8.86025 21.5275 8.8305L23.0167 7.81375C23.071 7.777 23.1445 7.8085 23.155 7.8715C23.4087 9.345 24.3117 10.7642 25.6452 11.3382C26.1632 11.5622 26.6847 11.711 27.2115 11.7845C29.3482 12.0855 31.2155 12.6717 32.556 14.3482C34.9342 17.3267 33.6585 20.5992 30.5995 22.3387C30.5365 22.3737 30.4857 22.3597 30.449 22.2985L29.5792 20.8512C29.539 20.783 29.553 20.7305 29.623 20.692C31.2207 19.8135 32.3932 18.3085 31.6127 16.4412Z" fill="#352610"/>
<path d="M49.4575 19.8832C51.1445 18.0632 50.4655 15.0777 48.1257 14.1869C47.0845 13.7914 45.7667 13.9734 44.645 13.9454C44.5872 13.9437 44.5575 13.9122 44.5575 13.8544L44.5592 12.1954C44.5592 12.1132 44.6012 12.0712 44.6835 12.0729C45.989 12.0904 47.3697 11.9504 48.5755 12.3564C52.5357 13.6952 53.5367 18.7632 50.4637 21.5334C49.5905 22.3192 48.67 22.7549 47.7022 22.8407C46.822 22.9194 45.814 22.9387 44.6747 22.8967C44.6012 22.8932 44.5645 22.8547 44.5645 22.7812L44.5697 21.1397C44.5697 21.0819 44.6152 21.0364 44.673 21.0347C46.4405 21.0277 48.1257 21.3182 49.4575 19.8832Z" fill="#352610"/>
<path d="M63.0515 12.0801H55.649C55.5833 12.0801 55.53 12.1334 55.53 12.1991V13.8336C55.53 13.8993 55.5833 13.9526 55.649 13.9526H63.0515C63.1172 13.9526 63.1705 13.8993 63.1705 13.8336V12.1991C63.1705 12.1334 63.1172 12.0801 63.0515 12.0801Z" fill="#352610"/>
<path d="M68.3977 21.0382H73.9645C74.017 21.0382 74.059 21.0802 74.059 21.1327L74.052 22.8127C74.052 22.8652 74.01 22.9072 73.9575 22.9072L66.5375 22.9055C66.485 22.9055 66.443 22.8635 66.443 22.811L66.436 12.1692C66.436 12.1167 66.478 12.0747 66.5305 12.0747L68.2105 12.0765C68.263 12.0765 68.305 12.1185 68.305 12.171L68.3032 20.9437C68.3032 20.9962 68.3452 21.0382 68.3977 21.0382Z" fill="#352610"/>
<path d="M79.204 18.5095V22.8337C79.204 22.8845 79.162 22.9265 79.1112 22.9265L77.4435 22.9177C77.3805 22.9177 77.3297 22.867 77.3297 22.804L77.3245 16.6177C77.3245 16.5845 77.342 16.567 77.3752 16.5652C78.5897 16.5495 79.89 16.5512 81.2777 16.5705C81.738 16.5775 82.088 16.532 82.326 16.4322C83.6087 15.9002 83.2062 13.9525 81.7572 13.9507C80.2662 13.9507 78.8277 13.9507 77.4417 13.9525C77.3752 13.9525 77.3227 13.8982 77.3227 13.8317V12.1955C77.3227 12.1062 77.3665 12.0642 77.4557 12.066C78.4952 12.0957 79.5802 12.0957 80.7107 12.0695C81.8045 12.0432 82.5605 12.1202 82.977 12.2987C86.26 13.6987 85.2712 18.4255 81.7187 18.4167C80.9085 18.415 80.1035 18.4115 79.3037 18.4097C79.2372 18.4097 79.204 18.443 79.204 18.5095Z" fill="#352610"/>
<path d="M90.0925 18.5252L90.096 22.8162C90.096 22.8652 90.054 22.9072 90.005 22.9072L88.3127 22.895C88.262 22.895 88.2217 22.8547 88.2217 22.804L88.2305 12.1675C88.2305 12.1167 88.2707 12.0765 88.3215 12.0765L90.005 12.0782C90.0557 12.0782 90.096 12.1185 90.096 12.1692L90.0977 16.448C90.0977 16.4987 90.138 16.539 90.1887 16.539L94.5462 16.5355C94.597 16.5355 94.6372 16.4952 94.6372 16.4445L94.639 12.164C94.639 12.1132 94.6792 12.073 94.73 12.073L96.431 12.08C96.4817 12.08 96.522 12.1202 96.522 12.171L96.5202 22.8197C96.5202 22.8705 96.48 22.9107 96.4292 22.9107L94.7282 22.909C94.6775 22.909 94.6372 22.8687 94.6372 22.818L94.639 18.5252C94.639 18.4745 94.5987 18.4342 94.548 18.4342H90.1835C90.1327 18.4342 90.0925 18.4745 90.0925 18.5252Z" fill="#352610"/>
<path d="M101.548 12.0747H99.8645C99.8113 12.0747 99.7682 12.1178 99.7682 12.171V22.8075C99.7682 22.8606 99.8113 22.9037 99.8645 22.9037H101.548C101.601 22.9037 101.644 22.8606 101.644 22.8075V12.171C101.644 12.1178 101.601 12.0747 101.548 12.0747Z" fill="#352610"/>
<path d="M113.408 21.038C115.091 21.0363 116.547 20.0265 116.971 18.42C117.448 16.6 116.493 14.766 114.711 14.1465C113.723 13.8035 112.442 13.9733 111.355 13.9488C111.294 13.947 111.264 13.9173 111.264 13.856L111.266 12.1918C111.266 12.1113 111.306 12.071 111.386 12.071C112.099 12.0745 112.809 12.078 113.518 12.0798C118.588 12.099 120.906 18.3623 117.048 21.619C115.331 23.068 113.509 22.9613 111.371 22.9C111.299 22.8983 111.264 22.8598 111.264 22.788V21.1325C111.264 21.0783 111.309 21.0345 111.364 21.0345C112.016 21.038 112.699 21.0398 113.408 21.038Z" fill="#352610"/>
<path d="M124.03 12.0767H122.343C122.29 12.0767 122.247 12.1198 122.247 12.1729V22.8129C122.247 22.8661 122.29 22.9092 122.343 22.9092H124.03C124.083 22.9092 124.126 22.8661 124.126 22.8129V12.1729C124.126 12.1198 124.083 12.0767 124.03 12.0767Z" fill="#352610"/>
<path d="M143.233 12.0767H141.56C141.506 12.0767 141.462 12.1205 141.462 12.1747V22.8042C141.462 22.8583 141.506 22.9022 141.56 22.9022H143.233C143.287 22.9022 143.331 22.8583 143.331 22.8042V12.1747C143.331 12.1205 143.287 12.0767 143.233 12.0767Z" fill="#352610"/>
<path d="M151.339 14.0416L151.341 22.8196C151.341 22.8704 151.3 22.9106 151.25 22.9106L149.556 22.8984C149.505 22.8984 149.465 22.8581 149.465 22.8074L149.47 14.0451C149.47 13.9944 149.43 13.9541 149.379 13.9541L146.693 13.9489C146.642 13.9489 146.602 13.9086 146.602 13.8579L146.61 12.1691C146.61 12.1184 146.651 12.0781 146.701 12.0781L154.144 12.0799C154.195 12.0799 154.235 12.1201 154.235 12.1709L154.237 13.8631C154.237 13.9139 154.197 13.9541 154.146 13.9541L151.43 13.9506C151.379 13.9506 151.339 13.9909 151.339 14.0416Z" fill="#352610"/>
<path d="M157.749 22.8987L155.885 22.9074C155.842 22.9074 155.81 22.8637 155.826 22.8217L159.728 12.1187C159.739 12.0924 159.762 12.0767 159.788 12.0767L161.694 12.0802C161.72 12.0802 161.743 12.0959 161.753 12.1222L165.654 22.8234C165.67 22.8654 165.638 22.9092 165.594 22.9092L163.736 22.9004C163.71 22.9004 163.687 22.8847 163.676 22.8584L160.792 14.9712C160.771 14.9152 160.694 14.9152 160.673 14.9712L157.809 22.8567C157.798 22.8829 157.775 22.8987 157.749 22.8987Z" fill="#352610"/>
<path d="M170.909 21.038H176.14C176.194 21.038 176.238 21.0818 176.238 21.136L176.236 22.8055C176.236 22.8598 176.192 22.9035 176.138 22.9035L169.035 22.9053C168.981 22.9053 168.937 22.8615 168.937 22.8073L168.935 12.169C168.935 12.1148 168.979 12.071 169.033 12.071L170.711 12.0798C170.766 12.0798 170.809 12.1235 170.809 12.1778L170.811 20.94C170.811 20.9943 170.855 21.038 170.909 21.038Z" fill="#352610"/>
<path d="M136.109 18.4449L134.457 18.4256C134.392 18.4239 134.359 18.3906 134.359 18.3259L134.35 16.6214C134.35 16.5846 134.38 16.5549 134.416 16.5549L138.088 16.5619C138.153 16.5619 138.188 16.5934 138.193 16.6581C138.345 18.2524 137.988 19.6121 137.122 20.7409C134.289 24.4351 128.487 23.1454 127.516 18.5901C126.979 16.0631 128.325 13.5641 130.673 12.5351C132.64 11.6724 134.92 12.0994 136.516 13.5676C136.574 13.6219 136.576 13.7129 136.52 13.7689L135.416 14.8731C135.363 14.9256 135.279 14.9291 135.223 14.8819C134.234 14.0541 133.174 13.7724 132.038 14.0349C129.121 14.7121 128.276 18.4606 130.643 20.2929C132.652 21.8486 135.382 20.8616 136.193 18.5656C136.221 18.4851 136.193 18.4449 136.109 18.4449Z" fill="#352610"/>
<path d="M10.471 24.5298C9.24598 23.1455 7.51523 23.212 5.89298 22.813C3.41148 22.204 1.43923 20.3595 1.12598 17.8115C0.851226 15.5628 2.35273 13.6868 4.27248 12.6105C4.33023 12.5773 4.40373 12.5965 4.43698 12.6543L5.26648 14.0893C5.30148 14.1488 5.28923 14.196 5.22798 14.2293C3.96798 14.9293 2.67823 16.247 3.01948 17.7888C3.45173 19.7435 5.01448 20.825 6.93248 21.1173C7.41023 21.189 7.88273 21.2765 8.35348 21.3763C10.9172 21.9258 12.5937 23.464 13.3847 25.9928C13.4075 26.0645 13.3865 26.1223 13.3235 26.166L11.864 27.1635C11.7782 27.2213 11.7275 27.2003 11.7117 27.0988C11.5525 26.1415 11.1395 25.284 10.471 24.5298Z" fill="#352610"/>
<path d="M28.286 14.7017C27.3252 15.9739 27.0522 17.7432 27.6297 19.0854C27.8642 19.6297 28.1775 20.1512 28.5677 20.6482C29.917 22.3632 30.778 24.5262 30.2145 26.6752C29.7087 28.6072 28.5625 29.8217 26.7722 30.3169C25.668 30.6232 24.4115 30.4849 23.3107 30.1857C23.2617 30.1717 23.232 30.1209 23.2442 30.0719L23.6747 28.4374C23.6905 28.3814 23.7482 28.3499 23.8042 28.3657C25.92 28.9939 27.8537 28.4182 28.4067 26.1467C28.7935 24.5612 28.083 23.0422 27.096 21.7804C26.8107 21.4147 26.5482 21.0227 26.3085 20.6044C25.1727 18.6287 25.1675 16.5549 26.2945 14.3797C26.3382 14.2939 26.4327 14.2484 26.5272 14.2659L28.2422 14.5897C28.293 14.6002 28.3175 14.6597 28.286 14.7017Z" fill="#352610"/>
<path d="M61.7932 16.5356H55.6227C55.5744 16.5356 55.5352 16.5748 55.5352 16.6231V18.3416C55.5352 18.39 55.5744 18.4291 55.6227 18.4291H61.7932C61.8415 18.4291 61.8807 18.39 61.8807 18.3416V16.6231C61.8807 16.5748 61.8415 16.5356 61.7932 16.5356Z" fill="#352610"/>
<path d="M63.0515 21.0383H55.6455C55.5846 21.0383 55.5352 21.0877 55.5352 21.1486V22.7971C55.5352 22.858 55.5846 22.9073 55.6455 22.9073H63.0515C63.1124 22.9073 63.1617 22.858 63.1617 22.7971V21.1486C63.1617 21.0877 63.1124 21.0383 63.0515 21.0383Z" fill="#352610"/>
<path d="M21.272 26.8748C21.6395 24.2411 23.2792 22.3476 25.8937 21.5216C25.962 21.5006 26.0372 21.5251 26.0792 21.5846L27.0837 23.0178C27.1257 23.0791 27.0925 23.1631 27.019 23.1753C24.9207 23.5586 23.4752 24.9988 23.1532 27.1181C23.0447 27.8286 22.91 28.4953 22.7472 29.1201C22.1172 31.5456 20.243 33.4583 17.7317 33.7453C15.4795 34.0026 13.6 32.4521 12.543 30.5236C12.5237 30.4903 12.5307 30.4623 12.5657 30.4431L14.0655 29.5996C14.1162 29.5698 14.1582 29.5803 14.188 29.6311C15.371 31.6138 16.7815 32.2876 18.4177 31.6523C20.474 30.8508 21.0007 28.8296 21.272 26.8748Z" fill="#352610"/>
<path d="M19.2157 27.755C17.541 27.0585 16.0062 27.251 14.615 28.3307C12.7722 29.7605 10.625 30.8595 8.23447 30.2417C4.91472 29.386 3.79822 26.4757 4.70297 23.3397C4.72047 23.2767 4.76072 23.254 4.82372 23.2697L6.46697 23.7037C6.51072 23.716 6.53697 23.7597 6.52472 23.8035C6.06097 25.361 6.18872 27.272 7.83372 28.0997C9.95122 29.1655 11.8045 28.1435 13.5177 26.831C15.6317 25.2157 18.1902 25.06 20.558 26.3637C20.621 26.397 20.6455 26.4495 20.6332 26.5195L20.3217 28.2117C20.3077 28.2905 20.215 28.3272 20.1485 28.28C19.858 28.0682 19.5465 27.8932 19.2157 27.755Z" fill="#352610"/>
</svg>
