<svg width="21" height="21" viewBox="0 0 21 21" fill="none" xmlns="http://www.w3.org/2000/svg">
<path d="M17.6088 4.72245C19.7546 7.8774 20.8143 11.4361 20.4182 15.533C20.4165 15.5503 20.4075 15.5662 20.3932 15.5767C18.7682 16.7699 17.1939 17.494 15.6416 17.9742C15.6295 17.9779 15.6165 17.9777 15.6046 17.9736C15.5926 17.9696 15.5822 17.9619 15.5748 17.9517C15.2162 17.4527 14.8903 16.9266 14.6049 16.3742C14.5885 16.3416 14.6034 16.3025 14.6372 16.2896C15.1547 16.0946 15.6468 15.8609 16.1201 15.5843C16.1574 15.5624 16.1598 15.509 16.1253 15.4833C16.0249 15.4087 15.9254 15.3304 15.8301 15.252C15.8123 15.2375 15.7883 15.2347 15.7681 15.2444C12.6951 16.6635 9.32882 16.6635 6.21948 15.2444C6.19929 15.2354 6.1753 15.2385 6.15796 15.2527C6.06296 15.3311 5.96321 15.4087 5.8637 15.4833C5.82926 15.509 5.83211 15.5624 5.86964 15.5843C6.34298 15.8557 6.83507 16.0946 7.35187 16.2906C7.38536 16.3034 7.40127 16.3416 7.38465 16.3742C7.10535 16.9273 6.7795 17.4534 6.41423 17.9524C6.39831 17.9726 6.37219 17.9818 6.34749 17.9742C4.80255 17.494 3.22817 16.7699 1.6032 15.5767C1.58966 15.5662 1.57992 15.5496 1.5785 15.5322C1.24742 11.9885 1.92216 8.40037 4.38527 4.72174C4.3912 4.712 4.40023 4.7044 4.41068 4.69989C5.62264 4.14367 6.92105 3.73446 8.27812 3.50076C8.30282 3.49696 8.32752 3.50836 8.34035 3.53021C8.50802 3.82708 8.69968 4.20779 8.82936 4.51892C10.2598 4.30042 11.7126 4.30042 13.173 4.51892C13.3027 4.21444 13.4877 3.82708 13.6546 3.53021C13.6606 3.51937 13.6698 3.51068 13.681 3.50539C13.6922 3.50011 13.7047 3.49848 13.7169 3.50076C15.0746 3.73517 16.3731 4.14438 17.5841 4.69989C17.5948 4.7044 17.6035 4.712 17.6088 4.72245ZM9.55658 11.4603C9.57155 10.4127 8.80775 9.54583 7.84896 9.54583C6.89801 9.54583 6.14158 10.4051 6.14158 11.4603C6.14158 12.5153 6.91297 13.3746 7.84896 13.3746C8.80015 13.3746 9.55658 12.5153 9.55658 11.4603ZM15.8698 11.4603C15.8848 10.4127 15.121 9.54583 14.1624 9.54583C13.2112 9.54583 12.4548 10.4051 12.4548 11.4603C12.4548 12.5153 13.2262 13.3746 14.1624 13.3746C15.121 13.3746 15.8698 12.5153 15.8698 11.4603Z" fill="#FDFDFD"/>
</svg>
