<svg width="24" height="24" viewBox="0 0 24 24" fill="none" xmlns="http://www.w3.org/2000/svg">
<path d="M18.6784 6.01605C20.8468 9.15419 21.9177 12.6939 21.5174 16.769C21.5157 16.7862 21.5066 16.8021 21.4922 16.8124C19.8501 17.9993 18.2591 18.7196 16.6905 19.1972C16.6783 19.2009 16.6652 19.2007 16.6531 19.1967C16.641 19.1926 16.6305 19.185 16.623 19.1748C16.2607 18.6785 15.9314 18.1552 15.6429 17.6057C15.6263 17.5734 15.6415 17.5344 15.6755 17.5216C16.1985 17.3277 16.6958 17.0952 17.1741 16.82C17.2118 16.7983 17.2142 16.7451 17.1794 16.7196C17.0778 16.6454 16.9773 16.5675 16.881 16.4895C16.863 16.4751 16.8388 16.4723 16.8184 16.482C13.7131 17.8935 10.3113 17.8935 7.16923 16.482C7.14883 16.473 7.12459 16.4761 7.10707 16.4902C7.01107 16.5682 6.91027 16.6454 6.80971 16.7196C6.77491 16.7451 6.77779 16.7983 6.81571 16.82C7.29403 17.09 7.7913 17.3277 8.31354 17.5226C8.34738 17.5353 8.36346 17.5734 8.34666 17.6057C8.06442 18.1559 7.73514 18.6792 7.36602 19.1755C7.34995 19.1956 7.32354 19.2048 7.29858 19.1972C5.73739 18.7196 4.14643 17.9993 2.50435 16.8124C2.49067 16.8021 2.48083 16.7855 2.47939 16.7683C2.14483 13.2434 2.82667 9.67438 5.31571 6.01534C5.32171 6.00566 5.33083 5.9981 5.34139 5.99361C6.56611 5.44035 7.87818 5.03332 9.24954 4.80086C9.2745 4.79708 9.29946 4.80842 9.31242 4.83015C9.48186 5.12545 9.67554 5.50413 9.80658 5.8136C11.2521 5.59626 12.7202 5.59626 14.1959 5.8136C14.327 5.51075 14.5139 5.12545 14.6827 4.83015C14.6887 4.81937 14.698 4.81074 14.7093 4.80547C14.7206 4.80021 14.7333 4.7986 14.7455 4.80086C16.1176 5.03403 17.4297 5.44106 18.6534 5.99361C18.6642 5.9981 18.6731 6.00566 18.6784 6.01605ZM10.5415 12.718C10.5566 11.676 9.78474 10.8137 8.81586 10.8137C7.8549 10.8137 7.09051 11.6684 7.09051 12.718C7.09051 13.7674 7.87002 14.6221 8.81586 14.6221C9.77706 14.6221 10.5415 13.7674 10.5415 12.718ZM16.9211 12.718C16.9362 11.676 16.1644 10.8137 15.1958 10.8137C14.2346 10.8137 13.4702 11.6684 13.4702 12.718C13.4702 13.7674 14.2497 14.6221 15.1958 14.6221C16.1644 14.6221 16.9211 13.7674 16.9211 12.718Z" fill="#CF32E5"/>
</svg>
