<svg width="136" height="40" viewBox="0 0 136 40" fill="none" xmlns="http://www.w3.org/2000/svg">
<g clip-path="url(#clip0_61_305)">
<mask id="mask0_61_305" style="mask-type:luminance" maskUnits="userSpaceOnUse" x="0" y="0" width="135" height="40">
<path d="M134.429 0H0.102173V40H134.429V0Z" fill="white"/>
</mask>
<g mask="url(#mask0_61_305)">
<path fill-rule="evenodd" clip-rule="evenodd" d="M54.0156 2.9423C53.8542 2.79162 53.7253 2.60661 53.6377 2.39966C53.5502 2.19271 53.506 1.96858 53.508 1.7423C53.5022 1.50996 53.5446 1.27908 53.6322 1.0655C53.7199 0.85191 53.8507 0.660674 54.0156 0.504912C54.3797 0.188413 54.8382 0.0151367 55.3117 0.0151367C55.7851 0.0151367 56.2436 0.188413 56.6077 0.504912C56.7714 0.661481 56.9012 0.852953 56.9881 1.06641C57.075 1.27987 57.1172 1.51035 57.1118 1.7423C57.1124 1.96907 57.0668 2.1934 56.978 2.40032C56.8893 2.60723 56.7593 2.792 56.5969 2.9423C56.2338 3.26086 55.7749 3.43547 55.301 3.43547C54.8269 3.43547 54.3681 3.26086 54.0049 2.9423H54.0156ZM56.8293 4.5124V14.8713H53.7939V4.5124H56.8293ZM49.1748 2.65445C50.1312 3.17277 50.9244 3.96841 51.4593 4.94604C52.0107 5.98844 52.2894 7.16443 52.2674 8.35539C52.2873 9.54255 52.0087 10.7144 51.4593 11.7535C50.9253 12.7373 50.129 13.5374 49.1677 14.0564C48.1033 14.6171 46.9236 14.897 45.7319 14.8713H41.0591V1.83576H45.7319C46.9266 1.80675 48.1096 2.08805 49.1748 2.65445ZM48.2166 11.1405C48.8578 10.4825 49.1773 9.55414 49.1748 8.35539C49.1725 7.15664 48.853 6.22205 48.2166 5.55165C47.5756 4.88124 46.6817 4.54729 45.5353 4.54979H44.1052V12.1236H45.5353C46.6841 12.1236 47.5779 11.7959 48.2166 11.1405ZM58.978 13.2863C59.3977 13.8461 59.948 14.2838 60.5762 14.5573C61.3072 14.8758 62.0939 15.0311 62.8857 15.0134C63.6113 15.0277 64.3324 14.8891 65.0058 14.6058C65.5645 14.3755 66.051 13.9871 66.4108 13.4844C66.7347 13.0118 66.905 12.4433 66.8971 11.8619C66.9165 11.2401 66.7254 10.6311 66.3572 10.1423C66.0305 9.73251 65.6116 9.41394 65.138 9.21521C64.5545 8.98065 63.9575 8.78463 63.3505 8.62829C62.866 8.5326 62.3926 8.38349 61.9382 8.18343C61.8059 8.13423 61.6914 8.0436 61.6101 7.92385C61.5289 7.80411 61.4849 7.66109 61.4842 7.51427C61.4811 7.39974 61.5056 7.28624 61.5557 7.1843C61.6056 7.08235 61.6795 6.99525 61.7702 6.9311C62.0143 6.77365 62.2991 6.69921 62.5854 6.71801C62.9447 6.69977 63.2992 6.81057 63.59 7.03203C63.7157 7.13631 63.8202 7.26571 63.8976 7.41269C63.975 7.55966 64.0235 7.72129 64.0405 7.8881H66.847C66.7759 6.89649 66.3325 5.97455 65.6135 5.32362C64.8985 4.68062 63.919 4.35913 62.6747 4.35913C61.9245 4.3389 61.1788 4.48543 60.4868 4.78904C59.9276 5.02998 59.4462 5.43345 59.0995 5.95165C58.7932 6.42744 58.6324 6.98933 58.6383 7.56286C58.6069 8.17065 58.7901 8.76933 59.1532 9.24511C59.4822 9.64951 59.9024 9.96174 60.376 10.1535C60.9595 10.3777 61.5567 10.5613 62.1635 10.7031C62.6521 10.8175 63.1305 10.9751 63.5936 11.174C63.7242 11.2224 63.8371 11.312 63.9165 11.4307C63.996 11.5494 64.0381 11.6909 64.0369 11.8358C64.0378 11.9549 64.01 12.0725 63.9564 12.1776C63.9027 12.2827 63.8246 12.3721 63.7294 12.4376C63.466 12.6074 63.1589 12.6883 62.85 12.6694C62.4753 12.6819 62.1071 12.5649 61.8024 12.3367C61.6669 12.2356 61.5541 12.105 61.4714 11.9541C61.3887 11.8031 61.3382 11.6353 61.3233 11.4619H58.3202C58.3625 12.1246 58.5914 12.7594 58.978 13.2863ZM72.4922 4.80773C73.0553 4.4995 73.6838 4.34517 74.3191 4.35913C75.1035 4.34904 75.8741 4.57483 76.5393 5.0096C77.2205 5.46666 77.7654 6.11421 78.1125 6.87876C78.4903 7.76064 78.6857 8.71611 78.6857 9.6825C78.6857 10.6489 78.4903 11.6044 78.1125 12.4863C77.7628 13.2489 77.2184 13.8958 76.5393 14.3554C75.8755 14.7941 75.1044 15.0227 74.3191 15.0134C73.6865 15.0263 73.0609 14.8733 72.4993 14.5685C71.9998 14.3017 71.5721 13.9085 71.2552 13.4246V19.8096H68.2198V4.5124H71.2552V5.97782C71.5655 5.48401 71.9913 5.08124 72.4922 4.80773ZM74.9699 7.79839C74.7676 7.57812 74.5234 7.40473 74.2531 7.28945C73.9827 7.17417 73.6921 7.11959 73.4003 7.12923C73.1122 7.12439 72.8264 7.18314 72.5615 7.30167C72.2966 7.4202 72.0586 7.59582 71.8629 7.81707C71.4271 8.32979 71.201 9.00102 71.2338 9.68623C71.201 10.3714 71.4271 11.0427 71.8629 11.5554C72.0617 11.7737 72.3007 11.9475 72.5657 12.0663C72.8305 12.185 73.1157 12.2463 73.4039 12.2463C73.6922 12.2463 73.9772 12.185 74.2422 12.0663C74.5071 11.9475 74.7461 11.7737 74.9448 11.5554C75.1648 11.3 75.3345 11.0019 75.4443 10.678C75.5542 10.3541 75.6019 10.0107 75.5848 9.66754C75.6238 8.98631 75.4026 8.31673 74.9699 7.80586V7.79839ZM82.8781 10.4526H89.7497C89.7848 10.1437 89.8026 9.83284 89.8033 9.52174C89.8237 8.57039 89.6068 7.62987 89.1741 6.79276C88.7694 6.02862 88.1624 5.40293 87.4258 4.9909C86.6381 4.55868 85.7589 4.34139 84.8695 4.35912C83.9504 4.33431 83.0406 4.55702 82.2275 5.00585C81.4765 5.43479 80.8624 6.08467 80.4613 6.87501C80.0276 7.74542 79.8112 8.71624 79.8321 9.69744C79.8092 10.6802 80.0295 11.6525 80.472 12.5199C80.8801 13.3125 81.5016 13.9624 82.2597 14.389C83.0579 14.8329 83.9513 15.0568 84.8552 15.0395C85.6057 15.0517 86.3497 14.8935 87.0361 14.5759C87.6557 14.2899 88.2049 13.8601 88.6422 13.3194C89.0795 12.7786 89.3934 12.1408 89.5601 11.4545H86.3425C86.2114 11.7727 85.9889 12.0405 85.7057 12.2206C85.4226 12.4008 85.0929 12.4845 84.7623 12.46C84.2856 12.473 83.8231 12.289 83.4752 11.9479C83.0976 11.5498 82.8833 11.0133 82.8781 10.4526ZM86.5714 7.97606C86.6636 8.20061 86.7063 8.44395 86.6965 8.6881H82.896C82.9481 8.17985 83.1801 7.71039 83.5467 7.37221C83.9063 7.05654 84.3644 6.89022 84.8338 6.90492C85.3196 6.88706 85.7943 7.06049 86.1638 7.3909C86.3398 7.55153 86.4792 7.75152 86.5714 7.97606ZM95.5915 4.8937C96.133 4.56134 96.7513 4.39066 97.3791 4.40024V7.76473H96.5461C95.9379 7.71633 95.3331 7.89662 94.8408 8.27314C94.4618 8.61706 94.2722 9.21145 94.2722 10.0675V14.8713H91.237V4.51238H94.2722V6.22827C94.6052 5.68083 95.0572 5.22352 95.5915 4.8937ZM98.7699 13.2863C99.1911 13.8445 99.7411 14.2818 100.368 14.5573C101.1 14.8776 101.888 15.0341 102.681 15.017C103.408 15.0311 104.13 14.8926 104.805 14.6096C105.363 14.3796 105.848 13.9911 106.206 13.4881C106.531 13.0159 106.702 12.4474 106.696 11.8657C106.715 11.2434 106.522 10.6343 106.153 10.146C105.826 9.7372 105.409 9.41876 104.937 9.21894C104.354 8.98406 103.757 8.78803 103.15 8.63202C102.665 8.53574 102.192 8.38664 101.737 8.18716C101.606 8.13735 101.492 8.04644 101.411 7.92675C101.331 7.80706 101.287 7.66437 101.287 7.518C101.283 7.40376 101.307 7.29036 101.356 7.18839C101.406 7.08641 101.479 6.99917 101.569 6.93483C101.814 6.77686 102.101 6.70241 102.388 6.72174C102.746 6.70345 103.1 6.81431 103.389 7.03576C103.515 7.13984 103.62 7.26913 103.698 7.41611C103.776 7.56307 103.825 7.72479 103.843 7.89183H106.649C106.614 7.39874 106.486 6.91785 106.272 6.47701C106.058 6.03616 105.762 5.64413 105.402 5.32361C104.687 4.68062 103.707 4.35913 102.463 4.35913C101.715 4.3403 100.972 4.4868 100.282 4.78903C99.7235 5.02913 99.2431 5.43285 98.8986 5.95165C98.5866 6.42941 98.4219 6.99557 98.4267 7.57407C98.3988 8.17854 98.5832 8.7728 98.945 9.24511C99.2747 9.65049 99.6963 9.96284 100.171 10.1535C100.755 10.3779 101.352 10.5615 101.959 10.7031C102.447 10.8179 102.926 10.9755 103.389 11.174C103.52 11.2224 103.632 11.312 103.712 11.4307C103.791 11.5494 103.834 11.6909 103.832 11.8358C103.833 11.9554 103.805 12.0734 103.751 12.1787C103.697 12.2839 103.618 12.373 103.521 12.4376C103.258 12.6074 102.951 12.6883 102.642 12.6694C102.267 12.6814 101.899 12.5645 101.594 12.3367C101.459 12.235 101.347 12.1044 101.264 11.9536C101.182 11.8027 101.131 11.635 101.115 11.4619H98.1157C98.1569 12.1241 98.3845 12.7589 98.7699 13.2863ZM108.601 2.9423C108.438 2.793 108.306 2.6086 108.215 2.40157C108.126 2.19455 108.079 1.96973 108.079 1.7423C108.074 1.50996 108.117 1.27908 108.204 1.0655C108.292 0.85191 108.423 0.660674 108.587 0.504912C108.952 0.188413 109.41 0.0151367 109.884 0.0151367C110.357 0.0151367 110.816 0.188413 111.179 0.504912C111.346 0.660113 111.478 0.850978 111.568 1.06451C111.657 1.27803 111.702 1.50921 111.698 1.7423C111.702 1.97074 111.658 2.19742 111.572 2.40702C111.485 2.61662 111.356 2.80426 111.194 2.95725C110.831 3.27581 110.372 3.45043 109.898 3.45043C109.424 3.45043 108.965 3.27581 108.601 2.95725V2.9423ZM111.415 4.5124V14.8713H108.376V4.5124H111.415ZM113.5 12.5011C113.927 13.2941 114.561 13.9428 115.33 14.3704C116.137 14.8091 117.037 15.0301 117.947 15.0134C118.863 15.0266 119.768 14.8031 120.582 14.3628C121.36 13.9368 122.007 13.2887 122.448 12.4937C122.895 11.6294 123.127 10.6627 123.127 9.68062C123.127 8.69854 122.895 7.73186 122.448 6.86753C122.016 6.07347 121.376 5.42499 120.604 4.99837C119.787 4.57049 118.887 4.34768 117.974 4.34768C117.061 4.34768 116.161 4.57049 115.345 4.99837C114.572 5.42499 113.931 6.07347 113.5 6.86753C113.06 7.73512 112.829 8.70226 112.829 9.68435C112.829 10.6664 113.06 11.6336 113.5 12.5011ZM120.046 9.68996C120.089 10.3877 119.868 11.0752 119.43 11.604C119.244 11.82 119.015 11.9924 118.76 12.1096C118.505 12.2268 118.23 12.2864 117.951 12.2844C117.677 12.2906 117.406 12.2339 117.155 12.1183C116.906 12.0026 116.683 11.8309 116.503 11.6151C116.086 11.0761 115.879 10.3926 115.924 9.70117C115.878 9.00593 116.087 8.31857 116.51 7.77967C116.698 7.57036 116.927 7.4036 117.179 7.28962C117.432 7.17563 117.704 7.11684 117.979 7.11684C118.254 7.11684 118.527 7.17563 118.779 7.28962C119.032 7.4036 119.26 7.57036 119.449 7.77967C119.876 8.31253 120.089 8.99663 120.046 9.68996ZM133.388 5.57782C134.082 6.3666 134.428 7.44697 134.428 8.81894V14.8713H131.407V9.24511C131.442 8.65743 131.257 8.07861 130.893 7.63015C130.518 7.26082 130.023 7.05512 129.507 7.05512C128.993 7.05512 128.497 7.26082 128.122 7.63015C127.757 8.07861 127.572 8.65743 127.607 9.24511V14.8713H124.573V4.5124H127.607V5.88435C127.927 5.41797 128.355 5.04479 128.852 4.80024C129.398 4.52763 129.998 4.39074 130.603 4.40024C131.121 4.37525 131.638 4.46753 132.119 4.67076C132.6 4.87401 133.033 5.18341 133.388 5.57782ZM43.215 22.7217C42.2749 23.2729 41.5028 24.0906 40.9876 25.0806V25.0994C40.4611 26.1621 40.1862 27.3416 40.1862 28.5386C40.1862 29.7356 40.4611 30.915 40.9876 31.9778C41.5054 32.9628 42.2771 33.7763 43.215 34.3255C44.2064 34.8993 45.3247 35.1906 46.4577 35.1704C47.8173 35.2099 49.1521 34.7833 50.2582 33.9554C51.3143 33.137 52.0622 31.9569 52.3711 30.6208H49.0318C48.8034 31.14 48.4294 31.5741 47.9593 31.8657C47.4893 32.154 46.9524 32.3015 46.4076 32.2918C45.9801 32.3077 45.5544 32.2244 45.1614 32.0479C44.7682 31.8715 44.4173 31.6063 44.1338 31.2713C43.5699 30.4837 43.265 29.5263 43.265 28.5423C43.265 27.5584 43.5699 26.6009 44.1338 25.8134C44.4173 25.4784 44.7682 25.2131 45.1614 25.0367C45.5544 24.8603 45.9801 24.7769 46.4076 24.7928C46.9524 24.7831 47.4893 24.9306 47.9593 25.2189C48.4294 25.5105 48.8034 25.9446 49.0318 26.4638H52.3711C52.0643 25.1186 51.3167 23.9283 50.2582 23.0994C49.1536 22.2676 47.8184 21.8381 46.4577 21.8769C45.3247 21.8566 44.2064 22.1479 43.215 22.7217ZM54.0299 27.0545C54.3751 26.2887 54.9205 25.6407 55.6031 25.1853C56.2671 24.751 57.0364 24.5253 57.8196 24.5348C58.4592 24.5207 59.0921 24.6736 59.6609 24.9797C60.1576 25.2508 60.577 25.6545 60.8765 26.1498V24.6844H63.9117V35.0433H60.8872V33.5928C60.578 34.0863 60.1534 34.4889 59.6537 34.7629C59.086 35.0686 58.4545 35.2215 57.8161 35.2077C57.0366 35.2154 56.2717 34.9868 55.6138 34.5498C54.9338 34.0913 54.3892 33.444 54.0407 32.6806C53.6627 31.7987 53.4673 30.8433 53.4673 29.8769C53.4673 28.9105 53.6627 27.955 54.0407 27.0731L54.0299 27.0545ZM60.2437 28.004C60.049 27.7825 59.8117 27.6066 59.5473 27.488C59.2829 27.3695 58.9975 27.3109 58.7099 27.3161C58.4226 27.3108 58.1376 27.3683 57.8728 27.4847C57.6081 27.6013 57.3696 27.7743 57.1726 27.9928C56.9548 28.2455 56.7871 28.5407 56.6791 28.8616C56.5711 29.1824 56.525 29.5224 56.5433 29.8619C56.514 30.5466 56.7395 31.2166 57.1726 31.7311C57.37 31.9496 57.608 32.1236 57.8721 32.2425C58.1361 32.3615 58.4206 32.4228 58.7081 32.4228C58.9956 32.4228 59.2801 32.3615 59.544 32.2425C59.8081 32.1236 60.0461 31.9496 60.2437 31.7311C60.6498 31.2007 60.871 30.5415 60.871 29.8619C60.871 29.1825 60.6498 28.5233 60.2437 27.9928V28.004ZM71.6735 24.5498C71.0373 24.5347 70.4077 24.6877 69.843 24.9947C69.346 25.2697 68.924 25.6724 68.6167 26.1647V24.6994H65.5813V39.9928H68.6167V33.6077C68.9298 34.0929 69.3538 34.4887 69.8501 34.7591C70.413 35.0639 71.0397 35.2168 71.6735 35.204C72.4576 35.2128 73.2274 34.9844 73.8901 34.546C74.57 34.0875 75.1147 33.4404 75.4632 32.6769C75.8412 31.795 76.0365 30.8396 76.0365 29.8731C76.0365 28.9068 75.8412 27.9513 75.4632 27.0694C75.118 26.3036 74.5726 25.6556 73.8901 25.2003C73.2261 24.7659 72.4567 24.5403 71.6735 24.5498ZM71.6113 27.4754C71.8791 27.5919 72.1206 27.7656 72.3206 27.9853L72.3277 27.9928C72.5438 28.2456 72.7099 28.5405 72.8166 28.8606C72.9234 29.1808 72.9687 29.5198 72.9498 29.8581C72.9797 30.5449 72.7497 31.2164 72.3099 31.7274C72.1136 31.9501 71.8746 32.1273 71.6084 32.247C71.3424 32.3668 71.0551 32.4267 70.7654 32.4227C70.4778 32.4279 70.1924 32.3694 69.928 32.2508C69.6636 32.1323 69.4262 31.9564 69.2317 31.7348C68.8255 31.2044 68.6042 30.5451 68.6042 29.8657C68.6042 29.1861 68.8255 28.5269 69.2317 27.9965C69.4262 27.775 69.6636 27.5991 69.928 27.4806C70.1924 27.362 70.4778 27.3034 70.7654 27.3087C71.0553 27.3021 71.3435 27.3589 71.6113 27.4754ZM77.6906 23.1293C77.5273 22.9769 77.3973 22.7895 77.3098 22.5798C77.2221 22.37 77.1788 22.143 77.1829 21.9143C77.1771 21.6819 77.2195 21.451 77.3072 21.2375C77.3948 21.0239 77.5256 20.8327 77.6906 20.6769C78.0545 20.3604 78.5131 20.1871 78.9866 20.1871C79.46 20.1871 79.9185 20.3604 80.2826 20.6769C80.4463 20.8335 80.5761 21.0249 80.663 21.2384C80.75 21.4518 80.7921 21.6824 80.7867 21.9143C80.7907 22.1427 80.7478 22.3694 80.6607 22.579C80.5738 22.7886 80.4448 22.9763 80.2826 23.1293C79.9195 23.4478 79.4606 23.6224 78.9866 23.6224C78.5125 23.6224 78.0537 23.4478 77.6906 23.1293ZM80.5042 24.6994V35.0581H77.4689V24.6994H80.5042ZM88.4161 35.0581V32.3666L87.3364 32.3778C87.082 32.4041 86.8272 32.3309 86.6213 32.1723C86.5442 32.0825 86.4856 31.977 86.4494 31.8626C86.4131 31.748 86.3998 31.6269 86.4104 31.5068V27.346H88.3983V24.7293H86.4104V22.2021H83.3751V24.7293H82.1667V27.346H83.3751V31.4581C83.3751 32.7317 83.6825 33.6501 84.2975 34.2134C84.9124 34.7766 85.7705 35.0581 86.8716 35.0581H88.4161ZM89.882 27.0545C90.2262 26.2891 90.7703 25.6413 91.4515 25.1853C92.1182 24.7555 92.8885 24.5337 93.6716 24.546C94.3102 24.5315 94.9419 24.6844 95.5094 24.9909C96.0077 25.2609 96.4285 25.6648 96.7284 26.161V24.6956H99.7638V35.0545H96.7284V33.5928C96.4189 34.0873 95.9928 34.4901 95.4914 34.7629C94.9241 35.0694 94.2922 35.2224 93.6538 35.2077C92.8745 35.2145 92.1097 34.986 91.4515 34.5498C90.7727 34.0909 90.2293 33.4438 89.882 32.6806C89.5018 31.7994 89.3052 30.8437 89.3052 29.8769C89.3052 28.9101 89.5018 27.9544 89.882 27.0731V27.0545ZM96.0956 28.004C95.8958 27.7898 95.657 27.6196 95.3933 27.5034C95.1296 27.3871 94.8463 27.3273 94.5601 27.3273C94.2739 27.3273 93.9906 27.3871 93.7269 27.5034C93.4632 27.6196 93.2244 27.7898 93.0245 28.004C92.8061 28.2563 92.638 28.5514 92.5301 28.8724C92.422 29.1933 92.3762 29.5335 92.3953 29.8731C92.3626 30.5584 92.5886 31.2296 93.0245 31.7423C93.222 31.9608 93.4601 32.1348 93.7241 32.2537C93.9881 32.3727 94.2726 32.434 94.5601 32.434C94.8476 32.434 95.132 32.3727 95.3961 32.2537C95.6601 32.1348 95.8982 31.9608 96.0956 31.7423C96.5017 31.2119 96.7231 30.5526 96.7231 29.8731C96.7231 29.1937 96.5017 28.5344 96.0956 28.004ZM104.823 35.0581V21.3199H101.787V35.0581H104.823Z" fill="#352610"/>
<path d="M33.8731 16.3589C33.6875 16.0075 33.4151 15.7145 33.0843 15.5107C32.7535 15.3068 32.3765 15.1996 31.9925 15.2H29.3397L31.1738 12.0598C31.3777 11.7187 31.4902 11.3264 31.4993 10.9241C31.5084 10.5219 31.414 10.1244 31.2257 9.77352C31.0374 9.4226 30.7623 9.13109 30.4292 8.92957C30.0961 8.72804 29.7174 8.6239 29.3326 8.62807H26.2901L28.2707 5.23742C28.4757 4.89616 28.5889 4.50348 28.5984 4.10066C28.6081 3.69784 28.5137 3.29975 28.3253 2.94824C28.1369 2.59673 27.8615 2.30476 27.5278 2.10305C27.1943 1.90133 26.8148 1.7973 26.4295 1.8019H11.5674C11.198 1.80356 10.8351 1.90363 10.513 2.09265C10.1908 2.28168 9.92004 2.55345 9.72622 2.88228L0.430726 18.815C0.226656 19.1549 0.113547 19.5458 0.103197 19.947C0.0928473 20.3483 0.185635 20.745 0.371884 21.0959C0.558131 21.4468 0.831016 21.739 1.16208 21.9422C1.49314 22.1453 1.87024 22.2517 2.25408 22.2505H5.29656L3.32663 25.6412C3.12172 25.9824 3.00851 26.3751 2.9989 26.7779C2.9893 27.1807 3.08365 27.5788 3.27204 27.9304C3.46043 28.2818 3.73591 28.5738 4.06951 28.7755C4.40311 28.9773 4.78252 29.0813 5.16785 29.0767H7.82064L5.98657 32.2168C5.7826 32.558 5.67016 32.9504 5.66104 33.3526C5.65192 33.7548 5.74645 34.1523 5.93473 34.5031C6.123 34.8541 6.3981 35.1456 6.73115 35.3472C7.06422 35.5487 7.44301 35.6528 7.8278 35.6486H22.6899C23.0594 35.6477 23.4226 35.5479 23.7449 35.3588C24.0671 35.1697 24.3378 34.8976 24.5311 34.5683L33.8445 18.6356C34.0431 18.2933 34.1506 17.9017 34.1555 17.5013C34.1606 17.1009 34.0631 16.7065 33.8731 16.3589ZM29.3433 10.8935L26.8406 15.2038H22.4468L24.9708 10.8898L29.3433 10.8935ZM13.1155 20.0038H9.13274L14.4705 10.8823H22.4575L19.9334 15.2H17.1269C16.7579 15.2016 16.3954 15.3017 16.0739 15.4907C15.7523 15.6798 15.4822 15.9516 15.2893 16.2804L13.1155 20.0038ZM17.1269 17.443H18.6213L17.1305 19.9926H15.6325L17.1269 17.443ZM17.1269 22.2468C17.4938 22.2455 17.8543 22.147 18.175 21.9607C18.4956 21.7745 18.7661 21.5064 18.9609 21.1814L21.1347 17.443H25.4928L20.0335 26.8263H11.6569L14.3311 22.2543L17.1269 22.2468ZM2.25408 20.0038L11.5674 4.04864L26.4402 4.07107L23.7768 8.63182H14.4812C14.1087 8.62955 13.7419 8.72779 13.4162 8.91704C13.0905 9.10629 12.8171 9.38016 12.6222 9.71218L6.61938 19.9926L2.25408 20.0038ZM5.15356 26.8263L7.82423 22.2655H11.7998L9.13274 26.8337L5.15356 26.8263ZM22.697 33.4132L7.82423 33.3907L10.3269 29.0841H20.0228C20.3917 29.0823 20.7539 28.982 21.0755 28.7929C21.397 28.6039 21.6671 28.3324 21.8604 28.0038L28.0169 17.4691H32.0032L22.697 33.4132Z" fill="#352610"/>
</g>
</g>
<defs>
<clipPath id="clip0_61_305">
<rect width="134.954" height="40" fill="white" transform="translate(0.100464)"/>
</clipPath>
</defs>
</svg>
