<svg width="145" height="34" viewBox="0 0 145 34" fill="none" xmlns="http://www.w3.org/2000/svg">
<g clip-path="url(#clip0_6288_2265)">
<path d="M20.7954 8.76309L12.4573 17.1012L20.9168 25.5607L29.3561 34L35.7311 27.625L42.1061 21.25H40.3858H38.6656L34.0108 25.9048L29.3561 30.5595L22.6168 23.8202L15.8977 17.1012L22.637 10.3619L29.3561 3.64286L35.5287 9.81548L41.7013 15.9881H35.7918H29.9025L29.2751 17C28.9311 17.5667 28.6477 18.1131 28.6477 18.2143C28.6477 18.3357 32.6954 18.4167 40.0418 18.4167H51.4156L52.0835 17.3238C52.4275 16.7167 52.7311 16.1702 52.7311 16.1095C52.7311 16.0488 50.9906 15.9881 48.8858 15.9881H45.0204L37.3097 8.19643C33.0799 3.90595 29.4977 0.404762 29.3763 0.404762C29.2549 0.404762 25.3894 4.16905 20.7954 8.76309Z" fill="#352610"/>
<path d="M63.0525 16.3929V22.262H68.8204H74.5882V21.1489V20.0358H70.0347H65.4811V19.0239V18.0322L68.0311 17.9715L70.5609 17.9108L71.168 16.8382L71.7954 15.7858H68.6382H65.4811V14.2679V12.7501H69.8323H74.1835V11.637V10.5239H68.618H63.0525V16.3929Z" fill="#352610"/>
<path d="M75.3977 11.637V12.7501H77.6239H79.8501V17.506V22.262H81.0644H82.2787V17.506V12.7501H84.6061H86.9335V11.637V10.5239H81.1656H75.3977V11.637Z" fill="#352610"/>
<path d="M88.5525 16.3929V22.262H94.2192H99.8859V21.1489V20.0358H95.4335H90.9811V19.0239V18.012H93.4704H95.9394L96.587 16.9393L97.2144 15.887L94.0978 15.8262L90.9811 15.7655V14.2679V12.7501H95.3323H99.6835V11.637V10.5239H94.118H88.5525V16.3929Z" fill="#352610"/>
<path d="M102.112 16.3727V22.262H103.326H104.541V20.2382V18.2143H106.22C108.406 18.2143 110.41 18.5179 110.774 18.9024C110.936 19.0643 111.179 19.8739 111.3 20.6834L111.523 22.1608L113.02 22.2215C114.498 22.2822 114.518 22.262 114.194 21.8977C113.972 21.6548 113.85 21.1691 113.85 20.4608C113.85 19.206 113.466 18.1941 112.778 17.6882L112.292 17.3036L113.122 16.5751L113.951 15.8262V14.3084C113.951 12.4667 113.607 11.8798 112.11 11.131C111.158 10.6453 110.956 10.6251 106.625 10.5643L102.112 10.4834V16.3727ZM110.47 12.9727C111.341 13.2155 111.725 13.8834 111.523 14.8143C111.3 15.7858 110.491 16.0489 107.333 16.1501L104.541 16.2512V14.4905V12.7501H107.131C108.548 12.7501 110.045 12.8512 110.47 12.9727Z" fill="#352610"/>
<path d="M116.481 16.3929V22.262H117.695H118.91V18.1132V13.9644L122.694 18.0727L126.479 22.1608L127.653 22.2215L128.826 22.2822V16.3929V10.5239H127.612H126.398V14.5917V18.6394L125.244 17.3846C124.597 16.6763 122.917 14.8751 121.52 13.3572L118.991 10.6251L117.736 10.5644L116.481 10.5037V16.3929Z" fill="#352610"/>
<path d="M135.768 10.7667C135.545 11.0501 130.243 21.2703 130 21.9179C129.858 22.2417 129.96 22.2822 131.214 22.2215L132.57 22.1608L133.258 20.7846L133.947 19.4286H137.104H140.261L141.03 20.8453L141.799 22.262H143.114C143.843 22.262 144.41 22.181 144.369 22.1001C144.349 22.0191 142.953 19.3679 141.313 16.231L138.318 10.5239H137.124C136.436 10.5239 135.869 10.6251 135.768 10.7667ZM138.358 15.6239C138.783 16.4941 139.148 17.2429 139.148 17.3036C139.148 17.3643 138.237 17.4048 137.124 17.4048C136.011 17.4048 135.1 17.3643 135.1 17.3036C135.1 17.2429 135.525 16.3322 136.051 15.2798C137.164 13.0536 137.043 13.0334 138.358 15.6239Z" fill="#352610"/>
<path d="M1.32632 16.9394C1.00251 17.4858 0.719173 18.0322 0.719173 18.1537C0.719173 18.356 1.75132 18.4167 5.25251 18.4167H9.80608L10.4132 17.3239C10.7573 16.737 11.0406 16.1906 11.0406 16.1096C11.0406 16.0489 8.99655 15.9882 6.48703 15.9882H1.93346L1.32632 16.9394Z" fill="#352610"/>
</g>
<defs>
<clipPath id="clip0_6288_2265">
<rect width="143.893" height="34" fill="white" transform="translate(0.719177)"/>
</clipPath>
</defs>
</svg>
