<svg width="201" height="17" viewBox="0 0 201 17" fill="none" xmlns="http://www.w3.org/2000/svg">
<g clip-path="url(#clip0_6513_397)">
<path d="M0.523193 0.452148C5.85753 0.452148 11.1919 0.452148 16.6879 0.452148C16.6879 3.7654 16.6879 7.07865 16.6879 10.4923C14.1603 8.32582 11.9096 5.82106 9.55934 3.4642C8.16992 4.81962 6.83462 6.0998 5.54327 7.37986C5.81048 7.73126 5.86068 7.78147 6.24608 8.28347C7.3165 7.22926 8.57152 6.17504 9.55934 5.22122C10.6314 6.069 11.4825 7.19727 12.5112 8.10793C15.8004 11.2955 16.6878 12.1489 16.6878 12.1991C16.6879 13.4371 16.6878 15.2778 16.6878 16.5164C15.2508 16.95 13.6729 17.162 12.2702 16.5164C9.52183 13.9807 7.09824 11.2048 4.43886 8.58468C3.0741 9.72641 1.90092 11.066 0.623595 12.2995C0.590462 12.2995 0.55733 12.2995 0.523193 12.2995C0.523193 8.3899 0.523193 4.48026 0.523193 0.452148Z" fill="#352610"/>
<path d="M89.3446 3.665C90.9681 3.665 92.5916 3.665 94.2643 3.665C94.2643 3.7644 94.2643 3.8638 94.2643 3.9662C94.0997 4.00348 94.0997 4.00348 93.9317 4.04151C93.5384 4.17484 93.4622 4.22469 93.2603 4.56861C93.2136 4.79064 93.2136 4.79064 93.2169 5.02895C93.2149 5.11938 93.2129 5.2098 93.2109 5.30297C93.2099 5.4481 93.2099 5.4481 93.2089 5.59616C93.2071 5.69588 93.2053 5.79559 93.2034 5.89833C93.198 6.21646 93.1946 6.53459 93.1913 6.85275C93.1879 7.06859 93.1845 7.28443 93.1809 7.50026C93.1721 8.02907 93.1661 8.55781 93.1599 9.08669C94.6177 9.08669 96.0756 9.08669 97.5776 9.08669C97.5747 8.45228 97.5704 7.81825 97.5622 7.18393C97.5599 6.96824 97.5585 6.75252 97.5579 6.53681C97.557 6.22646 97.5529 5.91628 97.5481 5.60597C97.5485 5.50973 97.5489 5.41349 97.5493 5.31434C97.5392 4.85038 97.5286 4.63588 97.2394 4.25787C96.9709 4.0635 96.8006 3.99427 96.4731 3.9662C96.4731 3.86681 96.4731 3.76741 96.4731 3.665C98.0966 3.665 99.7201 3.665 101.393 3.665C101.393 3.7644 101.393 3.8638 101.393 3.9662C101.193 4.00216 100.994 4.03811 100.795 4.07406C100.49 4.21236 100.429 4.3648 100.288 4.66902C100.245 4.98041 100.247 5.28879 100.249 5.60283C100.249 5.69611 100.248 5.78938 100.248 5.88549C100.246 6.19328 100.247 6.50103 100.248 6.80883C100.248 7.023 100.248 7.23718 100.248 7.45136C100.247 7.90003 100.248 8.34868 100.249 8.79735C100.251 9.37232 100.25 9.94725 100.248 10.5222C100.247 10.9644 100.247 11.4066 100.248 11.8488C100.248 12.0608 100.248 12.2728 100.247 12.4848C100.247 12.7812 100.248 13.0774 100.249 13.3738C100.249 13.4613 100.248 13.5488 100.248 13.639C100.252 14.1066 100.273 14.4379 100.59 14.8096C100.949 14.947 100.949 14.947 101.292 15.0104C101.292 15.1098 101.292 15.2092 101.292 15.3116C99.7021 15.3116 98.1117 15.3116 96.4731 15.3116C96.4731 15.2122 96.4731 15.1128 96.4731 15.0104C96.5829 14.9855 96.6926 14.9607 96.8057 14.9351C97.199 14.8018 97.2749 14.7515 97.4772 14.408C97.5238 14.19 97.5238 14.19 97.5206 13.9569C97.5226 13.8672 97.5246 13.7776 97.5266 13.6852C97.5276 13.5452 97.5276 13.5452 97.5285 13.4024C97.5302 13.3159 97.5319 13.2295 97.5336 13.1405C97.5394 12.8183 97.5426 12.4962 97.5462 12.174C97.5565 11.4534 97.5669 10.7328 97.5776 9.9903C96.1197 9.9903 94.6619 9.9903 93.1599 9.9903C93.1661 10.7089 93.1723 11.4274 93.1787 12.1678C93.1794 12.3938 93.1801 12.6199 93.1807 12.8528C93.1834 13.0327 93.1862 13.2127 93.1893 13.3926C93.1889 13.4854 93.1885 13.5782 93.1881 13.6738C93.1982 14.1343 93.21 14.3426 93.4981 14.7173C93.7667 14.9132 93.936 14.9822 94.2643 15.0104C94.2643 15.1098 94.2643 15.2092 94.2643 15.3116C92.6408 15.3116 91.0173 15.3116 89.3446 15.3116C89.3446 15.2122 89.3446 15.1128 89.3446 15.0104C89.544 14.9744 89.7434 14.9385 89.9427 14.9025C90.2479 14.7642 90.3085 14.6118 90.449 14.3076C90.4927 13.9962 90.4902 13.6878 90.488 13.3738C90.4885 13.2805 90.4891 13.1872 90.4896 13.0911C90.4909 12.7833 90.4901 12.4756 90.489 12.1678C90.4893 11.9536 90.4895 11.7394 90.4899 11.5252C90.4904 11.0766 90.4897 10.6279 90.4883 10.1792C90.4866 9.60427 90.4876 9.02934 90.4894 8.45437C90.4905 8.01217 90.4901 7.56997 90.4893 7.12777C90.4892 6.91577 90.4894 6.70377 90.4901 6.49177C90.4909 6.19543 90.4897 5.89916 90.488 5.60283C90.4886 5.5153 90.4892 5.42776 90.4899 5.33757C90.4849 4.86637 90.457 4.54818 90.1478 4.16701C89.9464 4.06567 89.9464 4.06567 89.7274 4.03523C89.6011 4.01245 89.4748 3.98967 89.3446 3.9662C89.3446 3.86681 89.3446 3.76741 89.3446 3.665Z" fill="#352610"/>
<path d="M41.9551 3.665C42.7459 3.65798 43.5367 3.65265 44.3275 3.64939C44.6949 3.64783 45.0622 3.64572 45.4295 3.64228C45.785 3.63897 46.1404 3.6372 46.4958 3.63642C46.6954 3.63561 46.8949 3.63326 47.0944 3.63087C48.2859 3.63066 49.4408 3.78926 50.3888 4.56861C51.0816 5.37063 51.2391 6.15323 51.2238 7.19592C51.1577 7.99568 50.8648 8.80998 50.2884 9.38789C50.0313 9.57695 49.7635 9.73446 49.4852 9.8899C49.3858 9.95616 49.2864 10.0224 49.184 10.0907C49.2338 10.1286 49.2836 10.1665 49.335 10.2056C50.0937 10.8204 50.5114 11.5789 50.9842 12.4209C51.0176 12.4803 51.051 12.5396 51.0853 12.6007C51.1186 12.6599 51.1518 12.719 51.186 12.78C51.856 14.0349 51.856 14.0349 52.913 14.8927C52.9829 14.9067 53.0527 14.9207 53.1247 14.9351C53.3111 14.9724 53.3111 14.9724 53.5013 15.0104C53.5013 15.1098 53.5013 15.2092 53.5013 15.3116C53.0704 15.3204 52.6395 15.3257 52.2086 15.3304C52.0877 15.3329 51.9668 15.3355 51.8423 15.3381C50.7585 15.3469 49.8412 15.2142 49.0197 14.4574C48.1001 13.5027 47.6072 12.1993 47.1636 10.9732C46.955 10.4169 46.7303 9.96828 46.1719 9.6891C46.1719 9.5897 46.1719 9.4903 46.1719 9.38789C46.2937 9.37314 46.2937 9.37314 46.4178 9.35808C47.2447 9.26868 47.2447 9.26868 47.8788 8.78548C48.3342 7.86365 48.5631 6.90268 48.2553 5.89894C48.0645 5.39211 47.8566 5.07662 47.383 4.79452C47.027 4.65585 46.6764 4.63659 46.297 4.61097C46.1796 4.60279 46.0621 4.5946 45.9411 4.58616C45.8516 4.58037 45.7621 4.57458 45.6699 4.56861C45.6784 5.80184 45.6879 7.03506 45.6988 8.26826C45.7038 8.8409 45.7085 9.41354 45.7123 9.98618C45.716 10.5389 45.7206 11.0916 45.726 11.6443C45.7278 11.8551 45.7293 12.0658 45.7305 12.2766C45.7322 12.572 45.7351 12.8674 45.7383 13.1628C45.7385 13.2498 45.7387 13.3369 45.739 13.4265C45.7454 13.8887 45.7743 14.2815 45.9711 14.7092C46.2912 14.9225 46.4998 14.9604 46.8747 15.0104C46.8747 15.1098 46.8747 15.2092 46.8747 15.3116C45.2513 15.3116 43.6278 15.3116 41.9551 15.3116C41.9551 15.2122 41.9551 15.1128 41.9551 15.0104C42.0512 14.9939 42.0512 14.9939 42.1492 14.977C42.2322 14.9611 42.3151 14.9452 42.4006 14.9288C42.4833 14.9137 42.566 14.8985 42.6512 14.8829C42.7539 14.8466 42.7539 14.8466 42.8587 14.8096C42.9502 14.5349 42.9717 14.3754 42.9718 14.093C42.9721 14.0086 42.9724 13.9241 42.9727 13.8371C42.9725 13.7448 42.9723 13.6524 42.9721 13.5573C42.9722 13.4598 42.9724 13.3623 42.9726 13.2619C42.973 12.939 42.9728 12.6161 42.9724 12.2933C42.9725 12.0693 42.9726 11.8454 42.9727 11.6214C42.9729 11.1518 42.9726 10.6822 42.9722 10.2126C42.9716 9.60991 42.9719 9.00724 42.9725 8.40457C42.9729 7.94205 42.9728 7.47953 42.9725 7.01701C42.9725 6.79476 42.9725 6.5725 42.9728 6.35025C42.973 6.03992 42.9726 5.72961 42.9721 5.41928C42.9723 5.32696 42.9725 5.23463 42.9727 5.1395C42.9724 5.05505 42.9721 4.97059 42.9718 4.88357C42.9718 4.8102 42.9718 4.73683 42.9717 4.66123C42.9658 4.44599 42.9658 4.44599 42.8587 4.16701C42.6473 4.08612 42.6472 4.08612 42.4006 4.04778C42.3176 4.03186 42.2347 4.01594 42.1492 3.99954C42.0851 3.98854 42.0211 3.97754 41.9551 3.9662C41.9551 3.86681 41.9551 3.76741 41.9551 3.665Z" fill="#352610"/>
<path d="M39.8843 4.80707C41.1665 6.03591 41.7442 7.45937 41.7949 9.22317C41.8146 11.0385 41.4576 12.5749 40.1792 13.9373C38.8189 15.2156 37.1201 15.6534 35.2913 15.6344C33.7688 15.5442 32.3658 15.1379 31.2121 14.1068C31.1492 14.052 31.0863 13.9973 31.0215 13.9409C29.9431 12.9402 29.4424 11.5007 29.3809 10.0507C29.3388 8.16988 29.6438 6.44732 30.9925 5.0267C33.2932 2.88556 37.4851 2.72398 39.8843 4.80707ZM33.3531 5.26986C32.1596 6.83386 31.9754 8.83308 32.191 10.7308C32.3771 12.0062 32.7678 13.3271 33.8225 14.157C34.6075 14.6743 35.2952 14.8387 36.2322 14.7092C37.1626 14.405 37.8057 13.8975 38.283 13.049C39.2131 11.142 39.2807 8.87451 38.6732 6.85903C38.2903 5.80072 37.7402 5.00271 36.7444 4.46586C35.5654 3.94134 34.1748 4.29685 33.3531 5.26986Z" fill="#352610"/>
<path d="M85.887 3.64617C85.9586 3.66154 86.0302 3.6769 86.104 3.69272C86.6661 3.82521 87.0906 4.02421 87.6378 4.26741C87.6378 5.32765 87.6378 6.38789 87.6378 7.48026C87.5715 7.48026 87.5053 7.48026 87.437 7.48026C87.4005 7.38086 87.364 7.28147 87.3264 7.17906C86.9408 6.15538 86.5472 5.2043 85.5294 4.66902C84.6089 4.2657 83.5931 4.21733 82.6365 4.52469C81.8076 4.86856 81.1861 5.45981 80.8105 6.27544C80.0569 8.35293 79.9737 10.8671 80.8462 12.9212C81.2051 13.6437 81.6438 14.1611 82.3855 14.4958C83.0821 14.7213 83.8409 14.7174 84.5191 14.4393C85.0743 14.1542 85.4501 13.7597 85.7302 13.2032C85.7746 12.8767 85.7746 12.8767 85.7666 12.5243C85.7666 12.3954 85.7665 12.2666 85.7664 12.1338C85.7652 12.0341 85.7652 12.0341 85.7639 11.9323C85.7615 11.7281 85.7619 11.5239 85.7625 11.3196C85.8126 10.6449 85.8126 10.6449 85.5294 10.0907C85.2962 10.0505 85.0618 10.0164 84.8266 9.9903C84.8266 9.8909 84.8266 9.7915 84.8266 9.6891C86.3506 9.6891 87.8747 9.6891 89.445 9.6891C89.445 9.78849 89.445 9.88789 89.445 9.9903C89.3882 10.0025 89.3314 10.0146 89.2729 10.0272C89.1992 10.044 89.1256 10.0608 89.0497 10.0782C88.9763 10.0945 88.9029 10.1108 88.8273 10.1276C88.621 10.174 88.621 10.174 88.5414 10.3919C88.5367 10.6074 88.5377 10.8231 88.5414 11.0386C88.5412 11.2405 88.541 11.4424 88.5406 11.6443C88.5411 11.7829 88.5431 11.9214 88.5466 12.0599C88.5726 13.1997 88.5726 13.1997 88.2585 13.6871C87.1344 14.85 85.4187 15.5081 83.8225 15.6128C83.7442 15.618 83.6659 15.6231 83.5853 15.6285C81.9489 15.6867 80.4233 15.2452 79.1601 14.1821C77.8474 12.9102 77.4098 11.2734 77.3717 9.48829C77.4139 7.62116 77.9087 6.01478 79.2668 4.69412C80.045 4.02488 80.9992 3.60448 82.0153 3.4642C82.0936 3.45203 82.1719 3.43986 82.2526 3.42733C83.4634 3.27667 84.6993 3.38809 85.887 3.64617Z" fill="#352610"/>
<path d="M28.9029 1.35576C28.9029 2.48227 28.9029 3.60877 28.9029 4.76942C28.8035 4.76942 28.7041 4.76942 28.6017 4.76942C28.5886 4.64944 28.5886 4.64944 28.5754 4.52704C28.486 3.8527 28.4167 3.41986 27.8988 2.96219C27.4813 2.74781 27.0837 2.72743 26.623 2.71981C26.5584 2.71804 26.4938 2.71627 26.4272 2.71444C26.1878 2.70815 25.9483 2.70349 25.7088 2.69863C25.1725 2.68621 24.6362 2.67378 24.0836 2.66098C24.0836 4.48327 24.0836 6.30556 24.0836 8.18307C25.9662 8.29891 25.9662 8.29891 27.4219 7.56811C27.6541 7.18677 27.7261 6.81254 27.7984 6.37584C27.8978 6.37584 27.9972 6.37584 28.0996 6.37584C28.0996 7.86681 28.0996 9.35777 28.0996 10.8939C28.0002 10.8939 27.9009 10.8939 27.7984 10.8939C27.7802 10.8048 27.7802 10.8048 27.7616 10.7139C27.6381 10.0809 27.6381 10.0809 27.3968 9.48829C26.9841 9.22199 26.5763 9.17181 26.0936 9.15532C25.9768 9.15111 25.86 9.14691 25.7396 9.14257C25.6176 9.13863 25.4957 9.13468 25.37 9.13061C25.2468 9.12628 25.1237 9.12194 24.9968 9.11747C24.6924 9.10681 24.388 9.09657 24.0836 9.08669C24.0903 9.76019 24.0993 10.4336 24.1099 11.1071C24.1133 11.336 24.1161 11.565 24.1184 11.7939C24.1217 12.1237 24.127 12.4534 24.1326 12.7831C24.1332 12.8849 24.1339 12.9867 24.1346 13.0916C24.148 13.7428 24.1927 14.3062 24.6672 14.797C24.9385 14.9366 25.1875 14.9761 25.4892 15.0104C25.4892 15.1098 25.4892 15.2092 25.4892 15.3116C23.7 15.3116 21.9109 15.3116 20.0675 15.3116C20.0675 15.2122 20.0675 15.1128 20.0675 15.0104C20.2636 14.9744 20.4597 14.9385 20.6558 14.9025C20.983 14.761 21.0859 14.6151 21.2723 14.3076C21.3326 13.9382 21.3272 13.5722 21.3243 13.1986C21.325 13.0868 21.3257 12.9749 21.3264 12.8596C21.3282 12.4899 21.327 12.1202 21.3257 11.7505C21.3259 11.4935 21.3263 11.2366 21.3268 10.9796C21.3274 10.4411 21.3266 9.90269 21.3247 9.36421C21.3225 8.74226 21.3232 8.12036 21.3254 7.49841C21.3275 6.89934 21.3273 6.30028 21.3261 5.70121C21.3258 5.44661 21.3261 5.19202 21.3271 4.93742C21.3281 4.58168 21.3265 4.22605 21.3243 3.87031C21.3255 3.71226 21.3255 3.71226 21.3268 3.551C21.3215 3.10215 21.3181 2.83683 21.0817 2.44688C20.8612 2.25088 20.7313 2.18027 20.444 2.1276C20.2577 2.09343 20.2577 2.09343 20.0675 2.05857C20.0675 1.95918 20.0675 1.85978 20.0675 1.75737C20.1547 1.75678 20.242 1.75619 20.3318 1.75558C21.1603 1.74973 21.9887 1.74248 22.8171 1.7337C23.2428 1.72924 23.6685 1.7253 24.0943 1.72259C24.5064 1.71994 24.9185 1.71587 25.3305 1.71086C25.4865 1.70921 25.6425 1.70804 25.7984 1.70741C26.8459 1.70272 27.888 1.35576 28.9029 1.35576Z" fill="#352610"/>
<path d="M62.0354 3.36379C62.0354 4.42404 62.0354 5.48428 62.0354 6.57665C61.9691 6.57665 61.9029 6.57665 61.8346 6.57665C61.8107 6.44405 61.8107 6.44405 61.7863 6.30878C61.6247 5.40903 61.6247 5.40903 61.0314 4.76942C60.6935 4.65678 60.4199 4.64813 60.0638 4.63725C59.9464 4.63342 59.8289 4.6296 59.7078 4.62565C59.4839 4.61916 59.4839 4.61916 59.2555 4.61254C58.7813 4.59804 58.3071 4.58355 57.8185 4.56861C57.8185 6.05958 57.8185 7.55054 57.8185 9.08669C58.1892 9.07633 58.5599 9.06598 58.9418 9.05531C59.1157 9.05156 59.1157 9.05156 59.2932 9.04774C59.3858 9.04441 59.4783 9.04109 59.5736 9.03766C59.6677 9.03503 59.7618 9.0324 59.8588 9.0297C60.1794 8.97796 60.3697 8.8779 60.6298 8.68508C60.8337 8.29177 60.965 7.91807 61.0314 7.48026C61.1308 7.48026 61.2302 7.48026 61.3326 7.48026C61.3326 8.87183 61.3326 10.2634 61.3326 11.6971C61.2332 11.6971 61.1338 11.6971 61.0314 11.6971C61.0131 11.608 61.0131 11.608 60.9945 11.5171C60.8787 10.8792 60.8787 10.8792 60.6298 10.2915C59.7835 9.97897 59.7835 9.97897 57.8185 9.9903C57.8185 11.4813 57.8185 12.9722 57.8185 14.5084C59.9555 14.524 59.9555 14.524 61.7342 13.6048C62.2177 13.0416 62.492 12.3908 62.7382 11.6971C62.8873 11.7468 62.8873 11.7468 63.0394 11.7975C62.9558 12.2658 62.8719 12.734 62.7875 13.2021C62.7589 13.3614 62.7304 13.5207 62.7019 13.6801C62.6611 13.9089 62.6199 14.1377 62.5786 14.3664C62.5596 14.4736 62.5596 14.4736 62.5402 14.5829C62.4484 15.0879 62.4484 15.0879 62.3366 15.3116C59.6197 15.3116 56.9029 15.3116 54.1037 15.3116C54.1037 15.2122 54.1037 15.1128 54.1037 15.0104C54.2134 14.9855 54.3232 14.9607 54.4362 14.9351C54.8786 14.7861 54.8786 14.7861 55.1077 14.408C55.1529 14.0945 55.1509 13.7834 55.1498 13.4671C55.1507 13.3719 55.1515 13.2767 55.1524 13.1786C55.1548 12.8637 55.1549 12.5489 55.1547 12.234C55.1555 12.0152 55.1562 11.7964 55.1571 11.5776C55.1584 11.1188 55.1586 10.6601 55.158 10.2014C55.1574 9.61349 55.1604 9.02563 55.1645 8.43772C55.1671 7.98578 55.1674 7.53386 55.167 7.08191C55.1672 6.86515 55.1682 6.64838 55.17 6.43162C55.1722 6.12851 55.1712 5.82557 55.1694 5.52245C55.1708 5.43288 55.1721 5.34332 55.1735 5.25103C55.1674 4.80656 55.1514 4.62495 54.8705 4.26309C54.6011 4.06322 54.4346 3.99457 54.1037 3.9662C54.1037 3.86681 54.1037 3.76741 54.1037 3.665C54.1857 3.66419 54.2677 3.66338 54.3523 3.66254C55.1292 3.65468 55.906 3.64591 56.6829 3.63613C57.0822 3.63114 57.4815 3.62649 57.8808 3.62264C58.2668 3.61891 58.6529 3.61425 59.0389 3.60897C59.1855 3.60712 59.332 3.6056 59.4786 3.60442C60.2169 3.59829 60.9288 3.57811 61.6505 3.40626C61.8346 3.36379 61.8346 3.36379 62.0354 3.36379Z" fill="#352610"/>
<path d="M68.0716 3.39792C68.1464 3.40251 68.2212 3.40711 68.2982 3.41185C68.5345 3.42654 68.7708 3.44221 69.007 3.45792C69.1683 3.46812 69.3295 3.47825 69.4908 3.48832C69.8839 3.51299 70.2769 3.53855 70.6699 3.5646C70.6822 4.21374 70.654 4.84123 70.5695 5.48478C70.56 5.56166 70.5504 5.63853 70.5405 5.71774C70.5173 5.90371 70.4933 6.08959 70.4691 6.27544C70.3697 6.27544 70.2703 6.27544 70.1679 6.27544C70.1532 6.18808 70.1532 6.18808 70.1381 6.09895C70.0161 5.46164 69.8614 4.97867 69.3082 4.58744C68.5774 4.33496 67.878 4.28198 67.1504 4.56626C66.7406 4.78186 66.498 5.03633 66.3527 5.47223C66.3145 5.98715 66.3407 6.26555 66.6539 6.67705C66.9248 6.89858 67.2146 7.08805 67.5073 7.27946C67.5911 7.33572 67.6749 7.39198 67.7613 7.44994C68.1152 7.68736 68.4707 7.92237 68.8264 8.15704C69.0818 8.32588 69.3362 8.49604 69.5906 8.66625C69.6682 8.71667 69.7458 8.76708 69.8257 8.81901C70.5914 9.33191 71.3058 9.99902 71.5292 10.9257C71.7237 12.1079 71.5504 13.2176 70.8707 14.2072C70.2173 15.0568 69.2743 15.4301 68.2348 15.5849C66.8862 15.7211 65.4925 15.5633 64.3383 14.8096C63.964 14.4231 64.0165 13.9258 64.0207 13.413C64.0693 12.7493 64.2264 12.0831 64.5454 11.4963C64.6448 11.4963 64.7442 11.4963 64.8466 11.4963C64.8488 11.5984 64.8488 11.5984 64.8509 11.7026C64.8955 12.5718 65.1313 13.2201 65.6875 13.8934C66.4698 14.5267 67.166 14.6849 68.1599 14.6088C68.7316 14.4831 69.0373 14.1674 69.3647 13.7052C69.4886 13.3334 69.5104 12.9876 69.4651 12.6007C69.3497 12.3667 69.2161 11.9226 68.9899 11.8158C68.7563 11.694 68.5486 11.557 68.3332 11.4053C68.2511 11.3477 68.1689 11.2901 68.0843 11.2307C67.9974 11.1693 67.9105 11.1078 67.821 11.0445C67.7316 10.9813 67.6421 10.9182 67.5499 10.8531C67.3692 10.7254 67.1885 10.5976 67.0079 10.4698C66.7858 10.3137 66.5623 10.1598 66.3377 10.0072C65.4321 9.38755 64.5517 8.76918 64.2842 7.64734C64.1318 6.62838 64.2372 5.66429 64.7149 4.74432C65.653 3.62863 66.6196 3.29755 68.0716 3.39792Z" fill="#352610"/>
<path d="M102.798 3.36379C103.262 3.43006 103.726 3.49633 104.204 3.5646C104.474 3.58031 104.744 3.59023 105.014 3.59058C105.118 3.59111 105.118 3.59111 105.225 3.59165C105.448 3.59251 105.672 3.59195 105.895 3.59127C106.054 3.5914 106.213 3.5916 106.372 3.59185C106.703 3.59214 107.034 3.59172 107.364 3.59078C107.784 3.58963 108.204 3.59029 108.624 3.59149C108.951 3.59223 109.279 3.59199 109.606 3.59147C109.761 3.59134 109.916 3.59149 110.07 3.59197C110.288 3.59249 110.506 3.59168 110.723 3.59058C110.846 3.59042 110.969 3.59026 111.096 3.5901C111.714 3.5541 112.326 3.45135 112.939 3.36379C112.939 4.3909 112.939 5.41801 112.939 6.47624C112.84 6.47624 112.74 6.47624 112.638 6.47624C112.635 6.418 112.633 6.35976 112.63 6.29976C112.59 5.75175 112.505 5.40051 112.136 4.97022C111.536 4.52402 110.866 4.54486 110.147 4.51214C110.058 4.5078 109.969 4.50347 109.878 4.499C109.66 4.4884 109.442 4.47826 109.224 4.46821C109.228 5.77037 109.234 7.0725 109.243 8.37463C109.247 8.97924 109.25 9.58383 109.251 10.1885C109.253 10.7718 109.256 11.355 109.261 11.9383C109.263 12.161 109.263 12.3838 109.263 12.6065C109.264 12.9181 109.266 13.2296 109.27 13.5411C109.269 13.6336 109.269 13.726 109.268 13.8212C109.274 14.3272 109.274 14.3272 109.508 14.7649C109.779 14.9454 110.007 14.9811 110.329 15.0104C110.329 15.1098 110.329 15.2092 110.329 15.3116C108.705 15.3116 107.082 15.3116 105.409 15.3116C105.409 15.2122 105.409 15.1128 105.409 15.0104C105.519 14.9855 105.628 14.9607 105.741 14.9351C106.184 14.7864 106.184 14.7864 106.413 14.408C106.459 14.0888 106.457 13.7719 106.456 13.4499C106.457 13.3529 106.458 13.2559 106.459 13.156C106.462 12.8355 106.463 12.515 106.464 12.1944C106.466 11.9722 106.468 11.7499 106.47 11.5276C106.475 10.9426 106.478 10.3577 106.48 9.7727C106.483 9.17575 106.488 8.57882 106.492 7.98188C106.501 6.81066 106.508 5.63945 106.513 4.46821C106.214 4.47704 105.915 4.48778 105.616 4.49959C105.533 4.50185 105.449 4.50412 105.363 4.50645C104.669 4.53618 103.954 4.60446 103.457 5.1271C103.257 5.56767 103.171 5.99962 103.1 6.47624C103 6.47624 102.901 6.47624 102.798 6.47624C102.798 5.44914 102.798 4.42203 102.798 3.36379Z" fill="#352610"/>
<path d="M139.345 3.26339C139.746 3.26339 139.746 3.26339 139.89 3.38968C139.938 3.45154 139.986 3.51341 140.035 3.57715C140.384 4.00135 140.761 4.3846 141.152 4.76942C141.889 5.49809 141.889 5.49809 142.2 5.86756C142.546 6.27807 142.929 6.65068 143.31 7.02845C143.749 7.46252 144.175 7.8966 144.572 8.36858C144.918 8.75331 145.291 9.11129 145.659 9.47498C146.014 9.82848 146.352 10.1884 146.675 10.5719C147.033 10.9688 147.417 11.3399 147.799 11.7138C147.858 11.7721 147.917 11.8304 147.978 11.8905C148.031 11.9427 148.085 11.9949 148.14 12.0487C148.28 12.1991 148.28 12.1991 148.481 12.5003C148.488 11.4897 148.493 10.479 148.497 9.46832C148.498 8.99899 148.5 8.52968 148.504 8.06036C148.507 7.60727 148.509 7.15419 148.51 6.70109C148.51 6.5284 148.511 6.35572 148.513 6.18304C148.515 5.94077 148.516 5.69857 148.515 5.4563C148.516 5.38523 148.518 5.31417 148.519 5.24095C148.516 4.77749 148.427 4.45898 148.18 4.06661C147.957 3.9529 147.957 3.9529 147.709 3.92855C147.588 3.90875 147.588 3.90875 147.463 3.88855C147.402 3.88104 147.34 3.87354 147.276 3.8658C147.276 3.76641 147.276 3.66701 147.276 3.5646C148.403 3.5646 149.529 3.5646 150.69 3.5646C150.69 3.664 150.69 3.76339 150.69 3.8658C150.628 3.87447 150.567 3.88315 150.503 3.89208C150.381 3.91324 150.381 3.91324 150.257 3.93483C150.177 3.94764 150.096 3.96045 150.013 3.97366C149.689 4.10667 149.632 4.25034 149.485 4.56861C149.443 4.86516 149.446 5.15813 149.449 5.45725C149.449 5.54582 149.449 5.63438 149.449 5.72563C149.448 6.01834 149.45 6.311 149.452 6.60371C149.453 6.80849 149.453 7.01327 149.453 7.21805C149.453 7.6479 149.455 8.07774 149.457 8.50759C149.46 9.0543 149.461 9.601 149.461 10.1477C149.462 10.6732 149.463 11.1987 149.465 11.7242C149.465 11.8717 149.465 11.8717 149.465 12.0222C149.468 13.1897 149.496 14.3481 149.586 15.5124C149.126 15.4276 148.916 15.1558 148.619 14.8159C148.512 14.6962 148.405 14.5767 148.297 14.4574C148.244 14.398 148.19 14.3385 148.135 14.2773C147.913 14.0348 147.68 13.804 147.446 13.5734C147.164 13.2951 146.893 13.0151 146.636 12.7137C146.331 12.3565 146.004 12.027 145.67 11.6971C145.281 11.3126 144.911 10.922 144.556 10.5049C144.302 10.2218 144.033 9.95623 143.762 9.6891C143.373 9.30457 143.003 8.91394 142.648 8.49683C142.345 8.15889 142.02 7.84396 141.697 7.52504C141.294 7.12516 140.916 6.70876 140.549 6.27544C140.516 6.24231 140.483 6.20918 140.449 6.17504C140.444 7.18745 140.441 8.19985 140.439 9.21226C140.438 9.68238 140.436 10.1525 140.434 10.6226C140.432 11.0763 140.43 11.5301 140.43 11.9838C140.43 12.1569 140.429 12.3299 140.428 12.503C140.426 12.7455 140.426 12.988 140.426 13.2305C140.426 13.3019 140.425 13.3733 140.424 13.4469C140.426 13.9376 140.47 14.328 140.826 14.6841C141.1 14.8365 141.344 14.8748 141.654 14.91C141.654 15.0094 141.654 15.1088 141.654 15.2112C140.527 15.2112 139.401 15.2112 138.24 15.2112C138.24 15.1118 138.24 15.0124 138.24 14.91C138.43 14.8696 138.43 14.8696 138.623 14.8284C138.942 14.7484 139.152 14.6906 139.345 14.408C139.472 14.0265 139.459 13.6692 139.458 13.2718C139.458 13.1865 139.458 13.1012 139.459 13.0134C139.459 12.7303 139.459 12.4473 139.458 12.1642C139.458 11.9664 139.459 11.7686 139.459 11.5707C139.459 11.1547 139.459 10.7387 139.458 10.3227C139.458 9.79442 139.458 9.26619 139.458 8.73795C139.459 8.32834 139.459 7.91872 139.458 7.50911C139.458 7.31472 139.458 7.12034 139.459 6.92595C139.46 5.70145 139.427 4.48524 139.345 3.26339Z" fill="#352610"/>
<path d="M174.284 3.5646C175.036 3.55436 175.788 3.54736 176.54 3.54254C176.796 3.54053 177.051 3.53779 177.306 3.5343C177.675 3.52939 178.044 3.52714 178.412 3.52538C178.525 3.52331 178.638 3.52123 178.754 3.5191C179.848 3.51879 180.808 3.80301 181.614 4.56861C182.186 5.29203 182.323 6.07184 182.317 6.97825C182.203 7.87017 181.905 8.68458 181.194 9.26553C180.785 9.54637 180.357 9.78259 179.907 9.9903C179.95 10.0374 179.993 10.0844 180.038 10.1329C180.493 10.639 180.88 11.168 181.256 11.7348C181.717 12.4187 182.187 13.0742 182.718 13.7052C182.769 13.7717 182.82 13.8382 182.872 13.9067C183.327 14.487 183.885 14.8174 184.626 14.91C184.626 15.0094 184.626 15.1088 184.626 15.2112C183.379 15.2459 182.51 15.1984 181.513 14.408C181.45 14.3581 181.386 14.3083 181.32 14.257C180.538 13.5605 180.047 12.5808 179.505 11.6971C178.741 10.4453 178.741 10.4453 177.547 9.64517C177.423 9.61721 177.423 9.61722 177.296 9.58869C177.296 9.4893 177.296 9.3899 177.296 9.28749C177.356 9.28351 177.416 9.27953 177.477 9.27543C177.752 9.25611 178.026 9.23417 178.3 9.21219C178.394 9.20598 178.488 9.19976 178.585 9.19336C179.192 9.14241 179.704 9.04432 180.208 8.68508C180.399 8.47317 180.399 8.47317 180.503 8.23327C180.541 8.15769 180.579 8.08211 180.619 8.00423C180.916 7.27938 180.942 6.366 180.691 5.62283C180.358 4.97924 179.888 4.6034 179.204 4.36781C178.769 4.30749 178.338 4.29804 177.899 4.29251C177.783 4.28953 177.667 4.28656 177.547 4.28349C177.263 4.27644 176.978 4.27112 176.694 4.26741C176.698 5.53992 176.704 6.81239 176.712 8.08488C176.716 8.67575 176.72 9.26661 176.721 9.85749C176.723 10.4278 176.726 10.998 176.731 11.5683C176.732 11.7858 176.733 12.0033 176.733 12.2209C176.734 12.5257 176.736 12.8304 176.74 13.1352C176.739 13.225 176.739 13.3148 176.738 13.4074C176.747 13.9519 176.819 14.2857 177.196 14.7092C177.428 14.7839 177.662 14.8519 177.899 14.91C177.932 15.0094 177.965 15.1088 177.999 15.2112C176.773 15.2112 175.547 15.2112 174.284 15.2112C174.284 15.1118 174.284 15.0124 174.284 14.91C174.347 14.8917 174.41 14.8735 174.475 14.8547C174.557 14.8294 174.639 14.8042 174.724 14.7782C174.805 14.7537 174.887 14.7293 174.971 14.7041C175.221 14.6174 175.221 14.6174 175.389 14.3076C175.419 14.1142 175.419 14.1142 175.416 13.9012C175.417 13.7775 175.417 13.7775 175.418 13.6513C175.418 13.5611 175.418 13.471 175.418 13.3781C175.419 13.2829 175.419 13.1877 175.42 13.0896C175.422 12.7742 175.422 12.4588 175.423 12.1434C175.423 11.9245 175.424 11.7055 175.425 11.4865C175.426 11.0272 175.426 10.5679 175.426 10.1086C175.426 9.51988 175.429 8.93122 175.432 8.34252C175.434 7.89015 175.435 7.43779 175.435 6.98542C175.435 6.76838 175.436 6.55133 175.437 6.33429C175.439 6.03071 175.439 5.72723 175.438 5.42365C175.439 5.33392 175.44 5.24419 175.441 5.15174C175.437 4.74362 175.42 4.52071 175.208 4.16259C174.913 3.90027 174.672 3.88816 174.284 3.8658C174.284 3.76641 174.284 3.66701 174.284 3.5646Z" fill="#352610"/>
<path d="M4.55547 10.5425C6.91491 12.9248 8.57153 14.5084 10.7302 16.5164C7.48318 16.5164 4.23619 16.5164 0.890811 16.5164C0.890811 13.9437 0.890808 13.9562 0.890823 13.906C0.970821 13.8363 1.60689 13.2373 1.68932 13.1655C1.77082 13.0861 1.85232 13.0066 1.9363 12.9248C2.19361 12.677 2.45792 12.4385 2.72314 12.1991C2.89921 12.0304 3.07479 11.8611 3.24986 11.6912C3.89333 11.0785 3.89333 11.0785 4.21906 10.7853C4.28417 10.726 4.34927 10.6668 4.41634 10.6057C4.60567 10.4923 4.35973 10.5376 4.55547 10.5425Z" fill="#352610"/>
<path d="M115.65 1.55657C116.975 1.55657 118.3 1.55657 119.666 1.55657C119.666 1.65596 119.666 1.75536 119.666 1.85777C119.569 1.9054 119.471 1.95303 119.371 2.0021C119.083 2.12905 119.083 2.12905 118.963 2.25938C118.896 2.98739 119.102 3.55582 119.353 4.23329C119.394 4.34649 119.435 4.45969 119.477 4.57632C119.61 4.94442 119.744 5.31185 119.879 5.67931C119.971 5.93225 120.063 6.18535 120.154 6.43845C120.338 6.94643 120.522 7.45414 120.707 7.96163C121.044 8.8832 121.377 9.80588 121.708 10.729C121.798 10.9781 121.888 11.2271 121.979 11.476C122.032 11.6247 122.086 11.7735 122.14 11.9222C122.176 12.0224 122.176 12.0224 122.214 12.1246C122.377 12.5779 122.377 12.5779 122.377 12.8015C122.443 12.8015 122.509 12.8015 122.578 12.8015C122.598 12.6908 122.598 12.6908 122.618 12.5778C122.672 12.3278 122.74 12.1022 122.828 11.8626C122.874 11.7366 122.874 11.7366 122.921 11.608C122.955 11.5173 122.988 11.4266 123.023 11.3332C123.058 11.2368 123.094 11.1405 123.13 11.0413C123.247 10.7243 123.364 10.4075 123.481 10.0907C123.562 9.87098 123.643 9.65126 123.724 9.43152C124.138 8.30755 124.557 7.18576 124.985 6.06679C125.024 5.96298 125.064 5.85916 125.105 5.75219C125.294 5.25539 125.485 4.75895 125.677 4.2631C125.745 4.08414 125.814 3.90517 125.882 3.72618C125.914 3.64556 125.945 3.56493 125.978 3.48186C126.175 2.96442 126.272 2.59986 126.092 2.05857C125.739 1.93511 125.739 1.93511 125.389 1.85777C125.389 1.75837 125.389 1.65898 125.389 1.55657C126.582 1.55657 127.774 1.55657 129.003 1.55657C129.003 1.65596 129.003 1.75536 129.003 1.85777C128.914 1.88165 128.914 1.88165 128.823 1.90601C128.204 2.08879 127.807 2.28197 127.482 2.87097C127.173 3.48929 126.901 4.11593 126.647 4.75844C126.605 4.86273 126.564 4.96703 126.521 5.07448C126.384 5.41606 126.249 5.75789 126.113 6.09974C126.017 6.33902 125.922 6.57829 125.827 6.81755C125.627 7.31771 125.428 7.818 125.23 8.31838C125.001 8.8945 124.772 9.47036 124.542 10.0461C124.319 10.6032 124.098 11.1604 123.876 11.7177C123.782 11.9534 123.688 12.1891 123.594 12.4248C123.463 12.7547 123.332 13.0848 123.201 13.4149C123.162 13.5111 123.124 13.6073 123.084 13.7065C122.85 14.3005 122.65 14.8976 122.477 15.5124C122.176 15.412 122.176 15.412 122.066 15.2133C122.014 15.0785 122.014 15.0785 121.961 14.941C121.898 14.7812 121.898 14.7812 121.833 14.6182C121.787 14.4971 121.741 14.3759 121.693 14.2511C121.642 14.1203 121.59 13.9896 121.539 13.8589C121.42 13.5537 121.301 13.2482 121.182 12.9426C120.942 12.3243 120.7 11.7069 120.457 11.0896C120.411 10.9735 120.366 10.8574 120.319 10.7378C120.224 10.4976 120.13 10.2574 120.036 10.0173C119.892 9.65088 119.748 9.28449 119.604 8.91809C119.414 8.43495 119.224 7.95184 119.034 7.46874C118.86 7.02536 118.686 6.58189 118.512 6.13832C118.325 5.66166 118.137 5.18534 117.949 4.70931C117.881 4.53772 117.814 4.36601 117.746 4.19417C117.655 3.95954 117.562 3.72536 117.469 3.49126C117.443 3.42386 117.417 3.35647 117.39 3.28703C117.187 2.78085 116.975 2.3671 116.473 2.1225C116.376 2.09105 116.278 2.0596 116.177 2.0272C116.078 1.99445 115.979 1.96171 115.877 1.92797C115.802 1.90481 115.727 1.88164 115.65 1.85777C115.65 1.75837 115.65 1.65898 115.65 1.55657Z" fill="#352610"/>
<path d="M71.8747 3.665C73.5314 3.665 75.188 3.665 76.8948 3.665C76.8948 3.7644 76.8948 3.8638 76.8948 3.9662C76.8319 3.98329 76.769 4.00037 76.7042 4.01797C76.6222 4.04231 76.5401 4.06664 76.4556 4.09171C76.374 4.115 76.2925 4.1383 76.2085 4.1623C75.9363 4.29396 75.9015 4.39274 75.7904 4.66902C75.7604 4.86929 75.7604 4.86929 75.7642 5.07985C75.7632 5.20124 75.7632 5.20124 75.7621 5.32508C75.7623 5.41298 75.7626 5.50087 75.7628 5.59143C75.7623 5.68469 75.7618 5.77796 75.7613 5.87404C75.7599 6.18238 75.76 6.49069 75.7602 6.79902C75.7598 7.01334 75.7594 7.22766 75.7589 7.44199C75.7582 7.89125 75.7582 8.34051 75.7587 8.78977C75.7593 9.36553 75.7576 9.94126 75.7553 10.517C75.7538 10.9596 75.7537 11.4023 75.754 11.8449C75.754 12.0572 75.7534 12.2695 75.7524 12.4817C75.7512 12.7786 75.7519 13.0753 75.753 13.3722C75.7523 13.4599 75.7515 13.5475 75.7507 13.6379C75.7548 14.1097 75.7817 14.428 76.0916 14.8096C76.293 14.9109 76.293 14.9109 76.512 14.9414C76.6384 14.9641 76.7647 14.9869 76.8948 15.0104C76.8948 15.1098 76.8948 15.2092 76.8948 15.3116C75.2382 15.3116 73.5816 15.3116 71.8747 15.3116C71.8747 15.2122 71.8747 15.1128 71.8747 15.0104C72.0741 14.9712 72.2735 14.9319 72.4728 14.8927C72.7591 14.7767 72.8284 14.6812 72.9792 14.408C73.0254 14.0947 73.0224 13.7834 73.0213 13.4671C73.0222 13.3719 73.023 13.2767 73.0239 13.1786C73.0262 12.8637 73.0264 12.5489 73.0262 12.234C73.0269 12.0152 73.0277 11.7964 73.0285 11.5776C73.0299 11.1188 73.0301 10.6601 73.0295 10.2014C73.0289 9.61349 73.0319 9.02563 73.036 8.43772C73.0386 7.98578 73.0389 7.53386 73.0385 7.08191C73.0387 6.86515 73.0397 6.64838 73.0414 6.43162C73.0437 6.12851 73.0427 5.82557 73.0409 5.52245C73.0423 5.43288 73.0436 5.34332 73.045 5.25103C73.039 4.80872 73.0221 4.62465 72.7451 4.26309C72.4457 4.04357 72.2418 3.99181 71.8747 3.9662C71.8747 3.86681 71.8747 3.76741 71.8747 3.665Z" fill="#352610"/>
<path d="M161.935 3.5646C163.028 3.5646 164.122 3.5646 165.248 3.5646C165.248 3.664 165.248 3.76339 165.248 3.8658C164.95 3.93207 164.652 3.99833 164.345 4.06661C164.257 4.44441 164.231 4.79487 164.23 5.18235C164.229 5.30409 164.228 5.42583 164.228 5.55125C164.228 5.6823 164.227 5.81334 164.227 5.94835C164.227 6.08584 164.227 6.22333 164.226 6.36082C164.226 6.64929 164.226 6.93775 164.226 7.22622C164.226 7.59151 164.224 7.95679 164.223 8.32208C164.221 8.60654 164.221 8.89099 164.221 9.17545C164.221 9.37422 164.22 9.573 164.219 9.77177C164.223 11.3343 164.284 12.9324 165.424 14.115C166.125 14.7137 166.891 14.7753 167.79 14.7472C168.708 14.6529 169.467 14.3177 170.068 13.6048C170.823 12.4753 170.801 11.1775 170.797 9.86519C170.797 9.71016 170.797 9.55513 170.798 9.4001C170.798 9.07751 170.797 8.75493 170.797 8.43234C170.795 8.01922 170.796 7.60614 170.797 7.19303C170.798 6.87391 170.798 6.5548 170.797 6.23567C170.797 6.08328 170.797 5.93089 170.798 5.7785C170.798 5.56613 170.797 5.3538 170.796 5.14144C170.796 5.02081 170.796 4.90018 170.796 4.77589C170.771 4.47976 170.735 4.31074 170.57 4.06661C170.375 3.97563 170.375 3.97563 170.155 3.9411C170.027 3.91625 169.899 3.89141 169.766 3.8658C169.766 3.76641 169.766 3.66701 169.766 3.5646C170.793 3.5646 171.821 3.5646 172.879 3.5646C172.879 3.664 172.879 3.76339 172.879 3.8658C172.769 3.87616 172.659 3.88651 172.546 3.89718C172.126 3.96704 172.126 3.96704 171.875 4.26741C171.829 4.58399 171.829 4.58399 171.836 4.95211C171.836 5.02138 171.835 5.09065 171.834 5.16202C171.833 5.31256 171.833 5.46311 171.833 5.61365C171.834 5.85322 171.833 6.09272 171.831 6.33228C171.827 6.84253 171.826 7.35278 171.825 7.86304C171.823 8.45097 171.821 9.03886 171.816 9.62677C171.815 9.86044 171.816 10.0941 171.816 10.3277C171.811 11.5981 171.706 12.8256 170.971 13.906C170.913 13.995 170.855 14.0841 170.795 14.1758C169.909 15.0864 168.766 15.462 167.519 15.5151C166.226 15.5053 165.083 15.2335 164.106 14.3452C162.969 13.0972 162.91 11.5519 162.908 9.94696C162.908 9.71395 162.906 9.48098 162.904 9.24798C162.899 8.58668 162.896 7.92538 162.893 7.26406C162.892 6.85698 162.889 6.44992 162.885 6.04285C162.883 5.88841 162.883 5.73397 162.883 5.57953C162.883 5.36474 162.881 5.15004 162.879 4.93527C162.878 4.81323 162.878 4.6912 162.877 4.56547C162.863 4.27022 162.863 4.27022 162.705 4.07938C162.462 3.91548 162.223 3.89776 161.935 3.8658C161.935 3.76641 161.935 3.66701 161.935 3.5646Z" fill="#352610"/>
<path d="M136.232 3.26339C136.232 3.99231 136.232 4.72122 136.232 5.47223C136.133 5.47223 136.033 5.47223 135.931 5.47223C135.919 5.40933 135.907 5.34643 135.894 5.28162C135.877 5.19957 135.86 5.11751 135.843 5.03297C135.827 4.95143 135.811 4.8699 135.794 4.78589C135.744 4.54987 135.744 4.54987 135.529 4.36781C135.235 4.34313 134.948 4.33027 134.653 4.32624C134.538 4.32358 134.538 4.32358 134.421 4.32087C134.133 4.31453 133.846 4.3099 133.559 4.30506C132.917 4.29264 132.275 4.28021 131.614 4.26741C131.614 5.82464 131.614 7.38187 131.614 8.98628C132.403 8.97075 132.403 8.97075 133.208 8.95491C133.373 8.95241 133.539 8.94991 133.71 8.94734C133.905 8.94235 133.905 8.94235 134.104 8.93726C134.172 8.93663 134.241 8.93601 134.311 8.93536C134.53 8.93211 134.53 8.93211 134.827 8.88588C135.04 8.56584 135.078 8.35726 135.128 7.98227C135.227 7.98227 135.327 7.98227 135.429 7.98227C135.429 8.90998 135.429 9.83769 135.429 10.7935C135.33 10.7935 135.23 10.7935 135.128 10.7935C135.116 10.7294 135.103 10.6654 135.091 10.5994C135.074 10.5164 135.057 10.4335 135.04 10.348C135.024 10.2653 135.007 10.1826 134.99 10.0974C134.97 10.0289 134.949 9.96044 134.927 9.8899C134.63 9.74166 134.356 9.76713 134.026 9.75773C133.9 9.7539 133.774 9.75008 133.644 9.74614C133.403 9.73964 133.403 9.73964 133.157 9.73302C132.648 9.71853 132.139 9.70403 131.614 9.6891C131.614 11.2795 131.614 12.8698 131.614 14.5084C132.109 14.498 132.604 14.4877 133.113 14.477C133.345 14.4732 133.345 14.4732 133.581 14.4694C134.466 14.4457 135.388 14.4194 136.083 13.7926C136.439 13.3446 136.682 12.8099 136.935 12.2995C137.034 12.2995 137.134 12.2995 137.236 12.2995C137.016 13.2916 136.668 14.252 136.333 15.2112C133.947 15.2112 131.561 15.2112 129.104 15.2112C129.104 15.1118 129.104 15.0124 129.104 14.91C129.3 14.8773 129.496 14.8446 129.692 14.8119C130.03 14.6505 130.132 14.4336 130.308 14.1068C130.365 13.7977 130.362 13.4951 130.359 13.1816C130.359 13.0904 130.36 12.9992 130.36 12.9053C130.362 12.605 130.36 12.3049 130.358 12.0046C130.358 11.7953 130.358 11.586 130.359 11.3767C130.359 10.9385 130.358 10.5004 130.355 10.0622C130.352 9.50105 130.353 8.93999 130.354 8.37887C130.355 7.94682 130.354 7.51479 130.353 7.08274C130.352 6.87587 130.352 6.669 130.353 6.46213C130.353 6.17279 130.351 5.88353 130.349 5.5942C130.35 5.46649 130.35 5.46649 130.35 5.33621C130.344 4.84107 130.285 4.49419 130.007 4.06661C129.784 3.9529 129.784 3.9529 129.537 3.92855C129.455 3.91535 129.374 3.90215 129.291 3.88855C129.229 3.88104 129.167 3.87354 129.104 3.8658C129.104 3.76641 129.104 3.66701 129.104 3.5646C129.169 3.56379 129.234 3.56297 129.301 3.56214C129.983 3.55343 130.666 3.54344 131.348 3.53273C131.602 3.52891 131.856 3.52541 132.11 3.52224C132.478 3.51761 132.845 3.51179 133.212 3.50577C133.38 3.50403 133.38 3.50403 133.551 3.50225C134.231 3.48974 134.882 3.42285 135.552 3.30586C135.831 3.26339 135.831 3.26339 136.232 3.26339Z" fill="#352610"/>
<path d="M192.256 3.26339C192.256 3.99231 192.256 4.72122 192.256 5.47223C192.157 5.47223 192.057 5.47223 191.955 5.47223C191.943 5.40933 191.931 5.34643 191.918 5.28162C191.901 5.19957 191.885 5.11751 191.867 5.03297C191.851 4.95143 191.835 4.8699 191.818 4.78589C191.768 4.54987 191.768 4.54987 191.553 4.36781C191.259 4.34313 190.972 4.33027 190.677 4.32624C190.562 4.32358 190.562 4.32358 190.445 4.32087C190.157 4.31453 189.87 4.3099 189.583 4.30506C188.941 4.29264 188.299 4.28021 187.638 4.26741C187.638 5.82464 187.638 7.38187 187.638 8.98628C188.427 8.96765 188.427 8.96765 189.232 8.94863C189.398 8.94522 189.563 8.94181 189.734 8.93829C189.864 8.93471 189.994 8.93114 190.128 8.92746C190.231 8.92575 190.231 8.92575 190.335 8.924C190.738 8.92142 190.738 8.92142 191.051 8.68508C191.092 8.45187 191.126 8.21747 191.152 7.98227C191.251 7.98227 191.351 7.98227 191.453 7.98227C191.453 8.90998 191.453 9.83769 191.453 10.7935C191.354 10.7935 191.254 10.7935 191.152 10.7935C191.14 10.7294 191.128 10.6654 191.115 10.5994C191.098 10.5164 191.081 10.4335 191.064 10.348C191.048 10.2653 191.031 10.1826 191.015 10.0974C190.994 10.0289 190.973 9.96044 190.951 9.8899C190.655 9.74166 190.38 9.76713 190.05 9.75773C189.924 9.7539 189.798 9.75008 189.668 9.74614C189.427 9.73964 189.427 9.73964 189.181 9.73302C188.672 9.71853 188.163 9.70403 187.638 9.6891C187.638 11.2795 187.638 12.8698 187.638 14.5084C188.133 14.498 188.628 14.4877 189.138 14.477C189.369 14.4732 189.369 14.4732 189.605 14.4694C190.565 14.4437 191.453 14.3863 192.192 13.7079C192.531 13.2884 192.742 12.7905 192.959 12.2995C193.058 12.2995 193.158 12.2995 193.26 12.2995C193.04 13.2916 192.692 14.252 192.357 15.2112C189.971 15.2112 187.586 15.2112 185.128 15.2112C185.128 15.1118 185.128 15.0124 185.128 14.91C185.317 14.8696 185.317 14.8696 185.511 14.8284C185.83 14.7484 186.04 14.6906 186.232 14.408C186.366 14.0075 186.348 13.6226 186.349 13.205C186.349 13.1127 186.35 13.0204 186.35 12.9254C186.352 12.6198 186.352 12.3141 186.353 12.0085C186.354 11.7963 186.354 11.5841 186.355 11.3719C186.356 10.9268 186.356 10.4816 186.357 10.0365C186.357 9.46601 186.36 8.89556 186.363 8.3251C186.364 7.88669 186.365 7.44828 186.365 7.00987C186.365 6.79955 186.366 6.58923 186.367 6.37891C186.369 6.08472 186.369 5.79059 186.368 5.4964C186.37 5.36603 186.37 5.36603 186.371 5.23303C186.368 4.76337 186.341 4.44563 186.031 4.06661C185.807 3.96452 185.807 3.96452 185.561 3.93483C185.439 3.91367 185.439 3.91367 185.315 3.89208C185.253 3.88341 185.191 3.87474 185.128 3.8658C185.128 3.76641 185.128 3.66701 185.128 3.5646C185.193 3.56379 185.258 3.56297 185.325 3.56214C186.007 3.55343 186.69 3.54344 187.372 3.53273C187.626 3.52891 187.881 3.52541 188.135 3.52224C188.502 3.51761 188.869 3.51179 189.236 3.50577C189.404 3.50403 189.404 3.50403 189.575 3.50225C190.255 3.48974 190.906 3.42285 191.576 3.30586C191.855 3.26339 191.855 3.26339 192.256 3.26339Z" fill="#352610"/>
<path d="M197.973 3.24457C198.048 3.2445 198.123 3.24444 198.2 3.24437C198.88 3.25075 199.518 3.34095 200.188 3.4642C200.188 4.19311 200.188 4.92203 200.188 5.67303C200.089 5.67303 199.989 5.67303 199.887 5.67303C199.872 5.60638 199.857 5.53973 199.842 5.47105C199.681 4.83755 199.536 4.52419 198.983 4.16701C198.346 3.9547 197.541 3.94576 196.925 4.22976C196.466 4.50258 196.142 4.85978 195.971 5.37183C195.888 6.04778 196.08 6.53913 196.473 7.07865C196.846 7.46324 197.269 7.79389 197.687 8.12831C197.999 8.38059 198.303 8.64266 198.607 8.90471C198.665 8.9548 198.723 9.0049 198.783 9.05651C198.897 9.15419 199.01 9.25193 199.123 9.34975C199.275 9.48061 199.429 9.61038 199.582 9.74008C200.383 10.4333 200.8 11.07 200.917 12.1332C200.96 13.0383 200.692 13.8064 200.113 14.5021C199.391 15.2433 198.602 15.4586 197.578 15.5124C196.699 15.4693 195.85 15.3287 195.068 14.91C194.993 14.8741 194.919 14.8383 194.842 14.8013C194.554 14.4866 194.616 14.1404 194.628 13.7303C194.628 13.6118 194.628 13.6118 194.629 13.491C194.636 12.9924 194.709 12.5716 194.867 12.0987C194.966 12.0987 195.065 12.0987 195.168 12.0987C195.179 12.1787 195.19 12.2587 195.201 12.3411C195.332 13.2131 195.477 13.8165 196.183 14.3821C196.691 14.7202 197.284 14.7787 197.879 14.7092C198.521 14.5772 199.06 14.3163 199.485 13.8056C199.78 13.2158 199.821 12.5046 199.612 11.8771C199.087 10.9426 198.066 10.2729 197.247 9.61223C196.888 9.3158 196.544 9.00426 196.201 8.68939C195.972 8.4786 195.972 8.4786 195.708 8.28818C195.452 8.06811 195.337 7.89006 195.193 7.58694C195.132 7.46133 195.132 7.46133 195.069 7.33319C194.763 6.56795 194.775 5.75671 195.065 4.98983C195.438 4.19185 195.984 3.7407 196.774 3.36379C197.161 3.22502 197.566 3.24421 197.973 3.24457Z" fill="#352610"/>
<path d="M151.393 3.16299C151.89 3.26239 151.89 3.26239 152.397 3.36379C152.663 3.38058 152.929 3.38945 153.195 3.38978C153.268 3.39013 153.341 3.39048 153.416 3.39084C153.654 3.39172 153.891 3.39115 154.129 3.39046C154.296 3.3906 154.463 3.39079 154.63 3.39105C154.98 3.39134 155.329 3.39092 155.678 3.38997C156.122 3.38883 156.567 3.38949 157.012 3.39069C157.357 3.39142 157.702 3.39118 158.047 3.39067C158.211 3.39053 158.375 3.39069 158.539 3.39116C158.769 3.39168 158.999 3.39089 159.229 3.38978C159.359 3.38962 159.489 3.38946 159.624 3.38929C160.132 3.36626 160.132 3.36626 161.031 3.16299C161.031 3.92504 161.031 4.68709 161.031 5.47223C160.932 5.47223 160.833 5.47223 160.73 5.47223C160.72 5.41049 160.71 5.34876 160.7 5.28515C160.685 5.204 160.67 5.12285 160.655 5.03925C160.641 4.95887 160.627 4.8785 160.613 4.79569C160.503 4.49662 160.404 4.42603 160.128 4.26741C159.866 4.23488 159.626 4.21842 159.364 4.21603C159.291 4.21423 159.218 4.21243 159.143 4.21057C158.91 4.20515 158.678 4.20174 158.446 4.19838C158.288 4.19505 158.13 4.19159 157.973 4.18799C157.587 4.17947 157.201 4.17276 156.814 4.16701C156.821 5.43951 156.828 6.71199 156.838 7.98447C156.843 8.57535 156.847 9.16621 156.849 9.75709C156.852 10.3274 156.856 10.8976 156.861 11.4679C156.863 11.6854 156.864 11.9029 156.864 12.1205C156.865 12.4253 156.868 12.73 156.871 13.0348C156.871 13.1246 156.871 13.2144 156.871 13.307C156.879 13.8141 156.932 14.1704 157.216 14.6088C157.415 14.7416 157.415 14.7416 157.637 14.797C157.826 14.8529 157.826 14.8529 158.019 14.91C158.019 15.0094 158.019 15.1088 158.019 15.2112C156.827 15.2112 155.634 15.2112 154.405 15.2112C154.405 15.1118 154.405 15.0124 154.405 14.91C154.513 14.8872 154.62 14.8644 154.731 14.841C155.17 14.6875 155.274 14.6022 155.509 14.2072C155.568 13.8809 155.566 13.5594 155.564 13.2285C155.565 13.1305 155.566 13.0325 155.567 12.9316C155.57 12.6083 155.57 12.2851 155.57 11.9619C155.572 11.7375 155.574 11.5131 155.575 11.2887C155.58 10.6986 155.582 10.1086 155.583 9.51846C155.585 8.91612 155.59 8.31379 155.594 7.71146C155.601 6.52998 155.606 5.34851 155.61 4.16701C155.159 4.17642 154.709 4.18707 154.259 4.19887C154.106 4.20271 153.953 4.20621 153.8 4.20936C153.579 4.21396 153.359 4.21978 153.139 4.22584C153.037 4.22758 153.037 4.22758 152.932 4.22935C152.575 4.24044 152.293 4.25985 151.995 4.46821C151.882 4.70863 151.882 4.70863 151.82 4.98277C151.795 5.07414 151.771 5.16552 151.746 5.25966C151.72 5.36488 151.72 5.36488 151.694 5.47223C151.595 5.47223 151.495 5.47223 151.393 5.47223C151.393 4.71018 151.393 3.94813 151.393 3.16299Z" fill="#352610"/>
</g>
<defs>
<clipPath id="clip0_6513_397">
<rect width="200" height="16.0643" fill="white" transform="translate(0.890869 0.452148)"/>
</clipPath>
</defs>
</svg>
