<svg width="151" height="61" viewBox="0 0 151 61" fill="none" xmlns="http://www.w3.org/2000/svg">
<g clip-path="url(#clip0_32_74)">
<path d="M109.479 24.9958L110.854 25.0216C111.111 25.0263 111.231 25.1575 111.211 25.4154C111.209 25.447 111.211 25.4775 111.218 25.5091C111.272 25.7599 111.17 25.8841 110.913 25.8806L107.23 25.8361C107.078 25.8337 107.002 25.7564 107.003 25.6052V25.1915C107.004 25.0357 107.081 24.9654 107.236 24.9782C107.441 24.9958 107.632 24.9841 107.808 24.9419C108.52 24.772 108.561 24.1005 108.561 23.4958C108.563 19.9404 108.564 16.4986 108.566 13.1693C108.566 12.0888 108.636 10.9931 108.588 9.90676C108.586 9.85988 108.561 9.83645 108.513 9.83645H107.208C107.107 9.83645 107.024 9.75441 107.023 9.65363L107.018 9.27043C107.017 9.16613 107.067 9.11457 107.172 9.11574L109.238 9.14035C109.464 9.1427 109.576 9.25637 109.575 9.48254C109.574 14.4548 109.573 19.3157 109.572 24.0677C109.572 24.3548 109.52 24.6325 109.416 24.9032C109.398 24.9478 109.431 24.9958 109.479 24.9958Z" fill="#352610"/>
<path d="M61.22 18.5189C61.1708 18.5177 61.1462 18.5423 61.1474 18.5916C61.1603 20.3751 61.1649 22.1541 61.1591 23.9271C61.1579 24.2611 61.1052 24.5904 61.0021 24.9126C60.9903 24.949 61.0173 24.9865 61.0548 24.9865L62.5149 25.0052C62.7165 25.0076 62.8278 25.1083 62.8501 25.3087C62.8583 25.3884 62.8642 25.4705 62.8677 25.556C62.8735 25.7587 62.7763 25.8595 62.5735 25.8583L58.8235 25.8443C58.6407 25.8431 58.5528 25.7517 58.5599 25.5677L58.5728 25.2173C58.581 25.0287 58.6782 24.9337 58.8669 24.9349C59.7001 24.9361 60.1161 24.5623 60.1149 23.8158C60.1126 22.399 60.1173 20.8697 60.129 19.2291C60.1302 19.0427 60.1419 18.8447 60.1642 18.6373C60.1712 18.5681 60.1173 18.5072 60.0482 18.5083L59.2501 18.5154C59.038 18.5177 58.9372 18.4123 58.9489 18.2001L58.9665 17.8673C58.9759 17.6833 59.0732 17.5931 59.2583 17.599L60.0329 17.6224C60.0845 17.6248 60.1278 17.5837 60.1278 17.5322L60.1571 11.1994C60.1583 11.0623 60.0903 10.9931 59.9532 10.9908L58.6665 10.9662C58.6032 10.965 58.554 10.9134 58.5564 10.8501L58.5786 10.2876C58.5821 10.2138 58.6196 10.1775 58.6935 10.1775L68.0005 10.188C68.2278 10.1892 68.4095 10.3767 68.4013 10.6041L68.3122 13.2208C68.3087 13.3123 68.2349 13.3861 68.1435 13.3896L67.5646 13.4107C67.5036 13.413 67.4521 13.3638 67.4532 13.3017L67.4767 11.0587C67.4767 11.0271 67.4614 11.0119 67.4298 11.0119L61.2435 11.0013C61.1685 11.0013 61.1075 11.0611 61.1075 11.1361V17.5005C61.1075 17.5755 61.1685 17.6365 61.2446 17.6376L66.4466 17.6822C66.6095 17.6834 66.6868 17.7654 66.6786 17.9283L66.6564 18.3501C66.6482 18.4978 66.5708 18.5705 66.4231 18.5693L61.22 18.5189Z" fill="#352610"/>
<path d="M50.3532 26.3809L50.3122 26.5648C50.3181 26.457 50.2782 26.368 50.195 26.2977C50.0814 26.2027 50.0157 26.143 49.9958 26.1184C49.6173 25.6379 49.1978 25.2184 48.7396 24.8598C48.2614 24.4859 47.8958 24.0219 47.3778 23.6973C46.8985 23.3961 46.4017 23.0984 45.8849 22.8031L45.6704 22.4633C45.3704 21.7836 45.0458 21.2281 44.6954 20.798C43.3513 19.1469 41.447 18.0113 39.4583 17.307C38.0966 16.8254 36.6821 16.4773 35.2138 16.2629C32.4353 15.8586 29.7552 15.8059 27.1747 16.1047C23.5864 16.5195 20.0544 17.4805 16.8165 19.0941C16.1005 19.4516 15.4525 19.8301 14.8747 20.2297C14.515 20.4793 14.2548 20.6469 14.0966 20.7348C14.0532 20.6105 14.0321 20.5227 14.0357 20.4699C14.1446 18.7391 14.7927 16.9895 15.9857 15.7016C16.8587 14.7617 17.8396 14.0328 18.9306 13.516C19.7263 13.1398 20.5372 12.7871 21.3974 12.5363C23.297 11.9844 25.2364 11.6738 27.2169 11.6023C28.0536 11.573 28.8704 11.5684 29.6685 11.5906C32.7423 11.6785 35.6321 12.1648 38.3368 13.0496C40.3325 13.7035 42.1525 14.4793 43.7942 15.3781C44.6216 15.8305 45.531 16.4551 46.5235 17.2531C48.4595 18.8094 50.0075 20.9422 50.3743 23.4301C50.5173 24.4039 50.5103 25.3871 50.3532 26.3809Z" fill="#B8B8B8"/>
<path d="M72.6282 25.9849C70.3969 25.7165 68.9485 23.8638 68.6426 21.7333C68.3145 19.4435 68.7059 17.1103 70.4942 15.6009C71.5805 14.6845 72.9235 14.4478 74.3145 14.5755C75.5707 14.6903 76.5809 15.1814 77.3461 16.0497C77.8594 16.6333 78.2028 17.2509 78.3762 17.9013C78.8028 19.5032 78.8075 21.029 78.3891 22.4763C77.8536 24.3372 76.2879 25.8982 74.2536 26.0236C73.6735 26.0587 73.1321 26.0458 72.6282 25.9849ZM74.3614 15.6126C72.4125 15.2493 70.561 16.4669 69.9364 18.3372C69.5391 19.529 69.4887 20.7044 69.7864 21.8622C69.9715 22.5829 70.2481 23.1736 70.6172 23.6318C71.4047 24.6138 72.6118 25.1552 73.8739 25.0556C75.6657 24.9138 76.9594 23.5884 77.4282 21.888C78.0985 19.4517 77.2875 16.1575 74.3614 15.6126Z" fill="#352610"/>
<path d="M91.111 16.1868C91.3349 15.9958 91.5294 15.7743 91.7556 15.581C92.7786 14.7079 93.9973 14.3845 95.4118 14.6095C96.4548 14.7759 97.1532 15.3525 97.5059 16.338C97.5188 16.3743 97.5657 16.3837 97.5903 16.3544C98.713 15.0501 99.9938 14.3939 101.828 14.5743C103.088 14.6986 103.876 15.39 104.195 16.6474C104.313 17.1103 104.373 17.5638 104.377 18.0079C104.392 20.1044 104.394 22.14 104.383 24.1122C104.381 24.3759 104.331 24.6302 104.234 24.8763C104.209 24.9372 104.254 25.004 104.319 25.0052L105.025 25.0158C105.308 25.0204 105.461 25.1576 105.481 25.4271C105.482 25.44 105.483 25.4517 105.484 25.4634C105.506 25.7376 105.381 25.8724 105.106 25.8689L102.009 25.8243C101.902 25.8232 101.841 25.7681 101.828 25.6615C101.803 25.4622 101.813 25.2665 101.855 25.0755C101.87 25.004 101.915 24.9712 101.988 24.9771C102.517 25.0216 103.202 24.8564 103.308 24.2915C103.361 24.0068 103.386 23.715 103.386 23.415C103.384 21.6056 103.37 19.7845 103.344 17.9529C103.34 17.6447 103.269 17.3036 103.133 16.9298C102.886 16.2501 102.403 15.8189 101.714 15.6618C100.147 15.3044 99.0692 16.0146 98.0731 17.1243C97.9126 17.3036 97.738 17.497 97.7415 17.756C97.7649 20.0025 97.7661 22.1552 97.7438 24.2154C97.7427 24.4298 97.697 24.6408 97.6091 24.847C97.5634 24.9536 97.5985 25.0064 97.7145 25.004C98.0227 24.9993 98.3368 25.0099 98.6567 25.0368C98.8477 25.0521 98.9403 25.1564 98.9321 25.3474L98.9239 25.5888C98.9157 25.7763 98.8184 25.8689 98.6309 25.8665L95.4247 25.8255C95.3028 25.8243 95.2349 25.7634 95.2208 25.6415C95.1997 25.4658 95.2079 25.2853 95.2442 25.1001C95.2641 24.9993 95.3251 24.956 95.427 24.9689C96.1595 25.0697 96.7173 24.6841 96.7255 23.9001C96.7489 21.8083 96.7466 19.9228 96.7184 18.2447C96.6938 16.7704 96.122 15.615 94.4122 15.5728C93.1571 15.5423 92.1915 16.2712 91.4216 17.1993C91.2739 17.3786 91.1673 17.5591 91.1661 17.8017C91.1626 19.89 91.1602 21.9689 91.1602 24.0396C91.1591 24.3267 91.104 24.615 90.995 24.9033C90.9739 24.956 91.0161 25.0134 91.0735 25.0111C91.3782 25.0005 91.6806 25.0087 91.9806 25.0357C92.1669 25.0533 92.2571 25.1552 92.2524 25.3415L92.2442 25.6357C92.2407 25.7892 92.1622 25.8654 92.0075 25.8642L88.8317 25.8326C88.663 25.8314 88.5798 25.7458 88.5809 25.5759L88.5833 25.2232C88.5845 25.0439 88.6759 24.9607 88.8552 24.9759C89.072 24.9935 89.2724 24.9724 89.454 24.9115C90.0985 24.6958 90.1325 24.1837 90.136 23.6072C90.1536 21.3595 90.1536 18.7943 90.1384 15.9115C90.1372 15.7568 90.0598 15.6783 89.9052 15.6759L88.8716 15.6618C88.6747 15.6583 88.5798 15.5587 88.5868 15.3618L88.5974 15.0607C88.6032 14.879 88.697 14.79 88.8786 14.7923L90.6692 14.8169C90.8016 14.8193 90.9083 14.9247 90.9106 15.0572C90.9177 15.4521 90.9587 15.8201 91.0325 16.1611C91.0442 16.2138 91.07 16.2232 91.111 16.1868Z" fill="#352610"/>
<path d="M113.83 20.0328C113.787 20.2473 113.78 20.4664 113.809 20.6926C114.011 22.2687 114.529 23.7301 115.901 24.5434C116.582 24.9477 117.339 25.1281 118.172 25.0859C119.142 25.0367 119.973 24.6207 120.665 23.8379C120.878 23.5965 121.105 23.1477 121.493 23.2719C121.951 23.4172 122.084 23.7734 121.813 24.1473C120.623 25.7844 119.225 26.1359 117.357 26.0305C115.003 25.8969 113.34 24.2316 112.963 21.9641C112.746 20.6621 112.785 19.4223 113.079 18.2445C113.395 16.9719 114.217 15.7684 115.385 15.0969C116.06 14.709 116.889 14.525 117.872 14.5449C119.598 14.5801 121.054 15.1555 121.772 16.8336C122.09 17.5766 122.257 18.4871 122.275 19.5664C122.278 19.7762 122.065 19.9086 121.88 19.9074C119.186 19.898 116.569 19.8863 114.027 19.8723C113.932 19.8711 113.849 19.9391 113.83 20.0328ZM114.273 18.0559C114.149 18.35 114.068 18.6148 114.029 18.8492C114.006 18.9969 114.069 19.0719 114.218 19.073L121.172 19.1305C121.241 19.1305 121.27 19.0965 121.26 19.0273C121.17 18.466 121.035 17.9562 120.856 17.4992C120.511 16.6215 119.923 16.0402 119.091 15.7531C116.957 15.0184 115.114 16.0707 114.273 18.0559Z" fill="#352610"/>
<path d="M125.576 17.3751C125.463 18.697 126.537 19.2536 127.641 19.5337C128.959 19.87 130.618 20.04 131.645 21.0349C132.131 21.506 132.352 22.2173 132.304 23.1689C132.219 24.8493 130.918 25.829 129.33 25.9919C128.811 26.0446 128.231 26.0575 127.59 26.0294C126.066 25.9626 124.825 25.2829 124.262 23.8345C124.178 23.6177 124.243 23.4583 124.46 23.3552C124.467 23.3517 124.561 23.3071 124.743 23.2193C124.955 23.1173 125.119 23.17 125.232 23.3751C125.419 23.7114 125.544 23.9189 125.607 23.9985C126.425 25.0157 127.719 25.2126 128.961 25.0767C129.926 24.9712 130.846 24.4743 131.191 23.5439C131.487 22.7505 131.081 21.8739 130.393 21.4732C129.641 21.036 128.79 20.8638 127.943 20.6985C126.225 20.3634 124.448 19.6661 124.541 17.5943C124.561 17.1548 124.559 16.7693 124.753 16.3661C125.569 14.6622 127.569 14.3892 129.302 14.6048C130.485 14.7513 131.472 15.3407 131.924 16.4833C132.007 16.6954 132.034 16.9157 132.002 17.1419C131.996 17.1841 131.974 17.2134 131.934 17.231C131.623 17.3634 131.13 17.4618 130.962 17.0622C130.516 16.011 129.582 15.5857 128.495 15.5013C127.376 15.4146 125.691 16.0263 125.576 17.3751Z" fill="#352610"/>
<path d="M139.772 15.8304C138.906 15.4284 138.007 15.3851 137.077 15.6991C136.151 16.012 135.409 16.8148 135.567 17.8308C135.653 18.3827 135.948 18.7952 136.452 19.0706C138.64 20.2648 142.63 19.5616 142.262 23.3702C142.111 24.9452 140.839 25.8113 139.343 25.9882C138.688 26.0644 137.946 26.062 137.282 26.0034C135.979 25.8909 134.796 25.2171 134.298 23.9585C134.184 23.6702 134.265 23.457 134.542 23.3175C134.57 23.3034 134.597 23.2882 134.623 23.2718C134.911 23.0925 135.128 23.1558 135.273 23.4628C136.047 25.0988 137.992 25.3636 139.573 24.9382C140.606 24.6605 141.545 23.6351 141.202 22.5159C140.924 21.6089 139.995 21.1648 139.138 20.9691C138.004 20.7113 136.866 20.546 135.816 19.98C134.741 19.4011 134.45 18.4378 134.521 17.2824C134.631 15.4343 136.304 14.6187 137.947 14.5519C139.666 14.4816 141.332 14.8238 141.945 16.6296C142.002 16.7995 142.013 16.9859 141.974 17.1863C141.967 17.2238 141.945 17.2495 141.908 17.2624C141.465 17.4206 141.096 17.4687 140.897 16.946C140.709 16.4538 140.242 16.0472 139.772 15.8304Z" fill="#352610"/>
<path d="M86.3005 15.5421C85.2645 15.7015 84.2719 16.2148 83.3216 17.082C83.0555 17.3234 82.9009 17.5355 82.8997 17.8952C82.8962 20.048 82.895 22.0683 82.8962 23.9585C82.8962 24.2527 82.8411 24.5386 82.7309 24.8187C82.6805 24.9464 82.7239 25.0097 82.861 25.0074C83.236 25.0015 83.5899 25.0109 83.9239 25.0355C84.1301 25.0507 84.2251 25.1609 84.2098 25.3671L84.1899 25.6249C84.1794 25.7656 84.1032 25.8359 83.9614 25.8359L80.5676 25.8288C80.3989 25.8277 80.304 25.7445 80.2817 25.5769C80.2676 25.4691 80.2688 25.3566 80.2852 25.2406C80.3087 25.0683 80.4071 24.9827 80.5817 24.9839C81.4618 24.9921 81.879 24.6159 81.8766 23.737C81.8731 21.1753 81.8755 18.5609 81.886 15.8937C81.8872 15.7343 81.8075 15.6546 81.6469 15.6558L80.5395 15.6628C80.4094 15.664 80.3426 15.5984 80.3391 15.4683L80.3286 15.0359C80.3262 14.9269 80.379 14.873 80.488 14.873L82.4907 14.8753C82.5903 14.8753 82.6712 14.9562 82.6723 15.057C82.6735 15.3898 82.6208 15.9277 82.7356 16.23C82.7579 16.2909 82.8376 16.3062 82.8833 16.2593C83.9485 15.1472 85.2774 14.5847 86.8712 14.5718C86.9567 14.5706 87.0188 14.607 87.0575 14.6796C87.1114 14.7792 87.1348 14.8882 87.129 15.0066C87.0891 15.7648 87.0669 16.4972 87.0633 17.2038C87.0633 17.2917 87.0188 17.3351 86.9309 17.3351H86.5864C86.4633 17.3351 86.4024 17.2741 86.4012 17.1511L86.3837 15.6124C86.3825 15.5574 86.3555 15.5339 86.3005 15.5421Z" fill="#352610"/>
<path d="M45.6704 22.4634C44.6579 22.0333 43.7052 21.5986 42.8122 21.1591C42.6587 21.0841 42.3493 20.9845 41.8841 20.8614C41.6942 20.8111 41.5267 20.7548 41.3825 20.6904C40.9653 20.5052 40.5927 20.2861 40.1614 20.1736C39.5778 20.0224 39.0165 19.8794 38.4786 19.7458C38.1071 19.6532 37.7673 19.4798 37.3935 19.3943C36.5767 19.2079 35.7997 19.0743 35.0614 18.9947C34.411 18.9255 33.7724 18.8529 33.1466 18.7779C32.1024 18.6536 31.0114 18.615 29.8735 18.663C28.7673 18.7087 27.7993 18.7697 26.9696 18.8458C26.3755 18.8997 25.7813 18.9806 25.1884 19.1189C24.8204 19.2056 24.4606 19.2911 24.1103 19.3767C23.5161 19.522 22.7204 19.774 22.0103 19.9415C21.838 19.9825 21.5204 20.1349 21.0599 20.3997C20.7294 20.5907 20.413 20.7513 20.1118 20.8837C19.7263 21.0525 19.3876 21.2599 19.097 21.5072C18.3411 22.1482 17.6345 22.8736 16.9782 23.6833C16.8646 23.8251 16.772 23.9798 16.7017 24.1486C16.5282 24.5646 16.356 24.9794 16.1849 25.3954C16.1157 25.5642 16.063 25.7751 16.0267 26.0294C15.9599 26.4993 15.8204 26.9435 15.6071 27.3595C15.0903 26.1806 14.7458 25.2443 14.5759 24.5505C14.4657 24.0982 14.3567 23.6458 14.2489 23.1923C14.1587 22.8103 14.1048 22.4165 14.0872 22.0122C14.0696 21.615 14.0497 21.2177 14.0298 20.8181C14.0415 20.7947 14.0638 20.7665 14.0966 20.7349C14.2548 20.647 14.5149 20.4794 14.8747 20.2298C15.4524 19.8302 16.1005 19.4517 16.8165 19.0943C20.0544 17.4806 23.5864 16.5197 27.1747 16.1048C29.7552 15.806 32.4353 15.8587 35.2138 16.263C36.6821 16.4775 38.0966 16.8255 39.4583 17.3072C41.447 18.0114 43.3513 19.147 44.6954 20.7982C45.0458 21.2282 45.3704 21.7837 45.6704 22.4634Z" fill="#737373"/>
<path d="M45.6703 22.4634L45.8848 22.8033C46.3875 24.2588 46.5785 25.7564 46.4578 27.2974C46.3149 29.122 45.9762 30.8517 45.4418 32.4865C44.9766 33.908 44.3332 35.3377 43.5094 36.7732C43.5059 36.7779 43.3758 36.9783 43.1192 37.3756C42.9223 37.6791 42.7664 38.0131 42.6516 38.3763C42.409 38.5299 42.1852 38.7513 41.9801 39.0396C41.4035 39.2834 40.8633 39.5646 40.3606 39.8845C40.0032 40.1119 39.6996 40.2736 39.45 40.3709C38.8711 40.5959 38.284 40.8291 37.6899 41.0716C37.1063 41.3095 36.4957 41.4912 35.8582 41.6166C34.1555 41.9506 32.461 42.0009 30.7746 41.7677C29.6086 41.606 28.3758 41.2791 27.341 40.6955C26.9965 40.5009 26.6332 40.3029 26.25 40.1013C25.6582 39.7884 25.2024 39.342 24.6375 38.9658C24.1899 38.6681 23.8442 38.306 23.434 37.9861C23.1328 37.7506 22.8469 37.4927 22.5762 37.2103C21.9926 36.6021 21.3926 35.9834 20.7774 35.3552C20.5617 35.1361 20.3379 34.8724 20.1071 34.5654C19.6453 33.9502 19.1485 33.3677 18.6973 32.742C17.8008 31.4998 17.0426 30.2365 16.2235 28.7306C16.166 28.6252 16.0289 28.4459 15.8121 28.1939C15.825 27.9162 15.7571 27.6384 15.6071 27.3595C15.8203 26.9435 15.9598 26.4994 16.0266 26.0295C16.0629 25.7752 16.1156 25.5642 16.1848 25.3955C16.3559 24.9795 16.5281 24.5646 16.7016 24.1486C16.7719 23.9799 16.8645 23.8252 16.9781 23.6834C17.6344 22.8736 18.341 22.1482 19.0969 21.5072C19.3875 21.2599 19.7262 21.0525 20.1117 20.8838C20.4129 20.7513 20.7293 20.5908 21.0598 20.3998C21.5203 20.1349 21.8379 19.9826 22.0102 19.9416C22.7203 19.774 23.516 19.522 24.1102 19.3767C24.4606 19.2912 24.8203 19.2056 25.1883 19.1189C25.7813 18.9806 26.3754 18.8998 26.9696 18.8459C27.7992 18.7697 28.7672 18.7088 29.8735 18.6631C31.0114 18.615 32.1024 18.6537 33.1465 18.7779C33.7723 18.8529 34.411 18.9256 35.0614 18.9947C35.7996 19.0744 36.5766 19.208 37.3934 19.3943C37.7672 19.4799 38.1071 19.6533 38.4785 19.7459C39.0164 19.8795 39.5778 20.0224 40.1614 20.1736C40.5926 20.2861 40.9653 20.5052 41.3824 20.6904C41.5266 20.7549 41.6942 20.8111 41.884 20.8615C42.3492 20.9845 42.6586 21.0842 42.8121 21.1592C43.7051 21.5986 44.6578 22.0334 45.6703 22.4634Z" fill="#555555"/>
<path d="M14.0297 20.8181C14.0496 21.2177 14.0695 21.615 14.0871 22.0123C14.1047 22.4166 14.1586 22.8103 14.2488 23.1923C14.3566 23.6458 14.4656 24.0982 14.5758 24.5505C14.7457 25.2443 15.0902 26.1806 15.607 27.3595C15.757 27.6384 15.825 27.9162 15.8121 28.1939C15.7758 29.3904 15.8801 30.3759 16.1238 31.1482C16.2504 31.5501 16.3676 31.9568 16.4754 32.3681C16.5926 32.8146 16.7309 33.2107 16.8902 33.5587C17.2266 34.2935 17.5559 35.0482 17.8805 35.8228C17.9824 36.0654 18.1031 36.2775 18.2426 36.4603C18.6363 36.9748 18.8894 37.5771 19.2 38.1419C19.3266 38.3705 19.5293 38.5334 19.6723 38.7595C20.1035 39.4404 20.5734 40.0919 21.082 40.7154C21.2191 40.883 21.4043 41.1279 21.6375 41.449C22.0359 41.9998 22.5269 42.5025 22.9969 42.9935C23.5383 43.5595 24.1125 44.1537 24.7184 44.7771C24.2824 44.6681 23.7984 44.4818 23.2652 44.2181C19.0758 42.1439 15.2672 39.0501 12.4992 35.2427C11.523 33.8986 10.6898 32.3576 10.2141 30.7943C9.96093 29.9634 9.82499 29.2017 9.80507 28.5068C9.76171 26.9798 10.1016 25.5876 10.8234 24.3279C11.591 22.9884 12.6598 21.8177 14.0297 20.8181Z" fill="#898989"/>
<path d="M45.8848 22.8032C46.4016 23.0985 46.8985 23.3962 47.3778 23.6974C47.8958 24.022 48.2614 24.486 48.7395 24.8599C49.1977 25.2185 49.6172 25.638 49.9958 26.1185C50.0157 26.1431 50.0813 26.2028 50.195 26.2978C50.2782 26.3681 50.318 26.4571 50.3122 26.5649C50.1024 27.5505 49.8809 28.3497 49.6477 28.9638C48.2051 32.7665 45.8731 35.9036 42.6516 38.3763C42.7665 38.013 42.9223 37.679 43.1192 37.3755C43.3758 36.9782 43.5059 36.7778 43.5094 36.7731C44.3333 35.3376 44.9766 33.9079 45.4418 32.4864C45.9762 30.8517 46.3149 29.122 46.4579 27.2974C46.5786 25.7563 46.3875 24.2587 45.8848 22.8032Z" fill="#898989"/>
<path d="M50.3532 26.3809C50.393 26.5895 50.5372 26.8684 50.7868 27.2187C51.3903 28.0684 51.8052 29.1043 52.0313 30.3289C52.2469 31.4996 52.2188 32.7441 51.9458 34.0637C51.8344 34.6051 51.6094 35.1535 51.4466 35.6949C50.7973 37.8406 49.4884 40.0438 48.0481 41.8684C47.7106 42.2961 47.379 42.6758 47.052 43.0086C46.5727 43.4961 46.1204 44.0199 45.5989 44.4875C43.67 46.2113 41.4411 47.5508 38.8864 48.3605C36.6376 49.0742 34.329 49.2266 31.9583 48.8199C31.0208 48.6594 30.1594 48.3781 29.3755 47.9762C28.4591 47.5062 27.5063 47.0621 26.7376 46.3766C26.2887 45.977 25.5985 45.7109 25.3524 45.1355C25.6512 45.2141 25.9594 45.268 26.2489 45.3617C28.0173 45.9324 29.7657 46.0602 31.493 45.7449C35.7552 44.968 39.4067 42.507 41.9801 39.0395C42.1852 38.7512 42.4091 38.5297 42.6516 38.3762C45.8731 35.9035 48.2052 32.7664 49.6477 28.9637C49.8809 28.3496 50.1024 27.5504 50.3122 26.5648L50.3532 26.3809Z" fill="#D0D0D0"/>
<path d="M15.8122 28.1938C16.029 28.4458 16.1661 28.6251 16.2235 28.7306C17.0427 30.2364 17.8009 31.4997 18.6974 32.7419C19.1485 33.3677 19.6454 33.9501 20.1071 34.5653C20.338 34.8724 20.5618 35.136 20.7775 35.3552C21.3927 35.9833 21.9927 36.6021 22.5763 37.2103C22.847 37.4927 23.1329 37.7505 23.4341 37.986C23.8442 38.306 24.19 38.6681 24.6376 38.9657C25.2025 39.3419 25.6583 39.7884 26.2501 40.1013C26.6333 40.3028 26.9966 40.5009 27.3411 40.6954C28.3759 41.279 29.6087 41.606 30.7747 41.7677C32.461 42.0009 34.1556 41.9505 35.8583 41.6165C36.4958 41.4911 37.1064 41.3095 37.69 41.0716C38.2841 40.829 38.8712 40.5958 39.4501 40.3708C39.6997 40.2735 40.0032 40.1118 40.3607 39.8845C40.8634 39.5646 41.4036 39.2833 41.9802 39.0395C39.4067 42.5071 35.7552 44.9681 31.4931 45.745C29.7657 46.0603 28.0173 45.9325 26.2489 45.3618C25.9595 45.2681 25.6513 45.2142 25.3525 45.1356C25.0653 45.0243 24.8532 44.9048 24.7185 44.7771C24.1126 44.1536 23.5384 43.5595 22.997 42.9935C22.5271 42.5024 22.036 41.9997 21.6376 41.4489C21.4044 41.1278 21.2192 40.8829 21.0821 40.7153C20.5735 40.0919 20.1036 39.4403 19.6724 38.7595C19.5294 38.5333 19.3267 38.3704 19.2001 38.1419C18.8896 37.577 18.6364 36.9747 18.2427 36.4603C18.1032 36.2774 17.9825 36.0653 17.8806 35.8228C17.556 35.0481 17.2267 34.2935 16.8903 33.5587C16.731 33.2106 16.5927 32.8145 16.4755 32.3681C16.3677 31.9567 16.2505 31.5501 16.1239 31.1481C15.8802 30.3759 15.7759 29.3903 15.8122 28.1938Z" fill="#737373"/>
<path d="M70.1532 32.6621C70.1907 32.6668 70.2235 32.6387 70.2235 32.6012C70.2212 32.0281 70.2634 31.448 70.0689 30.9078C69.8755 30.3676 69.613 29.941 69.2814 29.6258C69.1677 29.5191 69.1642 29.4078 69.2708 29.2941L69.463 29.0867C69.6083 28.9285 69.7548 28.9285 69.9024 29.0844C71.0767 30.3266 71.2829 31.9391 70.7778 33.5727C70.7485 33.6688 70.7087 33.7613 70.6595 33.8492C70.6431 33.8785 70.6173 33.8961 70.5833 33.8996L70.0208 33.9688C69.9634 33.9758 69.9165 33.9559 69.8814 33.9078C69.3564 33.1953 68.7681 32.3996 68.0356 31.9332C66.5544 30.9898 65.0017 30.8445 63.3763 31.4973C60.0985 32.8145 59.0685 36.5867 59.6157 39.7766C60.0411 42.2563 61.5235 44.4242 64.0079 45.0418C66.1876 45.5844 68.4024 44.8871 69.7935 43.1398C69.9962 42.8856 70.1591 42.6055 70.37 42.3605C70.4415 42.2773 70.5599 42.2516 70.6595 42.2973C70.9138 42.4145 71.4095 42.7309 71.2536 43.0719C71.1282 43.3473 70.9009 43.5852 70.7122 43.8277C69.0845 45.9231 66.8298 46.4797 64.2048 46.1762C62.8735 46.0227 61.6349 45.3945 60.6599 44.4207C58.7075 42.4707 58.2142 39.7566 58.4263 37.0355C58.5153 35.893 58.8095 34.8113 59.3075 33.7906C60.2732 31.8148 62.2267 30.2914 64.4626 30.1016C64.82 30.0711 65.229 30.0617 65.6872 30.0746C66.9657 30.1109 67.9841 30.4449 69.0329 31.2816C69.4911 31.6473 69.8321 32.0832 70.0571 32.5906C70.0759 32.6316 70.1075 32.6563 70.1532 32.6621Z" fill="#352610"/>
<path d="M121.049 30.1146C121.025 30.0712 120.981 30.0443 120.932 30.0431L119.68 30.0138C119.477 30.0091 119.387 29.906 119.408 29.7044L119.434 29.4583C119.452 29.2931 119.544 29.2076 119.711 29.204C120.35 29.1911 120.996 29.2029 121.647 29.2392C122.094 29.2638 122.06 29.6447 122.06 30.0208C122.054 34.7611 122.053 39.5025 122.057 44.2462C122.057 44.5802 122.009 44.8099 121.856 45.0841C121.815 45.1603 121.869 45.2529 121.956 45.2529L123.489 45.2646C123.642 45.2658 123.718 45.3431 123.717 45.4966L123.714 45.7767C123.711 45.9255 123.636 46.0005 123.488 45.9994L119.802 45.9888C119.595 45.9876 119.493 45.8845 119.495 45.6771L119.497 45.4732C119.501 45.2505 119.613 45.1462 119.836 45.1603C120.384 45.1954 120.756 44.9927 120.952 44.5509C121.044 44.3423 121.09 44.0001 121.088 43.5255C121.073 39.3911 121.072 34.9673 121.084 30.2529C121.084 30.2072 121.072 30.1603 121.049 30.1146Z" fill="#352610"/>
<path d="M98.0678 31.0656L97.8452 31.0718C97.512 31.0811 97.2495 31.3587 97.2588 31.6919L97.2638 31.8723C97.2731 32.2055 97.5508 32.468 97.884 32.4587L98.1065 32.4525C98.4397 32.4432 98.7023 32.1656 98.693 31.8324L98.6879 31.652C98.6786 31.3188 98.401 31.0562 98.0678 31.0656Z" fill="#352610"/>
<path d="M102.675 35.8684L101.776 35.8801C101.596 35.8836 101.496 35.7945 101.477 35.6152L101.443 35.2953C101.425 35.116 101.506 35.0258 101.685 35.0235L102.588 35.0117C102.765 35.0094 102.853 34.9203 102.853 34.7434L102.857 33.1379C102.857 32.9141 102.969 32.7957 103.193 32.784L103.504 32.7676C103.716 32.757 103.824 32.8578 103.825 33.0711L103.832 34.8207C103.832 34.9485 103.896 35.0129 104.024 35.0141L106.577 35.034C106.764 35.0352 106.855 35.1301 106.853 35.3164C106.85 35.5051 106.849 35.6235 106.848 35.6692C106.846 35.8531 106.752 35.9445 106.568 35.9422L103.915 35.9106C103.856 35.9094 103.808 35.9563 103.806 36.0149C103.767 37.2418 103.824 38.4699 103.831 39.7004C103.838 40.8828 103.839 42.0676 103.835 43.2547C103.834 43.6731 103.876 43.986 103.962 44.1945C104.397 45.2516 105.725 45.2094 106.648 45.2211C106.859 45.2246 106.965 45.3313 106.966 45.5434C106.966 45.6078 106.965 45.6711 106.964 45.7344C106.961 45.909 106.87 45.9957 106.696 45.9922C106.287 45.984 105.856 45.984 105.401 45.991C104.693 46.0039 104.071 45.8153 103.533 45.4274C102.969 45.0195 102.845 44.2578 102.847 43.5863C102.858 40.9461 102.857 38.4277 102.843 36.0324C102.841 35.9211 102.786 35.8672 102.675 35.8684Z" fill="#352610"/>
<path d="M80.0157 44.546C79.9852 44.5191 79.9372 44.5249 79.9137 44.5578C79.1321 45.6171 77.8067 46.1621 76.5118 46.2347C75.8134 46.2746 74.9907 46.2839 74.3567 46.0003C72.9563 45.3757 72.6446 44.1359 72.7114 42.6699C72.8005 40.6871 74.6977 39.971 76.3454 39.8386C77.4481 39.7507 78.538 39.7859 79.6512 39.7812C79.8399 39.7812 79.9817 39.657 79.9923 39.4671C80.0895 37.7374 79.7907 35.9796 77.72 35.7804C76.2692 35.6398 75.0927 36.0675 74.0274 36.971C73.8141 37.1527 73.6067 37.1457 73.404 36.9523L73.2259 36.7812C73.0149 36.5796 73.0161 36.3781 73.2282 36.1765C73.9091 35.5308 74.6368 35.1148 75.4114 34.9261C76.479 34.6648 77.563 34.6332 78.6645 34.8312C79.097 34.9097 79.4942 35.0749 79.8552 35.3292C80.6098 35.8589 80.9942 36.9382 80.9942 37.8148C80.9954 40.3496 80.9954 42.8093 80.9954 45.1917C80.9954 45.2574 81.0481 45.3101 81.1138 45.3101L82.0489 45.3136C82.1813 45.3136 82.2446 45.3804 82.2376 45.5128L82.2165 45.916C82.2095 46.046 82.1415 46.1105 82.0114 46.1105L80.4059 46.1058C80.2102 46.1046 80.1083 46.0062 80.1013 45.8105C80.0884 45.4648 80.0848 45.0992 80.0884 44.7113C80.0895 44.6433 80.0649 44.5882 80.0157 44.546ZM77.0356 45.2503C78.0001 44.955 80.0778 44.0046 80.0567 42.8328C80.045 42.1906 80.0497 41.5343 80.0708 40.8628C80.0755 40.7304 80.011 40.6636 79.8774 40.6636C78.9305 40.6648 78.0141 40.6765 77.1294 40.7C76.2845 40.7222 75.5638 40.8898 74.9696 41.2015C74.3157 41.5449 73.9372 42.0535 73.8329 42.725C73.6548 43.8816 74.3134 44.9093 75.4454 45.2585C75.7477 45.3511 76.0583 45.2996 76.3665 45.3265C76.5856 45.3453 76.8083 45.3195 77.0356 45.2503Z" fill="#352610"/>
<path d="M86.4962 45.3067C86.3427 45.2282 86.2665 45.275 86.2688 45.4485C86.2934 47.02 86.2782 48.4239 86.222 49.6625C86.2067 50.0071 86.1493 50.2473 85.929 50.5028C85.8786 50.5614 85.9138 50.6528 85.9911 50.6621C86.3813 50.7079 86.8091 50.7219 87.2755 50.7043C87.4243 50.6985 87.497 50.77 87.4934 50.9188L87.4852 51.3032C87.4817 51.4262 87.4196 51.4871 87.2966 51.486C86.2231 51.4719 85.1415 51.4637 84.0505 51.4602C83.4598 51.459 83.6063 50.661 84.1337 50.6504C84.8602 50.6352 85.2247 50.2332 85.227 49.4446C85.2376 45.0371 85.2388 40.6543 85.2306 36.2961C85.2294 36.0571 85.0372 35.8625 84.7981 35.8602L83.9989 35.8496C83.7938 35.8473 83.6919 35.743 83.693 35.5379L83.6966 35.2836C83.6977 35.0645 83.8091 34.9567 84.0294 34.9625L85.7391 35.0036C85.9407 35.0082 86.1001 35.1723 86.1013 35.3739L86.1036 35.8485C86.1048 36.1391 86.202 36.1766 86.3966 35.961C87.3645 34.884 88.5868 34.6731 89.9813 34.7352C91.2036 34.7903 92.1903 35.225 92.9403 36.0418C94.3196 37.5442 94.5095 39.786 94.2997 41.7946C94.2118 42.6418 93.947 43.4176 93.5052 44.1219C92.6227 45.5293 91.2798 46.2395 89.4763 46.2524C88.4614 46.2606 87.5825 46.0309 86.8384 45.5633C86.7259 45.493 86.6075 45.3629 86.4962 45.3067ZM90.7559 44.9809C93.4184 43.9801 93.7829 40.4832 92.9122 38.1946C92.3872 36.8141 91.2751 35.8743 89.7727 35.7536C88.622 35.661 87.6493 36.0137 86.8536 36.8094C86.5677 37.0953 86.2735 37.4364 86.2735 37.8676C86.2759 39.5211 86.2759 41.3516 86.2735 43.3579C86.2735 43.5899 86.3591 43.8371 86.5137 44.0106C87.5649 45.193 89.2524 45.5457 90.7559 44.9809Z" fill="#352610"/>
<path d="M115.772 44.5625C114.544 45.9441 112.875 46.3765 111.076 46.2078C109.063 46.0191 108.286 44.2461 108.563 42.4156C108.757 41.1242 109.705 40.4175 110.889 40.0871C112.405 39.6652 114.033 39.7882 115.589 39.7765C115.738 39.7754 115.856 39.6535 115.854 39.5047C115.843 38.9422 115.814 38.4382 115.765 37.9941C115.636 36.8316 114.928 35.9586 113.736 35.7933C112.219 35.5812 110.905 35.9843 109.794 37.0004C109.472 37.2945 109.106 36.8468 108.952 36.6148C108.809 36.4004 109.09 36.1156 109.242 35.9949C110.05 35.3492 110.865 34.9613 111.689 34.8312C112.314 34.7316 112.999 34.7047 113.743 34.748C114.911 34.8172 116.002 35.232 116.474 36.3945C116.729 37.0238 116.856 37.6566 116.852 38.2953C116.843 40.4457 116.835 42.6828 116.827 45.0066C116.827 45.1332 116.89 45.1976 117.016 45.2011L117.872 45.2211C117.979 45.2234 118.064 45.3101 118.064 45.4168V45.8972C118.064 45.9957 118.015 46.0449 117.918 46.0449L116.154 46.0461C116.01 46.0472 115.894 45.9277 115.897 45.7836C115.908 45.3617 115.899 44.9656 115.867 44.5941C115.863 44.5461 115.804 44.5261 115.772 44.5625ZM109.596 43.2769C109.644 44.2625 110.458 45.1461 111.44 45.2715C112.985 45.466 114.35 44.8191 115.391 43.6285C115.607 43.3812 115.82 43.1738 115.838 42.8281C115.865 42.3031 115.868 41.7113 115.846 41.0527C115.842 40.9273 115.825 40.8031 115.794 40.6812C115.778 40.6168 115.713 40.5769 115.649 40.591C115.471 40.6297 115.306 40.6484 115.153 40.6496C113.361 40.6566 109.453 40.332 109.596 43.2769Z" fill="#352610"/>
<path d="M98.1809 45.1495C98.1118 45.1976 98.12 45.221 98.2032 45.2222L99.579 45.2327C99.7114 45.2339 99.7782 45.3007 99.7782 45.4331L99.7794 45.8327C99.7806 46.0226 99.6856 46.1152 99.4958 46.1105L96.3036 46.0284C96.0681 46.0226 95.9591 45.9019 95.9755 45.6675C95.9813 45.5702 95.986 45.514 95.9872 45.4964C96.0036 45.2597 96.1243 45.1472 96.3505 45.1577C96.7466 45.1765 97.1181 45.0277 97.4649 44.7124C97.5856 44.6034 97.6618 44.4945 97.6618 44.328C97.6759 41.5249 97.6724 38.9269 97.6524 36.5327C97.6501 36.337 97.6384 36.1191 97.6161 35.88C97.6103 35.8191 97.5599 35.7722 97.4978 35.771L96.1852 35.7605C96.0563 35.7593 95.9942 35.6948 95.9977 35.5659L96.0095 35.2097C96.013 35.0843 96.0774 35.021 96.2028 35.0198L98.1294 35.0034C98.3743 35.0011 98.5735 35.198 98.5735 35.4429C98.5782 38.7101 98.5724 41.6831 98.5571 44.3632C98.556 44.7124 98.4306 44.9749 98.1809 45.1495Z" fill="#352610"/>
</g>
<defs>
<clipPath id="clip0_32_74">
<rect width="150" height="60" fill="white" transform="translate(0.962158 0.313721)"/>
</clipPath>
</defs>
</svg>
