<svg width="24" height="24" viewBox="0 0 24 24" fill="none" xmlns="http://www.w3.org/2000/svg">
<path fill-rule="evenodd" clip-rule="evenodd" d="M3.60001 20.3999L19.7434 6.95697C19.9412 6.78456 20.1014 6.57337 20.2141 6.33648C20.3268 6.0996 20.3897 5.84207 20.3988 5.57988C20.408 5.31769 20.3631 5.05642 20.267 4.81229C20.171 4.56815 20.0258 4.34634 19.8405 4.16064C19.6547 3.97494 19.4328 3.82942 19.1884 3.73315C18.944 3.63687 18.6824 3.5919 18.4199 3.60101C18.1574 3.61011 17.8996 3.6731 17.6624 3.78608C17.4253 3.89906 17.2139 4.0596 17.0415 4.25772L3.60001 20.3999ZM11.3877 6.08135L4.59046 11.1789L9.68841 4.38218C9.79263 4.24322 9.92553 4.12826 10.078 4.04507C10.2306 3.96187 10.3992 3.91239 10.5725 3.89996C10.7458 3.88754 10.9197 3.91245 11.0826 3.97303C11.2454 4.03361 11.3933 4.12844 11.5164 4.25111C11.6396 4.37399 11.7349 4.52192 11.796 4.68488C11.857 4.84784 11.8822 5.02203 11.8701 5.19562C11.8579 5.36921 11.8085 5.53814 11.7253 5.69096C11.6421 5.84379 11.5269 5.97692 11.3877 6.08135ZM19.6174 14.3119L12.8202 19.4094L17.9181 12.6127C18.0224 12.4737 18.1553 12.3588 18.3078 12.2756C18.4603 12.1924 18.6289 12.1429 18.8022 12.1305C18.9755 12.1181 19.1494 12.143 19.3123 12.2036C19.4751 12.2641 19.6231 12.359 19.746 12.4816C19.8693 12.6045 19.9647 12.7524 20.0257 12.9154C20.0867 13.0784 20.112 13.2525 20.0998 13.4261C20.0876 13.5997 20.0381 13.7687 19.9549 13.9215C19.8717 14.0743 19.7566 14.2074 19.6174 14.3119Z" fill="#CF32E5"/>
</svg>
