<svg width="81" height="29" viewBox="0 0 81 29" fill="none" xmlns="http://www.w3.org/2000/svg">
<g clip-path="url(#clip0_6511_439)">
<path d="M28.6781 15.2548C28.6781 23.4901 22.9399 28.4844 15.4485 28.4844C6.94752 28.4312 0.890597 22.2149 0.890597 14.5109C0.837466 6.80696 7.05379 0.537506 14.7578 0.484375C14.8109 0.484375 14.9172 0.484375 14.9703 0.484375C20.124 0.484375 24.4807 3.03466 26.7122 6.64756L21.5054 9.6229C20.3896 7.86958 17.9456 6.48817 14.9172 6.48817C10.401 6.48817 7.00065 9.83542 7.00065 14.5641C7.00065 19.1333 10.2416 22.4806 15.4485 22.4806C19.0082 22.4806 21.346 20.8867 22.3555 18.3364H15.1828V12.917H28.6781V15.2548Z" fill="#352610"/>
<path d="M31.0161 14.4577C31.0161 6.54121 36.8605 0.484285 44.9364 0.484285C49.6119 0.431154 53.9687 2.76891 56.4658 6.7006L51.1527 9.7822C49.9839 7.71009 47.6461 6.48808 44.9364 6.48808C40.1546 6.48808 37.073 9.67593 37.073 14.4577C37.073 19.2395 40.1546 22.4274 44.9364 22.4274C47.6461 22.4274 49.9839 21.2053 51.1527 19.1332L56.4658 22.2148C53.9687 26.1997 49.6119 28.5905 44.9364 28.4843C36.8605 28.4312 31.0161 22.3742 31.0161 14.4577Z" fill="#352610"/>
<path d="M68.4202 19.0801H65.498V27.8999H59.3348V1.01562H70.0673C75.1679 1.01562 79.2589 5.10671 79.3121 10.2073V10.2604C79.2589 13.6077 77.3462 16.583 74.3709 18.0707L80.109 27.953H73.5208L68.4202 19.0801ZM65.5512 13.7139H70.1735C71.8737 13.7139 73.2551 12.2263 73.2551 10.2604C73.2551 8.29456 71.8737 6.8069 70.1735 6.8069H65.5512V13.7139Z" fill="#352610"/>
</g>
<defs>
<clipPath id="clip0_6511_439">
<rect width="79.2182" height="28" fill="white" transform="translate(0.890869 0.484375)"/>
</clipPath>
</defs>
</svg>
