<svg width="24" height="24" viewBox="0 0 24 24" fill="none" xmlns="http://www.w3.org/2000/svg">
<path d="M12.0003 1.19983C6.03634 1.19983 1.20023 6.03509 1.20023 11.9999C1.20023 16.7717 4.29476 20.82 8.58598 22.2481C9.12571 22.348 9.32391 22.0138 9.32391 21.7285C9.32391 21.471 9.31383 20.6202 9.30926 19.7177C6.30459 20.3711 5.67059 18.4435 5.67059 18.4435C5.17931 17.1951 4.47145 16.8633 4.47145 16.8633C3.49161 16.1929 4.54531 16.2066 4.54531 16.2066C5.62985 16.2829 6.20092 17.3196 6.20092 17.3196C7.16416 18.9708 8.72743 18.4934 9.34373 18.2175C9.44063 17.5194 9.72057 17.043 10.0294 16.7733C7.63062 16.5001 5.10884 15.5741 5.10884 11.4358C5.10884 10.2568 5.53075 9.29328 6.22167 8.53696C6.10952 8.2649 5.73988 7.16647 6.32628 5.67883C6.32628 5.67883 7.23319 5.38856 9.29706 6.7859C10.1585 6.54653 11.0824 6.42659 12.0003 6.42252C12.9181 6.42659 13.8427 6.54653 14.7058 6.7859C16.7673 5.38856 17.6729 5.67883 17.6729 5.67883C18.2607 7.16647 17.8909 8.2649 17.7788 8.53696C18.4712 9.29328 18.8903 10.2567 18.8903 11.4358C18.8903 15.5839 16.3637 16.4973 13.9589 16.7647C14.3462 17.0998 14.6914 17.7571 14.6914 18.7647C14.6914 20.2097 14.6788 21.3728 14.6788 21.7285C14.6788 22.0159 14.8732 22.3527 15.4207 22.2466C19.7096 20.8169 22.8002 16.7701 22.8002 11.9999C22.8002 6.03509 17.9648 1.19983 12.0003 1.19983Z" fill="#CF32E5"/>
<path d="M5.24517 16.5848C5.22145 16.6384 5.13692 16.6545 5.06009 16.6177C4.98174 16.5825 4.9377 16.5093 4.96311 16.4554C4.9864 16.4002 5.07093 16.3848 5.14911 16.4219C5.22763 16.457 5.27236 16.5309 5.24517 16.5848ZM5.77642 17.0587C5.72492 17.1065 5.62421 17.0843 5.55586 17.0089C5.48522 16.9336 5.472 16.8329 5.52426 16.7844C5.57737 16.7367 5.67503 16.759 5.74585 16.8344C5.81649 16.9105 5.83021 17.0106 5.77634 17.0588L5.77642 17.0587ZM6.1409 17.6652C6.07466 17.7112 5.96641 17.6681 5.89958 17.572C5.83343 17.4761 5.83343 17.3609 5.90102 17.3147C5.96811 17.2686 6.07466 17.3101 6.14242 17.4054C6.20849 17.503 6.20849 17.6182 6.14082 17.6653L6.1409 17.6652ZM6.7572 18.3677C6.69799 18.4329 6.57195 18.4154 6.47963 18.3263C6.38527 18.2393 6.35893 18.1157 6.4183 18.0504C6.47819 17.985 6.60499 18.0034 6.69799 18.0917C6.79176 18.1786 6.82039 18.3031 6.75728 18.3677H6.7572ZM7.55375 18.6048C7.52774 18.6894 7.40628 18.7278 7.28397 18.6919C7.16182 18.6549 7.08187 18.5558 7.10651 18.4703C7.13192 18.3852 7.2539 18.3451 7.37714 18.3836C7.49911 18.4204 7.57924 18.5188 7.55383 18.6048H7.55375ZM8.4604 18.7054C8.46345 18.7945 8.35969 18.8683 8.23128 18.8699C8.10211 18.8727 7.99767 18.8007 7.99632 18.7131C7.99632 18.6231 8.09771 18.5499 8.22679 18.5478C8.3552 18.5453 8.4604 18.6169 8.4604 18.7054ZM9.35097 18.6712C9.36639 18.7581 9.27711 18.8474 9.14963 18.8711C9.02427 18.894 8.90823 18.8404 8.89222 18.7542C8.87663 18.6651 8.96761 18.5759 9.09271 18.5528C9.22044 18.5306 9.33471 18.5829 9.35097 18.6712Z" fill="#CF32E5"/>
</svg>
