<svg width="151" height="60" viewBox="0 0 151 60" fill="none" xmlns="http://www.w3.org/2000/svg">
<path d="M121.179 5.31236C122.217 5.31236 123.058 4.4709 123.058 3.43291C123.058 2.39492 122.217 1.55347 121.179 1.55347C120.141 1.55347 119.299 2.39492 119.299 3.43291C119.299 4.4709 120.141 5.31236 121.179 5.31236Z" fill="#352610"/>
<path d="M50.9781 10.2778C51.1885 10.592 51.3931 10.9478 51.488 11.3153C52.1549 13.8885 51.2686 16.174 48.814 17.2383C47.7498 17.7007 46.6648 17.8638 45.565 17.7244C44.8447 17.6325 44.1658 18.2521 43.899 18.848C43.7478 19.1859 43.8872 19.5802 44.2162 19.7462C44.5631 19.9181 44.9306 20.0189 45.3219 20.0456C46.3921 20.1197 47.4652 20.2057 48.5443 20.3065C51.0522 20.5406 54.0314 21.848 53.566 24.928C52.9138 29.2442 47.9721 29.6148 44.5631 29.2027C42.2834 28.927 40.0067 27.6612 39.9297 25.1592C39.8911 23.7956 40.819 22.8292 42.1589 22.3756C42.2982 22.3282 42.319 22.2511 42.2212 22.1414C41.9425 21.8331 41.6105 21.593 41.3911 21.2284C40.3802 19.5653 42.0166 18.0298 43.3447 17.3065C43.4158 17.2679 43.4158 17.1671 43.3476 17.1256C39.8289 14.9408 39.7785 9.93392 43.988 8.40724C45.3723 7.90625 46.7538 7.84104 48.1293 8.21456C48.6391 8.35388 49.1312 8.4191 49.6026 8.41614C51.0403 8.40724 52.4277 8.40724 53.7617 8.41614C53.9188 8.41614 53.981 8.49321 53.9484 8.6444L53.7142 9.82424C53.6787 10.0021 53.569 10.091 53.3882 10.0881L51.0848 10.0762C50.9247 10.0762 50.8891 10.1444 50.9781 10.2778ZM46.7713 16.4558C48.2893 16.26 49.315 14.5258 49.0637 12.5858C48.8111 10.6454 47.3763 9.23135 45.8588 9.42982C44.3407 9.62562 43.315 11.3598 43.5664 13.2998C43.819 15.2402 45.2538 16.6543 46.7713 16.4558ZM50.8714 24.0861C49.8042 22.8233 47.4297 22.6039 45.8704 22.6987C44.649 22.7758 43.4069 22.9033 42.5947 23.9497C41.231 25.7165 42.9949 27.3707 44.649 27.7235C46.2706 28.0703 47.8654 28.0555 49.4336 27.6731C51.15 27.258 52.2024 25.6632 50.8714 24.0861Z" fill="#352610"/>
<path d="M72.7192 20.8992C72.7459 20.5286 72.6214 20.4664 72.3397 20.7094C71.6134 21.3349 70.8545 21.8507 70.0571 22.2509C68.1006 23.2411 65.563 23.1403 64.2231 21.2341C63.6125 20.3656 63.3012 19.2598 63.2893 17.9169C63.2745 16.2243 63.2656 14.5701 63.2627 12.9545C63.2597 12.2875 63.1737 11.7183 63.0047 11.247C62.7528 10.5533 61.8012 10.7371 61.2409 10.8498C61.0304 10.8942 60.9297 10.8083 60.9356 10.5948L60.9534 10.0849C60.9623 9.80331 61.0986 9.61952 61.3654 9.53058C62.5245 9.14521 63.6302 8.68869 64.6856 8.16398C65.0235 7.99501 65.3822 7.93572 65.7646 7.98612C65.8743 8.00094 65.9247 8.06023 65.9217 8.16991C65.818 10.6037 65.7854 13.6007 65.8298 17.161C65.8417 18.0889 65.9988 19.2213 66.565 19.9446C68.1717 21.9812 70.8605 20.3626 72.3872 18.9397C72.5028 18.83 72.5621 18.6996 72.5621 18.5454C72.565 16.7104 72.5621 14.8488 72.5532 12.9545C72.5472 11.6501 72.3101 10.2806 70.4721 10.9713C70.2913 11.0395 70.1994 10.9743 70.1994 10.7816V10.0642C70.2024 9.8626 70.3328 9.6877 70.5255 9.62841C71.7972 9.24896 73.0542 8.74797 74.2903 8.12248C74.6075 7.9624 74.8269 8.01576 75.1589 7.98019C75.2893 7.96833 75.3516 8.02762 75.3486 8.15509C75.2804 11.8369 75.2775 15.5424 75.3397 19.2687C75.3605 20.4071 75.9534 20.7124 77.1184 20.1818C77.5097 20.0039 77.6727 20.1225 77.6075 20.5345C77.6016 20.576 77.6016 20.6175 77.6075 20.662C77.652 20.9792 77.5275 21.1986 77.2281 21.3142L73.5196 22.7786C73.3951 22.826 73.2528 22.7816 73.1787 22.6719C72.8259 22.1472 72.6717 21.5543 72.7192 20.8992Z" fill="#352610"/>
<path d="M89.7498 9.7766C89.7468 9.86554 89.8506 9.9189 89.9217 9.86257C92.4978 7.79637 96.0166 6.94557 98.317 9.95743C98.4059 10.073 98.5037 10.0819 98.6134 9.97818C101.688 7.05526 106.78 7.03747 107.972 11.8902C108.1 12.4031 108.162 12.9159 108.159 13.4258C108.156 15.3764 108.153 17.4545 108.156 19.66C108.159 20.997 109.247 21.1778 110.305 21.1748C110.56 21.1748 110.676 21.3023 110.652 21.5543L110.61 22.0138C110.59 22.2479 110.459 22.3576 110.225 22.3428C108.129 22.2094 105.93 22.2094 103.623 22.3428C103.371 22.3576 103.241 22.2391 103.238 21.9871L103.232 21.6106C103.229 21.3112 103.377 21.163 103.677 21.1719C104.851 21.2074 105.429 20.656 105.408 19.5207C105.381 17.8932 105.387 16.1412 105.423 14.2588C105.443 13.1412 105.28 12.2815 104.934 11.6738C104.237 10.4525 103.128 9.92482 101.605 10.0879C100.807 10.1738 99.9771 10.5385 99.1114 11.1877C99.0107 11.2618 98.9603 11.3626 98.9603 11.4871C98.9603 14.3655 98.9632 17.0928 98.9692 19.6689C98.9721 21.1037 100.102 21.1304 101.166 21.1215C101.447 21.1185 101.581 21.2578 101.572 21.5394L101.557 22.0167C101.551 22.2005 101.391 22.3428 101.207 22.3309C98.9395 22.1827 96.7547 22.1916 94.647 22.3547C94.3298 22.3813 94.1638 22.2331 94.149 21.9159L94.1371 21.6284C94.1253 21.2993 94.2824 21.1452 94.6085 21.163C95.7379 21.2252 96.3071 20.6531 96.3219 19.4495C96.3427 17.4041 96.3456 15.2193 96.3249 12.8952C96.2923 9.19261 91.8842 9.55131 89.9929 11.4989C89.9277 11.5671 89.895 11.6472 89.895 11.7391C89.898 14.3685 89.898 17.0246 89.895 19.7074C89.8921 21.1066 91.0304 21.1274 92.0828 21.1126C92.3852 21.1096 92.5304 21.2578 92.5215 21.5602L92.5067 21.9693C92.4978 22.2272 92.3615 22.3458 92.1035 22.328C89.9454 22.1768 87.7251 22.1827 85.4454 22.3487C85.2528 22.3606 85.0897 22.2094 85.0897 22.0167V21.4802C85.0897 21.2578 85.1994 21.1541 85.4217 21.1689C86.4474 21.2341 87.2597 20.9614 87.2656 19.7519C87.2745 17.656 87.2745 15.5454 87.2686 13.4199C87.2656 12.913 87.2122 12.4031 87.1085 11.8962C86.8921 10.8557 85.9553 10.6481 85.0986 11.0869C84.7992 11.2381 84.651 11.1462 84.648 10.8112V10.331C84.6451 10.0582 84.8229 9.8181 85.0838 9.74103C86.3229 9.36751 87.5383 8.83688 88.733 8.14617C89.0294 7.9772 89.2844 7.98312 89.6134 7.99202C89.7468 7.99498 89.812 8.06316 89.8061 8.19656L89.7498 9.7766Z" fill="#352610"/>
<path d="M122.765 19.337C122.768 20.6117 123.698 21.2342 124.881 21.1067C125.213 21.0682 125.373 21.2194 125.364 21.5544L125.353 21.919C125.344 22.2303 125.181 22.3725 124.869 22.3488C122.726 22.1858 120.535 22.1887 118.294 22.3548C118.119 22.3666 117.971 22.2332 117.965 22.0583L117.95 21.4684C117.944 21.2816 118.036 21.1838 118.223 21.172C118.588 21.1482 118.961 21.2342 119.296 21.0534C119.821 20.7718 120.085 20.3152 120.088 19.6868C120.091 17.416 120.091 15.172 120.088 12.9575C120.088 12.4061 120.002 11.9229 119.833 11.505C119.708 11.1937 119.397 11.001 119.062 11.0247C118.638 11.0573 118.238 11.17 117.861 11.3686C117.654 11.4783 117.55 11.416 117.55 11.1818L117.553 10.5445C117.556 10.334 117.654 10.1828 117.847 10.0969C119.077 9.54843 120.298 8.91405 121.511 8.19666C121.863 7.98618 122.246 7.92689 122.652 8.01286C122.747 8.03361 122.794 8.08994 122.794 8.18776C122.762 11.6443 122.753 15.3617 122.765 19.337Z" fill="#352610"/>
<path d="M31.7182 44.8339C31.9613 44.4812 32.1866 44.0572 32.3911 43.5622C32.4949 43.3102 32.7142 43.2183 32.9721 43.242C33.0729 43.2509 33.1233 43.3072 33.1233 43.411V47.2736C33.1233 47.4841 33.0433 47.6827 32.898 47.8339C31.0808 49.7312 28.8783 51.0207 26.2933 51.6995C18.7933 53.6709 11.151 51.3349 7.56106 44.1225C6.80216 42.5987 6.316 40.7875 6.10256 38.6857C5.31402 30.9486 10.6826 24.2252 18.0788 22.5948C19.4336 22.2954 20.9454 22.165 22.6144 22.2094C25.8397 22.2954 28.8842 22.7904 31.8516 24.0592C31.9524 24.1037 32.0028 24.1778 32.0057 24.2875L32.1006 29.7361C32.1035 29.8576 32.0413 29.9169 31.9198 29.9169L31.0452 29.914C30.9178 29.914 30.8229 29.8576 30.7666 29.742C28.3921 24.9456 24.0284 23.6264 19.1194 24.7351C13.9731 25.9001 11.2399 30.0444 10.6707 35.0572C10.2468 38.7776 10.9701 42.0829 12.8466 44.9732C14.1539 46.9861 15.8941 48.4446 18.0729 49.3547C19.9227 50.1284 22.0482 50.2588 24.4524 49.746C27.4968 49.0968 29.9188 47.4604 31.7182 44.8339Z" fill="#352610"/>
<path d="M101.092 39.6907H98.4504C98.3526 39.6907 98.2844 39.6463 98.2459 39.5573C98.1332 39.3083 98.1421 38.9882 98.4 38.8162C100.383 37.4882 101.928 35.7303 103.039 33.5455C103.084 33.4565 103.158 33.4121 103.259 33.4091L103.792 33.4032C103.914 33.4002 103.973 33.4625 103.973 33.584L103.946 37.7223C103.946 37.835 104.038 37.9269 104.151 37.9269L108.479 37.9299C108.544 37.9299 108.589 37.9921 108.568 38.0514L108.082 39.5692C108.055 39.6492 107.981 39.7055 107.895 39.7055H104.225C104.08 39.7055 104.006 39.7797 104.003 39.9279C103.997 41.7806 103.994 43.6838 103.997 45.6403C103.997 46.9802 103.881 49.2184 105.512 49.7164C106.754 50.0959 107.753 49.9654 108.506 49.3251C108.648 49.2036 108.793 49.2006 108.941 49.3103L109.208 49.5089C109.389 49.6423 109.404 49.7905 109.247 49.9536C108.589 50.6443 107.91 51.3557 107.213 52.082C106.938 52.3696 106.579 52.4971 106.185 52.4763C103.131 52.3192 101.519 50.7362 101.35 47.7243C101.264 46.1887 101.252 43.586 101.311 39.9131C101.314 39.7648 101.243 39.6907 101.092 39.6907Z" fill="#352610"/>
<path d="M81.9949 39.2638C85.0482 37.1235 89.3585 36.5484 91.6056 40.2747C93.3575 43.1798 92.9662 47.4782 90.6065 49.9595C88.4514 52.2272 85.2943 52.7104 82.321 51.7885C82.1016 51.7203 81.9919 51.8033 81.9919 52.0316C81.9978 53.3952 82.0038 54.7737 82.0127 56.1699C82.0216 57.6255 83.3526 57.2697 84.2538 57.3942C84.4791 57.4268 84.5828 57.5573 84.5621 57.7855L84.5295 58.1739C84.5028 58.4703 84.3427 58.6067 84.0463 58.583C81.8911 58.4021 79.6767 58.4051 77.4059 58.5859C77.1955 58.6037 77.0176 58.4377 77.0147 58.2243L77.0087 57.7233C77.0058 57.5069 77.1125 57.3883 77.3289 57.3676C77.7824 57.329 78.3694 57.4832 78.7488 57.2104C79.1253 56.9377 79.315 56.662 79.318 56.3834C79.3803 49.746 79.3684 44.8547 79.2824 41.7124C79.2676 41.1403 79.0275 40.7193 78.565 40.4496C78.1708 40.2213 77.5216 40.4081 77.1214 40.5681C76.8694 40.6689 76.7449 40.583 76.7508 40.3102L76.7656 39.7174C76.7716 39.4417 76.9079 39.2668 77.1747 39.1867C78.4435 38.8162 79.6056 38.33 80.6639 37.7282C80.9811 37.5474 81.3309 37.4911 81.7192 37.5593C81.8318 37.577 81.8852 37.6423 81.8793 37.7579L81.82 39.1689C81.8141 39.3201 81.8733 39.3498 81.9949 39.2638ZM86.4326 39.8152C85.0067 39.3676 83.3496 39.9693 82.1728 40.829C82.0601 40.912 81.9949 41.0395 81.9949 41.1759C82.0097 43.8142 82.0067 46.4318 81.9919 49.0286C81.989 49.4762 82.3595 49.743 82.6856 49.9772C85.487 51.9842 89.0058 50.5227 89.7676 47.2559C90.4731 44.2203 89.735 40.8527 86.4326 39.8152Z" fill="#352610"/>
<path d="M122.203 52.4348C118.164 52.4407 114.882 49.1087 114.876 44.992C114.87 40.8735 118.137 37.5296 122.177 37.5237C126.215 37.5178 129.497 40.8498 129.503 44.9664C129.509 49.085 126.242 52.4288 122.203 52.4348ZM125.969 48.2964C126.805 46.2599 126.761 44.1462 125.836 41.9496C125.181 40.3873 123.844 39.3705 122.124 39.1749C119.536 38.8814 118.11 41.3537 117.909 43.6008C117.734 45.5929 118.033 47.6591 119.296 49.2302C120.396 50.6027 122.779 51.415 124.368 50.3271C125.08 49.8379 125.613 49.162 125.969 48.2964Z" fill="#352610"/>
<path d="M140.136 46.2628C138.885 45.7796 138.008 45.409 137.507 45.157C135.227 44.0098 134.219 41.7391 135.817 39.4742C137.48 37.1205 141.132 37.2894 143.655 38.0898C143.812 38.1402 143.922 38.2825 143.925 38.4485L143.981 41.8102C143.984 41.9614 143.91 42.0296 143.759 42.0147L143.234 41.9614C143.062 41.9436 142.958 41.8487 142.926 41.6798C142.748 40.826 142.546 39.9426 141.746 39.4535C140.67 38.7983 139.674 38.7865 138.755 39.4209C137.361 40.3813 137.848 42.0592 139.199 42.6966C140.077 43.1086 141.002 43.5236 141.974 43.9357C143.344 44.5167 144.867 45.7618 144.758 47.3626C144.725 47.8339 144.722 48.2964 144.752 48.747C144.832 50.0217 143.439 51.2904 142.404 51.7559C141.203 52.2954 140.026 52.5207 138.876 52.4317C137.655 52.3339 136.445 52.0968 135.245 51.7144C135.156 51.6847 135.094 51.6017 135.091 51.5068L135.017 47.5404C135.014 47.407 135.076 47.3418 135.209 47.3418L135.725 47.3389C135.906 47.3359 136.022 47.4248 136.072 47.5997C136.57 49.328 137.608 50.659 139.445 50.8339C141.02 50.9881 142.431 50.2203 142.41 48.4831C142.395 47.2885 141.114 46.6422 140.136 46.2628Z" fill="#352610"/>
<path d="M44.9573 40.2985C44.8862 40.9329 45.0136 40.9744 45.3397 40.4259C46.3358 38.7333 48.3634 37.6246 50.3051 38.0425C50.5126 38.087 50.6164 38.2174 50.6164 38.4309L50.6134 40.7461C50.6105 41.4012 50.3674 41.5109 49.8783 41.0722C48.1915 39.5485 46.2113 40.6987 45.4346 42.5129C45.2182 43.0169 45.1204 43.5801 45.1352 44.2026C45.1737 45.7382 45.1737 47.2678 45.1411 48.7945C45.0966 50.8489 45.4494 51.1898 47.5482 51.0949C47.6964 51.089 47.8239 51.2076 47.8269 51.3588L47.8417 51.9872C47.8447 52.2451 47.7202 52.3637 47.4652 52.3489C45.0759 52.1977 42.817 52.2007 40.6885 52.3548C40.4425 52.3726 40.318 52.257 40.315 52.008L40.3121 51.4714C40.3091 51.2342 40.4277 51.1157 40.6648 51.1127C41.6045 51.1068 42.4642 51.0593 42.4672 49.8291C42.4702 47.8133 42.4761 45.7234 42.482 43.5593C42.485 42.8005 42.3753 42.1483 42.1589 41.6028C42.0077 41.2174 41.5808 41.0159 41.1866 41.1404L40.2557 41.4398C39.9652 41.5317 39.8348 41.4279 39.8615 41.1256C39.8881 40.8321 39.9 40.6839 39.9 40.6809C39.9237 40.4171 40.0571 40.2392 40.2972 40.1414C41.5126 39.6522 42.6836 39.0238 43.8101 38.253C44.1777 38.001 44.5897 37.8973 45.0462 37.9477C45.1381 37.9566 45.2034 38.0396 45.1945 38.1285L44.9573 40.2985Z" fill="#352610"/>
<path d="M64.6678 48.3114C64.7893 48.5959 64.8901 48.59 64.9761 48.2936C65.652 45.9131 66.3901 43.343 67.1875 40.589C67.3358 40.0732 67.2231 39.6463 66.8526 39.3054C66.5739 39.0505 66.2419 39.1335 65.9039 39.095C65.646 39.0683 65.5245 38.923 65.5364 38.6651L65.5541 38.2857C65.569 38.01 65.7113 37.8914 65.981 37.9299C67.6055 38.1493 69.2241 38.1463 70.8338 37.9181C71.0383 37.8884 71.2251 38.0396 71.2399 38.2471L71.2607 38.5376C71.2814 38.8222 71.1539 38.9971 70.8753 39.0594C69.6806 39.3351 69.2745 40.0406 68.8862 41.1493C67.5047 45.1305 66.1381 49.011 64.7893 52.7847C64.0838 54.759 62.7113 58.6453 60.1204 58.7343C59.3822 58.761 58.6381 58.761 57.8822 58.7343C57.737 58.7284 57.6213 58.6127 57.6184 58.4704L57.5443 55.8499C57.5413 55.761 57.6006 55.678 57.6866 55.6542C57.9563 55.5772 58.1698 55.6631 58.3269 55.9092C59.3822 57.5663 61.0186 56.757 61.8575 55.4556C62.4563 54.5278 62.9543 53.4932 63.3486 52.3519C63.3871 52.2392 63.3842 52.1295 63.3368 52.0199C60.9682 46.5208 59.231 42.5278 58.1253 40.0406C57.8496 39.421 57.3605 39.1127 56.6549 39.1157C56.2725 39.1157 56.0887 38.926 56.1036 38.5436C56.1065 38.5169 56.1065 38.4873 56.1065 38.4576C56.1124 38.0693 56.3111 37.8914 56.6994 37.927C58.5581 38.0989 60.4583 38.093 62.4 37.9122C62.6816 37.8855 62.8298 38.0129 62.8417 38.2975L62.8565 38.7244C62.8654 38.9349 62.6994 39.1127 62.4889 39.1187C61.2972 39.1483 60.983 39.8509 61.4247 40.8469C62.5779 43.4527 63.6569 45.9428 64.6678 48.3114Z" fill="#352610"/>
</svg>
