<svg width="151" height="18" viewBox="0 0 151 18" fill="none" xmlns="http://www.w3.org/2000/svg">
<g clip-path="url(#clip0_5849_31699)">
<path d="M108.431 0H148.003C149.488 0.2805 150.36 1.161 150.619 2.643V15.3735C150.341 16.863 149.464 17.739 147.986 18H108.413C107.189 17.7645 106.388 17.136 106.007 16.113C105.859 15.714 105.786 15.222 105.788 14.637C105.806 10.848 105.806 7.05 105.789 3.243C105.786 2.7375 105.858 2.289 106.004 1.896C106.391 0.855 107.199 0.2235 108.431 0ZM119.988 10.1745C119.949 10.152 119.915 10.122 119.885 10.0815C118.188 7.734 116.489 5.385 114.791 3.0375C114.773 3.012 114.749 3 114.719 3H108.828C108.789 3 108.768 3.0435 108.791 3.075C111.039 6.1455 113.247 9.198 115.418 12.2295C116.128 13.218 116.682 13.8585 117.082 14.151C118.835 15.4275 121.219 15.447 122.941 14.085C123.316 13.788 123.702 13.3635 124.1 12.8115C126.437 9.564 128.781 6.324 131.134 3.0915C131.162 3.054 131.134 3 131.087 3H125.306C125.247 3 125.199 3.024 125.165 3.072L120.032 10.164C120.021 10.1775 120.003 10.182 119.988 10.1745ZM135.102 10.3755C133.763 9.8565 133.968 7.8645 135.301 7.5435C135.419 7.515 135.846 7.5 136.584 7.5C140.204 7.5015 143.86 7.5015 147.552 7.503C147.595 7.503 147.631 7.467 147.631 7.4235V3.042C147.631 3.0165 147.61 2.9955 147.584 2.9955C144.425 3.009 140.887 3.006 136.969 2.985C135.605 2.9775 134.654 3.0495 134.113 3.204C132.695 3.6045 131.576 4.407 130.753 5.6115C128.424 9.018 130.152 13.764 134.183 14.808C134.731 14.949 135.496 15.0165 136.478 15.012C140.322 14.994 144.024 14.9925 147.583 15.006C147.61 15.006 147.631 14.985 147.631 14.958L147.632 10.6065C147.632 10.5525 147.587 10.5075 147.532 10.5075C143.948 10.503 140.046 10.5015 135.825 10.503C135.561 10.503 135.319 10.461 135.102 10.3755Z" fill="#352610"/>
<path d="M43.4973 7.57803C43.4973 7.53453 43.4629 7.50003 43.4196 7.50003C40.5944 7.50003 37.6332 7.50003 34.5346 7.50003C32.936 7.49853 32.4385 9.72303 33.9295 10.368C34.1432 10.4595 34.3822 10.506 34.6467 10.5045C37.0446 10.4955 39.4619 10.4955 41.8986 10.503C41.9569 10.503 42.0032 10.5495 42.0032 10.608L42.0047 16.344C42.0047 16.4295 41.9345 16.5 41.8493 16.5C38.9046 16.5015 35.9808 16.5 33.0749 16.4985C27.9684 16.494 24.2632 11.4645 25.9963 6.51153C26.8419 4.09803 28.8424 2.31453 31.3 1.70553C31.9081 1.55403 32.8299 1.48203 34.064 1.48653C39.6621 1.50903 45.2692 1.51053 50.8882 1.49103C50.9315 1.48953 50.9674 1.51503 50.9674 1.54503V16.3875C50.9674 16.449 50.9166 16.5 50.8553 16.5H43.6093C43.5481 16.5 43.4973 16.449 43.4973 16.3875V7.57803Z" fill="#352610"/>
<path d="M59.446 16.491C55.3314 16.4865 51.8922 13.0125 52.0207 8.85452C52.0909 6.58802 52.9873 4.71902 54.7069 3.24452C55.6138 2.46752 56.6746 1.94402 57.8892 1.67402C58.4644 1.54652 59.44 1.48352 60.819 1.48802C65.8359 1.50452 70.8319 1.50752 75.807 1.49402C75.8683 1.49402 75.9176 1.54502 75.9176 1.60652V7.37852C75.9176 7.44602 75.8638 7.50002 75.7966 7.50002C70.8379 7.50002 65.8912 7.50002 60.9579 7.50002C59.8195 7.50002 59.1546 8.71052 59.6566 9.69902C59.933 10.245 60.4709 10.503 61.0745 10.503C66.3753 10.5 71.3085 10.5 75.8743 10.5015C75.8982 10.5015 75.9176 10.521 75.9176 10.545V16.392C75.9176 16.4505 75.8698 16.4985 75.8115 16.4985C70.5391 16.5 65.0844 16.4985 59.446 16.491Z" fill="#352610"/>
<path d="M84.931 6.00007H89.3534C89.3638 6.00007 89.3743 5.99707 89.3832 5.98957L95.3309 1.51207C95.3399 1.50457 95.3504 1.50157 95.3608 1.50157L104.17 1.49707C104.216 1.49707 104.237 1.55557 104.201 1.58407L95.3773 8.96257C95.3548 8.98207 95.3548 9.01807 95.3773 9.03757L104.202 16.4161C104.238 16.4446 104.217 16.5031 104.171 16.5031L95.3608 16.4986C95.3504 16.4986 95.3399 16.4956 95.3309 16.4881L89.3773 12.0076C89.3683 12.0001 89.3578 11.9971 89.3474 11.9971L84.931 11.9986C84.9042 11.9986 84.8817 12.0211 84.8817 12.0481L84.8802 16.4506C84.8802 16.4776 84.8578 16.5001 84.8309 16.5001L77.4609 16.4986C77.434 16.4986 77.4116 16.4761 77.4116 16.4491V1.55107C77.4116 1.52407 77.434 1.50157 77.4609 1.50157L84.8324 1.50007C84.8593 1.50007 84.8817 1.52257 84.8817 1.54957V5.95057C84.8817 5.97757 84.9042 6.00007 84.931 6.00007Z" fill="#352610"/>
<path d="M0.618774 1.5376H8.04706C8.06947 1.5376 8.08889 1.5571 8.08889 1.5796V5.9626C8.08889 6.0121 8.11429 6.0376 8.1636 6.0376H16.9783C17.0276 6.0376 17.053 6.0121 17.053 5.9626V1.5751C17.053 1.5541 17.0695 1.5376 17.0904 1.5376H24.447C24.4963 1.5376 24.5202 1.5616 24.5202 1.6111V16.5016C24.5202 16.5256 24.5082 16.5376 24.4843 16.5376H17.1277C17.0784 16.5376 17.053 16.5121 17.053 16.4626V12.1126C17.053 12.0631 17.0276 12.0376 16.9783 12.0376H8.1636C8.11429 12.0376 8.08889 12.0631 8.08889 12.1126V16.4941C8.08889 16.5196 8.07545 16.5331 8.05005 16.5331L0.618774 16.5346V1.5376Z" fill="#352610"/>
</g>
<defs>
<clipPath id="clip0_5849_31699">
<rect width="150" height="18" fill="white" transform="translate(0.618774)"/>
</clipPath>
</defs>
</svg>
