<svg width="150" height="16" viewBox="0 0 150 16" fill="none" xmlns="http://www.w3.org/2000/svg">
<g clip-path="url(#clip0_6004_9324)">
<path d="M0.962036 0H4.70117L4.70464 15.1583C4.70464 15.2348 4.63856 15.2974 4.56204 15.2939L0.962036 15.1409V0Z" fill="#352610"/>
<path d="M7.93595 0H11.6577L11.6612 15.1409C11.6612 15.2313 11.5881 15.3043 11.4977 15.3043H8.34638C8.06116 15.3043 7.91856 15.1617 7.91856 14.8765L7.93595 0Z" fill="#352610"/>
<path d="M15.5812 0H23.4768L19.5986 6.28174C19.5464 6.36174 19.4281 6.36174 19.3794 6.28174L15.5812 0Z" fill="#352610"/>
<path d="M26.7151 0H35.9046C34.082 0.723478 32.6907 1.82261 31.7273 3.29391C30.6594 4.92522 30.249 6.65391 30.4994 8.48C30.9551 11.8087 32.6316 13.9965 35.536 15.0504C36.0055 15.2209 35.9881 15.3043 35.4907 15.3043H26.9412C26.7951 15.3043 26.722 15.2313 26.722 15.0852L26.7151 0Z" fill="#352610"/>
<path d="M41.1533 0H50.2664V15.1896C50.2664 15.2417 50.2246 15.2835 50.1725 15.2835C47.2159 15.3183 44.2699 15.3183 41.3377 15.28C40.7916 15.273 40.7812 15.193 41.3064 15.0435C42.649 14.6643 44.082 13.6278 44.8925 12.4626C46.8577 9.64174 47.0525 6.70609 45.4733 3.65565C44.6629 2.09391 43.2229 0.876522 41.1533 0Z" fill="#352610"/>
<path d="M54.5377 0H58.1168L61.856 10.2817C61.936 10.5009 62.0194 10.5009 62.0994 10.2817L65.8246 0H69.3203L63.4281 14.9357C63.3759 15.0643 63.282 15.1304 63.1394 15.1304L60.7742 15.1339C60.576 15.1339 60.4403 15.04 60.3673 14.8557L54.5377 0Z" fill="#352610"/>
<path d="M97.4212 6.43121L96.5307 6.43817C96.3533 6.43817 96.2664 6.35121 96.2664 6.1773V3.91295C96.2664 3.73556 96.3533 3.6486 96.5273 3.65208H97.4073C97.5464 3.65556 97.616 3.58599 97.616 3.44686V0.796426C97.616 0.730339 97.6507 0.695557 97.7168 0.695557H100.712C100.788 0.695557 100.826 0.733817 100.826 0.810339V3.45382C100.826 3.58599 100.892 3.65208 101.025 3.65208L103.397 3.65556C103.456 3.65556 103.484 3.68338 103.484 3.73903V6.34773C103.484 6.40338 103.456 6.43121 103.397 6.43121L101.039 6.43469C100.892 6.43469 100.819 6.50773 100.823 6.65382C100.84 7.87469 100.833 9.17208 100.806 10.5529C100.795 11.099 100.851 11.6034 100.966 12.0695C100.997 12.2016 101.094 12.306 101.223 12.3477C101.901 12.5738 102.604 12.5008 103.331 12.1356C103.362 12.1216 103.397 12.1425 103.397 12.1738V14.5982C103.397 14.6608 103.369 14.7095 103.317 14.7408C101.828 15.5964 98.9203 15.8121 98.0438 13.8956C97.762 13.2799 97.6299 12.546 97.6403 11.6973C97.6681 9.89208 97.6716 8.21208 97.6473 6.6573C97.6438 6.50773 97.5707 6.43121 97.4212 6.43121Z" fill="#352610"/>
<path d="M34.3665 7.96336C34.5935 10.6123 36.8025 12.5861 39.3002 12.372C41.7979 12.1578 43.6386 9.83686 43.4115 7.18792C43.1844 4.53899 40.9755 2.56519 38.4778 2.77932C35.9801 2.99345 34.1394 5.31442 34.3665 7.96336Z" fill="#352610"/>
<path d="M74.3638 10.6087C73.6994 10.6087 73.5638 10.8766 73.9533 11.4122C73.9777 11.4435 74.089 11.5966 74.2873 11.8714C74.7081 12.4453 75.2681 12.7757 75.9742 12.8557C77.1707 12.9879 78.2281 12.6227 79.1464 11.7566C79.1881 11.7183 79.2507 11.7148 79.2925 11.7531L81.0142 13.2835C81.0664 13.3287 81.0664 13.3809 81.0212 13.4331C79.8142 14.7931 78.3986 15.4679 76.7777 15.4574C73.2055 15.4331 71.1394 13.7427 70.5864 10.3896C70.3951 9.23831 70.569 8.0244 71.1116 6.75136C72.8925 2.5844 78.882 2.30614 80.816 6.37223C81.369 7.53049 81.602 8.88005 81.5151 10.414C81.5081 10.5427 81.4386 10.6087 81.3064 10.6087H74.3638ZM74.1516 8.04875L78.7116 7.97918C78.7499 7.9757 78.7777 7.94788 78.7777 7.90962V7.86788C78.7568 6.5844 77.689 5.55831 76.3951 5.57918C75.0977 5.60005 74.0612 6.65744 74.082 7.9444V7.98614C74.082 8.02092 74.1133 8.04875 74.1516 8.04875Z" fill="#352610"/>
<path d="M87.8977 5.04695C88.9864 3.69391 90.3707 3.21043 92.0507 3.59304C93.7273 3.97565 94.7673 5.63478 94.7777 7.25565C94.7916 9.63478 94.7951 12.2574 94.7847 15.12C94.7847 15.1826 94.7534 15.2139 94.6907 15.2139L91.6786 15.2174C91.602 15.2174 91.5638 15.1791 91.5638 15.1061C91.5812 12.5704 91.5777 10.3096 91.5568 8.32347C91.5429 7.27652 90.7499 6.46608 89.6612 6.4626C88.162 6.45565 87.6055 7.59304 87.6299 8.89739C87.6716 11.047 87.6751 13.1235 87.6438 15.127C87.6438 15.1861 87.6125 15.2174 87.5533 15.2174H84.6142C84.4994 15.2174 84.4403 15.1583 84.4403 15.0435V4.02434C84.4403 3.80869 84.5481 3.70087 84.7638 3.70087L87.3342 3.69739C87.5534 3.69739 87.6647 3.80521 87.6612 4.02434L87.6507 4.96C87.6473 5.22434 87.7307 5.25217 87.8977 5.04695Z" fill="#352610"/>
<path d="M112.941 13.5931C112.506 14.0904 111.988 14.6365 111.372 14.88C108.59 15.9757 106.072 14.2539 106.026 11.2522C105.992 8.78262 105.988 6.21566 106.016 3.55131C106.016 3.50262 106.04 3.47827 106.089 3.47827H109.132C109.185 3.47827 109.212 3.5061 109.216 3.55827C109.233 5.53045 109.23 7.66262 109.209 9.94784C109.195 11.2626 109.953 12.3896 111.411 12.2122C112.847 12.0383 113.212 10.8487 113.195 9.59305C113.167 7.4261 113.164 5.4261 113.185 3.5861C113.188 3.51305 113.223 3.47827 113.296 3.47827L116.266 3.48175C116.326 3.48175 116.353 3.50958 116.353 3.56523V14.7617C116.353 14.9183 116.273 14.9983 116.117 14.9983L113.414 14.9948C113.23 14.9948 113.136 14.9009 113.136 14.7131V13.6696C113.136 13.4678 113.07 13.4435 112.941 13.5931Z" fill="#352610"/>
<path d="M122.632 5.62076C123.355 4.15642 124.454 3.43989 125.926 3.4712C125.978 3.47468 126.006 3.5025 126.006 3.55468V6.77902C126.006 6.85555 125.967 6.89381 125.891 6.89728C122.84 6.94598 122.291 9.36337 122.419 11.9651C122.472 13.0329 122.472 14.0973 122.416 15.1512C122.412 15.1964 122.392 15.2173 122.346 15.2173H119.31C119.251 15.2173 119.223 15.1895 119.223 15.1303V4.11468C119.223 3.83989 119.359 3.70424 119.633 3.70424L122.082 3.69728C122.322 3.69728 122.444 3.81902 122.444 4.0625L122.433 5.57555C122.43 5.87468 122.496 5.88859 122.632 5.62076Z" fill="#352610"/>
<path d="M131.292 10.6086C130.545 10.6086 130.426 10.8834 130.931 11.433C131.073 11.586 131.258 11.7877 131.484 12.0347C132.009 12.6086 132.659 12.8903 133.439 12.8869C134.465 12.8799 135.369 12.5008 136.152 11.753C136.183 11.7251 136.211 11.7251 136.242 11.7495C137.15 12.5008 137.731 13.0469 137.985 13.3843C138.002 13.4051 137.999 13.426 137.981 13.4434C136.023 15.4643 133.713 15.9582 131.059 14.9182C125.042 12.5634 127.254 2.23296 134.186 3.586C137.505 4.23296 138.659 7.31122 138.524 10.4347C138.517 10.5495 138.458 10.6086 138.343 10.6086H131.292ZM130.499 8.04861L135.059 7.97905C135.098 7.97557 135.126 7.94774 135.126 7.90948V7.86774C135.105 6.58426 134.037 5.55818 132.743 5.57905C131.446 5.59992 130.409 6.65731 130.43 7.94426V7.986C130.43 8.02078 130.461 8.04861 130.499 8.04861Z" fill="#352610"/>
<path d="M143.536 6.57735C143.414 6.96344 143.539 7.24866 143.912 7.433C146.249 8.59127 149.759 8.85909 149.15 12.5252C148.889 14.0904 147.738 14.9287 146.225 15.2069C144.058 15.6034 142.033 15.0817 140.148 13.6382C140.11 13.6069 140.106 13.5721 140.131 13.5304L141.404 11.5582C141.442 11.4956 141.494 11.4852 141.557 11.5304C142.903 12.4939 144.218 12.9113 145.498 12.7826C145.926 12.7374 146.19 12.5426 146.294 12.1947C146.412 11.8052 146.214 11.3913 145.835 11.2417C143.797 10.4347 140.924 10.2539 140.659 7.43648C140.461 5.31822 142.009 3.73214 144.117 3.52344C145.786 3.35648 147.379 3.78431 148.899 4.80344C148.941 4.83474 148.948 4.86953 148.924 4.91474L147.72 7.03996C147.696 7.08518 147.661 7.09561 147.619 7.06431C146.736 6.48344 145.814 6.14257 144.858 6.0417C144.416 5.99648 143.696 6.06953 143.536 6.57735Z" fill="#352610"/>
<path d="M18.9864 11.3009C19.0664 11.4261 19.1499 11.4261 19.2299 11.3009L23.2438 5.11309C23.3446 4.95657 23.3968 4.97048 23.3968 5.15831V14.6087C23.3968 14.7827 23.3099 14.8696 23.1359 14.8696H14.962C14.9133 14.8696 14.8751 14.8314 14.8751 14.7827V5.24874C14.8751 5.05744 14.9273 5.04005 15.0316 5.20005L18.9864 11.3009Z" fill="#352610"/>
</g>
<defs>
<clipPath id="clip0_6004_9324">
<rect width="148.87" height="16" fill="white" transform="translate(0.962036)"/>
</clipPath>
</defs>
</svg>
