<svg width="389" height="342" viewBox="0 0 389 342" fill="none" xmlns="http://www.w3.org/2000/svg">
<circle opacity="0.5" cx="195.334" cy="110.897" r="47.4163" fill="url(#paint0_linear_5671_11018)" fill-opacity="0.75" stroke="#BC50FF" stroke-width="2"/>
<circle opacity="0.25" cx="195.334" cy="49.1243" r="47.4163" stroke="#BC50FF" stroke-width="2"/>
<circle cx="195.334" cy="169.33" r="47.4163" fill="url(#paint1_linear_5671_11018)" stroke="#BC50FF" stroke-width="2"/>
<circle opacity="0.5" cx="195.334" cy="231.103" r="47.4163" fill="url(#paint2_linear_5671_11018)" fill-opacity="0.75" stroke="#BC50FF" stroke-width="2"/>
<circle opacity="0.25" cx="195.334" cy="292.875" r="47.4163" stroke="#BC50FF" stroke-width="2"/>
<circle opacity="0.5" cx="267.125" cy="169.33" r="47.4163" transform="rotate(90 267.125 169.33)" fill="url(#paint3_linear_5671_11018)" fill-opacity="0.75" stroke="#BC50FF" stroke-width="2"/>
<circle opacity="0.25" cx="340.584" cy="169.33" r="47.4163" transform="rotate(90 340.584 169.33)" stroke="#BC50FF" stroke-width="2"/>
<circle opacity="0.5" cx="121.876" cy="169.33" r="47.4163" transform="rotate(90 121.876 169.33)" fill="url(#paint4_linear_5671_11018)" fill-opacity="0.75" stroke="#BC50FF" stroke-width="2"/>
<circle opacity="0.25" cx="48.4167" cy="169.33" r="47.4163" transform="rotate(90 48.4167 169.33)" stroke="#BC50FF" stroke-width="2"/>
<circle opacity="0.5" cx="121.876" cy="231.103" r="47.4163" transform="rotate(90 121.876 231.103)" fill="url(#paint5_linear_5671_11018)" fill-opacity="0.75" stroke="#BC50FF" stroke-width="2"/>
<circle opacity="0.25" cx="48.4167" cy="231.103" r="47.4163" transform="rotate(90 48.4167 231.103)" stroke="#BC50FF" stroke-width="2"/>
<circle opacity="0.25" cx="121.876" cy="292.875" r="47.4163" transform="rotate(90 121.876 292.875)" stroke="#BC50FF" stroke-width="2"/>
<circle opacity="0.25" cx="48.4167" cy="292.875" r="47.4163" transform="rotate(90 48.4167 292.875)" stroke="#BC50FF" stroke-width="2"/>
<circle opacity="0.5" cx="121.876" cy="110.897" r="47.4163" transform="rotate(90 121.876 110.897)" fill="url(#paint6_linear_5671_11018)" fill-opacity="0.75" stroke="#BC50FF" stroke-width="2"/>
<circle opacity="0.25" cx="48.4167" cy="110.897" r="47.4163" transform="rotate(90 48.4167 110.897)" stroke="#BC50FF" stroke-width="2"/>
<circle opacity="0.25" cx="121.876" cy="49.1243" r="47.4163" transform="rotate(90 121.876 49.1243)" stroke="#BC50FF" stroke-width="2"/>
<circle opacity="0.25" cx="48.4167" cy="49.1243" r="47.4163" transform="rotate(90 48.4167 49.1243)" stroke="#BC50FF" stroke-width="2"/>
<circle opacity="0.5" cx="267.125" cy="110.897" r="47.4163" transform="rotate(90 267.125 110.897)" fill="url(#paint7_linear_5671_11018)" fill-opacity="0.75" stroke="#BC50FF" stroke-width="2"/>
<circle opacity="0.25" cx="340.584" cy="110.897" r="47.4163" transform="rotate(90 340.584 110.897)" stroke="#BC50FF" stroke-width="2"/>
<circle opacity="0.25" cx="267.125" cy="49.1243" r="47.4163" transform="rotate(90 267.125 49.1243)" stroke="#BC50FF" stroke-width="2"/>
<circle opacity="0.25" cx="340.584" cy="49.1243" r="47.4163" transform="rotate(90 340.584 49.1243)" stroke="#BC50FF" stroke-width="2"/>
<circle opacity="0.5" cx="267.125" cy="231.103" r="47.4163" transform="rotate(90 267.125 231.103)" fill="url(#paint8_linear_5671_11018)" fill-opacity="0.75" stroke="#BC50FF" stroke-width="2"/>
<circle opacity="0.25" cx="340.584" cy="231.103" r="47.4163" transform="rotate(90 340.584 231.103)" stroke="#BC50FF" stroke-width="2"/>
<circle opacity="0.25" cx="267.125" cy="292.875" r="47.4163" transform="rotate(90 267.125 292.875)" stroke="#BC50FF" stroke-width="2"/>
<circle opacity="0.25" cx="340.584" cy="292.875" r="47.4163" transform="rotate(90 340.584 292.875)" stroke="#BC50FF" stroke-width="2"/>
<defs>
<linearGradient id="paint0_linear_5671_11018" x1="195.334" y1="62.4805" x2="195.334" y2="159.313" gradientUnits="userSpaceOnUse">
<stop stop-color="#97D3FF"/>
<stop offset="1" stop-color="#53B7FF" stop-opacity="0"/>
</linearGradient>
<linearGradient id="paint1_linear_5671_11018" x1="195.334" y1="120.914" x2="195.334" y2="217.747" gradientUnits="userSpaceOnUse">
<stop stop-color="#FFAF90"/>
<stop offset="1" stop-color="#FFAF90" stop-opacity="0"/>
</linearGradient>
<linearGradient id="paint2_linear_5671_11018" x1="195.334" y1="182.687" x2="195.334" y2="279.519" gradientUnits="userSpaceOnUse">
<stop stop-color="#97D3FF"/>
<stop offset="1" stop-color="#53B7FF" stop-opacity="0"/>
</linearGradient>
<linearGradient id="paint3_linear_5671_11018" x1="267.125" y1="120.914" x2="267.125" y2="217.747" gradientUnits="userSpaceOnUse">
<stop stop-color="#97D3FF"/>
<stop offset="1" stop-color="#53B7FF" stop-opacity="0"/>
</linearGradient>
<linearGradient id="paint4_linear_5671_11018" x1="121.876" y1="120.914" x2="121.876" y2="217.747" gradientUnits="userSpaceOnUse">
<stop stop-color="#97D3FF"/>
<stop offset="1" stop-color="#53B7FF" stop-opacity="0"/>
</linearGradient>
<linearGradient id="paint5_linear_5671_11018" x1="121.876" y1="182.687" x2="121.876" y2="279.519" gradientUnits="userSpaceOnUse">
<stop stop-color="#97D3FF"/>
<stop offset="1" stop-color="#53B7FF" stop-opacity="0"/>
</linearGradient>
<linearGradient id="paint6_linear_5671_11018" x1="121.876" y1="62.4805" x2="121.876" y2="159.313" gradientUnits="userSpaceOnUse">
<stop stop-color="#97D3FF"/>
<stop offset="1" stop-color="#53B7FF" stop-opacity="0"/>
</linearGradient>
<linearGradient id="paint7_linear_5671_11018" x1="267.125" y1="62.4805" x2="267.125" y2="159.313" gradientUnits="userSpaceOnUse">
<stop stop-color="#97D3FF"/>
<stop offset="1" stop-color="#53B7FF" stop-opacity="0"/>
</linearGradient>
<linearGradient id="paint8_linear_5671_11018" x1="267.125" y1="182.687" x2="267.125" y2="279.519" gradientUnits="userSpaceOnUse">
<stop stop-color="#97D3FF"/>
<stop offset="1" stop-color="#53B7FF" stop-opacity="0"/>
</linearGradient>
</defs>
</svg>
