<svg width="73" height="16" viewBox="0 0 73 16" fill="none" xmlns="http://www.w3.org/2000/svg">
<g clip-path="url(#clip0_6004_9294)">
<path d="M34.1947 0H34.7603C34.9933 0.0147368 35.2249 0.0329825 35.455 0.0547368C37.6059 0.261053 39.5856 1.47789 40.5961 3.41193C40.6087 3.43649 40.6038 3.45684 40.5807 3.47228L38.281 5.05754C38.2684 5.06667 38.2501 5.06175 38.2438 5.04772C37.4894 3.44632 35.9785 2.68 34.2536 2.7193C32.2452 2.76491 30.747 4.11439 30.1505 5.98386C29.688 7.43439 29.7231 8.84421 30.2564 10.2119C30.9771 12.0604 32.6789 13.414 34.7294 13.2709C36.2445 13.1642 37.7301 12.3537 38.3042 10.9207C38.3126 10.8989 38.3385 10.8905 38.3589 10.9018L40.8094 12.313C40.8249 12.3221 40.8312 12.3411 40.8242 12.3572C39.8017 14.7074 37.0059 15.8877 34.5898 16H34.1007C30.8908 15.8702 28.3196 13.6211 27.2228 10.6681C26.3807 8.3993 26.6115 5.90386 27.8066 3.80842C28.9224 1.85263 30.9526 0.400702 33.2284 0.0940351C33.5484 0.0512281 33.8705 0.0196491 34.1947 0Z" fill="#352610"/>
<path d="M49.9526 0H50.4803C50.8129 0.0175439 51.1435 0.0491228 51.4726 0.0940351C53.5245 0.37614 55.3792 1.57263 56.3343 3.42807C56.3406 3.44 56.3371 3.45474 56.3259 3.46246L54.0192 5.05193C53.9968 5.06737 53.9799 5.06246 53.968 5.03789C53.2775 3.55579 51.9175 2.79228 50.3126 2.72211C46.8733 2.57123 45.1828 5.97193 45.6396 8.94877C46.0087 11.3537 47.8964 13.4379 50.4487 13.2716C51.9814 13.1712 53.4487 12.3544 54.0396 10.9123C54.0466 10.8954 54.0663 10.8884 54.0817 10.8975L56.5315 12.3081C56.5547 12.3214 56.5603 12.3404 56.5498 12.3649C56.3105 12.9214 55.9687 13.4204 55.5245 13.8625C54.161 15.2196 52.2087 15.9158 50.3112 16H49.8242C46.3533 15.8646 43.5821 13.186 42.7175 9.91509C41.9406 6.97684 42.8915 3.78737 45.2115 1.79158C46.5399 0.649123 48.1203 0.0519298 49.9526 0Z" fill="#352610"/>
<path d="M0.385559 15.8597V0.095459H3.42907C3.4403 0.095459 3.44942 0.104582 3.44942 0.11581V13.1453C3.44942 13.1614 3.46205 13.1741 3.47819 13.1741H11.4403C11.4656 13.1741 11.4782 13.1867 11.4782 13.2127V15.8204C11.4782 15.8456 11.4656 15.8583 11.441 15.8583L0.385559 15.8597Z" fill="#352610"/>
<path d="M17.0705 9.09464V13.1494C17.0705 13.1627 17.0817 13.1739 17.095 13.1739H24.9238C24.9371 13.1739 24.9484 13.1852 24.9484 13.1985L24.9477 15.8364C24.9477 15.8497 24.9364 15.861 24.9231 15.861H14.0312C14.0178 15.861 14.0066 15.8497 14.0066 15.8364V0.117091C14.0066 0.103757 14.0178 0.0925293 14.0312 0.0925293L24.7273 0.0932311C24.7406 0.0932311 24.7519 0.104459 24.7519 0.117792V2.76341C24.7519 2.77674 24.7406 2.78797 24.7273 2.78797H17.095C17.0817 2.78797 17.0705 2.7992 17.0705 2.81253V6.55218C17.0705 6.56551 17.0817 6.57674 17.095 6.57674H23.6782C23.6915 6.57674 23.7028 6.58797 23.7028 6.6013V9.04551C23.7028 9.05884 23.6915 9.07007 23.6782 9.07007H17.095C17.0817 9.07007 17.0705 9.0813 17.0705 9.09464Z" fill="#352610"/>
<path d="M72.2452 15.8378V15.8602L69.1371 15.861C69.1119 15.861 69.095 15.849 69.0873 15.8245L64.9273 3.64902C64.9126 3.60551 64.8971 3.60551 64.8824 3.64902L60.7056 15.8217C60.6978 15.8448 60.6761 15.861 60.6515 15.861H57.5582C57.5463 15.861 57.5378 15.849 57.5421 15.8378L63.5428 0.119898C63.5498 0.101652 63.5631 0.0925293 63.5821 0.0925293L66.215 0.0932311C66.2417 0.0932311 66.2656 0.109371 66.2754 0.134635L72.2452 15.8378Z" fill="#352610"/>
</g>
<defs>
<clipPath id="clip0_6004_9294">
<rect width="71.8596" height="16" fill="white" transform="translate(0.385559)"/>
</clipPath>
</defs>
</svg>
