<svg width="25" height="24" viewBox="0 0 25 24" fill="none" xmlns="http://www.w3.org/2000/svg">
<path fill-rule="evenodd" clip-rule="evenodd" d="M5.125 3.24268C4.29657 3.24268 3.625 3.91425 3.625 4.74268V19.7427C3.625 20.5711 4.29657 21.2427 5.125 21.2427H20.125C20.9534 21.2427 21.625 20.5711 21.625 19.7427V4.74268C21.625 3.91425 20.9534 3.24268 20.125 3.24268H5.125ZM9.14576 7.2454C9.15139 8.20165 8.43561 8.79087 7.58623 8.78665C6.78607 8.78243 6.08857 8.1454 6.09279 7.24681C6.09701 6.40165 6.76498 5.72243 7.63264 5.74212C8.51295 5.76181 9.15139 6.40728 9.14576 7.2454ZM12.9047 10.0044H10.3847H10.3833V18.5643H13.0467V18.3646C13.0467 17.9847 13.0464 17.6047 13.0461 17.2246C13.0453 16.2108 13.0444 15.1959 13.0496 14.1824C13.051 13.9363 13.0622 13.6804 13.1255 13.4455C13.3631 12.568 14.1521 12.0013 15.0324 12.1406C15.5977 12.2291 15.9717 12.5568 16.1292 13.0898C16.2263 13.423 16.2699 13.7816 16.2741 14.129C16.2855 15.1766 16.2839 16.2242 16.2823 17.2719C16.2817 17.6417 16.2811 18.0117 16.2811 18.3815V18.5629H18.953V18.3576C18.953 17.9056 18.9528 17.4537 18.9525 17.0018C18.952 15.8723 18.9514 14.7428 18.9544 13.6129C18.9558 13.1024 18.901 12.599 18.7758 12.1054C18.5888 11.3713 18.2021 10.7638 17.5735 10.3251C17.1277 10.0129 16.6383 9.81178 16.0913 9.78928C16.029 9.78669 15.9662 9.7833 15.9031 9.77989C15.6234 9.76477 15.3391 9.74941 15.0717 9.80334C14.3067 9.95662 13.6346 10.3068 13.1269 10.9241C13.0679 10.9949 13.0102 11.0668 12.9241 11.1741L12.9047 11.1984V10.0044ZM6.30664 18.5671H8.95742V10.01H6.30664V18.5671Z" fill="#493518"/>
</svg>
