<svg width="133" height="32" viewBox="0 0 133 32" fill="none" xmlns="http://www.w3.org/2000/svg">
<path d="M34.8046 1.02397V14.013H42.9132V11.2256H37.9533V0.996094H34.8046V1.02397Z" fill="#352610"/>
<path d="M42.6338 7.54607C42.6338 9.4972 43.2747 11.086 44.5565 12.3403C45.8661 13.5946 47.4265 14.2357 49.2935 14.2357C51.1604 14.2357 52.7209 13.5946 54.0305 12.3403C55.3123 11.086 55.9532 9.4972 55.9532 7.54607C55.9532 5.59493 55.3123 4.00614 54.0305 2.75184C52.7487 1.49753 51.1883 0.856445 49.2935 0.856445C47.3987 0.856445 45.8382 1.49753 44.5565 2.75184C43.2747 4.00614 42.6338 5.6228 42.6338 7.54607ZM52.7487 7.54607C52.7487 8.68888 52.4422 9.6087 51.8013 10.2777C51.1604 10.9745 50.3524 11.309 49.3214 11.309C48.2625 11.309 47.4265 10.9745 46.8135 10.2777C46.1726 9.58083 45.894 8.68888 45.894 7.54607C45.894 6.40326 46.2005 5.48343 46.8135 4.7866C47.4544 4.11764 48.2904 3.75528 49.3214 3.75528C50.3524 3.75528 51.1883 4.11764 51.8013 4.7866C52.4422 5.48343 52.7487 6.37538 52.7487 7.54607Z" fill="#352610"/>
<path d="M65.5379 1.02393V8.494L60.16 1.02393H57.0948V14.0129H60.2436V6.45924L65.8723 14.0129H68.7145V1.02393H65.5379Z" fill="#352610"/>
<path d="M69.8287 7.54553C69.8287 9.49667 70.4696 11.0855 71.7514 12.3398C73.0611 13.5941 74.6215 14.2352 76.4884 14.2352C78.2718 14.2352 79.7486 13.6498 80.9468 12.4513C82.145 11.2527 82.758 9.71966 82.758 7.82427C82.758 7.29467 82.7023 6.8487 82.6187 6.45847H75.2345V8.91133H79.4421C79.3307 9.71966 78.9963 10.3608 78.4111 10.7789C77.8259 11.2248 77.1572 11.4199 76.4327 11.4199C75.4017 11.4199 74.5658 11.0576 73.9806 10.3608C73.3397 9.66392 73.0611 8.71622 73.0611 7.54553C73.0611 6.37485 73.3676 5.45503 73.9806 4.75819C74.5658 4.06136 75.4017 3.69901 76.4048 3.69901C77.7145 3.69901 78.6062 4.28435 79.0799 5.37141H82.6187C82.2843 3.92199 81.532 2.80706 80.4174 2.0266C79.2749 1.27402 77.9931 0.883789 76.5163 0.883789C74.6215 0.883789 73.0611 1.52488 71.7793 2.77918C70.4418 4.00561 69.8287 5.62227 69.8287 7.54553Z" fill="#352610"/>
<path d="M86.1028 14.4312H87.2174V7.74154H94.2394V14.4312H95.354V0.94043H94.2394V6.79385H87.2174V0.94043H86.1028V14.4312Z" fill="#352610"/>
<path d="M113.717 14.6819C116.364 14.6819 118.091 13.0931 118.091 11.0026C118.091 8.93994 116.782 8.10374 115.249 7.4069L113.215 6.51496C112.24 6.09685 110.902 5.51152 110.902 3.97848C110.902 2.58481 112.045 1.69285 113.772 1.69285C115.11 1.69285 116.169 2.22245 116.949 3.05865L117.59 2.33394C116.726 1.41412 115.388 0.717285 113.772 0.717285C111.46 0.717285 109.76 2.11096 109.76 4.11784C109.76 6.09686 111.292 6.96093 112.491 7.49053L114.525 8.38247C115.862 8.96782 116.921 9.49741 116.921 11.1141C116.921 12.6471 115.667 13.7063 113.689 13.7063C112.156 13.7063 110.763 13.0095 109.788 11.9224L109.091 12.7029C110.206 13.8735 111.766 14.6819 113.717 14.6819Z" fill="#352610"/>
<path d="M120.906 14.4307H122.021V7.74106H129.043V14.4307H130.158V0.939941H129.043V6.79336H122.021V0.939941H120.906V14.4307Z" fill="#352610"/>
<path d="M101.233 6.56984C101.763 5.00893 102.236 3.55951 102.71 1.94285H102.794C103.267 3.55951 103.713 5.00893 104.27 6.56984L105.385 9.91465L106.89 14.458H108.088L103.351 0.967285H102.208L97.4714 14.458H98.586L101.233 6.56984Z" fill="#352610"/>
<path d="M37.3945 28.1446H38.5927L41.2399 19.8662H40.181L38.8435 24.3538C38.537 25.3294 38.3419 26.1099 38.0354 27.0854H37.9797C37.6732 26.1099 37.4781 25.3294 37.1716 24.3538L35.8341 19.8662H34.7474L37.3945 28.1446Z" fill="#352610"/>
<path d="M48.0942 28.1447H52.9984V27.2527H49.153V24.2424H52.3018V23.3504H49.153V20.7582H52.8869V19.8384H48.0942V28.1447Z" fill="#352610"/>
<path d="M60.4386 28.1447H61.4417V23.7964C61.4417 22.9323 61.3581 22.0404 61.3303 21.2042H61.386L62.2777 22.9045L65.2871 28.1447H66.3738V19.8384H65.3707V24.1588C65.3707 25.0228 65.4543 25.9427 65.51 26.7789H65.4543L64.5626 25.0786L61.5253 19.8384H60.4386V28.1447Z" fill="#352610"/>
<path d="M76.0431 28.1447H77.102V20.7582H79.6098V19.8384H73.5353V20.7303H76.0431V28.1447Z" fill="#352610"/>
<path d="M89.725 28.284C91.4248 28.284 92.7065 27.3921 92.7065 24.7162V19.8384H91.7034V24.7441C91.7034 26.751 90.8396 27.3642 89.725 27.3642C88.6383 27.3642 87.8023 26.751 87.8023 24.7441V19.8384H86.7435V24.7162C86.7713 27.3642 88.0531 28.284 89.725 28.284Z" fill="#352610"/>
<path d="M100.648 28.1446H101.707V24.6326H103.212L105.218 28.1446H106.416L104.298 24.5211C105.441 24.2423 106.165 23.4898 106.165 22.2076C106.165 20.4794 104.967 19.8662 103.267 19.8662H100.676V28.1446H100.648ZM101.707 23.7685V20.7024H103.1C104.41 20.7024 105.106 21.0926 105.106 22.1797C105.106 23.2389 104.382 23.7685 103.1 23.7685H101.707Z" fill="#352610"/>
<path d="M113.549 28.1447H118.453V27.2527H114.608V24.2424H117.756V23.3504H114.608V20.7582H118.342V19.8384H113.549V28.1447Z" fill="#352610"/>
<path d="M128.207 28.2842C129.935 28.2842 131.021 27.2529 131.021 25.9428C131.021 24.7164 130.269 24.1589 129.322 23.7408L128.123 23.2391C127.482 22.9604 126.758 22.6538 126.758 21.8733C126.758 21.1207 127.371 20.6469 128.318 20.6469C129.099 20.6469 129.684 20.9535 130.213 21.4273L130.771 20.7584C130.185 20.1452 129.322 19.7271 128.318 19.7271C126.814 19.7271 125.699 20.6469 125.699 21.929C125.699 23.1276 126.619 23.7129 127.371 24.0474L128.569 24.577C129.349 24.9394 129.962 25.1902 129.962 26.0543C129.962 26.8626 129.294 27.4201 128.235 27.4201C127.371 27.4201 126.535 27.002 125.95 26.3888L125.309 27.1135C126.034 27.8103 127.037 28.2842 128.207 28.2842Z" fill="#352610"/>
<path d="M28.0324 11.393L17.9732 13.9295C15.7997 12.7309 15.131 11.8111 14.5737 9.94357L18.0289 11.9505L26.1654 9.8042C26.667 10.501 27.0571 10.8355 28.0324 11.393Z" fill="#111827"/>
<path d="M17.9729 15.9639V13.9012L28.0321 11.3647V12.8142C27.9485 13.2044 27.8371 13.3438 27.447 13.5389L17.9729 15.9639Z" fill="#4B5563"/>
<path d="M17.9725 15.9641L16.2449 14.9607V16.9676L18.5019 18.3055V22.3471L16.2449 22.9325V27.2529L26.3041 24.5213V13.8179L17.9725 15.9641Z" fill="#111827"/>
<path d="M16.2461 18.8907L12.7073 16.828L14.9086 16.2427L18.5032 18.3053V22.347L16.2461 22.9323V18.8907Z" fill="#4B5563"/>
<path d="M27.5024 15.9638L26.3043 15.2948V13.8454L26.973 13.7061V13.7618L29.7595 15.3506V19.4759L27.5024 20.0054V15.9638Z" fill="#4B5563"/>
<path d="M17.9725 28.3399L16.2449 27.2807L19.5608 26.333L21.3441 27.2807V29.3991L17.9446 30.2632V28.3399H17.9725Z" fill="#4B5563"/>
<path d="M24.6328 28.5347V26.4721L22.9052 25.4687L26.2211 24.5488L28.0045 25.608V27.6707L24.6328 28.5347Z" fill="#4B5563"/>
<path d="M1.08667 6.20801L4.54191 8.27064V12.1172L7.99715 14.1241V15.1832L6.52032 15.5735L9.50186 17.3016V23.4059L6.52032 21.6778V18.0263L4.51405 16.8278V12.1172L1.08667 10.1103V6.20801Z" fill="#374151"/>
<path d="M1.08667 6.20832L4.40259 5.34424L7.85783 7.40687V11.337L10.0592 12.5913V17.1068L9.47399 17.3019L6.54818 15.5738L8.02502 15.1836V14.1244L4.56978 12.1175V8.27095L1.08667 6.20832Z" fill="#6B7280"/>
<path d="M10.0592 23.6846L9.52979 23.4058V17.3016L10.0592 17.1064V23.6846Z" fill="#4B5563"/>
<path d="M17.9742 30.2626L10.0605 25.6914V3.95009C10.1163 3.67136 10.1441 3.53199 10.3392 3.36475L14.5189 5.81761V7.82449L18.0578 9.88713V11.9498L14.6025 10.0265C15.2155 11.9219 15.94 12.786 18.002 13.9566V16.0193L16.2744 15.0158V17.0227L14.9369 16.298L12.7356 16.8834L16.2744 18.946V27.3359L18.002 28.3393V30.2626H17.9742Z" fill="#374151"/>
<path d="M11.5361 6.87674C11.6754 6.2914 12.5114 6.17991 12.8736 6.87674C12.2327 7.18335 12.0655 7.40634 12.5392 8.13105C11.8426 8.0753 11.3968 7.46208 11.5361 6.87674Z" fill="#352610"/>
<path d="M10.3375 3.33745C10.4211 3.19808 10.5047 3.14234 10.6719 3.05871L19.3936 0.856712C19.923 0.828839 20.1738 0.884586 20.5918 0.99608L24.5207 3.25383V5.26071L28.0596 7.32335V8.71702C28.0038 9.10725 27.8924 9.27448 27.5859 9.44173L18.0561 11.8946V9.83196L14.5173 7.76932V5.76244L10.3375 3.33745Z" fill="#6B7280"/>
<path d="M27.5024 15.9639L26.3043 15.2949V19.4202L27.5024 20.0055V15.9639Z" fill="#374151"/>
<path d="M24.6323 26.4717L22.9047 25.4683L20.564 26.0536L24.6323 28.4507V26.4717Z" fill="#374151"/>
<path fill-rule="evenodd" clip-rule="evenodd" d="M18.92 18.1102L19.7839 17.9151V16.2427L20.982 15.9639V17.6363L22.7097 17.2461V15.4622L23.8521 15.2671V16.9395L24.6602 16.7444V17.9429L23.8521 18.138V20.8696L24.6602 20.6745V21.9288L23.8521 22.1239V23.7964L22.7097 24.0751V22.542L20.982 22.9323V24.4653L19.7839 24.7998V23.211L18.92 23.4061V22.1518L19.7839 21.9567V19.3645L18.92 19.5596V18.1102ZM22.7097 18.5004L20.982 18.9743V21.5665L22.7097 21.0926V18.5004Z" fill="white"/>
</svg>
