<svg width="130" height="40" viewBox="0 0 130 40" fill="none" xmlns="http://www.w3.org/2000/svg">
<g clip-path="url(#clip0_6589_2127)">
<path d="M57.4691 23.055H56.2991L53.0114 16.9451H54.3992L56.8841 21.5644L59.3691 16.9451H60.7569L57.4691 23.055Z" fill="#352610"/>
<path d="M70.0095 16.9451V18.166H63.7985V16.9451H70.0095ZM63.7985 20.6129V19.3916H70.0112V20.6129H63.7985ZM70.0112 21.8341V23.055H63.7985V21.8341H70.0112Z" fill="#352610"/>
<path d="M74.2711 18.4054V23.055H73.0496V16.9451H74.5331L79.2644 21.5981V16.9451H80.4853V23.055H79.0037L74.2711 18.4054Z" fill="#352610"/>
<path d="M90.3469 16.9451V18.166H87.4944V23.055H86.2732V18.166H83.5232V16.9451H90.3469Z" fill="#352610"/>
<path d="M95.8301 23.055C95.1782 23.055 94.6032 22.8159 94.1051 22.3378C93.6265 21.8399 93.3873 21.2649 93.3876 20.6129V16.9451H94.6088V20.6129C94.6096 20.9365 94.7385 21.2467 94.9674 21.4755C95.1962 21.7044 95.5064 21.8333 95.8301 21.8341H98.0716C98.3952 21.8331 98.7052 21.7041 98.9341 21.4753C99.1629 21.2465 99.2919 20.9364 99.2928 20.6129V16.9451H100.514V20.6129C100.514 21.2647 100.276 21.8397 99.801 22.3378C99.2999 22.8159 98.7235 23.055 98.0716 23.055H95.8301Z" fill="#352610"/>
<path d="M104.775 21.0184V23.0549H103.553V16.945H107.879C108.239 16.9408 108.594 17.036 108.904 17.2201C109.208 17.4002 109.461 17.6543 109.64 17.9588C109.827 18.2807 109.922 18.6477 109.915 19.0198C109.909 19.392 109.8 19.7553 109.602 20.0702C109.399 20.3882 109.113 20.6448 108.775 20.812L109.967 23.0323H108.579L107.5 21.017L104.775 21.0184ZM104.775 18.1659V19.7971H107.879C108.095 19.7971 108.303 19.7112 108.456 19.5582C108.609 19.4053 108.695 19.1978 108.695 18.9815C108.695 18.7652 108.609 18.5577 108.456 18.4048C108.303 18.2518 108.095 18.1659 107.879 18.1659H104.775Z" fill="#352610"/>
<path d="M119.22 16.9451V18.166H113.007V16.9451H119.22ZM113.007 20.6129V19.3916H119.22V20.6129H113.007ZM119.22 21.8341V23.055H113.007V21.8341H119.22Z" fill="#352610"/>
<path d="M122.888 20.1474C122.567 19.8697 122.354 19.4888 122.284 19.0704C122.215 18.652 122.294 18.2226 122.508 17.8563C122.669 17.5823 122.898 17.3539 123.171 17.1924C123.45 17.0273 123.768 16.9417 124.092 16.9449H129.183V18.1658H124.092C123.969 18.1648 123.85 18.2008 123.748 18.2692C123.647 18.3376 123.569 18.4351 123.524 18.5489C123.479 18.6627 123.47 18.7874 123.497 18.9066C123.525 19.0257 123.587 19.1338 123.678 19.2165C123.791 19.3035 123.928 19.356 124.07 19.3678C124.248 19.3874 124.426 19.3968 124.604 19.3958H124.711C125.189 19.4044 125.667 19.4057 126.146 19.3999H126.286C126.52 19.3972 126.752 19.3929 126.982 19.3871C127.062 19.3871 127.143 19.3857 127.226 19.383C127.428 19.3777 127.629 19.3862 127.83 19.4083C128.05 19.4336 128.264 19.4957 128.464 19.5921C128.99 19.8618 129.315 20.2902 129.438 20.8774C129.489 21.1477 129.48 21.4261 129.412 21.6927C129.34 21.9737 129.202 22.2332 129.007 22.4486C128.835 22.6389 128.626 22.7915 128.392 22.8967C128.162 23.0016 127.911 23.0555 127.658 23.0549H122.465V21.8339H127.658C127.823 21.8339 127.97 21.7665 128.098 21.6316C128.162 21.5617 128.208 21.4775 128.232 21.3861C128.257 21.2947 128.259 21.1988 128.239 21.1063C128.224 21.0169 128.187 20.9324 128.133 20.8597C128.079 20.7871 128.008 20.7283 127.927 20.6882C127.745 20.614 127.519 20.5855 127.248 20.6026C127.168 20.6056 127.089 20.607 127.009 20.607C126.776 20.6126 126.538 20.6169 126.296 20.6198H126.155C125.668 20.6285 125.179 20.6271 124.686 20.6154H124.591C124.309 20.6193 124.026 20.5968 123.748 20.548C123.451 20.5001 123.164 20.3666 122.888 20.1474Z" fill="#352610"/>
<path d="M26.4086 27.3449L23.9627 21.9258L21.5168 27.3449H17.1154L14.6681 21.9258L12.2223 27.3449H7.81946L14.6681 12.1812L19.3154 22.4737L23.9627 12.1812L30.811 27.3449H26.4086ZM39.2852 27.3449H35.372V21.9649H30.429L28.7661 18.0517H35.371V12.6704H39.2859L39.2852 27.3449Z" fill="#352610"/>
<path d="M46.3241 40H0.78064V0H46.3241V40ZM3.68776 37.0929H43.417V2.90712H3.68776V37.0929Z" fill="#352610"/>
</g>
<defs>
<clipPath id="clip0_6589_2127">
<rect width="128.657" height="40" fill="white" transform="translate(0.78064)"/>
</clipPath>
</defs>
</svg>
