<svg width="57" height="56" viewBox="0 0 57 56" fill="none" xmlns="http://www.w3.org/2000/svg">
<path fill-rule="evenodd" clip-rule="evenodd" d="M15.9153 25.2712C21.3913 25.2712 25.8305 20.7333 25.8305 15.1356C25.8305 9.53786 21.3913 5 15.9153 5C10.4392 5 6 9.53786 6 15.1356C6 20.7333 10.4392 25.2712 15.9153 25.2712ZM15.9153 20.5932C18.8633 20.5932 21.2542 18.1498 21.2542 15.1356C21.2542 12.1214 18.8633 9.67797 15.9153 9.67797C12.9672 9.67797 10.5763 12.1214 10.5763 15.1356C10.5763 18.1498 12.9672 20.5932 15.9153 20.5932Z" fill="#352610"/>
<path fill-rule="evenodd" clip-rule="evenodd" d="M41.0847 51C46.5608 51 51 46.4621 51 40.8644C51 35.2667 46.5608 30.7288 41.0847 30.7288C35.6087 30.7288 31.1695 35.2667 31.1695 40.8644C31.1695 46.4621 35.6087 51 41.0847 51ZM41.0847 46.322C44.0334 46.322 46.4237 43.8786 46.4237 40.8644C46.4237 37.8502 44.0334 35.4068 41.0847 35.4068C38.1361 35.4068 35.7458 37.8502 35.7458 40.8644C35.7458 43.8786 38.1361 46.322 41.0847 46.322Z" fill="#352610"/>
<path d="M47.7585 5L6 47.6864L9.24153 51L51 8.31356L47.7585 5Z" fill="#352610"/>
</svg>
