<svg width="259" height="40" viewBox="0 0 259 40" fill="none" xmlns="http://www.w3.org/2000/svg">
<g clip-path="url(#clip0_61_710)">
<path d="M0.385254 0C14.6316 0 28.8779 0 43.556 0C43.556 1.85122 43.556 3.70244 43.556 5.60976C31.0804 5.60976 18.6048 5.60976 5.75111 5.60976C5.8316 12.6927 5.91208 19.7756 5.99501 27.0732C6.15599 27.0732 6.31696 27.0732 6.48281 27.0732C6.54692 26.9297 6.61103 26.7863 6.67708 26.6385C6.9848 26.0714 7.30807 25.7012 7.76485 25.248C8.00651 25.0063 8.00651 25.0063 8.25305 24.7599C8.51336 24.5033 8.51336 24.5033 8.77893 24.2416C9.04587 23.9757 9.04587 23.9757 9.3182 23.7044C9.88617 23.1392 10.4558 22.5757 11.0255 22.0122C11.4112 21.629 11.7967 21.2457 12.1821 20.8622C13.1266 19.9231 14.0725 18.9854 15.0194 18.0488C15.9962 18.5027 16.7117 19.1447 17.4889 19.878C17.6963 20.0715 17.6963 20.0715 17.9078 20.2689C19.1687 21.4517 20.3946 22.6677 21.6048 23.9024C22.4243 23.5467 22.9589 23.0954 23.5867 22.4637C23.782 22.2684 23.9772 22.0731 24.1784 21.8719C24.3867 21.661 24.5951 21.4501 24.8098 21.2329C25.025 21.017 25.2401 20.8011 25.4618 20.5787C26.0321 20.0062 26.6012 19.4327 27.1699 18.8586C27.7511 18.2724 28.3337 17.6876 28.9161 17.1027C30.0575 15.9559 31.1975 14.8078 32.3365 13.6585C33.0453 13.999 33.549 14.3245 34.101 14.8876C34.3108 15.0998 34.3108 15.0998 34.5249 15.3163C34.668 15.4635 34.811 15.6106 34.9584 15.7622C35.1053 15.9112 35.2521 16.0603 35.4034 16.2138C35.7643 16.5805 36.1237 16.9486 36.4828 17.3171C35.9105 17.8904 35.338 18.4632 34.7603 19.0311C34.0054 19.7753 33.2731 20.5127 32.6109 21.3415C32.4398 21.5427 32.2688 21.7439 32.0926 21.9512C31.9316 21.9512 31.7706 21.9512 31.6048 21.9512C31.6048 22.1122 31.6048 22.2732 31.6048 22.439C31.2294 22.8001 31.2294 22.8001 30.7206 23.2165C30.0597 23.7765 29.4699 24.3293 28.9218 25C28.2646 25.7975 27.5325 26.4475 26.7467 27.116C25.8844 27.8716 25.0902 28.6942 24.2877 29.5122C23.8812 29.9187 23.4747 30.3252 23.0682 30.7317C22.9022 30.9229 22.7362 31.114 22.5651 31.311C22.0926 31.7073 22.0926 31.7073 21.6505 31.6825C20.8981 31.3735 20.4741 30.8897 19.9127 30.3049C19.6076 29.9898 19.6076 29.9898 19.2963 29.6684C19.0922 29.4559 18.8882 29.2434 18.6779 29.0244C18.2724 28.617 17.8659 28.2104 17.4584 27.8049C16.808 27.1545 16.1576 26.5041 15.5072 25.8537C14.459 26.2693 13.7246 27.0304 12.9157 27.7896C12.773 27.9209 12.6303 28.0522 12.4832 28.1874C11.8517 28.7748 11.356 29.2755 10.8731 30C10.7121 30 10.5511 30 10.3853 30C10.3027 30.2061 10.3027 30.2061 10.2185 30.4163C9.80284 31.1404 9.29136 31.5664 8.66269 32.1189C6.57645 33.9851 4.62603 35.9906 2.65844 37.9799C2.5266 38.1127 2.39476 38.2456 2.25893 38.3825C2.00722 38.6362 1.75603 38.8904 1.50543 39.1451C1.21791 39.4347 0.924171 39.7181 0.629156 40C0.548669 40 0.468181 40 0.385254 40C0.385254 26.8 0.385254 13.6 0.385254 0Z" fill="#352610"/>
<path d="M59.6535 8.04878C61.1828 8.04878 62.7121 8.04878 64.2877 8.04878C64.8974 9.02439 65.0194 9.26829 65.7511 10.2439C68.139 14.1498 70.7768 18.1002 72.8243 22.1951C72.9048 17.5268 72.9852 12.8585 73.0682 8.04878C74.5974 8.04878 76.1267 8.04878 77.7023 8.04878C77.7023 15.3732 77.7023 22.6976 77.7023 30.2439C76.1731 30.2439 74.6438 30.2439 73.0682 30.2439C70.4474 25.3143 67.0299 20.8503 64.5316 15.8537C64.4511 20.6024 64.3706 25.3512 64.2877 30.2439C62.7584 30.2439 61.2292 30.2439 59.6535 30.2439C59.6535 22.9195 59.6535 15.5951 59.6535 8.04878Z" fill="#352610"/>
<path d="M95.995 14.1464C97.3633 14.1464 98.7316 14.1464 100.141 14.1464C101.025 17.3243 101.605 21.0976 102.58 24.3903C102.741 24.3903 102.902 24.3903 103.068 24.3903C103.556 21.875 104.775 16.5854 105.507 14.1464C106.726 14.1111 107.947 14.1332 109.166 14.1464C109.982 17.3282 110.751 20.7317 111.605 24.1464C111.766 24.1464 111.927 24.1464 112.093 24.1464C112.946 20.3659 113.638 17.4443 114.532 14.1464C115.9 14.1464 117.268 14.1464 118.678 14.1464C117.699 19.6632 115.575 24.8748 114.044 30.2439C112.756 30.2439 111.468 30.2439 110.141 30.2439C109.277 26.8266 108.312 23.7805 107.215 19.7561C106.971 20.4878 106.745 20.9953 106.605 21.5854C105.759 24.8131 105.326 27.003 104.532 30.2439C103.163 30.2439 101.795 30.2439 100.385 30.2439C99.4411 25.9095 97.8017 21.7446 96.6529 17.46C95.995 14.9793 95.995 14.9793 95.995 14.1464Z" fill="#352610"/>
<path d="M120.385 8.04878C125.697 8.04878 131.01 8.04878 136.483 8.04878C136.483 9.33659 136.483 10.6244 136.483 11.9512C132.78 11.9512 129.078 11.9512 125.263 11.9512C125.263 13.6415 125.263 15.3317 125.263 17.0732C128.322 17.0732 131.38 17.0732 134.532 17.0732C134.532 18.361 134.532 19.6488 134.532 20.9756C131.393 20.9756 128.254 20.9756 125.019 20.9756C125.019 24.0341 125.019 27.0927 125.019 30.2439C123.49 30.2439 121.961 30.2439 120.385 30.2439C120.385 22.9195 120.385 15.5951 120.385 8.04878Z" fill="#352610"/>
<path d="M192.336 8.04878C197.649 8.04878 202.961 8.04878 208.434 8.04878C208.434 9.33659 208.434 10.6244 208.434 11.9512C204.651 11.9512 200.868 11.9512 196.971 11.9512C196.971 13.722 196.971 15.4927 196.971 17.3171C200.19 17.3171 203.41 17.3171 206.727 17.3171C206.727 18.5244 206.727 19.7317 206.727 20.9756C203.507 20.9756 200.288 20.9756 196.971 20.9756C196.971 24.0341 196.971 27.0927 196.971 30.2439C195.441 30.2439 193.912 30.2439 192.336 30.2439C192.336 22.9195 192.336 15.5951 192.336 8.04878Z" fill="#352610"/>
<path d="M237.55 14.1768C239.493 15.5646 240.462 16.591 240.873 19.0244C241.064 22.7519 240.887 26.5111 240.873 30.2439C239.424 30.2439 237.975 30.2439 236.483 30.2439C236.476 29.7528 236.476 29.7528 236.468 29.2519C236.42 26.1019 236.36 22.9522 236.307 19.8023C236.231 19.2022 236.066 18.807 235.751 18.2927C234.765 17.6379 233.725 17.6394 232.58 17.8049C231.576 18.382 231.204 18.9086 230.873 20C230.531 23.3766 230.683 26.8513 230.629 30.2439C229.261 30.2439 227.893 30.2439 226.483 30.2439C226.483 25.0122 226.483 19.7805 226.483 14.3903C227.771 14.3903 229.058 14.3903 230.385 14.3903C230.385 15.0342 230.385 15.6781 230.385 16.3415C230.546 16.3415 230.707 16.3415 230.873 16.3415C230.928 16.2006 230.984 16.0598 231.041 15.9146C232.381 13.6174 235.234 13.4048 237.55 14.1768Z" fill="#352610"/>
<path d="M209.41 14.3902C210.778 14.3902 212.146 14.3902 213.556 14.3902C213.607 17.8709 213.673 21.3513 213.732 24.8319C213.809 25.4396 213.96 25.825 214.288 26.3415C215.276 27.0006 216.055 26.9579 217.214 26.8293C218.048 26.5033 218.345 26.2377 218.824 25.4863C219.41 22.0732 219.37 17.7782 219.41 14.3902C220.778 14.3902 222.146 14.3902 223.556 14.3902C223.556 19.5415 223.556 24.6927 223.556 30C222.268 30 220.98 30 219.654 30C219.654 29.5171 219.654 29.0341 219.654 28.5366C219.124 28.9682 218.59 29.3941 218.058 29.8228C217.093 30.4878 214.897 30.3659 213.434 30.122C211.971 29.878 209.375 27.926 209.382 25.3551C209.382 21.7002 209.397 18.0452 209.41 14.3902Z" fill="#352610"/>
<path d="M162.336 8.04878C163.785 8.04878 165.234 8.04878 166.727 8.04878C166.727 15.3732 166.727 22.6976 166.727 30.2439C165.278 30.2439 163.829 30.2439 162.336 30.2439C162.336 22.9195 162.336 15.5951 162.336 8.04878Z" fill="#352610"/>
<path d="M138.434 14.1463C139.883 14.1463 141.332 14.1463 142.824 14.1463C142.824 19.4585 142.824 24.7707 142.824 30.2439C141.375 30.2439 139.927 30.2439 138.434 30.2439C138.434 24.9317 138.434 19.6195 138.434 14.1463Z" fill="#352610"/>
<path fill-rule="evenodd" clip-rule="evenodd" d="M184.288 8.04878H180.141V16.0976C179.979 15.935 179.83 15.7724 179.681 15.6098C179.383 15.2846 179.084 14.9594 178.678 14.6341C175.691 12.7509 172.174 13.9248 170.065 16.5244C168.319 19.0602 168.445 22.1343 168.787 25.0829C169.118 26.9705 170.382 28.7916 171.92 29.9238C173.689 30.9139 175.35 30.9834 177.306 30.5488C178.245 30.1015 178.956 29.6283 179.486 28.7195L179.654 28.2927H180.141V30.2439H184.288V8.04878ZM180.141 20.2439C179.847 19.0923 179.366 18.3439 178.373 17.6829C176.973 16.9982 175.385 17.0581 174.166 18.064C173.239 19.1532 172.882 20.0943 172.755 21.4939C172.701 23.5173 172.835 24.9885 174.166 26.5854C175.061 27.247 176 27.2307 177.08 27.1722C178.185 26.9963 178.588 26.512 179.264 25.6726C180.407 23.9949 180.371 22.2082 180.141 20.2439Z" fill="#352610"/>
<path fill-rule="evenodd" clip-rule="evenodd" d="M258.29 8.04878H254.144V16.0976C253.981 15.935 253.832 15.7724 253.683 15.6098C253.385 15.2846 253.087 14.9593 252.68 14.6341C249.693 12.7509 246.177 13.9248 244.068 16.5244C242.322 19.0602 242.447 22.1343 242.789 25.0829C243.12 26.9705 244.384 28.7916 245.923 29.9238C247.692 30.9139 249.353 30.9834 251.309 30.5488C252.248 30.1015 252.958 29.6283 253.488 28.7195L253.656 28.2927H254.144V30.2439H258.29V8.04878ZM254.144 20.2439C253.85 19.0923 253.368 18.3439 252.376 17.6829C250.976 16.9982 249.387 17.0581 248.168 18.064C247.241 19.1532 246.885 20.0943 246.757 21.4939C246.703 23.5173 246.838 24.9885 248.168 26.5854C249.063 27.247 250.003 27.2307 251.083 27.1722C252.187 26.9963 252.591 26.512 253.266 25.6726C254.409 23.9949 254.374 22.2082 254.144 20.2439Z" fill="#352610"/>
<path fill-rule="evenodd" clip-rule="evenodd" d="M160.385 23.4146C160.385 20.0402 159.651 16.9994 156.727 14.8781C154.752 13.5379 151.784 13.4479 149.532 14.1616C147.516 15.116 145.849 16.9845 145.065 19.0616C144.412 21.5707 144.51 24.5301 145.751 26.8293C146.985 28.7951 148.398 30.0011 150.657 30.6098C152.843 30.9884 154.996 30.9845 156.934 29.8295C158.738 28.5362 159.738 27.602 160.141 25.3659C159.544 25.3426 158.935 25.3514 158.326 25.3602C157.859 25.3669 157.393 25.3737 156.934 25.3659C156.576 25.3769 156.471 25.3636 156.4 25.4063C156.321 25.453 156.283 25.5669 155.995 25.8537C155.645 26.2018 155.454 26.3189 155.226 26.458C155.095 26.5381 154.952 26.6254 154.76 26.7683C153.518 27.2968 151.483 27.0732 150.873 26.7683C150.263 26.4634 149.166 25 148.922 23.4146H160.385ZM155.995 20.4878C155.995 18.9032 155.141 17.8049 153.556 17.0732C152.551 16.8944 151.773 17.0149 150.812 17.3476C149.58 18.1877 149.21 19.0455 148.922 20.4878H155.995Z" fill="#352610"/>
<path fill-rule="evenodd" clip-rule="evenodd" d="M94.9775 18.9729C94.1288 17.1395 93.2542 15.8787 91.6048 14.6341C89.0074 12.9469 84.6785 13.6069 82.5051 15.6517C80.7086 17.5514 79.7284 19.5836 79.7907 22.2103C79.7651 25.2664 80.995 27.439 82.8548 29.1768C84.3743 30.4321 86.048 30.7919 87.992 30.8231C91.2209 30.7206 94.7613 28.8799 95.2633 25.3658H91.117C90.2955 27.0086 89.315 27.1393 87.5032 27.1055C85.6292 26.9512 84.2877 25.4878 84.0438 23.4146H95.5072C95.5072 23.0329 95.5145 22.6935 95.5212 22.3828C95.5494 21.0725 95.5666 20.2744 94.9775 18.9729ZM91.117 20.4878C91.117 18.411 89.9001 17.2088 87.7023 17.2256C85.5143 17.2089 84.4634 18.3897 84.0438 20.4878H91.117Z" fill="#352610"/>
<path d="M138.434 8.04878C139.883 8.04878 141.332 8.04878 142.824 8.04878C142.824 9.33659 142.824 10.6244 142.824 11.9512C142.138 11.9578 141.452 11.9626 140.766 11.9665C140.571 11.9685 140.375 11.9706 140.173 11.9727C139.675 11.9748 139.176 11.964 138.678 11.9512C138.434 11.7073 138.434 11.7073 138.41 10.8832C138.412 10.5431 138.415 10.2029 138.419 9.8628C138.424 9.26418 138.429 8.66555 138.434 8.04878Z" fill="#352610"/>
</g>
<defs>
<clipPath id="clip0_61_710">
<rect width="257.805" height="40" fill="white" transform="translate(0.385254)"/>
</clipPath>
</defs>
</svg>
