<svg width="71" height="24" viewBox="0 0 71 24" fill="none" xmlns="http://www.w3.org/2000/svg">
<g clip-path="url(#clip0_6004_9393)">
<mask id="mask0_6004_9393" style="mask-type:luminance" maskUnits="userSpaceOnUse" x="0" y="0" width="71" height="24">
<path d="M70.2162 0H0.216248V24H70.2162V0Z" fill="white"/>
</mask>
<g mask="url(#mask0_6004_9393)">
<path d="M1.2807 19.139V0.934082L7.94297 4.67948V23.1567L1.2807 19.139ZM11.3479 19.139V0.934082L18.0102 4.67948V23.1567L11.3479 19.139ZM21.4151 19.139V0.934082L28.0774 4.67948V23.1567L21.4151 19.139ZM42.1283 3.05647H44.6025V14.2699H41.924L39.2909 9.97979C38.3829 8.52703 37.7246 7.4034 37.316 6.59758C37.3841 7.89144 37.4067 9.3442 37.4067 10.9331V14.2586H34.9326V3.04512H37.6791L40.5393 7.7212C41.3338 9.00371 41.8786 9.93439 42.1964 10.5132C42.151 9.62794 42.1283 8.34543 42.1283 6.64297V3.05647ZM51.4237 10.0365V7.89144H56.7581V14.2699H54.8173L54.7265 13.3052C54.0795 14.1224 53.058 14.531 51.6507 14.531C49.9708 14.531 48.6317 13.9862 47.6443 12.8853C46.6568 11.7844 46.1574 10.377 46.1574 8.64052C46.1347 6.93807 46.6567 5.5307 47.701 4.42978C48.7678 3.31751 50.1639 2.76138 51.9004 2.78408C52.8765 2.78408 53.739 2.94298 54.4881 3.26077C55.2485 3.57856 56.009 4.112 56.7921 4.87242L55.1804 6.54083C54.5448 5.98469 53.9887 5.5988 53.4893 5.37181C52.99 5.15617 52.4679 5.04267 51.9004 5.04267C50.9357 5.04267 50.1639 5.34911 49.5964 5.97334C49.0403 6.59758 48.7565 7.48285 48.7565 8.62917C48.7565 9.80954 49.0289 10.7175 49.5737 11.3644C50.1297 12 50.8903 12.3064 51.8436 12.3064C52.6608 12.3064 53.2964 12.1135 53.7504 11.7276C54.2157 11.3304 54.4426 10.7856 54.4426 10.0819V10.0365H51.4237ZM63.7835 2.77273C64.68 2.77273 65.4406 2.90893 66.0761 3.16997C66.723 3.44236 67.3813 3.885 68.0509 4.49788L66.5415 6.25709C65.9854 5.7804 65.5087 5.46261 65.1 5.29236C64.7141 5.11077 64.2602 5.01997 63.7607 5.01997C62.8187 5.01997 62.0811 5.34911 61.5135 5.99604C60.9688 6.64298 60.6964 7.5169 60.6964 8.62917C60.6964 9.75279 60.9688 10.6494 61.5135 11.2963C62.0696 11.9433 62.8188 12.2724 63.7381 12.2724C64.2829 12.2724 64.7595 12.1702 65.1567 11.9773C65.5654 11.7844 66.0874 11.4439 66.723 10.9331L68.1871 12.6696C67.4949 13.3166 66.7911 13.7819 66.0874 14.0883C65.3951 14.3834 64.6234 14.531 63.7722 14.531C62.047 14.531 60.6623 13.9748 59.6409 12.8739C58.6081 11.7617 58.0973 10.3316 58.0973 8.59512C58.0973 6.89267 58.6081 5.48531 59.6295 4.39574C60.651 3.31752 62.0357 2.77273 63.7835 2.77273ZM36.8053 21.6699L38.3602 17.0733H37.9403L36.5783 21.2727H36.5555L35.205 17.0847H34.7623L36.3059 21.6813H36.8053V21.6699ZM41.4473 21.7494C42.0829 21.7494 42.5482 21.4202 42.7639 20.9322L42.4801 20.7393C42.2985 21.1819 41.9354 21.4202 41.4587 21.4202C40.7663 21.4202 40.3577 20.9322 40.3577 20.2285V20.0583H42.8547V19.8767C42.8547 18.8893 42.2985 18.2196 41.436 18.2196C40.5392 18.2196 39.9719 18.8779 39.9719 19.9788C39.9719 21.0798 40.5507 21.7494 41.4473 21.7494ZM41.436 18.5374C42.0375 18.5374 42.4461 19.0028 42.4461 19.7178V19.7745H40.3577V19.7405C40.369 19.0255 40.789 18.5374 41.436 18.5374ZM45.4992 21.6699V19.2979C45.4992 18.7985 45.9418 18.5601 46.4185 18.5601C46.9746 18.5601 47.2811 18.8893 47.2811 19.5702V21.6699H47.6556V19.5021C47.6556 18.685 47.2356 18.2196 46.5205 18.2196C45.9757 18.2196 45.6808 18.4807 45.5219 18.8325H45.4992V18.2991H45.1245V21.6699H45.4992ZM51.401 21.6699V21.3408H50.686V18.6282H51.4464V18.2991H50.686V17.3571H50.3455V18.038C50.3455 18.231 50.2887 18.2991 50.1071 18.2991H49.7212V18.6282H50.3114V21.25C50.3114 21.4997 50.459 21.6699 50.7313 21.6699H51.401ZM55.7705 21.6699H56.1452V18.2991H55.7705V20.6598C55.7705 21.1706 55.328 21.4089 54.8627 21.4089C54.3064 21.4089 54 21.0798 54 20.3874V18.2991H53.6255V20.4669C53.6255 21.2841 54.0568 21.7494 54.7719 21.7494C55.3507 21.7494 55.6231 21.4543 55.7479 21.1365H55.7705V21.6699ZM59.062 21.6699V19.366C59.062 18.9347 59.4593 18.6736 60.0268 18.6736H60.3218V18.3104H60.0949C59.516 18.3104 59.2209 18.5942 59.0847 18.912H59.062V18.3104H58.6875V21.6813H59.062V21.6699ZM63.5452 21.7494C64.1808 21.7494 64.6461 21.4202 64.8617 20.9322L64.5893 20.7506C64.4077 21.1933 64.0446 21.4316 63.5679 21.4316C62.8755 21.4316 62.4669 20.9436 62.4669 20.2399V20.0583H64.9638V19.8767C64.9638 18.8893 64.4076 18.2196 63.5452 18.2196C62.6484 18.2196 62.0811 18.8779 62.0811 19.9788C62.0811 21.0798 62.6371 21.7494 63.5452 21.7494ZM63.5338 18.5374C64.1354 18.5374 64.5438 19.0028 64.5438 19.7178V19.7745H62.4556V19.7405C62.4669 19.0255 62.8869 18.5374 63.5338 18.5374ZM68.1758 21.7494C68.9136 21.7494 69.3675 21.3748 69.3675 20.7506C69.3675 20.2058 69.0497 19.9107 68.3573 19.8086L68.0849 19.7745C67.6083 19.6951 67.3587 19.5475 67.3587 19.1617C67.3587 18.7758 67.6423 18.5601 68.119 18.5601C68.5844 18.5601 68.8567 18.7758 69.0383 18.9914L69.288 18.7644C69.0383 18.458 68.6978 18.2423 68.1417 18.2423C67.4949 18.2423 66.9954 18.5601 66.9954 19.1844C66.9954 19.7859 67.4153 20.0356 68.0282 20.1264L68.3006 20.1718C68.7886 20.2399 68.993 20.4442 68.993 20.8074C68.993 21.216 68.6978 21.4429 68.1871 21.4429C67.7446 21.4429 67.4153 21.2614 67.1429 20.8982L66.8705 21.1138C67.1883 21.5224 67.5969 21.7494 68.1758 21.7494Z" fill="#352610"/>
</g>
</g>
<defs>
<clipPath id="clip0_6004_9393">
<rect width="70" height="24" fill="white" transform="translate(0.216248)"/>
</clipPath>
</defs>
</svg>
