<svg width="104" height="24" viewBox="0 0 104 24" fill="none" xmlns="http://www.w3.org/2000/svg">
<g clip-path="url(#clip0_6004_9340)">
<path d="M19.3269 1.64298C19.3269 5.83858 19.3269 14.2298 19.3269 14.2298C19.3269 14.2298 19.2975 18.4254 19.1215 19.0415C18.9748 19.6283 18.6521 19.9804 18.3587 20.2444C17.8892 20.6259 17.2438 20.7726 16.657 20.6845C15.4247 20.5085 14.5445 19.2469 13.811 18.308C12.344 16.4009 10.4956 12.8215 10.4956 12.8215C10.4956 12.8215 9.6154 10.6797 8.0017 11.5598C6.68141 12.264 7.41491 13.819 7.41491 13.819C7.41491 13.819 9.4687 18.0146 10.877 19.8924C12.9895 22.7383 16.0702 24.9388 19.4149 23.5305C21.322 22.7383 22.5836 20.8899 22.5836 18.396C22.5836 16.7823 22.6423 10.9144 22.6423 8.15642C22.6423 5.98528 22.6423 3.81413 22.6423 1.64298C22.6716 -0.498831 19.3269 -0.498831 19.3269 1.64298Z" fill="#352610"/>
<path d="M4.07016 22.3569C4.07016 18.1613 4.07016 9.77009 4.07016 9.77009C4.07016 9.77009 4.0995 5.57449 4.27554 4.95835C4.42224 4.37155 4.74498 4.01948 5.03838 3.75542C5.50782 3.374 6.15329 3.2273 6.74009 3.31532C7.97236 3.49136 8.85256 4.75297 9.58606 5.69185C11.053 7.59894 12.9015 11.1784 12.9015 11.1784C12.9015 11.1784 13.7817 13.3202 15.3953 12.44C16.7156 11.7359 15.9821 10.1808 15.9821 10.1808C15.9821 10.1808 13.9284 5.98525 12.52 4.1075C10.4076 1.26153 7.32689 -0.938958 3.98214 0.469355C2.07505 1.26153 0.81344 3.10994 0.81344 5.60383C0.81344 7.24686 0.754761 13.0855 0.754761 15.8434C0.754761 18.0146 0.754761 20.1857 0.754761 22.3569C0.754761 24.4987 4.07016 24.4987 4.07016 22.3569Z" fill="#352610"/>
<path d="M36.9015 0.205322H39.0139V11.5012H37.723V11.5305L31.7963 3.90214V11.5012H29.6839V0.234662H31.4149L36.9308 7.21755V0.205322H36.9015Z" fill="#352610"/>
<path d="M53.0384 5.92665C53.009 8.8313 51.2193 11.7653 47.2584 11.7653C43.2975 11.7653 41.4491 8.91932 41.4491 5.95599C41.4491 2.99266 43.3562 0 47.2584 0C51.1606 0 53.0677 2.96333 53.0384 5.92665ZM43.5323 5.98533C43.5909 7.83374 44.5885 9.82885 47.2291 9.82885C49.8697 9.82885 50.8966 7.83374 50.9259 5.98533C50.9552 4.07824 49.899 1.96577 47.2291 1.96577C44.5592 1.96577 43.5029 4.07824 43.5323 5.98533Z" fill="#352610"/>
<path d="M61.5763 0.234619V9.53535H67.3562V11.5011H59.4345V0.234619H61.5763Z" fill="#352610"/>
<path d="M69.6741 11.5011V0.234619H71.7865V11.5011H69.6741Z" fill="#352610"/>
<path d="M84.4027 3.34464L80.7352 8.21506H80.3244L76.745 3.3153V11.5011H74.6325V0.234619H77.0677L80.5885 5.0757L84.1093 0.234619H86.5445V11.5011H84.432L84.4027 3.34464Z" fill="#352610"/>
<path d="M89.3611 11.5011V0.234619H91.4736V11.5011H89.3611Z" fill="#352610"/>
<path d="M97.6936 2.17105H94.1142V0.234619H103.386V2.17105H99.8061V11.5011H97.6936V2.17105Z" fill="#352610"/>
<path d="M36.9015 23.8532V19.2469H30.4467V23.8532H29.6545V13.7017H30.4467V18.5134H36.9015V13.7017H37.6936V23.8532H36.9015Z" fill="#352610"/>
<path d="M49.987 18.7775C49.987 21.4474 48.2853 24 44.8819 24C41.4785 24 39.7768 21.4474 39.7768 18.7481C39.7768 16.0489 41.4785 13.5256 44.8819 13.5256C48.2853 13.5256 50.0164 16.0489 49.987 18.7775ZM40.5396 18.7775C40.5396 21.066 42.0066 23.2958 44.8819 23.2958C47.7572 23.2958 49.2535 21.066 49.2535 18.7775C49.2535 16.489 47.8159 14.2591 44.8819 14.2591C41.9479 14.2591 40.5103 16.3716 40.5396 18.7775Z" fill="#352610"/>
<path d="M52.921 13.7017V23.0904H58.6423V23.8239H52.1582V13.7017H52.921Z" fill="#352610"/>
<path d="M68.9112 18.6601C68.9699 21.242 67.3269 23.8532 63.7768 23.8532H60.3147V13.7017H63.7474C67.1802 13.7017 68.8525 16.1662 68.9112 18.6601ZM61.1068 14.4352V23.0904H63.7474C66.7694 23.0904 68.1484 20.8312 68.1191 18.6601C68.0897 16.5476 66.6814 14.4352 63.7474 14.4352H61.1068Z" fill="#352610"/>
<path d="M71.1411 23.8532V13.7017H71.9039V23.8532H71.1411Z" fill="#352610"/>
<path d="M74.7499 13.7017L81.5567 22.0929V13.7017H82.3195V23.8532H82.0261L75.19 15.4914V23.8532H74.3978V13.7017H74.7499Z" fill="#352610"/>
<path d="M92.8819 15.5793C92.0017 14.6991 90.7694 14.2884 89.6252 14.2884C86.6618 14.2884 85.1362 16.4595 85.1655 18.8067C85.1655 21.1833 86.6912 23.2664 89.6252 23.2664C90.7107 23.2664 91.8257 22.885 92.7059 22.0928V19.2468H89.1851V18.572H93.4687V22.3568C92.4125 23.4131 91.1508 23.9999 89.6545 23.9999C86.1924 23.9999 84.432 21.594 84.432 18.8361C84.432 15.6674 86.5738 13.5842 89.6545 13.5842C90.9748 13.5842 92.3244 14.083 93.3513 15.1099L92.8819 15.5793Z" fill="#352610"/>
<path d="M102.417 15.6674C101.684 14.4938 100.481 14.3178 99.3367 14.2884C98.1631 14.2884 96.256 14.7285 96.256 16.3422C96.256 17.6332 97.635 17.9266 99.366 18.2493C101.332 18.6307 103.356 18.9828 103.356 21.154C103.356 23.4425 101.038 23.9999 99.3367 23.9999C97.7523 23.9999 95.9626 23.3544 95.1704 21.7994L95.8746 21.4474C96.4907 22.6796 98.0751 23.2958 99.3367 23.2958C100.598 23.2958 102.564 22.9437 102.564 21.154C102.564 19.6283 100.892 19.3055 99.2486 18.9828C97.4002 18.6307 95.4931 18.2493 95.4931 16.3716C95.4345 14.2297 97.6936 13.5549 99.3367 13.5549C100.774 13.5549 102.036 13.7896 103.033 15.286L102.417 15.6674Z" fill="#352610"/>
</g>
<defs>
<clipPath id="clip0_6004_9340">
<rect width="102.631" height="24" fill="white" transform="translate(0.754761)"/>
</clipPath>
</defs>
</svg>
