<svg width="92" height="48" viewBox="0 0 92 48" fill="none" xmlns="http://www.w3.org/2000/svg">
<g clip-path="url(#clip0_61_187)">
<path d="M27.2339 0.333496H1.30848C1.14858 0.333496 0.995226 0.397016 0.882157 0.510085C0.769088 0.623157 0.705566 0.776509 0.705566 0.936412V26.8619C0.705566 27.0218 0.769088 27.1752 0.882157 27.2883C0.995226 27.4013 1.14858 27.4648 1.30848 27.4648H27.2339C27.3939 27.4648 27.5473 27.4013 27.6603 27.2883C27.7734 27.1752 27.8369 27.0218 27.8369 26.8619V0.936412C27.8369 0.776509 27.7734 0.623157 27.6603 0.510085C27.5473 0.397016 27.3939 0.333496 27.2339 0.333496ZM18.7931 17.8182C18.7931 17.978 18.7296 18.1314 18.6166 18.2444C18.5034 18.3575 18.3501 18.4211 18.1902 18.4211H10.3523C10.1923 18.4211 10.039 18.3575 9.92593 18.2444C9.81287 18.1314 9.74933 17.978 9.74933 17.8182V9.98018C9.74933 9.8203 9.81287 9.66694 9.92593 9.55388C10.039 9.4408 10.1923 9.37728 10.3523 9.37728H18.1902C18.3501 9.37728 18.5034 9.4408 18.6166 9.55388C18.7296 9.66694 18.7931 9.8203 18.7931 9.98018V17.8182Z" fill="#352610"/>
<path d="M81.5135 9.37695H73.6753C73.3423 9.37695 73.0728 9.6469 73.0728 9.97988V17.8178C73.0728 18.1508 73.3423 18.4207 73.6753 18.4207H81.5135C81.8465 18.4207 82.1161 18.1508 82.1161 17.8178V9.97988C82.1161 9.6469 81.8465 9.37695 81.5135 9.37695Z" fill="#352610"/>
<path d="M72.4647 0.333496H64.6271C64.2941 0.333496 64.0239 0.603434 64.0239 0.936412V8.77438C64.0239 9.10733 64.2941 9.37728 64.6271 9.37728H72.4647C72.7977 9.37728 73.0678 9.10733 73.0678 8.77438V0.936412C73.0678 0.603434 72.7977 0.333496 72.4647 0.333496Z" fill="#352610"/>
<path d="M90.5534 0.333496H82.7158C82.3829 0.333496 82.1127 0.603434 82.1127 0.936412V8.77438C82.1127 9.10733 82.3829 9.37728 82.7158 9.37728H90.5534C90.8864 9.37728 91.1566 9.10733 91.1566 8.77438V0.936412C91.1566 0.603434 90.8864 0.333496 90.5534 0.333496Z" fill="#352610"/>
<path d="M72.4647 18.4209H64.6271C64.2941 18.4209 64.0239 18.6908 64.0239 19.0238V26.8618C64.0239 27.1947 64.2941 27.4647 64.6271 27.4647H72.4647C72.7977 27.4647 73.0678 27.1947 73.0678 26.8618V19.0238C73.0678 18.6908 72.7977 18.4209 72.4647 18.4209Z" fill="#352610"/>
<path d="M90.5534 18.4209H82.7158C82.3829 18.4209 82.1127 18.6908 82.1127 19.0238V26.8618C82.1127 27.1947 82.3829 27.4647 82.7158 27.4647H90.5534C90.8864 27.4647 91.1566 27.1947 91.1566 26.8618V19.0238C91.1566 18.6908 90.8864 18.4209 90.5534 18.4209Z" fill="#352610"/>
<path d="M58.8868 0.333496H51.0489C50.7162 0.333496 50.446 0.603434 50.446 0.936412V8.77438C50.446 9.10733 50.7162 9.37728 51.0489 9.37728H58.8868C59.2198 9.37728 59.49 9.10733 59.49 8.77438V0.936412C59.49 0.603434 59.2198 0.333496 58.8868 0.333496Z" fill="#352610"/>
<path d="M58.8868 18.4209H51.0489C50.7162 18.4209 50.446 18.6908 50.446 19.0238V26.8618C50.446 27.1947 50.7162 27.4647 51.0489 27.4647H58.8868C59.2198 27.4647 59.49 27.1947 59.49 26.8618V19.0238C59.49 18.6908 59.2198 18.4209 58.8868 18.4209Z" fill="#352610"/>
<path d="M50.4455 9.97341C50.4455 9.81348 50.3818 9.66018 50.2689 9.54706C50.1556 9.434 50.0023 9.37052 49.8426 9.37052H41.4015V0.936412C41.4015 0.776509 41.3381 0.623157 41.2249 0.510085C41.112 0.397016 40.9587 0.333496 40.7987 0.333496H32.9608C32.8008 0.333496 32.6474 0.397016 32.5345 0.510085C32.4213 0.623157 32.3579 0.776509 32.3579 0.936412V26.8483C32.3579 27.0083 32.4213 27.1616 32.5345 27.2747C32.6474 27.3877 32.8008 27.4513 32.9608 27.4513H40.7987C40.9587 27.4513 41.112 27.3877 41.2249 27.2747C41.3381 27.1616 41.4015 27.0083 41.4015 26.8483V18.4143H49.8426C50.0023 18.4143 50.1556 18.3507 50.2689 18.2377C50.3818 18.1246 50.4455 17.9712 50.4455 17.8113V9.97341Z" fill="#352610"/>
<path d="M8.16531 47.8052L12.1354 36.7139H8.55151L6.43516 43.1709L4.34973 36.7139H0.626831L4.59688 47.8052H8.16531Z" fill="#352610"/>
<path d="M13.7954 36.7139V47.8052H22.1372V44.8702H17.2403V43.65H21.2567V40.7921H17.2403V39.6488H22.1372V36.7139H13.7954Z" fill="#352610"/>
<path d="M34.5377 36.7139H31.1856V41.9661L27.6326 36.7139H24.2341V47.8052H27.5863V42.1668L31.5101 47.8052H34.5377V36.7139Z" fill="#352610"/>
<path d="M46.1918 39.6488V36.7139H36.4442V39.6488H39.5648V47.8052H43.0715V39.6488H46.1918Z" fill="#352610"/>
<path d="M52.9647 47.9908C56.0542 47.9908 57.9389 46.2761 57.9389 43.2174V36.7139H54.4321V43.1247C54.4321 44.3761 53.8915 44.9475 52.9647 44.9475C52.0379 44.9475 51.4972 44.3761 51.4972 43.1247V36.7139H47.9905V43.2174C47.9905 46.2761 49.8752 47.9908 52.9647 47.9908Z" fill="#352610"/>
<path d="M63.6128 44.4068H64.1689L66.1154 47.8052H70.1317L67.7064 43.8662C69.0042 43.2328 69.7456 42.0588 69.7456 40.5605C69.7456 38.1198 68.0001 36.7139 65.1576 36.7139H60.1061V47.8052H63.6128V44.4068ZM63.6128 41.6881V39.618H64.9722C65.8836 39.618 66.2854 40.0352 66.2854 40.6686C66.2854 41.2708 65.8836 41.6881 64.9722 41.6881H63.6128Z" fill="#352610"/>
<path d="M71.7517 36.7139V47.8052H80.0934V44.8702H75.1965V43.65H79.2131V40.7921H75.1965V39.6488H80.0934V36.7139H71.7517Z" fill="#352610"/>
<path d="M81.3683 46.3686C82.3413 47.3881 84.5505 47.9907 86.3114 47.9907C89.0148 47.9907 91.1929 46.6156 91.1929 44.1132C91.1929 41.6106 89.0148 41.1007 87.3309 40.7765C86.0487 40.5292 85.4465 40.4519 85.4465 39.9885C85.4465 39.5405 85.8945 39.3706 86.5278 39.3706C87.5319 39.3706 88.5822 39.7413 89.3547 40.483L91.0694 38.0885C90.1269 37.2236 88.5822 36.5283 86.6205 36.5283C84.0714 36.5283 82.0016 37.965 82.0016 40.3439C82.0016 42.6458 83.778 43.2945 85.3692 43.5725C87.0993 43.8814 87.7173 43.9433 87.7173 44.4685C87.7173 44.9165 87.2382 45.1481 86.466 45.1481C85.4 45.1481 84.1025 44.7312 83.0827 43.7425L81.3683 46.3686Z" fill="#352610"/>
</g>
<defs>
<clipPath id="clip0_61_187">
<rect width="90.566" height="48" fill="white" transform="translate(0.626831)"/>
</clipPath>
</defs>
</svg>
