<svg width="57" height="24" viewBox="0 0 57 24" fill="none" xmlns="http://www.w3.org/2000/svg">
<path d="M19.8615 13.91C19.8375 14.0214 19.8137 14.1373 19.7906 14.2583C19.7671 14.3805 19.741 14.4982 19.7125 14.6114C19.244 16.4592 18.1447 18.0662 16.6621 19.2613C15.4051 20.2743 13.9784 20.8695 12.3815 21.0469C12.171 21.0703 11.9364 21.0907 11.6785 21.1082C11.2047 21.14 10.6667 21.0929 10.1694 21.0307C8.75128 20.8538 7.47026 20.3449 6.3267 19.5033C5.50406 18.8976 4.79245 18.1644 4.19128 17.3036C3.43128 16.2148 2.95509 14.9531 2.78379 13.6263C2.72382 13.1618 2.69206 12.748 2.6882 12.3844C2.68553 12.0982 2.71284 11.7106 2.77073 11.2215C2.96548 9.57243 3.58981 8.10956 4.64342 6.83285C5.03499 6.35814 5.46724 5.92546 5.94017 5.53482C7.23246 4.46709 8.70704 3.84766 10.3645 3.67681C10.5486 3.65789 10.7341 3.64168 10.9208 3.62817C11.4021 3.59303 11.8777 3.63057 12.3589 3.68161C13.1097 3.76118 13.8323 3.93894 14.5264 4.21488C15.5459 4.61963 16.4736 5.24117 17.2841 6.02725C17.6973 6.4281 18.0574 6.83976 18.3647 7.26192C19.2336 8.45666 19.7508 9.78742 19.9156 11.2542C19.9194 11.2893 19.923 11.289 19.9256 11.2539C19.9334 11.1569 19.9444 11.0602 19.9589 10.9638C20.1878 9.43702 20.789 8.07653 21.7618 6.88179C22.208 6.33412 22.7023 5.84529 23.2447 5.41502C24.4972 4.42176 25.9282 3.84105 27.5381 3.6729C27.9531 3.62967 28.351 3.61045 28.7319 3.61555C28.8646 3.61736 29.1377 3.64138 29.5506 3.68732C31.0935 3.85937 32.4722 4.42085 33.6873 5.37178C34.1949 5.76903 34.6596 6.21371 35.0811 6.70614C36.176 7.98555 36.8333 9.44753 37.0533 11.0921C37.0642 11.1764 37.0714 11.2614 37.0746 11.3473C37.0749 11.3509 37.0764 11.3533 37.0794 11.3542C37.0803 11.3545 37.0815 11.3548 37.0824 11.3545C37.0865 11.3533 37.0889 11.3503 37.0895 11.3458C37.1082 11.1755 37.1307 11.0092 37.1572 10.8467C37.3552 9.62258 37.799 8.50381 38.4889 7.49042C39.0005 6.73887 39.6186 6.06899 40.3438 5.48018C41.596 4.46319 43.021 3.86507 44.6188 3.68582C44.9777 3.64558 45.3539 3.61015 45.7199 3.61435C45.9963 3.61766 46.3273 3.64048 46.7127 3.68341C48.1914 3.84826 49.5167 4.36621 50.6881 5.23726C51.609 5.92186 52.3747 6.73557 52.9848 7.67869C53.7905 8.92447 54.226 10.3495 54.3017 11.8421C54.3109 12.0232 54.3157 12.2219 54.3154 12.4384C54.3124 15.2708 54.3121 18.159 54.3142 21.1028C54.3142 21.113 54.3091 21.1181 54.2987 21.1181H50.0003C49.9943 21.1181 49.9893 21.113 49.9893 21.107C49.9872 18.1761 49.9875 15.3083 49.9908 12.5036C49.9911 12.2556 49.9845 12.058 49.9712 11.9106C49.9005 11.1275 49.6298 10.4201 49.1586 9.78832C48.5307 8.94579 47.6458 8.31704 46.618 8.09755C46.1225 7.99186 45.6145 7.97144 45.0947 8.0363C44.3433 8.12998 43.6664 8.41583 43.0647 8.89354C42.1182 9.6454 41.4942 10.6855 41.3838 11.9085C41.26 13.278 41.6616 14.4436 42.5888 15.4053C43.437 16.2848 44.4612 16.7268 45.6617 16.731C45.6712 16.731 45.676 16.7358 45.676 16.7454V21.1046C45.676 21.1139 45.6683 21.1214 45.6588 21.1211C45.3132 21.11 44.9662 21.0847 44.6173 21.0454C43.211 20.886 41.9428 20.4074 40.8126 19.6093C39.962 19.009 39.2299 18.2821 38.6157 17.4291C37.7592 16.2385 37.251 14.8949 37.0916 13.3975C37.0574 13.0771 37.0393 12.7405 37.0372 12.3871C37.0369 12.3772 37.0292 12.3691 37.0194 12.3691L32.8281 12.3694C32.818 12.3694 32.813 12.3643 32.813 12.3541C32.8109 11.4298 32.5583 10.6098 32.0557 9.89371C31.8191 9.55652 31.5341 9.24785 31.2001 8.96741C30.5817 8.44826 29.8757 8.13779 29.0822 8.0363C28.1093 7.91229 27.1109 8.09275 26.2779 8.6158C25.7682 8.93558 25.3243 9.35805 24.9464 9.8829C24.4367 10.5906 24.1819 11.4611 24.1816 12.33C24.1811 15.3576 24.1811 18.2833 24.1814 21.1076C24.1814 21.1133 24.1766 21.1181 24.171 21.1181H19.8692C19.8639 21.1181 19.8594 21.1136 19.8594 21.1079C19.8562 18.6418 19.8571 16.3742 19.8621 14.3048C19.8624 14.179 19.8633 14.0475 19.8645 13.9103C19.8648 13.9007 19.8636 13.9007 19.8615 13.91ZM10.4447 8.08794C9.49228 8.27741 8.67973 8.81337 8.04828 9.55082C7.42098 10.2835 7.08224 11.1365 7.03207 12.1099C6.96824 13.3473 7.3429 14.4111 8.15663 15.3017C8.93178 16.1506 9.90968 16.658 11.0675 16.7226C12.3444 16.7937 13.4336 16.3857 14.3352 15.499C14.9539 14.8904 15.3885 14.1565 15.5637 13.2999C15.6599 12.8294 15.6815 12.345 15.6284 11.8469C15.5485 11.096 15.287 10.4192 14.8443 9.81655C14.2034 8.94429 13.2902 8.29933 12.2333 8.08824C11.6381 7.96934 11.0417 7.96934 10.4447 8.08794Z" fill="#352610"/>
</svg>
