<svg width="48" height="48" viewBox="0 0 48 48" fill="none" xmlns="http://www.w3.org/2000/svg">
<path d="M19.0674 25.4116C19.9619 25.4116 20.8564 25.4116 21.778 25.4116C21.778 27.3124 21.778 29.2132 21.778 31.1716C25.5237 31.1716 29.2694 31.1716 33.1286 31.1716C33.1286 29.2708 33.1286 27.37 33.1286 25.4116C34.9735 25.4116 36.8183 25.4116 38.7191 25.4116C38.7191 26.362 38.7191 27.3124 38.7191 28.2916C39.6695 28.2916 40.6199 28.2916 41.5991 28.2916C41.5991 30.1365 41.5991 31.9814 41.5991 33.8822C40.6487 33.8822 39.6983 33.8822 38.7191 33.8822C38.7191 35.7271 38.7191 37.572 38.7191 39.4728C37.8247 39.4728 36.9302 39.4728 36.0086 39.4728C36.0086 40.4232 36.0086 41.3736 36.0086 42.3528C34.1637 42.3528 32.3188 42.3528 30.418 42.3528C30.418 43.3032 30.418 44.2536 30.418 45.2328C26.6164 45.2328 22.8148 45.2328 18.898 45.2328C18.898 44.2824 18.898 43.332 18.898 42.3528C17.0531 42.3528 15.2082 42.3528 13.3074 42.3528C13.3074 41.4024 13.3074 40.452 13.3074 39.4728C12.4129 39.4728 11.5184 39.4728 10.5968 39.4728C10.5968 37.6279 10.5968 35.783 10.5968 33.8822C9.6464 33.8822 8.696 33.8822 7.7168 33.8822C7.7168 32.9877 7.7168 32.0932 7.7168 31.1716C11.4625 31.1716 15.2082 31.1716 19.0674 31.1716C19.0674 29.2708 19.0674 27.37 19.0674 25.4116Z" fill="#352610" fill-opacity="0.5"/>
<path d="M7.7168 19.6519C11.4625 19.6519 15.2082 19.6519 19.0674 19.6519C19.0674 20.6023 19.0674 21.5527 19.0674 22.5319C19.9619 22.5319 20.8564 22.5319 21.778 22.5319C21.778 21.5815 21.778 20.6311 21.778 19.6519C25.5237 19.6519 29.2694 19.6519 33.1286 19.6519C33.1286 20.6023 33.1286 21.5527 33.1286 22.5319C35.9239 22.5319 38.7191 22.5319 41.5991 22.5319C41.5991 24.4327 41.5991 26.3335 41.5991 28.2919C40.6487 28.2919 39.6983 28.2919 38.7191 28.2919C38.7191 27.3415 38.7191 26.3911 38.7191 25.4119C36.8743 25.4119 35.0294 25.4119 33.1286 25.4119C33.1286 27.3127 33.1286 29.2135 33.1286 31.1719C29.3829 31.1719 25.6372 31.1719 21.778 31.1719C21.778 29.2711 21.778 27.3703 21.778 25.4119C20.8835 25.4119 19.989 25.4119 19.0674 25.4119C19.0674 27.3127 19.0674 29.2135 19.0674 31.1719C15.3217 31.1719 11.576 31.1719 7.7168 31.1719C7.7168 27.3703 7.7168 23.5687 7.7168 19.6519Z" fill="#352610" fill-opacity="0.8"/>
<path d="M13.3073 2.71045C14.2577 2.71045 15.2081 2.71045 16.1873 2.71045C16.1873 3.66085 16.1873 4.61125 16.1873 5.59045C17.1377 5.59045 18.0881 5.59045 19.0673 5.59045C19.0673 6.54085 19.0673 7.49125 19.0673 8.47045C19.9618 8.47045 20.8563 8.47045 21.7779 8.47045C21.7712 7.58601 21.7712 7.58601 21.7626 6.70159C21.7614 6.38764 21.7693 6.0737 21.7779 5.75986C21.9473 5.59045 21.9473 5.59045 22.5568 5.57391C22.8089 5.57488 23.061 5.57708 23.3132 5.57986C23.7569 5.58336 24.2007 5.58685 24.6579 5.59045C24.6579 4.64005 24.6579 3.68965 24.6579 2.71045C25.6083 2.71045 26.5587 2.71045 27.5379 2.71045C27.5379 3.71676 27.5379 4.72306 27.5379 5.75986C26.5875 5.75986 25.6371 5.75986 24.6579 5.75986C24.6579 7.60476 24.6579 9.44965 24.6579 11.3504C26.5028 11.3504 28.3476 11.3504 30.2484 11.3504C30.2484 12.2449 30.2484 13.1394 30.2484 14.061C32.1492 14.061 34.05 14.061 36.0084 14.061C36.0084 15.0114 36.0084 15.9618 36.0084 16.941C36.9029 16.941 37.7974 16.941 38.719 16.941C38.719 18.7859 38.719 20.6308 38.719 22.5316C36.8741 22.5316 35.0292 22.5316 33.1284 22.5316C33.1284 21.5812 33.1284 20.6308 33.1284 19.6516C29.3828 19.6516 25.6371 19.6516 21.7779 19.6516C21.7779 20.602 21.7779 21.5524 21.7779 22.5316C20.8834 22.5316 19.9889 22.5316 19.0673 22.5316C19.0673 21.5812 19.0673 20.6308 19.0673 19.6516C16.272 19.6516 13.4767 19.6516 10.5967 19.6516C10.5967 18.7571 10.5967 17.8626 10.5967 16.941C11.4912 16.941 12.3857 16.941 13.3073 16.941C13.3073 15.9906 13.3073 15.0402 13.3073 14.061C15.1522 14.061 16.9971 14.061 18.8979 14.061C18.8979 12.2161 18.8979 10.3712 18.8979 8.47045C18.0034 8.47045 17.1089 8.47045 16.1873 8.47045C16.1873 7.57596 16.1873 6.68146 16.1873 5.75986C15.2369 5.75986 14.2865 5.75986 13.3073 5.75986C13.3073 4.75356 13.3073 3.74725 13.3073 2.71045Z" fill="#352610" fill-opacity="0.5"/>
<path d="M13.4768 22.5317C14.3713 22.5317 15.2658 22.5317 16.1874 22.5317C16.1874 24.4325 16.1874 26.3333 16.1874 28.2917C15.2929 28.2917 14.3984 28.2917 13.4768 28.2917C13.4768 26.3909 13.4768 24.4901 13.4768 22.5317Z" fill="#FAF9FE"/>
<path d="M27.5378 22.7012C28.4323 22.7012 29.3268 22.7012 30.2484 22.7012C30.2484 24.4902 30.2484 26.2791 30.2484 28.1223C29.3539 28.1223 28.4594 28.1223 27.5378 28.1223C27.5378 26.3334 27.5378 24.5444 27.5378 22.7012Z" fill="white"/>
<path d="M24.658 22.7012C25.5525 22.7012 26.4469 22.7012 27.3685 22.7012C27.3685 24.4902 27.3685 26.2791 27.3685 28.1223C26.4741 28.1223 25.5796 28.1223 24.658 28.1223C24.658 26.3334 24.658 24.5444 24.658 22.7012Z" fill="#352610"/>
<path d="M10.5967 22.7012C11.4912 22.7012 12.3857 22.7012 13.3073 22.7012C13.3073 24.4902 13.3073 26.2791 13.3073 28.1223C12.4128 28.1223 11.5183 28.1223 10.5967 28.1223C10.5967 26.3334 10.5967 24.5444 10.5967 22.7012Z" fill="#352610"/>
<path fill-rule="evenodd" clip-rule="evenodd" d="M27.5484 35.227L27.5378 33.8823H24.6578V36.5929H16.1873V36.7623V39.4729H24.6578V36.7786L24.906 36.7789C25.2681 36.7802 25.6302 36.7815 25.9923 36.7816L26.3228 36.7816L26.9236 36.7827C27.2056 36.7698 27.3088 36.7651 27.3898 36.7202C27.4353 36.6949 27.4738 36.657 27.5331 36.5977C27.5346 36.5961 27.5362 36.5945 27.5378 36.5929C27.5389 36.5537 27.54 36.5145 27.541 36.4752C27.5482 36.2006 27.5542 35.9259 27.5531 35.6512L27.5484 35.227Z" fill="#352610"/>
<path d="M24.658 2.87988C25.5525 2.87988 26.4469 2.87988 27.3685 2.87988C27.3685 3.77438 27.3685 4.66887 27.3685 5.59047C26.4741 5.59047 25.5796 5.59047 24.658 5.59047C24.658 4.69598 24.658 3.80148 24.658 2.87988Z" fill="#352610"/>
<path fill-rule="evenodd" clip-rule="evenodd" d="M13.3074 2.71045H16.1874V2.88008H16.1874V5.59045H19.0674V8.47045H21.778C21.7746 8.02823 21.7729 7.80712 21.771 7.58601C21.7691 7.36491 21.767 7.1438 21.7627 6.70159C21.7615 6.38764 21.7694 6.0737 21.778 5.75986C21.8296 5.70824 21.8655 5.67235 21.9077 5.64692C22.004 5.58891 22.1331 5.58541 22.5569 5.57391C22.809 5.57488 23.0611 5.57708 23.3133 5.57986L24.658 5.59045V2.71045H27.538V5.75986H24.658V11.3504H21.9474V16.941H18.898V8.47055H16.1874L16.1874 8.47045L16.1874 5.75996L16.1874 5.75986H13.3074V2.71045Z" fill="#352610"/>
</svg>
