<svg width="60" height="48" viewBox="0 0 60 48" fill="none" xmlns="http://www.w3.org/2000/svg">
<g clip-path="url(#clip0_61_582)">
<path d="M0.249756 47.1601L1.50653 47.0653V36.4328L0.249756 36.338V36.1787H5.39103C7.23615 36.1787 8.76454 37.1335 8.76454 39.0283C8.76454 41.0972 6.91942 41.7978 4.88188 42.2913H3.20986V47.0662L4.56239 47.161V47.3203H0.249756V47.161V47.1601ZM4.46663 42.0667C5.93149 42.0667 6.93415 40.8412 6.93415 39.1701C6.93415 37.6261 6.29794 36.3371 4.68945 36.3371L3.20986 36.4319V42.0658H4.46663V42.0667Z" fill="#352610"/>
<path d="M9.13471 45.6805C9.13471 45.1391 9.29399 44.5508 9.99374 44.026L13.416 42.9276V41.8448C13.416 40.9222 13.3838 40.2059 12.0635 40.2059C11.7449 40.2059 11.57 40.2529 11.1244 40.3809L10.7745 42.179H9.37318V40.9858L12.3655 39.6646C14.4353 39.6646 14.9601 40.3965 14.9601 42.0207V45.4899C14.9601 45.9991 15.0715 46.4613 15.2464 46.9382L16.0741 46.8277L16.1055 46.9861L13.7816 47.4317L13.4639 46.0635L11.2514 47.5588C10.0103 47.5588 9.13379 46.8903 9.13379 45.6805H9.13471ZM13.0183 46.1897L13.416 45.8867V43.0703L11.4742 43.8179C11.0286 44.1687 10.7423 44.63 10.7423 45.2828C10.7423 46.1105 11.187 46.6353 11.8241 46.6353C12.2697 46.6353 12.7467 46.3803 13.0174 46.1897H13.0183Z" fill="#352610"/>
<path d="M16.7324 47.1601L17.7185 47.0652V40.2694L16.6845 40.5079L16.668 40.3495L19.0084 39.7446H19.1677L19.2147 42.2278L20.7909 39.7446H21.8267V41.3688H20.012L19.2322 42.4506V47.0662L20.6639 47.161V47.3203H16.7333V47.161L16.7324 47.1601Z" fill="#352610"/>
<path d="M22.4482 45.6805C22.4482 45.1391 22.6075 44.5508 23.3072 44.026L26.7295 42.9276V41.8448C26.7295 40.9222 26.6973 40.2059 25.377 40.2059C25.0584 40.2059 24.8835 40.2529 24.4379 40.3809L24.088 42.179H22.6867V40.9858L25.679 39.6646C27.7487 39.6646 28.2736 40.3965 28.2736 42.0207V45.4899C28.2736 45.9991 28.385 46.4613 28.5599 46.9382L29.3876 46.8277L29.4189 46.9861L27.095 47.4317L26.7774 46.0635L24.5649 47.5588C23.3238 47.5588 22.4473 46.8903 22.4473 45.6805H22.4482ZM26.3318 46.1897L26.7295 45.8867V43.0703L24.7868 43.8179C24.3421 44.1687 24.0558 44.63 24.0558 45.2828C24.0558 46.1105 24.5005 46.6353 25.1376 46.6353C25.5832 46.6353 26.0602 46.3803 26.3308 46.1897H26.3318Z" fill="#352610"/>
<path d="M30.0452 47.1602L31.0313 47.0653V40.2695L29.9973 40.508L29.9807 40.3496L32.3847 39.7447H32.544V41.448L35.2969 39.6655C36.4902 39.6655 37.0647 40.2704 37.0804 41.448L39.8342 39.6655C41.2972 39.6655 41.6158 40.4454 41.6158 41.9738V47.0672L42.7612 47.162V47.3213H39.3241V47.162L40.0718 47.0672V41.9259C40.0718 40.9389 39.7532 40.6369 39.1013 40.6369C38.5756 40.6369 38.0655 40.9868 37.6199 41.2574L37.0794 41.6239V47.0672L37.8271 47.162V47.3213H34.7869V47.162L35.5363 47.0672V41.9259C35.5363 40.9389 35.2177 40.6369 34.564 40.6369C34.0392 40.6369 33.5144 40.9868 33.0844 41.2574L32.544 41.6239V47.0672L33.2916 47.162V47.3213H30.0452V47.162V47.1602Z" fill="#352610"/>
<path d="M43.5649 47.1601L44.551 47.0652V40.2694L43.5171 40.5079L43.5005 40.3495L45.9045 39.7446H46.0638V47.0662L47.0498 47.161V47.3203H43.5649V47.161V47.1601Z" fill="#352610"/>
<path d="M48.4686 45.585V40.1417H47.291V39.9834H48.4686V38.7736L49.9657 37.8979V39.9834H52.2086V40.1417H49.9657V45.5371C49.9657 46.2691 50.3312 46.6033 50.9205 46.6033C51.4609 46.6033 51.843 46.4597 52.32 46.2056L52.4001 46.3492L50.171 47.5581C48.7872 47.5581 48.4677 46.7304 48.4677 45.585H48.4686Z" fill="#352610"/>
<path d="M52.9599 45.6805C52.9599 45.1391 53.1192 44.5508 53.8189 44.026L57.2412 42.9276V41.8448C57.2412 40.9222 57.209 40.2059 55.8887 40.2059C55.5701 40.2059 55.3952 40.2529 54.9496 40.3809L54.5997 42.179H53.1984V40.9858L56.1907 39.6646C58.2605 39.6646 58.7853 40.3965 58.7853 42.0207V45.4899C58.7853 45.9991 58.8967 46.4613 59.0716 46.9382L59.8993 46.8277L59.9306 46.9861L57.6068 47.4317L57.2891 46.0635L55.0766 47.5588C53.8355 47.5588 52.959 46.8903 52.959 45.6805H52.9599ZM56.8435 46.1897L57.2412 45.8867V43.0703L55.2994 43.8179C54.8538 44.1687 54.5675 44.63 54.5675 45.2828C54.5675 46.1105 55.0122 46.6353 55.6493 46.6353C56.0949 46.6353 56.5719 46.3803 56.8426 46.1897H56.8435Z" fill="#352610"/>
<path d="M46.4028 36.8761L45.1755 35.6489L43.9483 36.8761L45.1755 38.1034L46.4028 36.8761Z" fill="#352610"/>
<g style="mix-blend-mode:soft-light">
<path d="M30.0608 2.62695H28.0278V8.51033H30.0608V2.62695Z" fill="url(#paint0_linear_61_582)"/>
<path d="M30.0608 20.4741H28.0278V26.3566H30.0608V20.4741Z" fill="url(#paint1_linear_61_582)"/>
<path d="M40.9095 13.4756H35.0261V15.5085H40.9095V13.4756Z" fill="url(#paint2_linear_61_582)"/>
<path d="M23.0623 13.4756H17.179V15.5085H23.0623V13.4756Z" fill="url(#paint3_linear_61_582)"/>
<path d="M21.8384 5.59765L19.5415 7.89453L21.8384 10.1914L24.1353 7.89453L21.8384 5.59765Z" fill="#352610"/>
<path d="M36.2483 5.59667L33.9514 7.89355L36.2483 10.1904L38.5452 7.89355L36.2483 5.59667Z" fill="#352610"/>
<path d="M21.8389 18.792L19.542 21.0889L21.8389 23.3858L24.1358 21.0889L21.8389 18.792Z" fill="#352610"/>
<path d="M36.249 18.792L33.9521 21.0889L36.249 23.3858L38.5459 21.0889L36.249 18.792Z" fill="#352610"/>
</g>
</g>
<defs>
<linearGradient id="paint0_linear_61_582" x1="29.0443" y1="8.50941" x2="29.0443" y2="2.62695" gradientUnits="userSpaceOnUse">
<stop stop-color="#352610"/>
<stop offset="1" stop-color="#352610" stop-opacity="0"/>
</linearGradient>
<linearGradient id="paint1_linear_61_582" x1="-6.73839" y1="20.4741" x2="-6.64631" y2="26.3566" gradientUnits="userSpaceOnUse">
<stop stop-color="#352610"/>
<stop offset="1" stop-color="#352610" stop-opacity="0"/>
</linearGradient>
<linearGradient id="paint2_linear_61_582" x1="35.0261" y1="14.4921" x2="40.9095" y2="14.4921" gradientUnits="userSpaceOnUse">
<stop stop-color="#352610"/>
<stop offset="1" stop-opacity="0"/>
</linearGradient>
<linearGradient id="paint3_linear_61_582" x1="23.0614" y1="14.4921" x2="17.179" y2="14.4921" gradientUnits="userSpaceOnUse">
<stop stop-color="#493518"/>
<stop offset="1" stop-color="#493518" stop-opacity="0"/>
</linearGradient>
<clipPath id="clip0_61_582">
<rect width="59.4783" height="48" fill="white" transform="translate(0.289551)"/>
</clipPath>
</defs>
</svg>
