<svg width="57" height="57" viewBox="0 0 57 57" fill="none" xmlns="http://www.w3.org/2000/svg">
<path d="M40.38 37.49L52.003 30.745C52.3061 30.5679 52.5576 30.3146 52.7325 30.0103C52.9074 29.7059 52.9996 29.3611 53 29.01V15.52C53 14.807 52.62 14.143 52.003 13.784L40.38 7.03902C40.0771 6.864 39.7334 6.77185 39.3835 6.77185C39.0336 6.77185 38.6899 6.864 38.387 7.03902L26.764 13.784C26.4608 13.9612 26.2092 14.2147 26.0343 14.5192C25.8594 14.8238 25.7672 15.1688 25.767 15.52V39.626L17.617 44.353L9.465 39.626V30.168L17.616 25.441L22.991 28.561V22.216L18.613 19.673C18.3098 19.4983 17.966 19.4063 17.616 19.406C17.266 19.4063 16.9222 19.4983 16.619 19.673L4.997 26.418C4.69376 26.5952 4.44217 26.8487 4.26726 27.1532C4.09235 27.4578 4.00021 27.8028 4 28.154V41.644C4 42.357 4.38 43.021 4.997 43.38L16.619 50.124C16.9223 50.2984 17.2661 50.3902 17.616 50.3902C17.9659 50.3902 18.3097 50.2984 18.613 50.124L30.236 43.38C30.5392 43.2028 30.7908 42.9494 30.9657 42.6448C31.1406 42.3403 31.2328 41.9952 31.233 41.644V17.537L31.378 17.453L39.38 12.809L47.531 17.537V26.995L39.381 31.722L34.011 28.609V34.954L38.383 37.489C38.6863 37.6634 39.0301 37.7552 39.38 37.7552C39.7299 37.7552 40.0737 37.6634 40.377 37.489L40.38 37.49Z" fill="#352610"/>
</svg>
