<svg width="197" height="49" viewBox="0 0 197 49" fill="none" xmlns="http://www.w3.org/2000/svg">
<path d="M64.5701 41.5966V16.7269H68.2729L68.6255 18.7344H68.8018C69.8598 17.3594 71.6576 16.3745 74.1608 16.3745C78.742 16.3745 82.4102 20.1094 82.4102 25.6377C82.4102 31.166 78.7452 34.9009 74.1608 34.9009C71.6923 34.9009 69.9668 33.8783 69.0506 32.7172H68.8742V41.5934H64.5732L64.5701 41.5966ZM78.106 25.6408C78.106 22.4 76.0248 20.3579 73.487 20.3579C70.9492 20.3579 68.8679 22.4 68.8679 25.6408C68.8679 28.8817 70.9492 30.9238 73.487 30.9238C76.0248 30.9238 78.106 28.8817 78.106 25.6408Z" fill="black"/>
<path d="M84.5916 25.6414C84.5916 20.2515 88.4675 16.3782 93.6502 16.3782C98.8328 16.3782 102.709 20.2515 102.709 25.6414C102.709 31.0313 98.8328 34.9046 93.6502 34.9046C88.4675 34.9046 84.5916 30.9935 84.5916 25.6414ZM98.3731 25.6414C98.3731 22.4697 96.2572 20.3585 93.6502 20.3585C91.0431 20.3585 88.8926 22.4729 88.8926 25.6414C88.8926 28.8099 91.0431 30.8897 93.6502 30.8897C96.2572 30.8897 98.3731 28.813 98.3731 25.6414Z" fill="black"/>
<path d="M105.826 34.5519V9.89624H110.127V34.5551H105.826V34.5519Z" fill="black"/>
<path d="M126.094 16.7268H130.675L122.92 38.3902C122.146 40.5392 121.088 41.5965 118.301 41.5965H114.142V37.6162H117.668C118.304 37.6162 118.654 37.2984 118.868 36.7698L119.29 35.6087L112.029 16.7268H116.61L121.229 29.0924H121.935L126.094 16.7268Z" fill="black"/>
<path d="M131.497 35.4329H135.868C136.044 36.5939 137.206 38.1798 139.958 38.1798C142.53 38.1798 144.224 36.5593 144.224 34.0925V31.5911H144.048C143.097 32.6137 141.334 33.5293 139.076 33.5293C134.495 33.5293 130.969 30.0052 130.969 24.9331C130.969 19.861 134.495 16.3748 139.076 16.3748C141.438 16.3748 143.166 17.325 144.259 18.6654H144.435L144.788 16.7272H148.525V34.0925C148.525 38.8122 145.351 41.9492 139.958 41.9492C133.931 41.9492 131.605 38.0036 131.497 35.4329ZM144.224 24.9363C144.224 22.1548 142.25 20.2166 139.747 20.2166C137.244 20.2166 135.304 22.1548 135.304 24.9363C135.304 27.7178 137.278 29.6906 139.747 29.6906C142.215 29.6906 144.224 27.7524 144.224 24.9363Z" fill="black"/>
<path d="M151.513 25.6411C151.513 20.2512 155.389 16.3779 160.571 16.3779C165.754 16.3779 169.63 20.2512 169.63 25.6411C169.63 31.031 165.754 34.9043 160.571 34.9043C155.389 34.9043 151.513 30.9933 151.513 25.6411ZM165.294 25.6411C165.294 22.4695 163.178 20.3582 160.571 20.3582C157.964 20.3582 155.814 22.4726 155.814 25.6411C155.814 28.8096 157.964 30.8894 160.571 30.8894C163.178 30.8894 165.294 28.8128 165.294 25.6411Z" fill="black"/>
<path d="M172.625 34.5519V16.7272H176.325L176.677 18.4168H176.854C177.559 17.6082 179.322 16.3748 181.998 16.3748C186.088 16.3748 189.048 19.3324 189.048 23.8413V34.5487H184.747V24.4045C184.747 22.1139 183.126 20.4589 180.906 20.4589C178.686 20.4589 176.923 22.1863 176.923 24.4045V34.5487H172.622L172.625 34.5519Z" fill="black"/>
<path d="M39.5383 32.4721L50.1114 26.3711C50.6718 26.047 51.0182 25.446 51.0182 24.801V12.599C51.0182 11.954 50.6718 11.353 50.1114 11.0289L39.5383 4.92792C38.9778 4.60384 38.282 4.60698 37.7247 4.92792L27.1516 11.0289C26.5912 11.353 26.2448 11.954 26.2448 12.599V34.404L18.8298 38.68L11.4148 34.404V25.8488L18.8298 21.5727L23.7196 24.3951V18.6559L19.7366 16.3559C19.4627 16.1986 19.1478 16.1136 18.8298 16.1136C18.5118 16.1136 18.1969 16.1986 17.923 16.3559L7.34992 22.4569C6.78946 22.781 6.44312 23.3819 6.44312 24.027V36.229C6.44312 36.874 6.78946 37.4749 7.34992 37.799L17.923 43.9C18.4835 44.221 19.1762 44.221 19.7366 43.9L30.3097 37.799C30.8701 37.4749 31.2165 36.874 31.2165 36.229V14.4208L31.3487 14.3453L38.6283 10.1448L46.0434 14.4208V22.976L38.6283 27.2521L33.7448 24.436V30.1752L37.7215 32.4689C38.282 32.7899 38.9778 32.7899 39.5352 32.4689L39.5383 32.4721Z" fill="black"/>
</svg>
