<svg width="108" height="40" viewBox="0 0 108 40" fill="none" xmlns="http://www.w3.org/2000/svg">
<g clip-path="url(#clip0_6606_979)">
<path d="M33.8551 3.41174C34.4336 4.05632 34.6339 4.75653 34.599 5.61509C34.4582 6.69465 34.0921 7.77153 33.3106 8.55304C33.4158 8.55345 33.521 8.55387 33.6294 8.55429C34.6249 8.55859 35.6202 8.56504 36.6156 8.57385C37.1273 8.5783 37.6389 8.58195 38.1506 8.5837C38.6451 8.58543 39.1396 8.58934 39.6341 8.59472C39.822 8.59638 40.0099 8.59729 40.1978 8.59738C42.3975 8.59963 42.3975 8.59963 43.3174 9.34112C43.3757 9.41478 43.434 9.48844 43.4942 9.56433C43.5852 9.67438 43.5852 9.67438 43.678 9.78665C44.1291 10.4748 44.1404 11.1464 44.0599 11.9476C43.8687 12.701 43.4708 13.2292 42.8153 13.6448C42.3444 13.8769 41.9216 13.9023 41.4063 13.8968C41.3234 13.8969 41.2405 13.8969 41.1552 13.8969C40.8827 13.8968 40.6103 13.895 40.3379 13.8932C40.1484 13.8928 39.959 13.8925 39.7695 13.8923C39.2719 13.8914 38.7743 13.8892 38.2767 13.8867C37.7685 13.8844 37.2604 13.8833 36.7522 13.8822C35.7558 13.8798 34.7595 13.8759 33.7632 13.8711C33.7992 13.9554 33.8352 14.0397 33.8723 14.1266C34.0466 14.5881 34.0828 14.9758 33.9895 15.4552C33.8586 15.7433 33.7239 16.023 33.5793 16.3039C33.2289 16.961 33.2289 16.961 33.2611 17.6829C33.302 17.7989 33.302 17.7989 33.3437 17.9172C33.5559 18.5901 33.5348 19.3841 33.2328 20.0237C33.0692 20.3086 32.9123 20.4955 32.6812 20.738C32.3818 21.0701 32.3239 21.4008 32.2356 21.8341C32.0246 22.8647 31.5869 23.577 30.7081 24.1679C28.5003 25.4964 25.5526 25.4477 23.127 24.8468C22.3549 24.6445 21.596 24.4093 20.8657 24.0857C20.7918 24.0535 20.7179 24.0213 20.6417 23.9881C20.4389 23.898 20.2381 23.8035 20.0374 23.7086C19.4638 23.5625 19.0505 23.676 18.4878 23.8284C18.3805 23.8566 18.2732 23.8847 18.1627 23.9137C17.7091 24.0347 17.2566 24.1593 16.8049 24.287C16.6944 24.317 16.5839 24.3469 16.4701 24.3778C16.3712 24.4054 16.2724 24.433 16.1705 24.4614C15.76 24.5275 15.4494 24.4766 15.0981 24.2536C13.5646 22.9041 12.6098 21.0456 12.4704 19.0038C12.3227 15.8808 13.146 13.1334 14.5275 10.3635C15.4865 10.3478 16.4294 10.3932 17.3846 10.4766C17.5134 10.4874 17.6422 10.4982 17.7749 10.5093C18.088 10.5356 18.4011 10.5624 18.7141 10.5898C18.7346 10.5235 18.7551 10.4572 18.7762 10.3889C19.3431 8.61291 20.5139 7.46599 22.1431 6.60516C23.6384 5.8591 25.2738 5.58328 26.9213 5.4233C28.5175 5.26394 29.7457 4.74352 31.0476 3.8007C31.2354 3.67001 31.4239 3.54025 31.6133 3.41174C31.6903 3.35821 31.7673 3.30468 31.8467 3.24953C32.5147 2.86029 33.2089 3.05273 33.8551 3.41174Z" fill="#9CA3AF"/>
<path d="M33.8551 3.41174C34.4336 4.05632 34.6339 4.75653 34.599 5.61509C34.4582 6.69465 34.0921 7.77153 33.3106 8.55304C33.4158 8.55345 33.521 8.55387 33.6294 8.55429C34.6249 8.55859 35.6202 8.56504 36.6156 8.57385C37.1273 8.5783 37.6389 8.58195 38.1506 8.5837C38.6451 8.58543 39.1396 8.58934 39.6341 8.59472C39.822 8.59638 40.0099 8.59729 40.1978 8.59738C42.3975 8.59963 42.3975 8.59963 43.3174 9.34112C43.3757 9.41478 43.434 9.48844 43.4942 9.56433C43.5852 9.67438 43.5852 9.67438 43.678 9.78665C44.1291 10.4748 44.1404 11.1464 44.0599 11.9476C43.8687 12.701 43.4708 13.2292 42.8153 13.6448C42.3444 13.8769 41.9216 13.9023 41.4063 13.8968C41.3234 13.8969 41.2405 13.8969 41.1552 13.8969C40.8827 13.8968 40.6103 13.895 40.3379 13.8932C40.1484 13.8928 39.959 13.8925 39.7695 13.8923C39.2719 13.8914 38.7743 13.8892 38.2767 13.8867C37.7685 13.8844 37.2604 13.8833 36.7522 13.8822C35.7558 13.8798 34.7595 13.8759 33.7632 13.8711C33.7992 13.9554 33.8352 14.0397 33.8723 14.1266C34.0466 14.5881 34.0828 14.9758 33.9895 15.4552C33.8586 15.7433 33.7239 16.023 33.5793 16.3039C33.2289 16.961 33.2289 16.961 33.2611 17.6829C33.302 17.7989 33.302 17.7989 33.3437 17.9172C33.5559 18.5901 33.5348 19.3841 33.2328 20.0237C33.0692 20.3086 32.9123 20.4955 32.6812 20.738C32.3818 21.0701 32.3239 21.4008 32.2356 21.8341C32.0246 22.8647 31.5869 23.577 30.7081 24.1679C28.5003 25.4964 25.5526 25.4477 23.127 24.8468C22.3549 24.6445 21.596 24.4093 20.8657 24.0857C20.7918 24.0535 20.7179 24.0213 20.6417 23.9881C20.4389 23.898 20.2381 23.8035 20.0374 23.7086C19.4638 23.5625 19.0505 23.676 18.4878 23.8284C18.3805 23.8566 18.2732 23.8847 18.1627 23.9137C17.7091 24.0347 17.2566 24.1593 16.8049 24.287C16.6944 24.317 16.5839 24.3469 16.4701 24.3778C16.3712 24.4054 16.2724 24.433 16.1705 24.4614C15.76 24.5275 15.4494 24.4766 15.0981 24.2536C13.5646 22.9041 12.6098 21.0456 12.4704 19.0038C12.3227 15.8808 13.146 13.1334 14.5275 10.3635C15.4865 10.3478 16.4294 10.3932 17.3846 10.4766C17.5134 10.4874 17.6422 10.4982 17.7749 10.5093C18.088 10.5356 18.4011 10.5624 18.7141 10.5898C18.7346 10.5235 18.7551 10.4572 18.7762 10.3889C19.3431 8.61291 20.5139 7.46599 22.1431 6.60516C23.6384 5.8591 25.2738 5.58328 26.9213 5.4233C28.5175 5.26394 29.7457 4.74352 31.0476 3.8007C31.2354 3.67001 31.4239 3.54025 31.6133 3.41174C31.6903 3.35821 31.7673 3.30468 31.8467 3.24953C32.5147 2.86029 33.2089 3.05273 33.8551 3.41174ZM31.8113 4.70591C30.0265 6.10299 28.0979 6.55517 25.8813 6.77536C23.9053 6.9771 22.0915 7.68099 20.7084 9.15416C19.9515 10.1109 19.5984 11.115 19.6122 12.3153C19.6127 12.3996 19.6133 12.4839 19.6138 12.5708C19.6151 12.7779 19.6171 12.9851 19.6193 13.1922C19.2459 13.1922 18.8725 13.1922 18.4878 13.1922C18.4891 13.0955 18.4904 12.9988 18.4918 12.8992C18.4928 12.7742 18.4938 12.6492 18.4949 12.5204C18.4962 12.3957 18.4975 12.271 18.4988 12.1425C18.5232 11.8441 18.5232 11.8441 18.3746 11.7213C18.077 11.6938 17.7819 11.6731 17.4836 11.6576C17.3969 11.6528 17.3103 11.648 17.2211 11.6431C16.549 11.608 15.8793 11.5978 15.2064 11.6081C14.6382 12.948 14.1488 14.255 13.8486 15.6816C13.8191 15.8119 13.8191 15.8119 13.7891 15.9449C13.4281 17.9811 13.6228 20.1377 14.6902 21.919C14.8207 22.1056 14.9548 22.2898 15.0933 22.4706C15.1506 22.5467 15.2079 22.6229 15.267 22.7013C15.4447 22.9232 15.4447 22.9232 15.7722 23.1495C16.4179 23.1065 17.0383 22.924 17.6613 22.757C17.7643 22.7298 17.8673 22.7026 17.9734 22.6746C18.3006 22.5882 18.6276 22.5011 18.9545 22.414C19.2823 22.327 19.6102 22.2402 19.9381 22.1535C20.1415 22.0996 20.3449 22.0456 20.5482 21.9914C20.6408 21.9668 20.7333 21.9423 20.8287 21.917C20.9094 21.8955 20.9902 21.874 21.0734 21.8518C21.3411 21.7856 21.6119 21.7326 21.8823 21.6786C21.957 22.052 22.0317 22.4253 22.1086 22.8101C21.8846 22.8474 21.6605 22.8847 21.4297 22.9232C23.1482 24.0688 25.8795 24.2002 27.8546 23.8598C28.8625 23.654 29.8988 23.3813 30.6515 22.6474C30.8853 22.248 31.0179 21.8744 31.0873 21.4156C31.2057 20.6578 31.4604 20.2211 31.9528 19.6418C32.1901 19.2858 32.2077 19.1992 32.2003 18.7932C32.1995 18.7057 32.1988 18.6182 32.1981 18.528C32.1873 18.2633 32.1873 18.2633 32.0659 17.9446C31.9531 17.0189 32.0822 16.4112 32.5963 15.6329C32.7754 15.2822 32.7847 15.0522 32.7448 14.6632C32.4358 14.2353 32.1101 14.1251 31.6133 13.9843C31.3548 13.9531 31.0953 13.9295 30.8354 13.9136C30.705 13.9051 30.5746 13.8966 30.4402 13.8879C30.2928 13.8796 30.2928 13.8796 30.1423 13.8711C30.1423 13.4977 30.1423 13.1243 30.1423 12.7396C30.357 12.7408 30.357 12.7408 30.5759 12.7419C31.9245 12.7488 33.273 12.7539 34.6216 12.7572C35.3149 12.759 36.0082 12.7614 36.7015 12.7652C37.3706 12.7689 38.0397 12.771 38.7088 12.7718C38.964 12.7725 39.2193 12.7737 39.4745 12.7755C39.8321 12.778 40.1896 12.7783 40.5472 12.7782C40.6527 12.7794 40.7582 12.7806 40.8668 12.7819C41.5928 12.7784 42.0751 12.6575 42.6314 12.1597C42.8885 11.7049 42.8905 11.3272 42.8153 10.8161C42.6696 10.4439 42.5417 10.2967 42.2168 10.068C41.5813 9.83021 40.9698 9.86655 40.2968 9.87232C40.144 9.87241 39.9912 9.87236 39.8383 9.87217C39.4248 9.87207 39.0113 9.87406 38.5978 9.87643C38.1652 9.87856 37.7325 9.87876 37.2999 9.87916C36.4812 9.88021 35.6625 9.883 34.8438 9.8864C33.9115 9.8902 32.9792 9.89207 32.0469 9.89377C30.1297 9.89732 28.2124 9.90328 26.2952 9.91085C26.3512 9.35075 26.3512 9.35075 26.4084 8.77934C26.5391 8.79743 26.6697 8.81552 26.8044 8.83415C28.5399 9.04919 30.6938 9.02472 32.1791 7.98729C32.8923 7.39496 33.2282 6.54334 33.3539 5.63896C33.3753 5.16075 33.3495 4.8886 33.1126 4.46546C32.5837 4.02477 32.2619 4.33332 31.8113 4.70591Z" fill="#352610"/>
<path d="M32.858 4.25342C32.5311 5.33204 31.6405 5.87947 30.7022 6.39859C29.6622 6.95482 28.5838 7.43003 27.4988 7.8906C25.293 8.81001 25.293 8.81001 23.2402 10.0241C23.1347 10.0966 23.0292 10.1691 22.9206 10.2438C21.9351 10.973 21.3462 11.942 20.7083 12.9655C20.1325 13.8892 19.5607 14.76 18.8273 15.5685C18.7463 15.66 18.6654 15.7514 18.582 15.8456C17.7967 16.6865 17.0128 17.2809 15.8365 17.3343C15.0412 17.3412 14.4059 17.2696 13.7355 16.8132C13.8245 14.9611 14.4917 13.2938 15.2064 11.6082C15.9675 11.5965 16.7238 11.6156 17.4836 11.6577C17.5694 11.6622 17.6553 11.6666 17.7437 11.6712C18.361 11.7078 18.361 11.7078 18.4878 11.8345C18.496 12.0631 18.4973 12.2919 18.4949 12.5205C18.4939 12.6455 18.4928 12.7705 18.4918 12.8993C18.4905 12.996 18.4892 13.0927 18.4878 13.1923C18.8612 13.1923 19.2346 13.1923 19.6193 13.1923C19.6128 13.0787 19.6062 12.9651 19.5994 12.848C19.5424 11.4287 19.8046 10.2385 20.7508 9.1251C22.3319 7.5008 24.3167 6.87568 26.5148 6.66404C28.6878 6.45348 30.4347 5.84424 32.1278 4.44436C32.4054 4.25342 32.4054 4.25342 32.858 4.25342Z" fill="#6B7280"/>
<path d="M60.5472 0.277927C60.6518 0.277671 60.7564 0.277415 60.8641 0.277151C61.2113 0.276439 61.5586 0.276527 61.9058 0.27662C62.1561 0.276281 62.4064 0.275896 62.6566 0.275469C63.3344 0.274472 64.0122 0.274204 64.6899 0.274132C65.1141 0.274051 65.5383 0.273809 65.9625 0.27351C67.368 0.272518 68.7735 0.271991 70.179 0.272076C70.2546 0.272081 70.3302 0.272085 70.4081 0.27209C70.4838 0.272094 70.5595 0.272099 70.6375 0.272104C71.8629 0.27215 73.0882 0.271068 74.3136 0.269472C75.5754 0.267841 76.8372 0.267086 78.099 0.267163C78.806 0.267192 79.5129 0.266875 80.2199 0.265672C80.8854 0.26457 81.5509 0.264572 82.2165 0.265391C82.4595 0.265508 82.7025 0.265246 82.9455 0.264558C84.6726 0.259985 86.3889 0.286404 88.0542 0.802236C88.1478 0.830925 88.2413 0.859614 88.3377 0.889171C91.3698 1.87448 93.9512 3.99124 95.5434 6.74266C95.6163 6.86781 95.6893 6.99296 95.7644 7.12189C97.4124 10.1814 97.6783 13.8292 96.6863 17.1384C95.5815 20.5629 93.2483 23.2034 90.0813 24.8753C87.5792 26.1388 84.9169 26.2218 82.1809 26.2211C81.9423 26.2214 81.7036 26.2218 81.465 26.2222C80.8204 26.2232 80.1759 26.2235 79.5313 26.2236C79.1275 26.2236 78.7237 26.2239 78.3199 26.2242C76.908 26.2252 75.4962 26.2257 74.0844 26.2256C72.7734 26.2255 71.4624 26.2267 70.1514 26.2285C69.0217 26.23 67.8919 26.2306 66.7622 26.2305C66.0893 26.2305 65.4165 26.2308 64.7436 26.232C64.11 26.2331 63.4764 26.2331 62.8428 26.2323C62.612 26.2322 62.3811 26.2324 62.1503 26.2331C57.7623 26.2454 54.0788 25.2906 50.8806 22.1705C48.1762 19.3284 47.3601 15.8129 47.4398 11.9956C47.5588 8.7985 49.2952 5.79543 51.5604 3.61598C54.0951 1.40269 57.1894 0.27176 60.5472 0.277927Z" fill="#352610"/>
<path d="M61.506 7.82472C61.8912 8.00122 62.1029 8.2689 62.3024 8.64112C62.4829 9.15904 62.4358 9.70194 62.4183 10.2433C62.4163 10.3639 62.4142 10.4844 62.4121 10.6086C62.4068 10.9042 62.3994 11.1996 62.39 11.4951C62.4687 11.4933 62.5475 11.4915 62.6285 11.4897C62.9875 11.4826 63.3464 11.4782 63.7054 11.4738C63.8912 11.4696 63.8912 11.4696 64.0807 11.4652C64.831 11.4584 65.3954 11.4712 65.9706 12.0082C66.4039 12.5748 66.537 12.9279 66.4635 13.6449C66.2424 14.25 65.9076 14.6018 65.332 14.8896C65.1103 14.8992 64.8882 14.9017 64.6663 14.9006C64.4683 14.9001 64.4683 14.9001 64.2663 14.8995C64.1279 14.8986 63.9895 14.8976 63.8469 14.8967C63.7076 14.8961 63.5683 14.8956 63.4247 14.8951C63.0798 14.8938 62.7349 14.8919 62.39 14.8896C62.3936 15.0077 62.3936 15.0077 62.3972 15.1281C62.4067 15.487 62.4125 15.846 62.4183 16.205C62.4221 16.3288 62.4259 16.4526 62.4298 16.5802C62.4385 17.2999 62.4291 17.7415 61.9374 18.2841C61.5539 18.622 61.3044 18.834 60.7918 18.8852C60.2715 18.8433 59.8553 18.7322 59.4481 18.3973C58.9064 17.6966 58.9406 17.0593 58.9672 16.1979C58.9693 16.0719 58.9713 15.946 58.9734 15.8162C58.9787 15.5072 58.9861 15.1985 58.9955 14.8896C58.9071 14.8931 58.8187 14.8967 58.7276 14.9004C58.3243 14.9145 57.921 14.9233 57.5175 14.932C57.3784 14.9377 57.2393 14.9434 57.096 14.9493C55.936 14.968 55.936 14.968 55.46 14.5758C55.0832 14.1942 54.8892 13.808 54.8796 13.2701C54.8949 12.7249 55.0281 12.3659 55.3747 11.9477C56.0913 11.3974 56.7519 11.4408 57.6306 11.4668C57.762 11.4688 57.8933 11.4709 58.0286 11.473C58.351 11.4783 58.6732 11.4857 58.9955 11.4951C58.9931 11.4163 58.9908 11.3376 58.9883 11.2565C58.9789 10.8976 58.973 10.5387 58.9672 10.1797C58.9615 9.99393 58.9615 9.99393 58.9557 9.80442C58.947 9.08682 58.952 8.63825 59.4481 8.10053C60.0688 7.55939 60.7552 7.50354 61.506 7.82472Z" fill="white"/>
<path d="M81.0813 11.4525C81.5875 11.7316 81.9313 12.106 82.1916 12.6265C82.2734 13.4235 82.2412 14.1252 81.739 14.7763C81.1645 15.2336 80.695 15.3833 79.9754 15.3739C79.3801 15.3046 78.9412 15.0374 78.5283 14.6137C78.1647 14.0402 78.0186 13.5358 78.1181 12.8528C78.3345 12.1505 78.7211 11.7287 79.3628 11.3818C79.9709 11.1791 80.502 11.1881 81.0813 11.4525Z" fill="white"/>
<path d="M89.0052 11.376C89.5412 11.6924 89.9434 12.0623 90.2255 12.6264C90.3074 13.4235 90.2751 14.1251 89.7729 14.7763C89.1708 15.2556 88.6753 15.3898 87.9214 15.381C87.2599 15.2947 86.8419 14.9353 86.442 14.4227C86.1645 13.9121 86.1135 13.5442 86.1521 12.9659C86.3901 12.2394 86.7341 11.8211 87.3685 11.403C87.9317 11.1972 88.4422 11.1348 89.0052 11.376Z" fill="white"/>
<path d="M85.2711 7.38036C85.8197 7.64566 86.1672 8.10891 86.3783 8.66612C86.4915 9.29836 86.4623 9.84681 86.145 10.4129C85.8416 10.8233 85.517 11.1247 85.0205 11.2686C84.382 11.351 83.8522 11.36 83.2667 11.0777C82.6661 10.5221 82.335 10.0643 82.2695 9.23895C82.2933 8.56983 82.5727 8.13932 83.0262 7.66191C83.6777 7.11885 84.4826 7.15367 85.2711 7.38036Z" fill="white"/>
<path d="M85.0203 15.3421C85.5937 15.5476 86.039 15.9129 86.3069 16.4643C86.4828 17.0463 86.4935 17.6382 86.2782 18.2097C85.9842 18.7316 85.6083 19.1319 85.0203 19.3023C84.3789 19.3851 83.8509 19.3966 83.2664 19.1043C83.1731 19.0203 83.0797 18.9363 82.9836 18.8497C82.8996 18.7774 82.8155 18.705 82.729 18.6305C82.317 18.1449 82.2588 17.6819 82.2773 17.0623C82.353 16.3729 82.7439 16.0078 83.2527 15.5909C83.7739 15.2054 84.3994 15.2744 85.0203 15.3421Z" fill="white"/>
<path d="M69.8583 17.4919C71.5386 17.4919 73.2189 17.4919 74.9501 17.4919C74.9501 17.94 74.9501 18.3881 74.9501 18.8498C73.2698 18.8498 71.5895 18.8498 69.8583 18.8498C69.8583 18.4017 69.8583 17.9536 69.8583 17.4919Z" fill="#6B7280"/>
<path d="M1.51514 34.6909C2.97139 34.6909 4.42764 34.6909 5.92802 34.6909C5.92802 34.915 5.92802 35.139 5.92802 35.3698C6.15206 35.3698 6.3761 35.3698 6.60693 35.3698C6.60693 36.1166 6.60693 36.8634 6.60693 37.6328C6.38289 37.6328 6.15885 37.6328 5.92802 37.6328C5.92802 37.8569 5.92802 38.0809 5.92802 38.3117C4.99453 38.3117 4.06103 38.3117 3.09925 38.3117C3.09925 38.7598 3.09925 39.2079 3.09925 39.6696C2.57649 39.6696 2.05374 39.6696 1.51514 39.6696C1.51514 38.0266 1.51514 36.3837 1.51514 34.6909ZM3.09925 35.483C3.09925 36.1551 3.09925 36.8272 3.09925 37.5197C3.77137 37.5197 4.44348 37.5197 5.13597 37.5197C5.13597 36.8476 5.13597 36.1755 5.13597 35.483C4.46385 35.483 3.79173 35.483 3.09925 35.483Z" fill="#352610"/>
<path d="M36.139 34.6909C37.1098 34.6909 38.0807 34.6909 39.0809 34.6909C39.0809 34.915 39.0809 35.139 39.0809 35.3698C39.3049 35.3698 39.529 35.3698 39.7598 35.3698C39.7598 35.6312 39.7598 35.8926 39.7598 36.1619C39.2371 36.1619 38.7143 36.1619 38.1757 36.1619C38.1757 35.9378 38.1757 35.7138 38.1757 35.483C37.765 35.483 37.3542 35.483 36.931 35.483C36.931 35.8937 36.931 36.3045 36.931 36.7276C37.8645 36.7276 38.798 36.7276 39.7598 36.7276C39.7598 36.989 39.7598 37.2504 39.7598 37.5197C39.9838 37.5197 40.2079 37.5197 40.4387 37.5197C40.4387 38.0051 40.4387 38.4905 40.4387 38.9907C40.2147 38.9907 39.9906 38.9907 39.7598 38.9907C39.7598 39.2147 39.7598 39.4387 39.7598 39.6696C38.5649 39.6696 37.3701 39.6696 36.139 39.6696C36.139 39.4455 36.139 39.2215 36.139 38.9907C35.8776 38.9907 35.6162 38.9907 35.3469 38.9907C35.3469 38.7293 35.3469 38.4679 35.3469 38.1986C35.8697 38.1986 36.3924 38.1986 36.931 38.1986C36.931 38.4226 36.931 38.6467 36.931 38.8775C37.6032 38.8775 38.2753 38.8775 38.9678 38.8775C38.9678 38.4668 38.9678 38.056 38.9678 37.6328C38.0343 37.6328 37.1008 37.6328 36.139 37.6328C36.139 37.3715 36.139 37.1101 36.139 36.8408C35.8776 36.8408 35.6162 36.8408 35.3469 36.8408C35.3469 36.3554 35.3469 35.87 35.3469 35.3698C35.6083 35.3698 35.8697 35.3698 36.139 35.3698C36.139 35.1458 36.139 34.9217 36.139 34.6909Z" fill="#352610"/>
<path d="M80.4944 36.0488C81.9506 36.0488 83.4069 36.0488 84.9073 36.0488C84.9073 36.2729 84.9073 36.4969 84.9073 36.7277C85.1313 36.7277 85.3554 36.7277 85.5862 36.7277C85.5862 37.2505 85.5862 37.7732 85.5862 38.3118C85.3621 38.3118 85.1381 38.3118 84.9073 38.3118C84.9073 38.5359 84.9073 38.7599 84.9073 38.9908C83.9738 38.9908 83.0403 38.9908 82.0785 38.9908C82.0785 39.4388 82.0785 39.8869 82.0785 40.3486C81.5557 40.3486 81.033 40.3486 80.4944 40.3486C80.4944 38.9297 80.4944 37.5107 80.4944 36.0488ZM82.0785 36.8409C82.0785 37.289 82.0785 37.737 82.0785 38.1987C82.7133 38.1987 83.3481 38.1987 84.0021 38.1987C84.0021 37.7506 84.0021 37.3025 84.0021 36.8409C83.3673 36.8409 82.7325 36.8409 82.0785 36.8409Z" fill="#352610"/>
<path d="M13.5089 36.0488C14.7411 36.0488 15.9733 36.0488 17.2428 36.0488C17.2428 36.2729 17.2428 36.4969 17.2428 36.7277C17.4669 36.7277 17.6909 36.7277 17.9217 36.7277C17.9217 37.2505 17.9217 37.7732 17.9217 38.3118C16.7642 38.3118 15.6067 38.3118 14.4141 38.3118C14.4141 38.4985 14.4141 38.6852 14.4141 38.8776C15.3476 38.8776 16.2811 38.8776 17.2428 38.8776C17.2428 39.139 17.2428 39.4004 17.2428 39.6697C16.0106 39.6697 14.7784 39.6697 13.5089 39.6697C13.5089 39.4456 13.5089 39.2216 13.5089 38.9908C13.2848 38.9908 13.0608 38.9908 12.83 38.9908C12.83 38.244 12.83 37.4972 12.83 36.7277C13.054 36.7277 13.278 36.7277 13.5089 36.7277C13.5089 36.5037 13.5089 36.2797 13.5089 36.0488ZM14.4141 36.8409C14.4141 37.0649 14.4141 37.289 14.4141 37.5198C15.0488 37.5198 15.6836 37.5198 16.3376 37.5198C16.3376 37.2958 16.3376 37.0717 16.3376 36.8409C15.7029 36.8409 15.0681 36.8409 14.4141 36.8409Z" fill="#352610"/>
<path d="M47.341 36.0488C48.5732 36.0488 49.8054 36.0488 51.075 36.0488C51.075 36.2729 51.075 36.4969 51.075 36.7277C51.299 36.7277 51.5231 36.7277 51.7539 36.7277C51.7539 37.6986 51.7539 38.6694 51.7539 39.6697C50.2976 39.6697 48.8414 39.6697 47.341 39.6697C47.341 39.4456 47.341 39.2216 47.341 38.9908C47.117 38.9908 46.8929 38.9908 46.6621 38.9908C46.6621 38.7294 46.6621 38.468 46.6621 38.1987C46.8861 38.1987 47.1102 38.1987 47.341 38.1987C47.341 37.9747 47.341 37.7506 47.341 37.5198C48.2745 37.5198 49.208 37.5198 50.1698 37.5198C50.1698 37.2958 50.1698 37.0717 50.1698 36.8409C49.2363 36.8409 48.3028 36.8409 47.341 36.8409C47.341 36.5795 47.341 36.3181 47.341 36.0488ZM48.2462 38.3118C48.2462 38.4985 48.2462 38.6852 48.2462 38.8776C48.881 38.8776 49.5158 38.8776 50.1698 38.8776C50.1698 38.6909 50.1698 38.5042 50.1698 38.3118C49.535 38.3118 48.9002 38.3118 48.2462 38.3118Z" fill="#352610"/>
<path d="M75.629 36.0488C76.8238 36.0488 78.0187 36.0488 79.2498 36.0488C79.2498 36.2729 79.2498 36.4969 79.2498 36.7277C79.4738 36.7277 79.6979 36.7277 79.9287 36.7277C79.9287 37.6986 79.9287 38.6694 79.9287 39.6697C78.5098 39.6697 77.0909 39.6697 75.629 39.6697C75.629 39.4456 75.629 39.2216 75.629 38.9908C75.3676 38.9908 75.1062 38.9908 74.8369 38.9908C74.8369 38.7294 74.8369 38.468 74.8369 38.1987C75.0983 38.1987 75.3597 38.1987 75.629 38.1987C75.629 37.9747 75.629 37.7506 75.629 37.5198C76.5251 37.5198 77.4213 37.5198 78.3446 37.5198C78.3446 37.2958 78.3446 37.0717 78.3446 36.8409C77.4484 36.8409 76.5523 36.8409 75.629 36.8409C75.629 36.5795 75.629 36.3181 75.629 36.0488ZM76.421 38.3118C76.421 38.4985 76.421 38.6852 76.421 38.8776C77.0558 38.8776 77.6906 38.8776 78.3446 38.8776C78.3446 38.6909 78.3446 38.5042 78.3446 38.3118C77.7098 38.3118 77.075 38.3118 76.421 38.3118Z" fill="#352610"/>
<path d="M98.146 36.0488C99.3408 36.0488 100.536 36.0488 101.767 36.0488C101.767 36.2729 101.767 36.4969 101.767 36.7277C101.991 36.7277 102.215 36.7277 102.446 36.7277C102.446 37.6986 102.446 38.6694 102.446 39.6697C101.027 39.6697 99.6079 39.6697 98.146 39.6697C98.146 39.4456 98.146 39.2216 98.146 38.9908C97.9219 38.9908 97.6979 38.9908 97.467 38.9908C97.467 38.7294 97.467 38.468 97.467 38.1987C97.6911 38.1987 97.9151 38.1987 98.146 38.1987C98.146 37.9747 98.146 37.7506 98.146 37.5198C99.0794 37.5198 100.013 37.5198 100.975 37.5198C100.975 37.2958 100.975 37.0717 100.975 36.8409C100.041 36.8409 99.1077 36.8409 98.146 36.8409C98.146 36.5795 98.146 36.3181 98.146 36.0488ZM98.938 38.3118C98.938 38.4985 98.938 38.6852 98.938 38.8776C99.6101 38.8776 100.282 38.8776 100.975 38.8776C100.975 38.6909 100.975 38.5042 100.975 38.3118C100.303 38.3118 99.6305 38.3118 98.938 38.3118Z" fill="#352610"/>
<path d="M70.65 34.6909C71.6209 34.6909 72.5917 34.6909 73.592 34.6909C73.592 34.915 73.592 35.139 73.592 35.3698C73.816 35.3698 74.04 35.3698 74.2709 35.3698C74.2709 35.6312 74.2709 35.8926 74.2709 36.1619C73.7855 36.1619 73.3 36.1619 72.7999 36.1619C72.7999 35.9378 72.7999 35.7138 72.7999 35.483C72.3518 35.483 71.9037 35.483 71.4421 35.483C71.4421 35.707 71.4421 35.9311 71.4421 36.1619C71.2181 36.1619 70.994 36.1619 70.7632 36.1619C70.7632 36.834 70.7632 37.5061 70.7632 38.1986C70.9872 38.1986 71.2113 38.1986 71.4421 38.1986C71.4421 38.4226 71.4421 38.6467 71.4421 38.8775C71.8902 38.8775 72.3383 38.8775 72.7999 38.8775C72.7999 38.6535 72.7999 38.4294 72.7999 38.1986C73.2853 38.1986 73.7707 38.1986 74.2709 38.1986C74.2709 38.46 74.2709 38.7214 74.2709 38.9907C74.0468 38.9907 73.8228 38.9907 73.592 38.9907C73.592 39.2147 73.592 39.4387 73.592 39.6696C72.6211 39.6696 71.6503 39.6696 70.65 39.6696C70.65 39.4455 70.65 39.2215 70.65 38.9907C70.426 38.9907 70.202 38.9907 69.9711 38.9907C69.9711 38.7666 69.9711 38.5426 69.9711 38.3117C69.7098 38.3117 69.4484 38.3117 69.1791 38.3117C69.1791 37.565 69.1791 36.8182 69.1791 36.0487C69.4405 36.0487 69.7018 36.0487 69.9711 36.0487C69.9711 35.8247 69.9711 35.6007 69.9711 35.3698C70.1952 35.3698 70.4192 35.3698 70.65 35.3698C70.65 35.1458 70.65 34.9217 70.65 34.6909Z" fill="#352610"/>
<path d="M19.1667 36.0488C20.3616 36.0488 21.5564 36.0488 22.7875 36.0488C22.7875 36.3102 22.7875 36.5716 22.7875 36.8409C21.854 36.8409 20.9205 36.8409 19.9588 36.8409C19.9588 37.0649 19.9588 37.289 19.9588 37.5198C20.8923 37.5198 21.8257 37.5198 22.7875 37.5198C22.7875 37.7438 22.7875 37.9679 22.7875 38.1987C23.0489 38.1987 23.3103 38.1987 23.5796 38.1987C23.5796 38.4601 23.5796 38.7215 23.5796 38.9908C23.3182 38.9908 23.0568 38.9908 22.7875 38.9908C22.7875 39.2148 22.7875 39.4388 22.7875 39.6697C21.3686 39.6697 19.9497 39.6697 18.4878 39.6697C18.4878 39.4083 18.4878 39.1469 18.4878 38.8776C19.6453 38.8776 20.8029 38.8776 21.9955 38.8776C21.9955 38.6909 21.9955 38.5042 21.9955 38.3118C21.062 38.3118 20.1285 38.3118 19.1667 38.3118C19.1667 38.0878 19.1667 37.8638 19.1667 37.6329C18.9427 37.6329 18.7186 37.6329 18.4878 37.6329C18.4878 37.3342 18.4878 37.0355 18.4878 36.7277C18.7118 36.7277 18.9359 36.7277 19.1667 36.7277C19.1667 36.5037 19.1667 36.2797 19.1667 36.0488Z" fill="#352610"/>
<path d="M24.8242 36.0488C26.019 36.0488 27.2139 36.0488 28.445 36.0488C28.445 36.3102 28.445 36.5716 28.445 36.8409C27.5115 36.8409 26.578 36.8409 25.6162 36.8409C25.6162 37.0649 25.6162 37.289 25.6162 37.5198C26.5497 37.5198 27.4832 37.5198 28.445 37.5198C28.445 37.7438 28.445 37.9679 28.445 38.1987C28.669 38.1987 28.8931 38.1987 29.1239 38.1987C29.1239 38.4601 29.1239 38.7215 29.1239 38.9908C28.8999 38.9908 28.6758 38.9908 28.445 38.9908C28.445 39.2148 28.445 39.4388 28.445 39.6697C27.0261 39.6697 25.6072 39.6697 24.1453 39.6697C24.1453 39.4083 24.1453 39.1469 24.1453 38.8776C25.3028 38.8776 26.4603 38.8776 27.6529 38.8776C27.6529 38.6909 27.6529 38.5042 27.6529 38.3118C26.7194 38.3118 25.786 38.3118 24.8242 38.3118C24.8242 38.0878 24.8242 37.8638 24.8242 37.6329C24.6001 37.6329 24.3761 37.6329 24.1453 37.6329C24.1453 37.3342 24.1453 37.0355 24.1453 36.7277C24.3693 36.7277 24.5933 36.7277 24.8242 36.7277C24.8242 36.5037 24.8242 36.2797 24.8242 36.0488Z" fill="#352610"/>
<path d="M104.482 34.6909C105.229 34.6909 105.976 34.6909 106.746 34.6909C106.746 36.0725 106.746 37.4541 106.746 38.8775C107.194 38.8775 107.642 38.8775 108.103 38.8775C108.103 39.1389 108.103 39.4003 108.103 39.6696C106.684 39.6696 105.266 39.6696 103.804 39.6696C103.804 39.4082 103.804 39.1468 103.804 38.8775C104.252 38.8775 104.7 38.8775 105.161 38.8775C105.161 37.7573 105.161 36.6371 105.161 35.483C104.937 35.483 104.713 35.483 104.482 35.483C104.482 35.2216 104.482 34.9602 104.482 34.6909Z" fill="#352610"/>
<path d="M93.9594 34.6909C94.4448 34.6909 94.9302 34.6909 95.4303 34.6909C95.4303 35.139 95.4303 35.5871 95.4303 36.0487C95.8784 36.0487 96.3265 36.0487 96.7881 36.0487C96.7881 36.3101 96.7881 36.5715 96.7881 36.8408C96.3401 36.8408 95.892 36.8408 95.4303 36.8408C95.4303 37.7743 95.4303 38.7078 95.4303 39.6696C94.9449 39.6696 94.4595 39.6696 93.9594 39.6696C93.9594 38.7361 93.9594 37.8026 93.9594 36.8408C93.4739 36.8408 92.9885 36.8408 92.4884 36.8408C92.4884 36.5794 92.4884 36.318 92.4884 36.0487C92.9738 36.0487 93.4592 36.0487 93.9594 36.0487C93.9594 35.6007 93.9594 35.1526 93.9594 34.6909Z" fill="#352610"/>
<path d="M60.1272 34.6909C60.6126 34.6909 61.098 34.6909 61.5982 34.6909C61.5982 35.139 61.5982 35.5871 61.5982 36.0487C62.0463 36.0487 62.4943 36.0487 62.956 36.0487C62.956 36.3101 62.956 36.5715 62.956 36.8408C62.5079 36.8408 62.0598 36.8408 61.5982 36.8408C61.5982 37.7743 61.5982 38.7078 61.5982 39.6696C61.1128 39.6696 60.6273 39.6696 60.1272 39.6696C60.1272 38.7361 60.1272 37.8026 60.1272 36.8408C59.6418 36.8408 59.1564 36.8408 58.6562 36.8408C58.6562 36.5794 58.6562 36.318 58.6562 36.0487C59.1417 36.0487 59.6271 36.0487 60.1272 36.0487C60.1272 35.6007 60.1272 35.1526 60.1272 34.6909Z" fill="#352610"/>
<path d="M43.1544 34.6909C43.6399 34.6909 44.1253 34.6909 44.6254 34.6909C44.6254 35.139 44.6254 35.5871 44.6254 36.0487C45.1108 36.0487 45.5962 36.0487 46.0964 36.0487C46.0964 36.3101 46.0964 36.5715 46.0964 36.8408C45.611 36.8408 45.1255 36.8408 44.6254 36.8408C44.6254 37.7743 44.6254 38.7078 44.6254 39.6696C44.14 39.6696 43.6546 39.6696 43.1544 39.6696C43.1544 38.7361 43.1544 37.8026 43.1544 36.8408C42.7064 36.8408 42.2583 36.8408 41.7966 36.8408C41.7966 36.5794 41.7966 36.318 41.7966 36.0487C42.2447 36.0487 42.6928 36.0487 43.1544 36.0487C43.1544 35.6007 43.1544 35.1526 43.1544 34.6909Z" fill="#352610"/>
<path d="M87.5098 36.0488C88.2566 36.0488 89.0034 36.0488 89.7729 36.0488C89.7729 36.9823 89.7729 37.9158 89.7729 38.8776C90.2583 38.8776 90.7437 38.8776 91.2438 38.8776C91.2438 39.139 91.2438 39.4004 91.2438 39.6697C89.7876 39.6697 88.3313 39.6697 86.8309 39.6697C86.8309 39.4083 86.8309 39.1469 86.8309 38.8776C87.3164 38.8776 87.8018 38.8776 88.3019 38.8776C88.3019 38.2055 88.3019 37.5334 88.3019 36.8409C88.0405 36.8409 87.7791 36.8409 87.5098 36.8409C87.5098 36.5795 87.5098 36.3181 87.5098 36.0488Z" fill="#352610"/>
<path d="M52.9988 36.0488C53.5215 36.0488 54.0443 36.0488 54.5829 36.0488C54.5829 36.2729 54.5829 36.4969 54.5829 36.7277C54.7696 36.7277 54.9563 36.7277 55.1486 36.7277C55.1486 36.5037 55.1486 36.2797 55.1486 36.0488C55.8954 36.0488 56.6422 36.0488 57.4117 36.0488C57.4117 36.3102 57.4117 36.5716 57.4117 36.8409C56.7022 36.8409 55.9928 36.8409 55.2618 36.8409C55.2618 37.1023 55.2618 37.3636 55.2618 37.6329C55.0378 37.6329 54.8137 37.6329 54.5829 37.6329C54.5829 38.3051 54.5829 38.9772 54.5829 39.6697C54.0601 39.6697 53.5374 39.6697 52.9988 39.6697C52.9988 38.4748 52.9988 37.2799 52.9988 36.0488Z" fill="#352610"/>
<path d="M7.96448 36.0488C8.4499 36.0488 8.93531 36.0488 9.43544 36.0488C9.43544 36.2729 9.43544 36.4969 9.43544 36.7277C9.62214 36.7277 9.80884 36.7277 10.0012 36.7277C10.0012 36.5037 10.0012 36.2797 10.0012 36.0488C10.748 36.0488 11.4948 36.0488 12.2642 36.0488C12.2642 36.3102 12.2642 36.5716 12.2642 36.8409C11.5548 36.8409 10.8453 36.8409 10.1143 36.8409C10.1143 37.1023 10.1143 37.3636 10.1143 37.6329C9.89031 37.6329 9.66627 37.6329 9.43544 37.6329C9.43544 38.3051 9.43544 38.9772 9.43544 39.6697C8.95002 39.6697 8.4646 39.6697 7.96448 39.6697C7.96448 38.4748 7.96448 37.2799 7.96448 36.0488Z" fill="#352610"/>
<path d="M88.3018 34.6909C88.7872 34.6909 89.2726 34.6909 89.7727 34.6909C89.7727 34.9523 89.7727 35.2137 89.7727 35.483C89.2873 35.483 88.8019 35.483 88.3018 35.483C88.3018 35.2216 88.3018 34.9602 88.3018 34.6909Z" fill="#352610"/>
</g>
<defs>
<clipPath id="clip0_6606_979">
<rect width="107" height="40" fill="white" transform="translate(0.9375)"/>
</clipPath>
</defs>
</svg>
