<svg width="151" height="30" viewBox="0 0 151 30" fill="none" xmlns="http://www.w3.org/2000/svg">
<g clip-path="url(#clip0_6004_9399)">
<path d="M26.2234 14.9062C26.2245 12.7192 25.5888 10.5793 24.3937 8.74776L28.8348 4.30631L25.4995 0.970215L21.0612 5.41166C19.2292 4.21696 17.0893 3.58086 14.9022 3.58086C12.7151 3.58086 10.5752 4.21696 8.74319 5.41166L4.29813 0.970215L0.962036 4.30631L5.40348 8.74735C4.20878 10.5793 3.57269 12.7193 3.57269 14.9064C3.57269 17.0935 4.20878 19.2334 5.40348 21.0654L0.962036 25.5072L4.29813 28.8433L8.73958 24.4019C10.5716 25.5966 12.7115 26.2327 14.8986 26.2327C17.0857 26.2327 19.2256 25.5966 21.0576 24.4019L25.4991 28.8433L28.8348 25.5072L24.3937 21.0694C25.5897 19.2365 26.2255 17.0948 26.2234 14.9062ZM8.29198 14.9062C8.29024 13.9205 8.50905 12.947 8.93238 12.0569C9.35571 11.1668 9.97283 10.3827 10.7385 9.76201C11.5042 9.14136 12.3991 8.69989 13.3575 8.46995C14.316 8.24002 15.3137 8.22744 16.2777 8.43315C17.2416 8.63886 18.1473 9.05764 18.9284 9.6588C19.7095 10.26 20.3462 11.0283 20.7918 11.9074C21.2374 12.7866 21.4807 13.7543 21.5038 14.7397C21.5269 15.725 21.3292 16.7031 20.9253 17.6022L16.5673 13.2381L13.2299 16.575L17.5896 20.9334C16.5844 21.3854 15.4819 21.5782 14.383 21.4942C13.2841 21.4102 12.2237 21.0521 11.2989 20.4526C10.3741 19.853 9.61429 19.0313 9.08901 18.0624C8.56373 17.0934 8.2897 16.0083 8.29198 14.9062Z" fill="#352610"/>
<path fill-rule="evenodd" clip-rule="evenodd" d="M50.2142 15.0402C50.2142 17.7647 48.8329 20.2244 46.3731 21.3595L47.6786 23.0624L44.9918 24.4252L43.1943 22.0413H43.1377C38.691 22.0413 36.0612 18.8059 36.0612 15.0406C36.0612 11.275 38.691 8.03955 43.1377 8.03955C47.584 8.03955 50.2142 11.275 50.2142 15.0406V15.0402ZM43.1377 19.2972C45.654 19.2972 47.016 17.3484 47.016 15.0402C47.016 12.7317 45.654 10.7829 43.1377 10.7829C40.6021 10.7829 39.2397 12.7317 39.259 15.0402C39.2397 17.3484 40.6029 19.2972 43.1377 19.2972ZM55.1714 21.9081C52.9763 21.9081 51.8036 20.5461 51.8036 18.181V12.5424H54.7362V17.5377C54.7362 18.7862 55.1525 19.4676 56.2499 19.4676C57.4795 19.4676 58.0094 18.6727 58.0094 17.443V12.5424H60.8854V21.6627H58.0098V20.3568C57.4988 21.3218 56.5527 21.9081 55.1714 21.9081ZM66.9211 21.9081C64.1967 21.9081 62.6261 19.8458 62.6261 17.1025C62.6261 14.3777 64.3106 12.2965 66.9592 12.2965C68.2836 12.2965 69.3243 12.921 69.816 13.8478V12.5424H72.6921V21.6627H69.8164V20.3756C69.3243 21.2841 68.1889 21.9081 66.9211 21.9081ZM67.7537 19.5057C69.192 19.5057 69.93 18.4269 69.93 17.1025C69.93 15.797 69.192 14.7186 67.7537 14.7186C66.4102 14.7186 65.5779 15.7212 65.5779 17.1025C65.5779 18.4838 66.4106 19.5057 67.7537 19.5057ZM75.0953 12.5424H77.9902V13.8671C78.5197 12.8452 79.5604 12.2965 80.9421 12.2965C83.1556 12.2965 84.2718 13.5454 84.2718 16.024V21.6619H81.358V16.9694C81.358 15.4373 80.9229 14.737 79.7497 14.737C78.5955 14.737 77.9902 15.4938 77.9902 16.894V21.6619H75.0953V12.5424ZM91.3671 19.4107C91.7269 19.4107 92.1051 19.3918 92.3698 19.3541V21.6623C91.9539 21.7381 91.2725 21.8139 90.4402 21.8139C89.0778 21.8139 87.2048 21.5111 87.2048 18.465V14.8317H85.7666V12.542H87.2048V9.83634H90.0997V12.542H92.162V14.8317H90.0997V17.8589C90.0997 19.2025 90.6484 19.4103 91.3671 19.4103V19.4107ZM97.6868 21.9462C95.0189 21.9462 93.3729 20.6408 93.3729 18.919H96.2485C96.2485 19.5434 96.8542 19.9974 97.7437 19.9974C98.3682 19.9974 98.8034 19.6758 98.8034 19.146C98.8034 18.7862 98.6329 18.4838 98.1408 18.3703L95.9084 17.8024C94.3948 17.4242 93.6187 16.4781 93.6187 15.1726C93.6187 13.4696 95.1135 12.2777 97.5167 12.2777C100.185 12.2777 101.585 13.3938 101.585 15.1156H98.7275C98.7275 14.4723 98.2543 14.1129 97.4786 14.1129C96.8541 14.1129 96.4382 14.4158 96.4382 14.8698C96.4382 15.2861 96.7218 15.5508 97.2139 15.6835L99.3709 16.2699C100.771 16.6485 101.679 17.4996 101.679 18.8055C101.679 20.6785 100.185 21.9462 97.6868 21.9462ZM108.264 19.4107C108.623 19.4107 109.002 19.3918 109.266 19.3541V21.6623C108.85 21.7381 108.169 21.8139 107.336 21.8139C105.974 21.8139 104.101 21.5111 104.101 18.465V14.8317H102.663V12.542H104.101V9.83634H106.996V12.542H109.058V14.8317H106.996V17.8589C106.996 19.2025 107.545 19.4103 108.263 19.4103L108.264 19.4107ZM114.565 21.9085C111.84 21.9085 110.269 19.8458 110.269 17.1025C110.269 14.3777 111.954 12.2965 114.602 12.2965C115.927 12.2965 116.967 12.921 117.459 13.8478V12.5424H120.335V21.6627H117.459V20.3756C116.967 21.2841 115.832 21.9085 114.565 21.9085ZM115.397 19.5053C116.835 19.5053 117.573 18.4269 117.573 17.1025C117.573 15.797 116.835 14.7186 115.397 14.7186C114.053 14.7186 113.221 15.7212 113.221 17.1025C113.221 18.4838 114.054 19.5053 115.397 19.5053ZM122.738 12.5428H125.633V13.8671C126.03 12.9587 126.977 12.2965 128.244 12.2965C129.871 12.2965 130.704 13.0156 131.101 13.9806C131.593 12.9968 132.672 12.2965 134.015 12.2965C136.626 12.2965 137.251 14.0941 137.251 16.0052V21.6619H134.337V16.5346C134.337 15.2672 133.864 14.7374 132.974 14.7374C132.066 14.7374 131.442 15.248 131.442 16.9702V21.6627H128.528V16.5154C128.528 15.248 128.074 14.737 127.185 14.737C126.258 14.737 125.633 15.2476 125.633 16.9698V21.6623H122.738V12.542V12.5428ZM139.54 12.5428H142.435V13.8478C142.908 12.9775 144.043 12.2965 145.406 12.2965C147.903 12.2965 149.606 14.2264 149.606 17.1025C149.606 19.9593 147.847 21.9085 145.33 21.9085C143.986 21.9085 142.889 21.2271 142.435 20.3756V25.4468H139.54V12.5428ZM144.497 19.5053C145.765 19.5053 146.655 18.5215 146.655 17.1025C146.655 15.7024 145.765 14.7186 144.498 14.7186C143.192 14.7186 142.303 15.6835 142.303 17.1025C142.303 18.5404 143.211 19.5053 144.497 19.5053ZM148.657 12.712C148.495 12.712 148.353 12.6759 148.232 12.6037C148.113 12.5338 148.016 12.4318 147.953 12.3093C147.887 12.1812 147.853 12.0388 147.855 11.8946C147.855 11.7442 147.888 11.6071 147.953 11.4827C148.018 11.3588 148.111 11.2609 148.232 11.1887C148.353 11.1166 148.495 11.0805 148.657 11.0805C148.818 11.0805 148.959 11.1166 149.081 11.1887C149.203 11.2609 149.297 11.3588 149.362 11.4827C149.427 11.6071 149.46 11.7442 149.46 11.8946C149.46 12.047 149.427 12.1854 149.362 12.3093C149.297 12.4337 149.203 12.5315 149.081 12.6037C148.959 12.6759 148.818 12.712 148.657 12.712ZM148.657 12.5781C148.788 12.5781 148.902 12.5472 148.999 12.4862C149.097 12.4252 149.172 12.343 149.223 12.2391C149.276 12.1357 149.301 12.0206 149.301 11.8946C149.301 11.7703 149.275 11.6568 149.223 11.5529C149.173 11.4511 149.095 11.3655 148.999 11.3059C148.896 11.2436 148.778 11.2118 148.658 11.2144C148.528 11.2144 148.413 11.2449 148.316 11.3059C148.218 11.3672 148.143 11.4494 148.09 11.5529C148.037 11.6588 148.01 11.776 148.011 11.8946C148.011 12.0206 148.037 12.1353 148.09 12.2396C148.143 12.343 148.219 12.4252 148.316 12.4862C148.414 12.5472 148.528 12.5781 148.657 12.5781ZM148.368 11.4523H148.703C148.789 11.4523 148.859 11.4815 148.914 11.5393C148.941 11.567 148.962 11.5997 148.976 11.6356C148.99 11.6714 148.997 11.7097 148.996 11.7482C148.997 11.8084 148.979 11.8675 148.946 11.9175C148.912 11.9676 148.862 12.0047 148.804 12.0226L148.99 12.3154H148.84L148.67 12.0382H148.502V12.3158H148.368V11.4523ZM148.694 11.9223C148.717 11.9233 148.74 11.9193 148.761 11.9106C148.782 11.9018 148.801 11.8886 148.816 11.8718C148.847 11.838 148.863 11.7938 148.862 11.7482C148.864 11.7017 148.847 11.6563 148.816 11.6215C148.801 11.6047 148.782 11.5916 148.761 11.5829C148.74 11.5743 148.717 11.5703 148.694 11.5714H148.505V11.9223H148.694Z" fill="#352610"/>
</g>
<defs>
<clipPath id="clip0_6004_9399">
<rect width="150" height="28.4759" fill="white" transform="translate(0.962036 0.761963)"/>
</clipPath>
</defs>
</svg>
