<svg width="88" height="40" viewBox="0 0 88 40" fill="none" xmlns="http://www.w3.org/2000/svg">
<path d="M10.4751 4.33958C10.4307 4.7455 10.5824 5.08218 10.9302 5.35015C11.1876 5.54783 11.4434 5.71537 11.6987 5.85226C12.1405 6.08958 12.6004 6.33852 13.0787 6.59804C13.5681 6.86389 13.9936 7.14983 14.3556 7.45639C14.9233 7.93789 15.2975 8.51241 15.3551 9.27193C15.3974 9.82425 15.3773 10.3274 15.2954 10.7809C15.0597 12.0854 14.0745 12.7703 12.826 13.0029C12.1765 13.1239 11.4846 13.1482 10.7505 13.0764C9.34084 12.9384 8.06812 12.3026 7.74148 10.8221C7.62626 10.3015 7.65903 9.75448 7.65744 9.21326C7.65744 9.1937 7.66748 9.18366 7.68704 9.18366H10.51C10.5269 9.18366 10.5359 9.19212 10.5364 9.20956C10.5422 9.4622 10.5417 9.74339 10.5348 10.0536C10.529 10.2984 10.5544 10.4844 10.6099 10.6128C10.8393 11.1414 11.4233 11.2545 11.946 11.1461C12.4349 11.0447 12.6315 10.6583 12.6733 10.1969C12.723 9.64349 12.3895 9.25396 11.9614 8.9474C11.6532 8.727 11.3403 8.53144 11.0216 8.36178C10.5258 8.09698 10.048 7.82584 9.5882 7.54941C9.13366 7.27615 8.75099 6.97647 8.44021 6.65142C8.01843 6.20903 7.78852 5.69582 7.73884 5.06157C7.69655 4.5214 7.75099 4.02615 7.90163 3.57637C8.38841 2.12393 9.91114 1.72119 11.2885 1.67996C11.7277 1.66675 12.1643 1.69159 12.5988 1.75343C13.8435 1.93155 14.945 2.57531 15.0945 3.9252C15.1305 4.24973 15.1389 4.63979 15.1194 5.09592C15.1189 5.11654 15.1078 5.12711 15.0871 5.12711H12.4909C12.4629 5.12711 12.4497 5.11336 12.4508 5.08535C12.4645 4.75713 12.4582 4.4918 12.4318 4.29043C12.3451 3.62605 11.7166 3.39719 11.1215 3.54465C10.7367 3.63979 10.5184 3.94899 10.4751 4.33958Z" fill="#352610"/>
<path d="M79.5369 8.25874H78.4825C78.4751 8.25874 78.4692 8.25292 78.4692 8.24552V6.72597C78.4692 6.70853 78.4782 6.69954 78.4957 6.69954H82.233C82.252 6.69954 82.2615 6.70905 82.2615 6.72808C82.2631 7.66836 82.2621 8.58432 82.2594 9.47597C82.2584 9.89193 82.2383 10.3454 82.1405 10.7445C81.7726 12.2402 80.3614 12.8074 78.9238 12.8903C77.1706 12.9918 75.0448 12.5473 74.7372 10.4728C74.6902 10.1588 74.6632 9.81371 74.6632 9.4876C74.6627 8.13189 74.6638 6.70218 74.6653 5.19796C74.6659 4.91624 74.6865 4.62132 74.7277 4.31371C74.8667 3.27988 75.3799 2.55578 76.2684 2.14193C76.6738 1.95324 77.1347 1.83062 77.6516 1.77459C78.2996 1.70483 78.9317 1.71593 79.548 1.80842C81.0956 2.04098 82.1796 2.92681 82.2319 4.60969C82.2404 4.88242 82.2404 5.14827 82.2314 5.40673C82.2309 5.42311 82.2229 5.43104 82.2066 5.43104H79.5681C79.5475 5.43104 79.5374 5.42047 79.538 5.39986C79.5427 5.1562 79.5417 4.91624 79.5348 4.67893C79.5263 4.3914 79.4439 4.1599 79.2874 3.98495C78.9999 3.66254 78.4835 3.59489 78.085 3.70535C77.5475 3.85387 77.3477 4.29521 77.3477 4.83432C77.3482 6.47333 77.3461 8.06265 77.3424 9.60335C77.3413 9.96223 77.3625 10.2017 77.4058 10.3216C77.6231 10.9273 78.3049 11.0833 78.8678 10.9189C79.149 10.837 79.3519 10.6668 79.4772 10.4094C79.5443 10.2709 79.575 10.0368 79.5702 9.70747C79.5633 9.25292 79.5628 8.78094 79.5686 8.29098C79.5691 8.26931 79.5586 8.25874 79.5369 8.25874Z" fill="#352610"/>
<path d="M47.2758 10.4867C47.3387 10.2599 47.3509 10.039 47.3123 9.8239C47.2171 9.29377 46.5739 8.85931 46.1347 8.60402C45.3831 8.16745 44.5861 7.77369 43.8678 7.27739C43.3926 6.94916 42.9333 6.52104 42.6812 5.99937C42.3583 5.32971 42.3757 4.44758 42.566 3.7499C42.9803 2.23193 44.5311 1.78161 45.9153 1.74356C47.2002 1.70867 48.9143 1.89049 49.5216 3.24462C49.668 3.5702 49.7414 3.92485 49.742 4.30804C49.7425 4.58024 49.743 4.85719 49.743 5.13838C49.743 5.14684 49.7362 5.15371 49.7282 5.15371H47.1283C47.1109 5.15371 47.1019 5.14525 47.1014 5.12781C47.0935 4.82073 47.1447 4.42379 47.0496 4.13996C46.9259 3.76893 46.6051 3.56755 46.2166 3.5443C45.6896 3.51259 45.2499 3.75202 45.1664 4.30223C45.1574 4.36089 45.1537 4.44493 45.1553 4.55381C45.159 4.84398 45.2705 5.07231 45.4967 5.27263C45.7372 5.48563 46.0136 5.67749 46.325 5.84768C47.1891 6.31861 48.1379 6.77527 48.8884 7.37147C49.4159 7.7906 49.8419 8.33553 49.9481 9.02263C50.0327 9.56967 50.0269 10.1363 49.9312 10.7229C49.6532 12.4243 48.0876 12.9925 46.5565 13.0528C45.0797 13.1109 43.2002 12.8181 42.5892 11.2483C42.4396 10.8635 42.3662 10.4613 42.3688 10.0411C42.3709 9.77051 42.3704 9.49039 42.3678 9.20128C42.3678 9.18066 42.3778 9.17062 42.3984 9.17062H45.1817C45.1986 9.17062 45.2071 9.17908 45.2076 9.19599C45.2145 9.44388 45.214 9.7129 45.2071 10.0031C45.2013 10.2383 45.2251 10.4238 45.2774 10.5591C45.4492 11.0057 45.89 11.1659 46.3715 11.1405C46.8181 11.1172 47.1542 10.9243 47.2758 10.4867Z" fill="#352610"/>
<path d="M21.4656 2.92314L19.9952 12.6731C19.9925 12.69 19.983 12.6985 19.9656 12.6985H17.1077C17.1014 12.6985 17.0961 12.6927 17.0977 12.6863L19.0681 2.04946C19.0718 2.03096 19.0824 2.02197 19.1009 2.02197H23.8091C23.8213 2.02197 23.8281 2.02779 23.8303 2.03941L25.7917 12.6721C25.7943 12.6858 25.7837 12.6985 25.77 12.6985H22.946C22.9312 12.6985 22.919 12.6879 22.9169 12.6731C22.4397 9.43053 21.9629 6.18741 21.4856 2.94428C21.4841 2.93582 21.4809 2.92789 21.4751 2.92049C21.4698 2.91362 21.4666 2.91415 21.4656 2.92314Z" fill="#352610"/>
<path d="M30.6558 2.97969C30.6759 3.16838 30.6484 3.35125 30.6489 3.541C30.6505 4.08011 30.65 4.59755 30.6473 5.09333C30.6468 5.13984 30.6341 5.18212 30.6347 5.22916C30.6389 5.83963 30.6384 6.41362 30.6331 6.9522C30.6151 8.75083 30.6008 10.5151 30.5908 12.245C30.5903 12.3819 30.5866 12.5251 30.5802 12.6737C30.5797 12.69 30.5707 12.6985 30.5543 12.6985H27.938C27.9185 12.6985 27.909 12.689 27.9095 12.6694L28.1389 2.04787C28.1394 2.03043 28.1484 2.02197 28.1658 2.02197H32.4867C32.4978 2.02197 32.5046 2.02779 32.5068 2.03889L33.8207 10.1879C33.8345 10.272 33.8482 10.272 33.8614 10.1879L35.1748 2.04946C35.1775 2.03096 35.1886 2.02197 35.2071 2.02197H39.5073C39.5279 2.02197 39.5385 2.03254 39.539 2.05316L39.7763 12.6737C39.7768 12.69 39.7684 12.6985 39.752 12.6985H37.123C37.1019 12.6985 37.0845 12.6811 37.0845 12.6599C37.085 12.0801 37.0845 11.4924 37.0834 10.8972C37.0834 10.8724 37.0728 10.856 37.0728 10.8306C37.0712 10.2551 37.0702 9.68001 37.0697 9.10442C37.0697 9.078 37.0697 9.05157 37.0691 9.02514C37.057 8.45538 37.0522 7.88297 37.0554 7.30738C37.0554 7.27303 37.0549 7.23762 37.0543 7.20168C37.0432 6.65886 37.0395 6.09068 37.0432 5.49713C37.0438 5.46225 37.0432 5.42683 37.0427 5.39142C37.0327 4.80421 37.0274 4.24977 37.0258 3.72705C37.0247 3.46965 37.0173 3.22758 37.0036 3.00083C37.0031 2.98709 37.0015 2.98709 36.9988 3.0003L35.1986 12.6848C35.197 12.6927 35.1907 12.6985 35.1828 12.6985H32.4999C32.4867 12.6985 32.4793 12.6922 32.4766 12.6795C31.8767 9.44533 31.2758 6.21119 30.6743 2.97599C30.6732 2.97018 30.6701 2.96806 30.6648 2.96859L30.6643 2.96912C30.6579 2.96965 30.6553 2.97335 30.6558 2.97969Z" fill="#352610"/>
<path d="M59.7097 11.3391C59.3027 12.3121 58.3498 12.7852 57.327 12.939C56.7398 13.0273 56.1257 13.0426 55.4845 12.985C55.0601 12.9469 54.6606 12.8624 54.2863 12.7313C53.0612 12.3021 52.4798 11.3063 52.4793 9.99925C52.4777 7.34544 52.4777 4.69111 52.4787 2.0373C52.4787 2.02937 52.4856 2.0225 52.4935 2.0225L55.159 2.02197C55.1769 2.02197 55.1859 2.03096 55.1859 2.0484C55.1891 4.55104 55.1886 7.24343 55.1843 10.125C55.1843 10.2466 55.2081 10.365 55.2562 10.4802C55.4586 10.9681 55.9333 11.1478 56.429 11.0711C56.8091 11.0125 57.0992 10.7751 57.2113 10.412C57.2472 10.2958 57.2652 10.1261 57.2647 9.90252C57.2615 7.27197 57.261 4.64988 57.2626 2.03624C57.2626 2.02673 57.2673 2.02197 57.2768 2.02197H59.9412C59.9602 2.02197 59.9697 2.03149 59.9697 2.05051C59.9713 4.7688 59.9708 7.43424 59.9682 10.0479C59.9676 10.4977 59.8815 10.9279 59.7097 11.3391Z" fill="#352610"/>
<path d="M65.4523 3.96066C65.4138 3.83328 65.3958 3.83593 65.3979 3.96912L65.5454 12.5532C65.5459 12.5706 65.5374 12.5796 65.52 12.5796H62.9301C62.9227 12.5796 62.9169 12.5738 62.9169 12.5664V2.0484C62.9169 2.03096 62.9259 2.02197 62.9434 2.02197H66.8567C66.8762 2.02197 66.8889 2.03149 66.8947 2.05051L69.3588 10.4765C69.3694 10.5119 69.3752 10.5109 69.3762 10.4744C69.3799 10.3391 69.3799 10.1731 69.3762 9.97705C69.325 7.43952 69.2795 4.79787 69.2399 2.05157C69.2393 2.03201 69.2494 2.02197 69.2695 2.02197H71.8625C71.8799 2.02197 71.8889 2.03096 71.8889 2.0484V12.5532C71.8889 12.5706 71.8799 12.5796 71.8625 12.5796H68.1072C68.0866 12.5796 68.0734 12.5701 68.0676 12.5505L65.4523 3.96066Z" fill="#352610"/>
<path d="M21.2584 15.9358H26.9724C26.982 15.9358 26.9894 15.9432 26.9894 15.9527V38.8311C26.9894 38.8407 26.982 38.8481 26.9724 38.8481H21.3974C21.3916 38.8481 21.3858 38.8449 21.3831 38.8401L13.4365 26.2963C13.4275 26.282 13.4053 26.2883 13.4053 26.3052L13.4058 38.8311C13.4058 38.8407 13.3984 38.8481 13.3889 38.8481H7.67487C7.66536 38.8481 7.65796 38.8407 7.65796 38.8311V15.9527C7.65796 15.9432 7.66536 15.9358 7.67487 15.9358H13.5147C13.5205 15.9358 13.5264 15.939 13.529 15.9437L21.2108 28.0267C21.2198 28.041 21.242 28.0346 21.242 28.0177L21.2415 15.9527C21.2415 15.9432 21.2489 15.9358 21.2584 15.9358Z" fill="#352610"/>
<path d="M34.0189 30.1329V33.2529C34.0189 33.2635 34.0274 33.2719 34.0379 33.2719H42.5887C42.5992 33.2719 42.6077 33.2804 42.6077 33.291V38.829C42.6077 38.8396 42.5992 38.8481 42.5887 38.8481H28.2901C28.2795 38.8481 28.271 38.8396 28.271 38.829V15.9548C28.271 15.9442 28.2795 15.9358 28.2901 15.9358H42.5887C42.5992 15.9358 42.6077 15.9442 42.6077 15.9548V21.4929C42.6077 21.5034 42.5992 21.5119 42.5887 21.5119H34.0379C34.0274 21.5119 34.0189 21.5204 34.0189 21.5309V24.5188C34.0189 24.5293 34.0274 24.5378 34.0379 24.5378H42.5887C42.5992 24.5378 42.6077 24.5463 42.6077 24.5568V30.0949C42.6077 30.1055 42.5992 30.1139 42.5887 30.1139H34.0379C34.0274 30.1139 34.0189 30.1224 34.0189 30.1329Z" fill="#352610"/>
<path d="M50.2229 27.3777L43.2536 15.9622C43.2462 15.9506 43.2546 15.9358 43.2684 15.9358H49.7478C49.7536 15.9358 49.7594 15.939 49.7626 15.9437L57.0052 27.3782C57.0089 27.384 57.0089 27.3914 57.0052 27.3972L49.7879 38.8401C49.7848 38.8449 49.779 38.8481 49.7731 38.8481H43.2626C43.2488 38.8481 43.2404 38.8333 43.2478 38.8216L50.2229 27.3956C50.2261 27.3903 50.2261 27.3829 50.2229 27.3777Z" fill="#352610"/>
<path d="M64.2663 15.9617L60.4402 21.9971C60.4338 22.0077 60.4185 22.0071 60.4116 21.9966L56.714 15.9617C56.7071 15.9501 56.715 15.9358 56.7282 15.9358H64.252C64.2652 15.9358 64.2732 15.9506 64.2663 15.9617Z" fill="#352610"/>
<path d="M70.8931 21.5119H65.3001C65.2901 21.5119 65.2821 21.504 65.2821 21.4939V15.9538C65.2821 15.9437 65.2901 15.9358 65.3001 15.9358H82.3096C82.3197 15.9358 82.3276 15.9437 82.3276 15.9538V21.4939C82.3276 21.504 82.3197 21.5119 82.3096 21.5119H76.677C76.6669 21.5119 76.659 21.5198 76.659 21.5299V38.8301C76.659 38.8401 76.6511 38.8481 76.641 38.8481H70.9291C70.919 38.8481 70.9111 38.8401 70.9111 38.8301V21.5299C70.9111 21.5198 70.9032 21.5119 70.8931 21.5119Z" fill="#352610"/>
<path d="M56.7076 38.8231L60.4122 32.7761C60.4185 32.766 60.4333 32.766 60.4402 32.7761L64.2732 38.8226C64.28 38.8337 64.2721 38.848 64.2594 38.848H56.7214C56.7087 38.848 56.7007 38.8337 56.7076 38.8231Z" fill="#352610"/>
</svg>
