<svg width="60" height="60" viewBox="0 0 60 60" fill="none" xmlns="http://www.w3.org/2000/svg">
<path d="M42.5 25C44.0229 25.0001 45.5097 24.5365 46.7627 23.671C48.0158 22.8055 48.9756 21.5791 49.5147 20.1548C50.0537 18.7305 50.1464 17.1758 49.7804 15.6976C49.4145 14.2193 48.6071 12.8875 47.4658 11.8793C46.3245 10.871 44.9034 10.234 43.3913 10.0531C41.8792 9.8722 40.3478 10.1559 39.0009 10.8664C37.6539 11.577 36.5552 12.6808 35.8508 14.0309C35.1464 15.3811 34.8697 16.9137 35.0575 18.425L22.7075 24.6C21.6481 23.5784 20.3115 22.8911 18.8642 22.6236C17.417 22.3562 15.923 22.5205 14.5685 23.096C13.2139 23.6716 12.0586 24.6329 11.2465 25.8603C10.4344 27.0878 10.0014 28.527 10.0014 29.9988C10.0014 31.4705 10.4344 32.9097 11.2465 34.1372C12.0586 35.3646 13.2139 36.326 14.5685 36.9015C15.923 37.477 17.417 37.6413 18.8642 37.3739C20.3115 37.1065 21.6481 36.4191 22.7075 35.3975L35.0575 41.5725C34.8388 43.3281 35.2477 45.1045 36.212 46.5878C37.1763 48.0711 38.6339 49.1657 40.3272 49.6782C42.0205 50.1908 43.8405 50.0882 45.4655 49.3887C47.0905 48.6892 48.4159 47.4377 49.2074 45.8555C49.999 44.2733 50.2057 42.4621 49.7911 40.7422C49.3765 39.0223 48.3672 37.5044 46.9417 36.4566C45.5161 35.4088 43.7661 34.8988 42.0008 35.0165C40.2356 35.1342 38.5688 35.8722 37.295 37.1L24.945 30.925C25.0207 30.3107 25.0207 29.6894 24.945 29.075L37.295 22.9C38.64 24.2 40.475 25 42.5 25Z" fill="#CF32E5"/>
</svg>
