<svg width="33" height="48" viewBox="0 0 33 48" fill="none" xmlns="http://www.w3.org/2000/svg">
<g clip-path="url(#clip0_61_143)">
<path fill-rule="evenodd" clip-rule="evenodd" d="M1.0752 6.76457L7.76325 0.217025L7.7637 0.216797H25.3532L32.0399 6.77479V16.5984L23.2454 16.5919C23.2941 16.8484 23.2292 17.0425 23.187 17.1399C23.0571 17.4256 22.7747 17.6074 22.4728 17.6074C22.4176 17.6074 22.3656 17.6048 22.3169 17.5918L22.1092 17.5139C22.099 17.5092 22.0886 17.5043 22.0779 17.4992C22.0444 17.4834 22.0083 17.4663 21.9689 17.4516C21.9202 17.4353 21.8455 17.4193 21.7482 17.4126L21.7131 17.41C21.7021 17.41 21.6902 17.4091 21.6779 17.4082C21.6648 17.4072 21.6512 17.4061 21.6378 17.4061H21.5897C21.1872 17.3931 20.3489 17.3373 19.5795 17.1165C19.6672 17.2302 19.7808 17.3607 19.9107 17.497L19.9302 17.5165C19.9983 17.5944 20.0899 17.6821 20.2003 17.7697C20.3269 17.8801 20.4431 17.9639 20.5535 18.032L20.5665 18.0398L20.6418 18.0879C20.8463 18.221 21.0697 18.358 21.2872 18.4879C21.2872 18.4879 21.2885 18.4886 21.2902 18.4893C21.2916 18.4899 21.2934 18.4904 21.295 18.4904H26.2258L32.0408 24.416V41.2681L25.3528 47.8298H7.76329L1.07523 41.2588L1.07783 32.2664H9.92531C9.92869 32.2545 9.93098 32.2416 9.93334 32.2282C9.9355 32.216 9.93772 32.2035 9.94089 32.1911C10.0415 31.8405 10.3474 31.6366 10.698 31.5132C11.1233 31.3736 10.9837 31.2496 10.9837 31.2496H10.9798C10.6453 31.2951 10.4278 31.3145 10.272 31.3145C10.1389 31.3145 9.79151 31.3145 9.59022 31.0159C9.40514 30.7464 9.49024 30.4711 9.55515 30.2925H6.88907L1.0752 24.3579V6.76457ZM31.2417 7.12232L25.0293 1.02861H8.08566L1.87176 7.11245V24.0236L7.21864 29.4777L10.6664 29.481C10.2892 29.8202 10.1658 30.1717 10.1027 30.3513L10.0982 30.3641C10.0877 30.3947 10.0771 30.4237 10.0671 30.4509C9.95149 30.7662 9.92172 30.8474 11.0365 30.692C11.4196 30.6368 12.1176 30.39 12.4454 30.1693C12.7668 29.9485 13.4031 30.1271 13.3479 30.6043C13.0493 31.3348 12.2831 31.7925 11.5526 31.8835C9.87093 32.0945 10.5981 32.721 10.5981 32.721C10.7832 32.8477 10.9163 32.971 11.0105 33.0814H10.1923V33.0781H1.87476L1.87144 40.9118L8.08205 47.0152H25.029L31.2394 40.9215V24.7541L25.8925 19.3066H21.5716C21.3968 19.1895 21.191 19.0657 20.9755 18.9361L20.9754 18.9361L20.9753 18.936C20.7666 18.8105 20.5487 18.6794 20.3411 18.5437C20.3411 18.5428 20.3411 18.5421 20.3411 18.5416C20.341 18.5412 20.3409 18.541 20.3407 18.5408C20.3403 18.5404 20.3395 18.5404 20.3378 18.5404C20.1755 18.4462 20.0164 18.3294 19.8638 18.1962C19.7372 18.0956 19.6236 17.9885 19.5262 17.8813C19.1528 17.4917 18.8737 17.0859 18.799 16.8976C18.6594 16.5535 18.6918 16.1185 19.0067 16.297C19.8054 16.758 21.117 16.8457 21.6039 16.8619C21.6591 16.8619 22.0519 16.9074 22.1461 16.9366C22.2435 16.9755 22.3928 17.0469 22.3928 17.0469C22.5909 17.1313 22.948 16.8586 22.5357 16.3554C22.4285 16.1834 22.2662 15.9853 22.0747 15.784H31.2391V7.12236L31.2417 7.12232ZM8.40485 1.84062L2.66852 7.46037V23.6847L7.55129 28.6655H12.1353C12.3044 28.5911 12.4447 28.5343 12.563 28.4864C12.9916 28.3126 13.1303 28.2564 13.3006 27.913C13.3331 27.8433 13.3654 27.6421 13.3688 27.4454C13.3785 27.3897 13.4761 26.7983 13.1902 26.9422C12.972 27.0518 12.6548 26.9838 12.3045 26.9087C11.868 26.815 11.3803 26.7104 10.9696 26.9252C10.2293 27.3076 10.7715 26.4189 10.8754 26.2656C10.8754 26.2656 11.2715 25.7439 11.8688 25.3986C11.8916 25.3862 11.9111 25.3738 11.9272 25.3599C11.9857 25.3274 12.0442 25.2995 12.1059 25.2701L12.106 25.2701C12.5604 25.058 13.8555 24.1956 14.0893 23.9262C14.229 23.7698 14.4758 23.4122 14.4855 23.214C14.5276 23.0422 14.5603 22.7697 14.3948 22.6628C14.2341 22.5569 14.094 22.6546 13.9091 22.7836L13.9091 22.7836C13.8101 22.8526 13.6982 22.9306 13.5635 22.9911C13.1771 23.1629 12.8849 23.2341 12.5407 23.2465C12.3717 23.2521 12.2061 23.2217 12.058 23.1945L12.058 23.1945C11.9161 23.1685 11.7904 23.1454 11.6935 23.1598C11.4954 23.1923 11.3785 23.0421 11.7421 22.6752L11.7885 22.6287C11.9219 22.4951 11.987 22.4297 12.0572 22.3795C12.3241 22.2082 12.5825 22.0893 12.8252 21.9776L12.8252 21.9776C13.3678 21.728 13.8311 21.5147 14.1317 20.8343C14.1317 20.8343 14.4694 19.9518 13.8168 20.328C13.7492 20.3673 13.6874 20.4099 13.6247 20.4531C13.3563 20.638 13.0713 20.8343 12.2422 20.8343C11.2229 20.8343 10.8234 21.3189 10.6514 21.5295C10.6514 21.5295 9.95684 22.5003 10.1289 21.1393C10.3043 19.783 10.567 19.091 11.2066 18.5615C11.4069 18.3968 11.715 18.2115 12.0499 18.0101C12.6375 17.6568 13.3075 17.2539 13.6219 16.8258C13.875 16.575 14.5115 15.8473 14.1413 15.2313C14.0557 15.0885 13.9024 15.2275 13.7165 15.396C13.5642 15.5342 13.3899 15.6922 13.213 15.7312C12.7649 15.8489 12.1969 15.9944 11.7618 15.9062C11.2768 15.81 10.9496 15.9659 10.7422 16.0646C10.7192 16.0756 10.6976 16.0859 10.6774 16.0951C10.4761 16.1864 10.0962 15.8969 10.5604 15.3677C11.1837 14.6567 12.6903 13.7284 13.7032 13.1732C13.8428 13.1146 14.1835 12.9654 14.4951 12.7674C14.5016 12.764 14.5081 12.7607 14.5115 12.7607C14.5894 12.7249 14.7031 12.6567 14.7679 12.569C14.9887 12.3839 15.1414 12.1764 15.0894 11.9654C15.044 11.7738 14.9495 11.7088 14.6509 11.6763C14.5412 11.6658 14.3981 11.7193 14.2432 11.7773C14.0635 11.8445 13.868 11.9176 13.6902 11.9037C13.5638 11.8932 13.4227 11.8926 13.2859 11.8919H13.2859C12.8743 11.89 12.5017 11.8883 12.6869 11.6179C12.9173 11.2835 13.2906 11.0691 13.3977 11.0107C13.5054 10.9619 13.6322 10.9053 13.7869 10.8364L13.7871 10.8363C13.9308 10.7721 14.0985 10.6973 14.2971 10.6082C14.9432 10.316 14.8522 9.58243 14.6023 9.55657C14.5092 9.54647 14.3783 9.55804 14.243 9.57C13.8123 9.60808 13.3376 9.65004 13.9009 9.00771C13.9009 9.00771 14.2517 8.65393 14.6055 8.42339C14.8239 8.29647 15.0125 8.23103 15.2163 8.1603C15.2731 8.14061 15.331 8.12051 15.3911 8.09857C15.5633 8.03694 16.0148 7.63765 14.9433 7.59538C14.9433 7.59538 14.3459 7.61164 14.4595 7.33573C14.5537 7.15397 15.0798 6.82279 15.0798 6.82279C15.0798 6.82279 15.5015 6.53373 15.6737 6.36172C15.8392 6.20256 15.9561 6.07606 15.9463 5.93316C15.9426 5.84107 15.8051 5.73641 15.6541 5.62157C15.5391 5.53406 15.4164 5.44063 15.3391 5.34234C15.2126 5.17992 15.3197 5.12171 15.3911 5.1022C15.4301 5.09585 15.4756 5.0892 15.5309 5.0892C15.9658 5.09245 16.0892 4.65738 16.3431 3.52761L16.3595 3.45285C16.4191 3.17916 16.4323 3.11846 16.5336 3.11546C16.5397 3.11546 16.5444 3.11652 16.5484 3.11742C16.5515 3.11811 16.5541 3.11871 16.5568 3.11871C16.5568 3.11871 16.6636 3.69003 16.82 4.32961C16.9532 4.68339 17.0987 4.8328 17.3557 4.8294C17.4068 4.8294 17.4532 4.83574 17.492 4.8424C17.5632 4.86191 17.6731 4.92059 17.543 5.08285C17.5063 5.13059 17.442 5.18939 17.375 5.25075L17.3749 5.25076C17.2641 5.35217 17.1457 5.46054 17.1312 5.53742C17.0476 5.88795 17.382 6.0146 17.7226 6.04061C18.2057 6.07297 18.0044 6.37488 17.4827 6.76117C16.9795 7.13446 18.2676 7.93321 18.2676 7.93321C18.9285 8.44489 18.5699 8.61407 18.3835 8.70202L18.3834 8.70205C18.3628 8.71176 18.3443 8.72048 18.3296 8.72856C18.1794 8.80643 17.7675 9.05973 18.1794 9.22199C18.5959 9.38115 19.1672 9.95572 19.1672 9.95572C19.7305 10.6008 19.25 10.5576 18.8187 10.5189C18.6857 10.5069 18.5574 10.4954 18.4658 10.5046C18.215 10.5304 18.1252 11.2673 18.7708 11.5563C18.9469 11.636 19.0985 11.7037 19.2307 11.7629C19.8363 12.0337 20.0344 12.1223 20.3191 12.3356C20.9678 12.816 20.6241 13.225 19.8128 13.0821C19.8128 13.0821 19.2941 12.9524 18.9303 13.0238C18.7027 13.066 18.5463 13.1179 18.4395 13.1732C18.3838 13.2576 18.2553 13.5918 19.3839 13.9391C19.9227 14.1079 20.5916 14.514 21.1861 14.9781L30.4463 14.9685L30.4448 7.4661L24.7084 1.84H8.40516L8.40485 1.84062ZM22.3876 20.1179C22.6539 20.5592 22.8087 21.1367 22.9233 21.9851C22.9264 22.4945 22.2544 22.2468 22.0361 22.1137C21.8844 22.0099 21.6831 21.9139 21.423 21.852C21.0809 21.77 20.4102 21.4962 19.9271 21.299L19.927 21.299L19.9269 21.2989C19.717 21.2132 19.5425 21.142 19.4459 21.1073C19.1207 20.9881 18.8838 21.228 18.8451 21.3194H18.8482C18.7646 21.4742 18.9365 21.787 18.9365 21.787C19.2347 22.463 19.6961 22.6755 20.2376 22.9249C20.5283 23.0588 20.842 23.2033 21.166 23.4359C22.4418 24.3447 21.7605 24.5367 21.4973 24.4004C21.2388 24.2611 20.8099 24.3478 20.8099 24.3478C20.0682 24.5519 19.7009 24.3864 19.3278 24.2183C19.1829 24.153 19.0372 24.0874 18.8684 24.0428C18.2676 23.8802 18.7615 24.628 18.9783 24.8773C19.209 25.1467 20.508 26.0106 20.9585 26.2212C21.9432 26.6795 22.4557 27.4227 22.7607 28.3671C23.0345 29.212 22.7669 29.0833 22.5392 28.9739L22.5006 28.9555C22.4346 28.924 22.3817 28.8822 22.3268 28.8388C22.1874 28.7287 22.0347 28.6079 21.6181 28.6179C21.0344 28.6303 20.7062 28.5885 20.2897 28.2603C20.1853 28.1795 20.1005 28.0875 20.0286 28.0095L20.0172 27.9971C20.011 27.994 20.0079 27.9909 20.0048 27.9878C19.6053 27.6828 19.6828 28.6953 19.7648 28.861C19.9362 29.2065 20.0747 29.2625 20.5092 29.4382C20.8049 29.5578 21.2375 29.7327 21.9107 30.0919C22.6831 30.5046 22.8769 31.0556 22.9631 31.3005L22.9682 31.315C22.9784 31.3446 22.9887 31.3725 22.9984 31.3988L22.9985 31.399C23.1144 31.7143 23.1444 31.7959 22.0299 31.6402C21.6444 31.5875 20.9492 31.3413 20.6179 31.1168C20.3005 30.897 19.6611 31.075 19.7184 31.5519C20.0172 32.2827 20.7836 32.741 21.5144 32.8308C22.1538 32.9128 22.4433 33.0522 22.5594 33.1946C22.9093 33.5941 22.2606 34.1793 22.2606 34.1793C21.9355 34.5555 22.2869 34.9968 22.5269 35.1269C22.9171 35.325 23.6726 35.7787 23.9235 36.4289C25.1576 39.6054 24.1059 38.9354 23.4602 38.5242L23.4598 38.5239C23.4195 38.4982 23.3808 38.4736 23.3444 38.451C23.2331 38.3818 23.1037 38.2931 22.9602 38.1948C22.3011 37.7434 21.3427 37.087 20.4553 37.1582L20.2972 37.1708C19.3375 37.2478 18.9815 37.2764 18.3714 36.7912C17.7319 36.2819 17.7939 37.1071 17.7939 37.1071V41.1775C17.8326 42.0894 18.0013 42.9595 18.7259 43.6965C18.9704 43.9474 19.1909 44.0753 19.4244 44.2108C19.7572 44.4039 20.1163 44.6123 20.6086 45.2138C20.9941 45.6845 22.2544 46.1908 23.0951 46.2001L24.7084 46.2032L30.4448 40.5768V25.0879L25.5662 20.1179H22.3876ZM2.67192 33.8929L2.66867 40.5644L8.40501 46.1939H10.249C11.8186 46.1168 12.4993 45.008 13.0044 44.1853L13.0044 44.1852C13.0572 44.0992 13.1081 44.0163 13.1579 43.938C13.4364 43.497 13.866 43.1028 14.2511 42.7493C14.4136 42.6001 14.5681 42.4583 14.7001 42.3232C15.1708 41.8463 15.2553 40.7548 15.2682 39.5735V37.1071L15.2716 37.1319V36.542H15.2748V36.1487H15.2751V36.0574V34.9937C15.2751 34.746 14.9895 34.7274 14.3662 35.4024C13.836 35.971 13.0037 36.0186 12.3924 36.0535L12.3922 36.0535C12.2811 36.0599 12.1774 36.0658 12.084 36.0744C11.4769 36.1286 9.73033 37.039 9.23024 37.6908C8.92182 38.0964 8.48351 37.762 8.66202 36.9631H8.65552C8.7399 36.6039 8.89566 36.1193 9.1457 35.4799C9.48973 34.5881 10.7819 34.0647 10.7819 34.0647C10.7819 34.0647 10.9151 34.0059 11.032 33.8929H2.67192Z" fill="#352610"/>
</g>
<defs>
<clipPath id="clip0_61_143">
<rect width="31.3523" height="48" fill="white" transform="translate(0.820923)"/>
</clipPath>
</defs>
</svg>
