<svg width="126" height="60" viewBox="0 0 126 60" fill="none" xmlns="http://www.w3.org/2000/svg">
<g clip-path="url(#clip0_5851_42843)">
<path d="M0.0377197 0.668701H124.872L124.87 11.322C124.87 11.3862 124.819 11.4372 124.754 11.4372L123.259 11.4353C123.174 11.4334 123.131 11.3919 123.131 11.3069V2.42286C123.131 2.38887 123.104 2.36243 123.07 2.36243H1.78999C1.77677 2.36243 1.76733 2.37187 1.76733 2.38509V54.6226C1.76733 54.6509 1.74467 54.6736 1.71635 54.6736L0.0377197 54.6661V0.668701Z" fill="black"/>
<path d="M108.197 15.5428C109.494 15.4703 110.495 14.5007 110.432 13.3773C110.37 12.2538 109.267 11.4018 107.97 11.4744C106.672 11.5469 105.672 12.5165 105.734 13.6399C105.797 14.7634 106.9 15.6153 108.197 15.5428Z" fill="black"/>
<path d="M102.67 12.9836H98.9728C98.9217 12.9836 98.8802 13.0251 98.8802 13.0762V30.8179C98.8802 30.869 98.9217 30.9104 98.9728 30.9104H102.67C102.721 30.9104 102.762 30.869 102.762 30.8179V13.0762C102.762 13.0251 102.721 12.9836 102.67 12.9836Z" fill="black"/>
<path d="M70.6759 29.7359L70.625 30.7612C70.6193 30.8424 70.5759 30.8839 70.4947 30.8839H67.1129C67.0562 30.8839 67.0109 30.8386 67.0109 30.7819V13.1365C67.0109 13.0553 67.077 12.9911 67.1582 12.9911L70.8043 12.9893C70.8685 12.9893 70.9195 13.0402 70.9195 13.1044L70.9101 19.2072C70.9101 19.2714 70.9856 19.3035 71.0309 19.2581C72.043 18.2366 73.5857 17.6739 75.0264 17.791C79.7772 18.1762 81.4747 23.8239 79.7394 27.7268C78.7481 29.9587 76.7428 31.3805 74.2428 31.152C72.9116 31.0312 71.7768 30.5365 70.8383 29.6698C70.7382 29.5772 70.6835 29.598 70.6759 29.7359ZM74.1087 21.0992C69.375 20.6177 69.8583 28.7766 74.3108 27.8401C77.4509 27.1811 77.3583 21.4277 74.1087 21.0992Z" fill="black"/>
<path d="M19.0351 23.7237C16.503 23.2177 13.8878 22.081 13.4686 19.2052C12.9588 15.7215 15.9233 13.4764 19.0672 13.2139C21.0838 13.0459 23.2288 13.3782 24.8395 14.6206C24.8829 14.6546 24.8961 14.715 24.8716 14.766L23.2817 17.9835C23.2571 18.0345 23.1873 18.0477 23.1457 18.0081C21.9165 16.8506 19.9792 16.2181 18.3931 16.9658C17.77 17.2604 17.3735 17.9269 17.6756 18.5897C18.1099 19.5413 19.6299 19.8302 20.5287 20.0077C23.2364 20.5383 26.2821 21.8412 26.4256 24.9624C26.5804 28.3555 24.1597 30.357 20.9837 30.6856C18.3364 30.9594 15.8912 30.4779 13.8387 28.7596C13.7915 28.7181 13.7764 28.6501 13.8028 28.5934L15.4248 25.0814C15.4512 25.0247 15.5305 25.0209 15.5626 25.0738C15.8874 25.6044 16.2783 26.0217 16.7352 26.3276C17.989 27.1678 19.9093 27.6153 21.4029 27.047C21.9901 26.8223 22.3753 26.2917 22.2753 25.6497C22.0789 24.3808 20.0491 23.9258 19.0351 23.7237Z" fill="black"/>
<path d="M118.144 21.6883C115.804 23.3386 116.68 27.6588 119.815 27.7646C121.025 27.8042 122.024 27.3681 122.815 26.4523C122.862 26.3994 122.944 26.3994 122.989 26.4542L124.906 28.7918C124.964 28.8635 124.96 28.9674 124.898 29.0354C122.923 31.1313 119.165 31.8205 116.573 30.4553C114.804 29.5225 113.686 28.0913 113.223 26.1634C112.811 24.4451 113.046 22.3983 113.984 20.8801C115.789 17.9666 119.112 17.1547 122.279 18.2178C123.361 18.5822 124.25 19.1732 124.943 19.987C124.985 20.0361 124.985 20.1098 124.943 20.1588L122.985 22.5002C122.94 22.555 122.855 22.555 122.808 22.5021C121.626 21.1785 119.634 20.6366 118.144 21.6883Z" fill="black"/>
<path d="M47.8814 19.447C47.8833 19.4942 47.9399 19.515 47.972 19.481C49.2541 18.1064 50.81 17.5796 52.6416 17.8987C53.8481 18.1102 54.7979 18.8957 55.3058 19.9663C55.3361 20.0286 55.37 20.0324 55.4097 19.9757C56.8278 17.9988 59.526 17.268 61.8051 18.2216C63.546 18.9504 64.2069 20.9991 64.2145 22.7174C64.2277 25.427 64.2296 28.1177 64.2239 30.7877C64.2239 30.8537 64.171 30.9066 64.1049 30.9066L60.4456 30.9085C60.3644 30.9085 60.3247 30.8688 60.3266 30.7877C60.3323 28.1272 60.3285 25.5648 60.3153 23.1007C60.3096 21.9904 59.7148 21.1275 58.58 21.0784C57.0921 21.0161 56.1046 21.9432 56.1102 23.4312C56.1197 25.6347 56.1234 28.0951 56.1216 30.8103C56.1197 30.8632 56.0762 30.9066 56.0234 30.9066L52.3092 30.9104C52.2677 30.9104 52.2356 30.8783 52.2356 30.8368C52.2318 28.3065 52.2318 25.8028 52.2356 23.3273C52.2375 22.1491 51.688 21.052 50.3512 21.0803C49.3259 21.1049 48.6272 21.509 48.2534 22.2945C48.0891 22.6362 48.0136 23.1762 48.023 23.9145C48.0513 26.1729 48.0551 28.4651 48.0343 30.7914C48.0343 30.8688 47.9947 30.9085 47.9154 30.9085L44.2522 30.9104C44.1805 30.9104 44.1446 30.8745 44.1446 30.8028L44.1465 18.1649C44.1465 18.0988 44.1994 18.046 44.2636 18.046H47.6132C47.7624 18.046 47.8379 18.1196 47.8436 18.2688L47.8814 19.447Z" fill="black"/>
<path d="M96.3802 22.6475C97.2413 25.9878 95.742 29.2865 92.5169 30.6177C88.429 32.3039 83.3478 30.0059 82.8096 25.4534C82.4244 22.1887 83.9879 19.362 87.0751 18.2291C90.8818 16.8337 95.3493 18.6558 96.3802 22.6475ZM89.6868 27.8382C91.3614 27.8344 92.7152 26.3163 92.7114 24.4474C92.7077 22.5776 91.3481 21.0633 89.6749 21.0671C88.0003 21.0708 86.6465 22.589 86.6503 24.4579C86.654 26.3276 88.0135 27.842 89.6868 27.8382Z" fill="black"/>
<path d="M34.7507 25.7725C34.7602 25.797 34.7941 25.797 34.8036 25.7725L37.449 18.1686C37.4754 18.095 37.5453 18.0459 37.6227 18.0459H41.7749C41.8315 18.0459 41.8693 18.1025 41.8485 18.1554C39.3164 24.1203 36.6049 30.274 34.2522 36.3729C34.2296 36.4334 34.171 36.4749 34.1049 36.4749H30.4928C30.4286 36.4749 30.3852 36.4107 30.4097 36.3522L32.8342 30.6441C32.8587 30.5856 32.8587 30.5176 32.8323 30.459L27.1827 18.1309C27.1657 18.0912 27.1941 18.0478 27.2375 18.0478L31.4029 18.0459C31.4765 18.0459 31.5426 18.0893 31.571 18.1573L34.7507 25.7725Z" fill="black"/>
<path d="M109.926 18.0459H106.256C106.199 18.0459 106.154 18.0915 106.154 18.1479V30.8065C106.154 30.8628 106.199 30.9084 106.256 30.9084H109.926C109.983 30.9084 110.028 30.8628 110.028 30.8065V18.1479C110.028 18.0915 109.983 18.0459 109.926 18.0459Z" fill="black"/>
<path d="M65.8939 39.2649C67.1925 39.1969 68.1976 38.2316 68.1387 37.109C68.0799 35.9864 66.9794 35.1315 65.6808 35.1995C64.3822 35.2676 63.3771 36.2328 63.436 37.3555C63.4948 38.4781 64.5952 39.333 65.8939 39.2649Z" fill="black"/>
<path d="M102.808 36.7034H99.1144C99.0685 36.7034 99.0313 36.7406 99.0313 36.7865V54.5395C99.0313 54.5854 99.0685 54.6226 99.1144 54.6226H102.808C102.854 54.6226 102.891 54.5854 102.891 54.5395V36.7865C102.891 36.7406 102.854 36.7034 102.808 36.7034Z" fill="black"/>
<path d="M20.2133 41.662C16.5521 43.3859 16.824 49.5944 20.8043 50.7726C22.9626 51.409 24.8394 50.9728 26.4369 49.4603C26.4765 49.4226 26.5388 49.4301 26.569 49.4754L28.4271 52.4267C28.4724 52.5003 28.4648 52.5664 28.4025 52.625C27.6642 53.3444 26.7314 53.8995 25.6079 54.2866C22.5698 55.3346 18.9765 55.0362 16.4633 52.9346C14.9357 51.6582 13.9897 50.0721 13.6215 48.1763C13.2137 46.071 13.4006 44.1431 14.1805 42.3946C15.5249 39.3886 18.3968 37.5683 21.6786 37.3625C24.3844 37.1926 26.6729 38.0442 28.5441 39.9173C28.6045 39.9777 28.6083 40.0759 28.5517 40.1401L26.1857 42.8572C26.1442 42.9063 26.0687 42.9063 26.0252 42.8591C24.4845 41.1843 22.313 40.6763 20.2133 41.662Z" fill="black"/>
<path d="M73.1854 45.1552L70.7099 45.1759C70.6476 45.1759 70.5948 45.1231 70.5948 45.0607L70.5929 41.8791C70.5929 41.8168 70.6457 41.7639 70.708 41.7639L73.1854 41.779C73.2477 41.779 73.3006 41.7261 73.3006 41.6638L73.2968 38.6332C73.2968 38.569 73.3478 38.5181 73.412 38.5181L77.06 38.52C77.1242 38.52 77.1752 38.5709 77.1752 38.6351V41.662C77.1752 41.7261 77.2262 41.7771 77.2904 41.7771L79.9811 41.7639C80.0434 41.7639 80.0963 41.8168 80.0963 41.8791L80.0925 45.057C80.0925 45.1193 80.0396 45.1721 79.9773 45.1721L77.2885 45.1495C77.2262 45.1495 77.1733 45.2024 77.1733 45.2647V54.5075C77.1733 54.5717 77.1223 54.6227 77.0581 54.6227H73.412C73.3478 54.6227 73.2968 54.5717 73.2968 54.5075L73.3006 45.2703C73.3006 45.208 73.2477 45.1552 73.1854 45.1552Z" fill="black"/>
<path d="M123.223 40.8499L124.781 40.8442C124.832 40.8442 124.873 40.8858 124.873 40.9368V54.6018C124.873 54.6528 124.832 54.6943 124.781 54.6943L114.143 54.6962C114.092 54.6962 114.05 54.6547 114.05 54.6037L114.06 53.0629C114.06 53.0119 114.101 52.9704 114.152 52.9704L123.034 52.9685C123.085 52.9685 123.127 52.9269 123.127 52.876L123.131 40.9424C123.131 40.8914 123.172 40.8499 123.223 40.8499Z" fill="black"/>
<path d="M40.2492 53.2236C39.3466 54.1544 38.3062 54.6813 37.1299 54.8002C29.4882 55.5763 28.5592 42.8629 35.6646 41.5846C37.4244 41.2674 39.1408 41.7998 40.321 43.1952C40.4059 43.2953 40.4475 43.2802 40.4456 43.1499L40.4342 41.8848C40.4342 41.8168 40.4682 41.7828 40.5343 41.7828L44.1654 41.7583C44.2296 41.7583 44.2805 41.8093 44.2805 41.8735L44.2824 54.5226C44.2824 54.5774 44.2371 54.6227 44.1824 54.6227H40.4966C40.421 54.6227 40.3587 54.5604 40.3606 54.4849L40.3757 53.2745C40.3776 53.1518 40.3342 53.1348 40.2492 53.2236ZM38.0419 44.8153C35.253 44.4339 34.2333 47.2077 34.8546 49.4736C35.3228 51.1805 36.8636 51.9226 38.5196 51.4354C41.3463 50.6027 41.1404 45.2402 38.0419 44.8153Z" fill="black"/>
<path d="M91.6805 53.2913C91.6824 53.1667 91.6408 53.1478 91.5521 53.2366C89.6733 55.1097 86.6635 55.4533 84.5638 53.7521C81.1895 51.0141 81.2386 44.6546 85.0736 42.2925C87.0921 41.05 89.9509 41.2067 91.5596 43.1365C91.6975 43.3008 91.7617 43.2762 91.756 43.0629L91.7182 41.9186C91.7164 41.8393 91.7806 41.7732 91.8599 41.7732L95.4758 41.7619C95.5343 41.7619 95.5834 41.8091 95.5834 41.8676L95.5815 54.5281C95.5815 54.581 95.54 54.6225 95.489 54.6225H91.7957C91.7145 54.6225 91.6503 54.5545 91.6522 54.4734L91.6805 53.2913ZM91.4558 49.9171C92.2432 48.0553 91.6975 45.0002 89.1522 44.7849C87.3886 44.6357 86.2254 45.8593 86.0253 47.5228C85.8025 49.345 86.4501 51.3049 88.4837 51.5542C89.7696 51.7128 90.9441 51.1274 91.4558 49.9171Z" fill="black"/>
<path d="M51.5502 59.9586H47.7039L47.6982 41.8487C47.6982 41.811 47.7303 41.7789 47.7681 41.7789L51.2462 41.7638C51.3311 41.7619 51.401 41.8318 51.4029 41.9167L51.4274 42.959C51.4312 43.0987 51.4841 43.1195 51.5842 43.0213C52.2771 42.3472 53.0928 41.9054 54.0294 41.6958C56.3614 41.1765 58.2533 41.8525 59.7016 43.7237C62.1582 46.8997 61.3651 53.044 57.2469 54.5262C55.3776 55.1966 53.1873 54.8114 51.7163 53.4443C51.6295 53.3631 51.5861 53.382 51.5861 53.5009L51.5502 59.9586ZM53.7273 44.8661C51.9089 45.2551 51.2575 47.183 51.52 48.8503C51.8013 50.6346 52.7775 51.5447 54.4486 51.5768C58.5309 51.6599 58.2118 43.9088 53.7273 44.8661Z" fill="black"/>
<path d="M67.6378 41.7695H63.9558C63.9047 41.7695 63.8633 41.811 63.8633 41.8621V54.5282C63.8633 54.5793 63.9047 54.6207 63.9558 54.6207H67.6378C67.6889 54.6207 67.7303 54.5793 67.7303 54.5282V41.8621C67.7303 41.811 67.6889 41.7695 67.6378 41.7695Z" fill="black"/>
</g>
<defs>
<clipPath id="clip0_5851_42843">
<rect width="125" height="59.29" fill="white" transform="translate(0.0377197 0.668701)"/>
</clipPath>
</defs>
</svg>
