<svg width="21" height="21" viewBox="0 0 21 21" fill="none" xmlns="http://www.w3.org/2000/svg">
<path d="M2.60375 9.98151C2.60375 9.98151 10.5647 6.71432 13.3257 5.56387C14.3841 5.10373 17.9735 3.63114 17.9735 3.63114C17.9735 3.63114 19.6301 2.98694 19.492 4.55149C19.446 5.19575 19.0779 7.45055 18.7098 9.88948C18.1575 13.3408 17.5593 17.1142 17.5593 17.1142C17.5593 17.1142 17.4673 18.1726 16.685 18.3566C15.9027 18.5407 14.6142 17.7124 14.3841 17.5283C14.2 17.3903 10.9328 15.3195 9.7364 14.3071C9.41427 14.031 9.04615 13.4789 9.78238 12.8346C11.439 11.316 13.4177 9.42933 14.6142 8.2329C15.1664 7.68066 15.7186 6.39219 13.4177 7.95674C10.1506 10.2116 6.92936 12.3284 6.92936 12.3284C6.92936 12.3284 6.19307 12.7885 4.81257 12.3744C3.43201 11.9603 1.82141 11.408 1.82141 11.408C1.82141 11.408 0.717067 10.7178 2.60375 9.98151Z" fill="#FDFDFD"/>
</svg>
