<svg width="24" height="24" viewBox="0 0 24 24" fill="none" xmlns="http://www.w3.org/2000/svg">
<path d="M3.57711 11.5937C3.57711 11.5937 12.0688 8.16921 15.0139 6.96336C16.1429 6.48106 19.9715 4.93757 19.9715 4.93757C19.9715 4.93757 21.7386 4.26235 21.5913 5.90224C21.5422 6.57752 21.1495 8.94089 20.7568 11.4972C20.1678 15.1147 19.5297 19.0698 19.5297 19.0698C19.5297 19.0698 19.4315 20.1792 18.5971 20.3721C17.7627 20.565 16.3882 19.6969 16.1429 19.5039C15.9465 19.3592 12.4615 17.1887 11.1853 16.1276C10.8417 15.8382 10.449 15.2594 11.2343 14.5842C13.0014 12.9925 15.112 11.0149 16.3882 9.7609C16.9773 9.18207 17.5663 7.83157 15.112 9.47145C11.627 11.8349 8.1911 14.0536 8.1911 14.0536C8.1911 14.0536 7.40572 14.5359 5.93319 14.1018C4.46059 13.6678 2.74262 13.0889 2.74262 13.0889C2.74262 13.0889 1.56465 12.3654 3.57711 11.5937Z" fill="#CF32E5"/>
</svg>
