<svg width="128" height="34" viewBox="0 0 128 34" fill="none" xmlns="http://www.w3.org/2000/svg">
<g clip-path="url(#clip0_6310_17800)">
<path d="M3.73094 -0.00483737C3.76595 -0.00489512 3.80096 -0.00495287 3.83703 -0.00501237C3.9548 -0.00515887 4.07258 -0.00502739 4.19036 -0.00489818C4.27596 -0.00494657 4.36156 -0.00501202 4.44715 -0.005093C4.68396 -0.00526699 4.92076 -0.0051968 5.15757 -0.00508904C5.38892 -0.0050221 5.62028 -0.0051389 5.85164 -0.0052502C6.3327 -0.005475 6.81376 -0.00551396 7.29482 -0.0054539C7.78517 -0.00539342 8.27552 -0.00541797 8.76587 -0.00554508C8.81246 -0.00555708 8.81246 -0.00555708 8.85999 -0.00556931C9.01857 -0.0056105 9.17715 -0.00565301 9.33572 -0.00569595C10.495 -0.00600676 11.6542 -0.00612321 12.8135 -0.00614172C13.9889 -0.00616097 15.1642 -0.00626388 16.3396 -0.00646916C16.4145 -0.00648215 16.4894 -0.00649514 16.5643 -0.00650813C16.8662 -0.00656063 17.1681 -0.00661372 17.4701 -0.0066675C20.7925 -0.00725837 24.115 -0.00752211 27.4375 -0.00769653C27.5005 -0.00769984 27.5005 -0.00769984 27.5649 -0.00770322C27.7775 -0.00771438 27.9901 -0.00772548 28.2027 -0.00773649C29.9834 -0.00782897 31.7642 -0.00797344 33.545 -0.00812739C34.3976 -0.0082011 35.2503 -0.00827231 36.1029 -0.00834293C36.1453 -0.00834644 36.1877 -0.00834995 36.2314 -0.00835357C38.2723 -0.00852246 40.3132 -0.00867545 42.3541 -0.0088103C42.3976 -0.00881317 42.4411 -0.00881605 42.486 -0.00881901C45.2608 -0.00900188 48.0355 -0.00911182 50.8103 -0.00917587C51.0378 -0.00918115 51.2653 -0.00918657 51.4928 -0.00919198C51.8576 -0.00920064 52.2223 -0.00920927 52.5871 -0.00921784C52.6323 -0.0092189 52.6775 -0.00921996 52.7241 -0.00922105C52.8154 -0.0092232 52.9068 -0.00922535 52.9981 -0.00922749C53.639 -0.00924255 54.2798 -0.00925766 54.9206 -0.00927303C55.1499 -0.00927852 55.3792 -0.00928398 55.6085 -0.00928934C59.9397 -0.00939077 64.2709 -0.00959843 68.602 -0.0102195C68.6704 -0.0102293 68.6704 -0.0102293 68.7402 -0.0102393C70.165 -0.0104438 71.5897 -0.0106609 73.0145 -0.0108803C74.4764 -0.0111054 75.9383 -0.0113286 77.4001 -0.0115407C77.4452 -0.0115472 77.4902 -0.0115537 77.5365 -0.0115605C80.355 -0.0119691 83.1735 -0.0122364 85.992 -0.0123533C86.0355 -0.0123552 86.079 -0.012357 86.1239 -0.0123589C88.0353 -0.0124387 89.9466 -0.0124872 91.858 -0.0125009C92.627 -0.0125064 93.3959 -0.0125157 94.1648 -0.0125267C94.2923 -0.0125285 94.4198 -0.0125301 94.5473 -0.0125317C96.498 -0.0125569 98.4487 -0.0126722 100.399 -0.013056C100.463 -0.0130684 100.463 -0.0130684 100.527 -0.013081C101.204 -0.0132146 101.881 -0.0133553 102.558 -0.0134968C104.479 -0.0138984 106.401 -0.0142405 108.322 -0.014165C108.381 -0.0141627 108.381 -0.0141627 108.44 -0.0141604C109.29 -0.0141263 110.141 -0.0140596 110.991 -0.013961C111.33 -0.0139222 111.669 -0.0138876 112.008 -0.0138545C112.063 -0.0138489 112.063 -0.0138489 112.12 -0.0138432C113.294 -0.0137267 114.468 -0.0139697 115.641 -0.0144199C116.797 -0.0148616 117.952 -0.0149499 119.108 -0.014521C119.266 -0.0144623 119.424 -0.0144077 119.582 -0.0143556C119.613 -0.0143453 119.644 -0.0143349 119.676 -0.0143242C120.165 -0.0141714 120.654 -0.0144089 121.142 -0.0148128C121.62 -0.0151999 122.098 -0.0151737 122.576 -0.0147018C122.83 -0.0144618 123.085 -0.0144182 123.339 -0.0148843C123.57 -0.0153036 123.801 -0.015186 124.032 -0.0146392C124.115 -0.0145369 124.198 -0.0146298 124.281 -0.0149435C125.293 -0.0185223 126.143 0.202461 126.888 0.925045C127.519 1.56377 127.779 2.40298 127.776 3.28318C127.776 3.33552 127.776 3.33552 127.777 3.38892C127.777 3.50552 127.777 3.62212 127.777 3.73871C127.777 3.82329 127.777 3.90786 127.777 3.99243C127.777 4.2246 127.777 4.45677 127.777 4.68894C127.777 4.93943 127.777 5.18992 127.777 5.4404C127.778 5.93108 127.778 6.42175 127.778 6.91242C127.778 7.31128 127.778 7.71014 127.778 8.109C127.778 8.22388 127.778 8.33876 127.778 8.45364C127.778 8.4822 127.778 8.51076 127.778 8.54019C127.778 9.3434 127.779 10.1466 127.779 10.9498C127.779 10.9801 127.779 11.0104 127.779 11.0416C127.779 11.195 127.779 11.3484 127.779 11.5019C127.779 11.5323 127.779 11.5628 127.779 11.5942C127.779 11.6558 127.779 11.7174 127.779 11.7791C127.778 12.7376 127.779 13.6962 127.779 14.6547C127.78 15.7321 127.78 16.8095 127.78 17.8868C127.78 18.0018 127.78 18.1167 127.78 18.2316C127.78 18.2599 127.78 18.2882 127.78 18.3174C127.78 18.7723 127.78 19.2272 127.781 19.6821C127.781 20.1395 127.781 20.5969 127.781 21.0543C127.781 21.302 127.781 21.5496 127.781 21.7973C127.781 22.0242 127.781 22.2511 127.781 22.478C127.781 22.5599 127.781 22.6418 127.781 22.7237C127.784 23.8138 127.584 24.6929 126.815 25.5098C126.067 26.2364 125.178 26.3788 124.174 26.3764C124.088 26.3765 124.002 26.3766 123.916 26.3768C123.68 26.3771 123.443 26.3769 123.206 26.3766C122.975 26.3765 122.744 26.3767 122.512 26.3769C122.031 26.3772 121.55 26.3772 121.069 26.377C120.579 26.3768 120.089 26.3768 119.599 26.377C119.568 26.377 119.537 26.377 119.505 26.377C119.346 26.377 119.188 26.3771 119.029 26.3772C117.87 26.3776 116.711 26.3776 115.552 26.3775C114.377 26.3773 113.202 26.3773 112.027 26.3776C111.99 26.3776 111.953 26.3776 111.915 26.3776C111.575 26.3777 111.236 26.3777 110.896 26.3778C110.045 26.378 109.194 26.3781 108.343 26.3782C108.304 26.3782 108.265 26.3782 108.225 26.3782C106.301 26.3785 104.377 26.3785 102.454 26.3784C102.391 26.3784 102.391 26.3784 102.327 26.3784C102.158 26.3784 101.989 26.3784 101.821 26.3784C101.354 26.3784 100.888 26.3784 100.422 26.3784C100.358 26.3784 100.358 26.3784 100.294 26.3784C98.3861 26.3783 96.4783 26.3784 94.5705 26.3785C94.3153 26.3786 94.0601 26.3786 93.805 26.3786C93.7628 26.3786 93.7206 26.3786 93.6772 26.3786C93.5919 26.3786 93.5066 26.3786 93.4214 26.3786C93.2079 26.3786 92.9944 26.3787 92.7808 26.3787C92.7173 26.3787 92.7173 26.3787 92.6526 26.3787C92.4385 26.3787 92.2244 26.3787 92.0104 26.3787C90.0125 26.3789 88.0147 26.379 86.0169 26.3791C85.9733 26.3791 85.9298 26.3791 85.8849 26.3791C83.1107 26.3792 80.3365 26.3792 77.5623 26.3791C77.4258 26.3791 77.2894 26.3791 77.153 26.3791C76.1487 26.379 75.1444 26.379 74.1402 26.379C74.0486 26.379 73.957 26.379 73.8654 26.379C73.7738 26.3789 73.6821 26.3789 73.5905 26.3789C73.5451 26.3789 73.4997 26.3789 73.453 26.3789C73.2238 26.3789 72.9945 26.3789 72.7653 26.3789C68.4352 26.3787 64.105 26.3787 59.7749 26.3792C59.7065 26.3792 59.7065 26.3792 59.6367 26.3792C58.2581 26.3794 56.8794 26.3795 55.5008 26.3797C53.9933 26.3799 52.4858 26.3801 50.9783 26.3803C50.9333 26.3803 50.8883 26.3803 50.842 26.3803C48.0239 26.3806 45.2059 26.3808 42.3878 26.3808C42.3443 26.3808 42.3008 26.3808 42.2559 26.3808C40.3448 26.3809 38.4337 26.3808 36.5226 26.3808C35.7963 26.3808 35.0701 26.3808 34.3438 26.3807C34.1738 26.3807 34.0037 26.3807 33.8337 26.3807C31.8834 26.3807 29.9331 26.3807 27.9828 26.381C27.9197 26.381 27.9197 26.381 27.8553 26.3811C27.1785 26.3812 26.5017 26.3813 25.8248 26.3814C23.9039 26.3817 21.9829 26.3819 20.062 26.3818C20.023 26.3818 19.9841 26.3818 19.9439 26.3818C19.0939 26.3817 18.2439 26.3816 17.3939 26.3814C17.0549 26.3814 16.716 26.3813 16.377 26.3813C16.34 26.3813 16.303 26.3813 16.2649 26.3812C15.0915 26.3811 13.918 26.3813 12.7445 26.3816C11.5893 26.382 10.4341 26.382 9.27892 26.3815C9.12077 26.3815 8.96261 26.3814 8.80445 26.3814C8.77348 26.3813 8.74252 26.3813 8.71062 26.3813C8.22212 26.3811 7.73363 26.3814 7.24513 26.3817C6.76735 26.3821 6.28958 26.382 5.81181 26.3815C5.55739 26.3813 5.30297 26.3812 5.04855 26.3817C4.8177 26.3821 4.58685 26.382 4.35599 26.3814C4.27322 26.3813 4.19045 26.3814 4.10768 26.3817C3.54453 26.3836 2.99207 26.3689 2.47174 26.1256C2.43311 26.1081 2.43311 26.1081 2.39369 26.0903C2.15416 25.9775 1.94615 25.8333 1.7415 25.6656C1.70038 25.634 1.70038 25.634 1.65843 25.6017C1.04852 25.109 0.703612 24.3279 0.61206 23.5625C0.606756 23.4435 0.606689 23.3248 0.606941 23.2057C0.606861 23.1704 0.606781 23.1352 0.606699 23.0988C0.606479 22.9805 0.606535 22.8622 0.60659 22.7438C0.60649 22.6582 0.606372 22.5726 0.60624 22.4869C0.605925 22.2515 0.605856 22.016 0.605827 21.7806C0.605762 21.5528 0.605516 21.325 0.605278 21.0971C0.604653 20.4869 0.604423 19.8766 0.604237 19.2664C0.604146 18.9776 0.604006 18.6888 0.603859 18.4C0.603359 17.4112 0.602942 16.4223 0.602807 15.4335C0.602799 15.3714 0.60279 15.3094 0.602782 15.2473C0.602773 15.1851 0.602764 15.1229 0.602756 15.0607C0.602738 14.9359 0.602721 14.8111 0.602704 14.6863C0.602699 14.6554 0.602695 14.6245 0.602691 14.5926C0.602549 13.5895 0.601929 12.5864 0.601022 11.5834C0.600063 10.5225 0.599529 9.46153 0.599483 8.40061C0.599476 8.28409 0.599468 8.16758 0.599458 8.05106C0.599456 8.02237 0.599454 7.99368 0.599452 7.96412C0.599407 7.50292 0.598978 7.04172 0.598411 6.58052C0.597851 6.11674 0.597726 5.65296 0.598039 5.18917C0.598191 4.93804 0.598155 4.68691 0.597608 4.43577C0.597112 4.20569 0.597159 3.97562 0.597631 3.74554C0.597707 3.66248 0.597587 3.57942 0.597247 3.49637C0.593475 2.5118 0.807138 1.63537 1.49976 0.89903C2.11473 0.318891 2.88705 -0.00719902 3.73094 -0.00483737ZM100.347 2.17436C99.907 2.69377 99.7622 3.29464 99.764 3.96243C99.7639 3.99497 99.7639 4.0275 99.7638 4.06103C99.7636 4.16961 99.7637 4.27819 99.7638 4.38678C99.7637 4.4656 99.7636 4.54441 99.7635 4.62323C99.7633 4.83949 99.7633 5.05575 99.7633 5.27201C99.7634 5.50537 99.7631 5.73873 99.763 5.9721C99.7626 6.42917 99.7625 6.88625 99.7625 7.34332C99.7625 7.71487 99.7624 8.08642 99.7623 8.45798C99.7622 8.565 99.7622 8.67203 99.7622 8.77905C99.7622 8.80566 99.7622 8.83227 99.7621 8.85969C99.7619 9.60794 99.7618 10.3562 99.7618 11.1044C99.7618 11.1326 99.7618 11.1608 99.7618 11.1899C99.7618 11.3328 99.7618 11.4757 99.7618 11.6187C99.7618 11.647 99.7618 11.6754 99.7618 11.7047C99.7618 11.7621 99.7618 11.8195 99.7618 11.8769C99.7618 12.7698 99.7615 13.6627 99.761 14.5557C99.7604 15.5593 99.7601 16.563 99.7601 17.5667C99.7601 17.6737 99.7601 17.7808 99.7601 17.8879C99.7601 17.9142 99.7601 17.9406 99.7601 17.9678C99.7601 18.3915 99.7598 18.8153 99.7595 19.239C99.7592 19.6651 99.7592 20.0912 99.7594 20.5173C99.7595 20.748 99.7595 20.9787 99.7592 21.2094C99.7589 21.4207 99.7589 21.6321 99.7593 21.8435C99.7593 21.9198 99.7593 21.996 99.7591 22.0723C99.7567 22.9608 99.8704 23.6694 100.497 24.3487C101.008 24.8346 101.632 25.01 102.321 25.0086C102.357 25.0087 102.394 25.0088 102.432 25.0089C102.556 25.0091 102.679 25.009 102.802 25.009C102.892 25.0091 102.981 25.0092 103.07 25.0093C103.316 25.0096 103.561 25.0097 103.807 25.0097C104.045 25.0098 104.282 25.0101 104.52 25.0103C105.156 25.0109 105.793 25.0111 106.429 25.0113C106.731 25.0114 107.032 25.0116 107.333 25.0117C108.365 25.0122 109.396 25.0126 110.427 25.0128C110.492 25.0128 110.557 25.0128 110.622 25.0128C110.686 25.0128 110.751 25.0128 110.816 25.0128C110.946 25.0128 111.077 25.0128 111.207 25.0129C111.255 25.0129 111.255 25.0129 111.305 25.0129C112.351 25.013 113.397 25.0136 114.443 25.0145C115.55 25.0155 116.656 25.016 117.763 25.0161C117.885 25.0161 118.006 25.0161 118.128 25.0161C118.158 25.0161 118.187 25.0161 118.218 25.0161C118.699 25.0162 119.18 25.0166 119.661 25.0172C120.145 25.0177 120.629 25.0178 121.113 25.0175C121.375 25.0174 121.637 25.0174 121.899 25.018C122.139 25.0185 122.379 25.0184 122.619 25.0179C122.705 25.0179 122.792 25.018 122.878 25.0183C123.74 25.0225 123.74 25.0225 124.549 24.7479C124.574 24.7344 124.6 24.7209 124.627 24.707C125.194 24.3965 125.575 23.8896 125.759 23.2751C125.812 23.0638 125.83 22.8676 125.829 22.6497C125.829 22.6166 125.829 22.5834 125.829 22.5492C125.83 22.4376 125.83 22.326 125.829 22.2143C125.83 22.1337 125.83 22.0531 125.83 21.9724C125.83 21.7504 125.83 21.5284 125.83 21.3064C125.83 21.0671 125.831 20.8278 125.831 20.5885C125.831 20.0378 125.832 19.487 125.832 18.9363C125.832 18.6641 125.832 18.3919 125.832 18.1197C125.833 17.1877 125.833 16.2558 125.833 15.3239C125.833 15.2654 125.833 15.2069 125.833 15.1484C125.833 15.0898 125.833 15.0311 125.833 14.9725C125.833 14.8549 125.833 14.7372 125.833 14.6196C125.833 14.5904 125.833 14.5612 125.833 14.5312C125.834 13.5856 125.834 12.64 125.835 11.6945C125.836 10.6946 125.837 9.69467 125.837 8.69478C125.837 8.58498 125.837 8.47517 125.837 8.36537C125.837 8.32482 125.837 8.32482 125.837 8.28345C125.837 7.84866 125.837 7.41388 125.838 6.97909C125.838 6.54192 125.838 6.10474 125.838 5.66756C125.838 5.43079 125.838 5.19403 125.838 4.95726C125.839 4.74039 125.839 4.52353 125.838 4.30666C125.838 4.22832 125.838 4.14998 125.839 4.07164C125.842 3.29653 125.715 2.64855 125.162 2.06422C124.466 1.39367 123.666 1.34532 122.754 1.34861C122.664 1.34851 122.575 1.34835 122.485 1.34815C122.241 1.34773 121.996 1.34805 121.751 1.34849C121.514 1.3488 121.277 1.34855 121.04 1.34833C120.525 1.34787 120.011 1.34806 119.496 1.34854C119.046 1.34895 118.595 1.34912 118.145 1.34907C118.115 1.34907 118.085 1.34906 118.054 1.34906C117.933 1.34905 117.812 1.34903 117.69 1.34902C116.552 1.34886 115.414 1.34936 114.276 1.35017C113.265 1.35088 112.254 1.35111 111.244 1.35089C111.179 1.35088 111.114 1.35087 111.049 1.35085C111.001 1.35084 111.001 1.35084 110.952 1.35083C110.79 1.3508 110.629 1.35077 110.467 1.35074C110.435 1.35073 110.403 1.35073 110.37 1.35072C109.525 1.35056 108.68 1.35078 107.835 1.35111C107.744 1.35114 107.653 1.35118 107.562 1.35121C107.502 1.35124 107.441 1.35126 107.381 1.35129C106.961 1.35145 106.54 1.35147 106.12 1.3514C105.579 1.3513 105.037 1.35146 104.495 1.35207C104.234 1.35235 103.973 1.35251 103.712 1.35233C103.473 1.35217 103.234 1.35237 102.995 1.35286C102.909 1.35298 102.822 1.35296 102.736 1.3528C101.8 1.35121 101.023 1.46049 100.347 2.17436ZM57.2787 4.8294C57.2559 4.84736 57.2331 4.86533 57.2095 4.88384C56.406 5.52414 55.8541 6.34459 55.5529 7.32682C55.5435 7.35745 55.534 7.38808 55.5243 7.41964C55.3888 7.88545 55.3555 8.34776 55.3582 8.83112C55.3583 8.85852 55.3584 8.88593 55.3585 8.91417C55.364 10.0503 55.6769 11.0801 56.4609 11.9176C56.4955 11.9549 56.53 11.9922 56.5657 12.0306C58.0496 13.5707 60.364 13.9861 62.3575 14.4841C65.5329 15.2774 65.5329 15.2774 66.3532 16.0459C66.3818 16.0714 66.4104 16.097 66.4399 16.1233C66.843 16.5 67.0431 16.9705 67.0678 17.5185C67.0857 18.2696 66.9581 18.8994 66.4652 19.4853C65.5601 20.4183 64.1666 20.7046 62.9133 20.726C61.2568 20.7466 61.2568 20.7466 60.5113 20.6026C60.4707 20.5951 60.4302 20.5875 60.3884 20.5798C58.8114 20.2798 57.3202 19.6714 56.065 18.664C55.9641 18.5789 55.9641 18.5789 55.8767 18.5384C55.8573 18.5804 55.8573 18.5804 55.8376 18.6231C55.7874 18.7318 55.7372 18.8404 55.6869 18.949C55.6642 18.9981 55.6414 19.0473 55.6188 19.0965C55.4925 19.3703 55.3645 19.6428 55.2299 19.9127C55.2081 19.9568 55.1863 20.0008 55.1638 20.0463C55.122 20.1304 55.0796 20.2143 55.0367 20.2979C55.0179 20.3358 54.9992 20.3737 54.9798 20.4127C54.9547 20.4623 54.9547 20.4623 54.929 20.5128C54.8941 20.6019 54.8941 20.6019 54.9306 20.6864C55.0087 20.7981 55.1124 20.8758 55.2195 20.958C55.2436 20.9767 55.2678 20.9954 55.2928 21.0146C55.5661 21.2222 55.8525 21.4043 56.1493 21.5762C56.1764 21.5921 56.2035 21.6079 56.2315 21.6241C57.7169 22.4773 59.4442 22.8842 61.1344 23.0562C61.1754 23.0604 61.1754 23.0604 61.2172 23.0647C63.4898 23.2838 66.0898 22.9421 67.9305 21.4911C68.9341 20.6397 69.6223 19.5294 69.7735 18.2006C69.8216 17.5742 69.8141 16.9304 69.6636 16.3185C69.6573 16.2925 69.6511 16.2664 69.6446 16.2396C69.4909 15.6273 69.1991 15.0673 68.7679 14.6049C68.7498 14.5852 68.7317 14.5656 68.7131 14.5453C67.2462 12.9621 65.0301 12.5222 63.0166 12.026C62.9094 11.9996 62.8021 11.9731 62.6948 11.9467C62.6688 11.9402 62.6427 11.9338 62.6158 11.9272C59.5982 11.1824 59.5982 11.1824 58.6418 10.2429C58.6194 10.221 58.597 10.199 58.5738 10.1764C58.1955 9.7725 58.0648 9.22455 58.0431 8.68507C58.0672 8.06032 58.2584 7.50462 58.6418 7.01038C58.6589 6.98694 58.6759 6.96349 58.6934 6.93934C59.3552 6.08675 60.5584 5.80537 61.5728 5.67492C61.9414 5.63497 62.3122 5.63778 62.6825 5.63753C62.7181 5.6375 62.7537 5.63748 62.7904 5.63745C63.3374 5.63809 63.8673 5.66136 64.4059 5.76411C64.4404 5.77017 64.4748 5.77623 64.5104 5.78248C65.6528 5.9857 66.8015 6.39301 67.7869 7.00856C67.9348 7.10349 67.9348 7.10349 68.1058 7.12722C68.184 6.93968 68.2622 6.75212 68.3404 6.56456C68.3669 6.50108 68.3933 6.43761 68.4198 6.37413C68.4325 6.34364 68.4452 6.31315 68.4583 6.28174C68.4711 6.25118 68.4838 6.22062 68.497 6.18913C68.5227 6.12732 68.5484 6.06547 68.5739 6.00359C68.6386 5.84714 68.7045 5.69139 68.7729 5.53649C68.7859 5.50637 68.799 5.47625 68.8124 5.44521C68.8372 5.38806 68.8624 5.33112 68.8882 5.27442C68.9531 5.12708 68.9531 5.12708 68.9371 4.97159C68.8559 4.87195 68.7535 4.81261 68.6437 4.74907C68.6057 4.72679 68.6057 4.72679 68.567 4.70406C67.1369 3.88428 65.5361 3.45679 63.8996 3.3105C63.8295 3.30402 63.8295 3.30402 63.7581 3.29741C61.5501 3.12686 59.068 3.41349 57.2787 4.8294ZM6.96029 3.50523C7.04731 3.82997 7.04731 3.82997 7.14594 4.14976C7.15831 4.18708 7.17069 4.22439 7.18344 4.26283C7.19667 4.30232 7.2099 4.3418 7.22353 4.38249C7.23788 4.42562 7.25222 4.46876 7.26701 4.5132C7.30646 4.63173 7.34601 4.75023 7.38561 4.86872C7.42848 4.99705 7.4712 5.12542 7.51395 5.25379C7.59766 5.50513 7.6815 5.75642 7.76538 6.0077C7.86359 6.30192 7.96167 6.59617 8.05975 6.89043C8.23535 7.41724 8.41106 7.94402 8.58683 8.47077C8.75617 8.97826 8.92544 9.48577 9.09461 9.99332C9.10498 10.0244 9.11534 10.0555 9.12602 10.0875C9.13637 10.1186 9.14671 10.1496 9.15738 10.1816C9.35121 10.7632 9.54513 11.3447 9.73908 11.9262C9.79739 12.101 9.85568 12.2758 9.91395 12.4506C10.4447 14.0436 10.4447 14.0436 10.9846 15.6334C11.2156 16.3073 11.4412 16.9829 11.6658 17.6589C11.7366 17.8721 11.8075 18.0852 11.8785 18.2984C12.0796 18.9028 12.2807 19.5073 12.4816 20.1119C12.5937 20.4491 12.7059 20.7863 12.8182 21.1235C12.8887 21.3355 12.9592 21.5475 13.0296 21.7595C13.0729 21.8901 13.1164 22.0206 13.1599 22.1512C13.1801 22.2118 13.2002 22.2724 13.2203 22.3331C13.2477 22.4155 13.2751 22.4979 13.3026 22.5802C13.3179 22.6263 13.3333 22.6725 13.3491 22.72C13.3767 22.8183 13.3767 22.8183 13.4253 22.8615C13.5166 22.8652 13.6067 22.8664 13.6979 22.8659C13.7264 22.8659 13.7549 22.8659 13.7843 22.8659C13.8789 22.8659 13.9735 22.8656 14.0681 22.8653C14.1335 22.8652 14.199 22.8651 14.2644 22.8651C14.437 22.865 14.6095 22.8646 14.7821 22.8641C14.958 22.8637 15.134 22.8636 15.3099 22.8634C15.6554 22.863 16.0008 22.8623 16.3463 22.8615C16.4688 22.5665 16.5743 22.2674 16.6757 21.9646C16.7007 21.8904 16.7257 21.8162 16.7508 21.7419C16.7772 21.6636 16.8035 21.5852 16.8299 21.5068C16.9224 21.2314 17.0154 20.9561 17.1085 20.6808C17.1178 20.6534 17.127 20.626 17.1366 20.5977C17.2881 20.1496 17.4427 19.7027 17.5999 19.2565C17.8892 18.4346 18.1662 17.6086 18.4443 16.7828C18.706 16.0056 18.9683 15.2288 19.241 14.4554C19.5037 13.7093 19.7549 12.9593 20.0073 12.2097C20.3013 11.3365 20.5964 10.4638 20.9019 9.59455C20.9236 9.53272 20.9453 9.4709 20.9671 9.40907C20.9828 9.36426 20.9828 9.36426 20.9989 9.31855C21.1373 8.92403 21.272 8.52825 21.4069 8.13252C21.419 8.09702 21.4311 8.06153 21.4435 8.02496C21.5101 7.82959 21.5766 7.6342 21.643 7.43879C21.7117 7.54184 21.7461 7.61643 21.7848 7.7318C21.797 7.76778 21.8091 7.80377 21.8217 7.84084C21.8348 7.88006 21.8478 7.91928 21.8613 7.9597C21.8751 8.00073 21.889 8.04176 21.9032 8.08404C21.9332 8.17282 21.963 8.26162 21.9928 8.35044C22.0727 8.58853 22.1531 8.82643 22.2336 9.06434C22.2498 9.11231 22.266 9.16028 22.2827 9.2097C22.4072 9.57777 22.5346 9.94477 22.6636 10.3113C22.9585 11.1489 23.2419 11.9902 23.5253 12.8317C23.77 13.5578 24.0147 14.2838 24.2694 15.0065C24.5439 15.7853 24.8068 16.568 25.0702 17.3506C25.3483 18.1764 25.6264 19.0021 25.916 19.824C26.0695 20.2599 26.2196 20.6967 26.3676 21.1345C26.3766 21.161 26.3856 21.1875 26.3948 21.2148C26.4846 21.4802 26.5742 21.7457 26.6634 22.0113C26.7042 22.1325 26.7451 22.2537 26.786 22.3749C26.801 22.4197 26.816 22.4644 26.8314 22.5105C26.8451 22.5512 26.8589 22.5918 26.873 22.6337C26.885 22.6694 26.897 22.7051 26.9093 22.7419C26.9327 22.821 26.9327 22.821 26.9786 22.8615C27.0575 22.8651 27.1365 22.866 27.2154 22.8659C27.2661 22.8659 27.3168 22.8659 27.369 22.8659C27.4247 22.8657 27.4805 22.8655 27.5362 22.8653C27.5929 22.8652 27.6496 22.8651 27.7063 22.8651C27.8558 22.865 28.0053 22.8646 28.1548 22.8641C28.3072 22.8637 28.4597 22.8636 28.6121 22.8634C28.9115 22.863 29.2108 22.8623 29.5101 22.8615C29.4317 22.5949 29.348 22.3306 29.26 22.067C29.2471 22.0285 29.2343 21.99 29.2211 21.9503C29.1789 21.8235 29.1366 21.6968 29.0943 21.57C29.0644 21.4801 29.0344 21.3902 29.0044 21.3002C28.9415 21.1112 28.8784 20.9222 28.8154 20.7333C28.7363 20.4962 28.6573 20.259 28.5783 20.0219C28.2781 19.1207 27.9769 18.2199 27.6689 17.3214C27.4545 16.696 27.2449 16.0691 27.0366 15.4417C26.9356 15.1373 26.8343 14.833 26.7329 14.5287C26.7181 14.4841 26.7181 14.4841 26.7029 14.4387C26.5397 13.9487 26.374 13.4596 26.2059 12.9712C25.9617 12.2608 25.7254 11.5477 25.4883 10.8348C25.2605 10.1499 25.0324 9.46504 24.7976 8.78243C24.5526 8.07005 24.3149 7.35524 24.0771 6.64039C23.8221 5.87371 23.5667 5.10717 23.3055 4.34257C23.2943 4.30983 23.2832 4.27709 23.2717 4.24335C23.241 4.15348 23.2102 4.06363 23.1794 3.9738C23.1707 3.94841 23.162 3.92303 23.1531 3.89688C23.1075 3.76449 23.0582 3.6354 23.0061 3.50523C22.1707 3.50523 21.3353 3.50523 20.4746 3.50523C20.131 4.48806 19.7894 5.47157 19.4504 6.45602C19.2422 7.06074 19.0331 7.66514 18.8218 8.26883C18.576 8.97145 18.3336 9.67524 18.0916 10.3792C17.8571 11.0614 17.6215 11.7431 17.3832 12.424C17.1587 13.0658 16.9373 13.7087 16.7163 14.3517C16.4592 15.0996 16.2009 15.847 15.9399 16.5935C15.7375 17.1725 15.5367 17.752 15.3361 18.3315C15.3203 18.3772 15.3045 18.4229 15.2882 18.47C15.1995 18.7265 15.1108 18.983 15.0221 19.2395C14.9114 18.971 14.8128 18.7004 14.7215 18.4248C14.7011 18.3638 14.7011 18.3638 14.6803 18.3016C14.6356 18.1676 14.5911 18.0336 14.5466 17.8996C14.5149 17.8047 14.4833 17.7097 14.4516 17.6147C14.3851 17.4151 14.3186 17.2154 14.2523 17.0157C14.1771 16.7898 14.1019 16.5639 14.0266 16.338C13.9528 16.1166 13.879 15.895 13.8053 15.6735C13.7747 15.5815 13.744 15.4895 13.7134 15.3976C13.5281 14.8413 13.3452 14.2842 13.1642 13.7265C12.866 12.8082 12.5617 11.892 12.2561 10.9762C12.1834 10.7584 12.1108 10.5406 12.0381 10.3228C11.9012 9.91196 11.7641 9.50113 11.627 9.09031C11.4722 8.6262 11.3174 8.16207 11.1626 7.69794C10.973 7.12935 10.7834 6.56076 10.5937 5.99219C10.5803 5.95196 10.5669 5.91172 10.5531 5.87027C10.491 5.68418 10.4289 5.49809 10.3668 5.312C10.1659 4.70978 9.96517 4.1075 9.76441 3.50523C8.83905 3.50523 7.91369 3.50523 6.96029 3.50523ZM33.7163 3.50523C33.5892 3.88304 33.5892 3.88304 33.4595 4.26848C32.4035 7.40662 32.4035 7.40662 31.9774 8.66704C31.9214 8.83246 31.8656 8.99791 31.8098 9.16339C31.6343 9.68416 31.4577 10.2045 31.2774 10.7237C31.2085 10.922 31.14 11.1206 31.0716 11.3192C31.0169 11.4781 30.9615 11.6368 30.9056 11.7953C30.8638 11.9145 30.8229 12.034 30.7818 12.1534C30.7667 12.1956 30.7516 12.2378 30.736 12.2813C30.5807 12.7391 30.6949 13.0526 30.8475 13.5004C30.8649 13.5522 30.8822 13.604 30.8996 13.6558C30.9453 13.7922 30.9914 13.9285 31.0376 14.0648C31.0831 14.1992 31.1282 14.3338 31.1733 14.4684C31.2535 14.7072 31.3342 14.9458 31.4153 15.1842C31.4705 15.3464 31.5253 15.5086 31.5799 15.671C31.6156 15.7771 31.6515 15.8831 31.6875 15.9891C31.7127 16.0633 31.7376 16.1377 31.7624 16.2121C31.7775 16.2563 31.7926 16.3006 31.8082 16.3462C31.8213 16.3852 31.8345 16.4242 31.8481 16.4643C31.8773 16.5584 31.8773 16.5584 31.9637 16.5911C31.9739 16.5607 31.984 16.5303 31.9944 16.4989C32.2438 15.7498 32.4933 15.0007 32.7429 14.2517C32.8636 13.8894 32.9842 13.5271 33.1048 13.1649C34.0303 10.3852 34.0303 10.3852 34.3402 9.48392C34.6986 8.44097 35.0445 7.3937 35.393 6.34739C35.4745 6.10268 35.5561 5.85799 35.6377 5.61331C35.7173 5.37469 35.7969 5.13605 35.8764 4.8974C35.9235 4.75599 35.9706 4.61459 36.0178 4.4732C36.0697 4.31745 36.1216 4.16168 36.1735 4.0059C36.189 3.95938 36.2045 3.91287 36.2205 3.86494C36.2415 3.80197 36.2415 3.80197 36.2628 3.73772C36.275 3.70105 36.2873 3.66439 36.2998 3.62662C36.3276 3.55238 36.3276 3.55238 36.3257 3.50523C35.4646 3.50523 34.6035 3.50523 33.7163 3.50523ZM43.9202 3.50523C43.9202 9.89279 43.9202 16.2803 43.9202 22.8615C44.8199 22.8615 45.7195 22.8615 46.6464 22.8615C46.6464 16.4739 46.6464 10.0864 46.6464 3.50523C45.7468 3.50523 44.8471 3.50523 43.9202 3.50523ZM78.037 3.50523C78.037 9.89279 78.037 16.2803 78.037 22.8615C82.6638 22.8615 87.2906 22.8615 92.0577 22.8615C92.0577 22.0775 92.0577 21.2935 92.0577 20.4858C88.1891 20.4858 84.3206 20.4858 80.3349 20.4858C80.3349 18.4037 80.3349 16.3216 80.3349 14.1765C83.6893 14.1765 87.0437 14.1765 90.4998 14.1765C90.4998 13.4182 90.4998 12.6599 90.4998 11.8787C87.1454 11.8787 83.7909 11.8787 80.3349 11.8787C80.3349 9.89941 80.3349 7.92016 80.3349 5.88094C84.0749 5.88094 87.8149 5.88094 91.6682 5.88094C91.6682 5.09696 91.6682 4.31297 91.6682 3.50523C87.1699 3.50523 82.6716 3.50523 78.037 3.50523Z" fill="#352610"/>
<path d="M114.938 7.70095C115.007 7.70189 115.076 7.70261 115.146 7.70312C115.327 7.70504 115.508 7.71 115.689 7.71562C115.874 7.72083 116.06 7.72312 116.245 7.72567C116.608 7.73108 116.971 7.7397 117.334 7.75039C117.282 7.85741 117.229 7.94676 117.153 8.03853C117.132 8.06334 117.112 8.08815 117.091 8.11371C117.069 8.14001 117.047 8.16631 117.025 8.1934C116.978 8.24951 116.932 8.30565 116.886 8.36181C116.863 8.38995 116.84 8.41808 116.816 8.44707C116.719 8.56646 116.625 8.68775 116.53 8.80924C116.376 9.00734 116.216 9.19982 116.053 9.39061C115.908 9.56048 115.77 9.73496 115.633 9.9111C115.464 10.1282 115.289 10.3404 115.114 10.5525C114.943 10.7592 114.774 10.9676 114.607 11.1777C114.549 11.2507 114.491 11.3237 114.432 11.3967C114.406 11.4294 114.38 11.462 114.353 11.4956C114.334 11.5192 114.315 11.5428 114.296 11.5671C114.503 11.6094 114.71 11.6498 114.918 11.687C116.16 11.9119 117.337 12.2854 118.307 13.125C118.339 13.1512 118.37 13.1774 118.402 13.2044C118.854 13.5926 119.195 14.0432 119.476 14.566C119.488 14.5896 119.501 14.6131 119.514 14.6375C120.199 15.943 120.24 17.5916 119.814 18.9831C119.622 19.5654 119.348 20.1198 118.969 20.6026C118.953 20.6235 118.937 20.6443 118.92 20.6658C117.772 22.1184 115.981 22.8542 114.177 23.066C114.074 23.0768 113.971 23.0861 113.868 23.0952C113.825 23.0995 113.782 23.1038 113.738 23.1083C110.922 23.35 107.865 22.6875 105.65 20.8752C105.624 20.8495 105.598 20.8238 105.572 20.7974C105.585 20.6414 105.645 20.5285 105.723 20.395C105.747 20.3546 105.77 20.3143 105.794 20.2728C105.82 20.2298 105.845 20.1869 105.871 20.1426C105.911 20.0749 105.95 20.0072 105.99 19.9396C106.031 19.8697 106.072 19.7998 106.113 19.73C106.193 19.5934 106.273 19.4565 106.352 19.3195C106.544 18.99 106.544 18.99 106.634 18.8356C106.662 18.7874 106.662 18.7874 106.691 18.7383C106.731 18.6705 106.774 18.6042 106.818 18.5385C106.962 18.6004 107.066 18.6911 107.183 18.7941C108.522 19.9288 110.461 20.5621 112.206 20.5716C112.239 20.5719 112.273 20.5721 112.307 20.5724C112.415 20.5731 112.523 20.5733 112.631 20.5734C112.668 20.5734 112.705 20.5735 112.742 20.5735C113.268 20.5729 113.781 20.5644 114.296 20.4468C114.325 20.4406 114.354 20.4343 114.384 20.4278C115.05 20.2807 115.688 20.0021 116.204 19.5511C116.241 19.5187 116.279 19.4863 116.317 19.453C116.9 18.9088 117.188 18.1597 117.225 17.3689C117.252 16.4787 116.995 15.6651 116.377 15.0076C114.976 13.6564 112.694 13.8513 110.908 13.826C110.895 13.5546 110.886 13.2833 110.88 13.0116C110.877 12.9195 110.874 12.8274 110.869 12.7354C110.828 11.8496 110.828 11.8496 111.151 11.4778C111.216 11.4085 111.283 11.3419 111.352 11.2767C111.444 11.1878 111.52 11.0904 111.599 10.9902C111.681 10.8897 111.764 10.7892 111.846 10.6887C112.043 10.4485 112.239 10.2076 112.434 9.96656C112.582 9.7845 112.731 9.60285 112.879 9.42142C113.017 9.25301 113.154 9.08413 113.291 8.91523C113.59 8.54711 113.59 8.54711 113.74 8.37006C113.832 8.25764 113.832 8.25764 113.905 8.12747C114.172 7.68604 114.451 7.68131 114.938 7.70095Z" fill="#352610"/>
<path d="M106.429 3.46631C110.67 3.46631 114.911 3.46631 119.281 3.46631C119.281 5.41362 119.281 5.41362 118.853 5.91992C118.65 5.971 118.53 5.98709 118.329 5.9808C118.278 5.98123 118.227 5.98167 118.175 5.98211C118.034 5.98324 117.893 5.98123 117.753 5.97868C117.6 5.97648 117.448 5.97724 117.296 5.97762C117.033 5.97788 116.77 5.9763 116.506 5.97345C116.126 5.96932 115.745 5.96801 115.365 5.96738C114.747 5.96627 114.13 5.96291 113.512 5.95811C112.913 5.95346 112.313 5.94988 111.713 5.94773C111.676 5.9476 111.639 5.94746 111.601 5.94733C111.416 5.94666 111.23 5.94603 111.044 5.9454C109.506 5.94015 107.967 5.93082 106.429 5.91992C106.429 5.11023 106.429 4.30054 106.429 3.46631Z" fill="#352610"/>
<path d="M47.9316 29.5212C48.5158 29.5212 48.5158 29.5212 48.6713 29.634C48.7294 29.7072 48.7294 29.7072 48.7836 29.7866C48.8041 29.8133 48.8247 29.84 48.8459 29.8675C48.887 29.9211 48.9275 29.9753 48.9671 30.03C49.0413 30.1318 49.1216 30.2279 49.2023 30.3245C49.2297 30.3583 49.2571 30.3922 49.2853 30.427C49.3844 30.5483 49.4854 30.6677 49.5869 30.787C49.7474 30.9759 49.905 31.1668 50.0615 31.359C50.1796 31.5027 50.3 31.6443 50.4204 31.786C50.5645 31.9558 50.7059 32.1277 50.8461 32.3007C50.9503 32.4273 51.0575 32.5514 51.1642 32.6759C51.177 31.6348 51.1899 30.5938 51.2031 29.5212C51.4345 29.5212 51.6658 29.5212 51.9041 29.5212C51.9041 30.9864 51.9041 32.4515 51.9041 33.9611C51.281 33.9611 51.281 33.9611 51.1415 33.8695C51.0985 33.8064 51.0985 33.8064 51.0546 33.742C51.0381 33.7192 51.0215 33.6964 51.0044 33.6729C50.9697 33.6251 50.9358 33.5767 50.9027 33.5278C50.8217 33.4098 50.7322 33.299 50.6433 33.187C50.6258 33.1646 50.6084 33.1422 50.5904 33.1191C50.4341 32.9186 50.2684 32.7269 50.1009 32.5357C49.9484 32.3613 49.8005 32.1838 49.6547 32.0038C49.5556 31.8825 49.4546 31.7631 49.3532 31.6438C49.1083 31.3555 48.869 31.0629 48.6327 30.7675C48.6198 31.8214 48.607 32.8753 48.5937 33.9611C48.3752 33.9611 48.1567 33.9611 47.9316 33.9611C47.9316 32.4959 47.9316 31.0308 47.9316 29.5212Z" fill="#352610"/>
<path d="M77.8034 29.5213C78.1777 29.5181 78.552 29.5149 78.9377 29.5116C79.1132 29.5094 79.1132 29.5094 79.2923 29.5073C79.3868 29.5068 79.4812 29.5064 79.5757 29.5061C79.6472 29.5049 79.6472 29.5049 79.7202 29.5037C80.2277 29.5035 80.7195 29.6145 81.1138 29.9497C81.4664 30.3263 81.5664 30.7138 81.5531 31.2209C81.522 31.5929 81.3837 31.9145 81.1068 32.1701C80.9496 32.2963 80.7922 32.4007 80.6075 32.4812C80.7637 32.7188 80.9249 32.952 81.0919 33.1822C81.1139 33.2127 81.1359 33.2432 81.1586 33.2747C81.294 33.4614 81.432 33.6452 81.5782 33.8236C81.6201 33.8833 81.6201 33.8833 81.6201 33.9612C81.3603 34.0031 81.0969 34.0407 80.8412 33.9612C80.6365 33.8086 80.517 33.5741 80.3923 33.3563C80.3022 33.2055 80.1957 33.0683 80.089 32.9291C79.9065 32.6878 79.9065 32.6878 79.9065 32.598C79.8867 32.6044 79.8669 32.6107 79.8466 32.6173C79.7174 32.6438 79.5947 32.6413 79.4628 32.6408C79.4126 32.6407 79.3624 32.6406 79.3107 32.6405C79.2152 32.64 79.2152 32.64 79.1178 32.6394C78.8142 32.6382 78.8142 32.6382 78.5044 32.637C78.5044 33.074 78.5044 33.5109 78.5044 33.9612C78.2731 33.9612 78.0417 33.9612 77.8034 33.9612C77.8034 32.496 77.8034 31.0308 77.8034 29.5213ZM78.5044 30.1055C78.5044 30.7481 78.5044 31.3907 78.5044 32.0528C78.7132 32.0552 78.9221 32.0576 79.1373 32.0601C79.2021 32.0612 79.267 32.0622 79.3339 32.0633C79.8007 32.0678 80.2911 32.0453 80.6464 31.7023C80.847 31.4382 80.8805 31.1689 80.8412 30.8455C80.8002 30.6142 80.6923 30.468 80.5068 30.3254C80.11 30.0549 79.6767 30.0869 79.2176 30.0957C78.8646 30.1006 78.8646 30.1006 78.5044 30.1055Z" fill="#352610"/>
<path d="M87.7736 29.5212C88.8532 29.5212 89.9328 29.5212 91.0451 29.5212C91.0451 29.714 91.0451 29.9068 91.0451 30.1054C90.1968 30.1054 89.3486 30.1054 88.4746 30.1054C88.4746 30.5424 88.4746 30.9794 88.4746 31.4296C89.2329 31.4296 89.9912 31.4296 90.7724 31.4296C90.7724 31.6095 90.7724 31.7895 90.7724 31.9748C90.0141 31.9748 89.2559 31.9748 88.4746 31.9748C88.4746 32.4375 88.4746 32.9002 88.4746 33.3769C89.3486 33.3769 90.2225 33.3769 91.1229 33.3769C91.1229 33.5697 91.1229 33.7625 91.1229 33.9611C90.0177 33.9611 88.9124 33.9611 87.7736 33.9611C87.7736 32.4959 87.7736 31.0308 87.7736 29.5212Z" fill="#352610"/>
<path d="M38.312 29.5212C39.3915 29.5212 40.4711 29.5212 41.5834 29.5212C41.5834 29.714 41.5834 29.9068 41.5834 30.1054C40.7352 30.1054 39.8869 30.1054 39.013 30.1054C39.013 30.5424 39.013 30.9794 39.013 31.4296C39.7713 31.4296 40.5295 31.4296 41.3108 31.4296C41.3108 31.6095 41.3108 31.7895 41.3108 31.9748C40.5525 31.9748 39.7942 31.9748 39.013 31.9748C39.013 32.4375 39.013 32.9002 39.013 33.3769C39.8869 33.3769 40.7609 33.3769 41.6613 33.3769C41.6613 33.5697 41.6613 33.7625 41.6613 33.9611C40.556 33.9611 39.4507 33.9611 38.312 33.9611C38.312 32.4959 38.312 31.0308 38.312 29.5212Z" fill="#352610"/>
<path d="M67.3658 29.5212C67.5971 29.5212 67.8285 29.5212 68.0668 29.5212C68.0674 29.6026 68.068 29.6839 68.0685 29.7677C68.0705 30.038 68.0731 30.3083 68.076 30.5786C68.0777 30.7423 68.0793 30.906 68.0803 31.0697C68.0813 31.2281 68.0829 31.3864 68.0849 31.5447C68.0855 31.6048 68.086 31.6649 68.0862 31.7249C68.0884 32.219 68.107 32.7195 68.4563 33.1043C68.7841 33.3812 69.1723 33.4092 69.5857 33.3769C69.9391 33.3105 70.1898 33.1653 70.4036 32.8706C70.5299 32.6134 70.564 32.4011 70.5674 32.1166C70.5678 32.0885 70.5681 32.0603 70.5685 32.0313C70.5698 31.9388 70.5707 31.8463 70.5717 31.7538C70.5725 31.6895 70.5733 31.6251 70.5742 31.5608C70.5763 31.3918 70.5782 31.2229 70.5801 31.0539C70.5821 30.8813 70.5842 30.7088 70.5864 30.5362C70.5906 30.1979 70.5945 29.8596 70.5983 29.5212C70.8297 29.5212 71.061 29.5212 71.2994 29.5212C71.3011 29.868 71.3025 30.2147 71.3034 30.5614C71.3038 30.7224 71.3043 30.8835 71.3052 31.0445C71.3061 31.2003 71.3065 31.3561 71.3067 31.5119C71.3069 31.571 71.3072 31.63 71.3076 31.6891C71.3121 32.3365 71.269 32.9755 70.8344 33.4925C70.4095 33.911 69.906 34.0144 69.3326 34.0195C68.8181 34.0153 68.3989 33.9433 67.9889 33.6106C67.9646 33.5911 67.9402 33.5715 67.9151 33.5514C67.5223 33.1997 67.3988 32.6744 67.3595 32.1666C67.3504 31.9745 67.3523 31.7825 67.3544 31.5903C67.3546 31.53 67.3548 31.4698 67.3549 31.4096C67.3553 31.2533 67.3565 31.0971 67.3578 30.9409C67.359 30.7806 67.3595 30.6202 67.3601 30.4599C67.3613 30.147 67.3634 29.8341 67.3658 29.5212Z" fill="#352610"/>
<path d="M100.353 29.8326C100.293 30.028 100.235 30.2071 100.12 30.3779C99.9765 30.3327 99.8389 30.2805 99.7008 30.2221C99.2099 30.0263 98.629 29.9714 98.1333 30.1832C97.955 30.2836 97.8538 30.3911 97.7973 30.5897C97.7706 30.7707 97.7978 30.8842 97.8996 31.04C98.1877 31.3306 98.7241 31.3836 99.1058 31.4768C100.108 31.7243 100.108 31.7243 100.392 32.1305C100.497 32.3342 100.531 32.4987 100.528 32.7268C100.528 32.7559 100.528 32.785 100.528 32.8149C100.517 33.1478 100.409 33.3769 100.166 33.6056C99.7473 33.9381 99.2714 34.0216 98.7467 34.0169C98.7003 34.0166 98.654 34.0163 98.6062 34.0159C97.9965 34.0043 97.4733 33.8325 96.9649 33.4936C96.9884 33.3436 97.0337 33.2264 97.1036 33.092C97.1302 33.0404 97.1302 33.0404 97.1573 32.9877C97.1709 32.9619 97.1845 32.936 97.1986 32.9094C97.2273 32.9273 97.2561 32.9451 97.2857 32.9636C97.9371 33.3575 98.5836 33.5064 99.3319 33.3343C99.5373 33.2763 99.6431 33.215 99.7641 33.0335C99.8327 32.8394 99.8379 32.7048 99.7544 32.5151C99.4959 32.2319 99.1067 32.1575 98.7467 32.0721C97.4966 31.7595 97.4966 31.7595 97.1986 31.3053C97.0379 31.0314 97.0363 30.6902 97.107 30.386C97.2302 30.0464 97.4238 29.8279 97.7438 29.6623C98.5305 29.3012 99.6205 29.3442 100.353 29.8326Z" fill="#352610"/>
<path d="M27.8354 29.5212C28.0925 29.5212 28.3495 29.5212 28.6144 29.5212C28.9767 30.3052 29.3362 31.0901 29.6842 31.8806C29.8539 32.2654 30.0305 32.6466 30.2111 33.0264C30.3889 32.6774 30.5577 32.3256 30.7185 31.9685C30.768 31.8585 30.8177 31.7487 30.8675 31.6388C30.8937 31.5808 30.92 31.5229 30.9462 31.4649C31.0853 31.1574 31.2252 30.8502 31.3654 30.5432C31.4054 30.4554 31.4455 30.3675 31.4855 30.2797C31.5104 30.2252 31.5352 30.1707 31.5601 30.1162C31.5711 30.0921 31.5821 30.068 31.5934 30.0431C31.674 29.8668 31.76 29.6949 31.8469 29.5212C32.0782 29.5212 32.3096 29.5212 32.5479 29.5212C32.4894 29.6967 32.4257 29.8599 32.348 30.0266C32.336 30.0527 32.324 30.0788 32.3116 30.1057C32.2856 30.1621 32.2596 30.2185 32.2335 30.2748C32.1626 30.4282 32.0921 30.5817 32.0217 30.7353C31.9998 30.7829 31.9998 30.7829 31.9775 30.8315C31.8281 31.1578 31.6828 31.4859 31.5378 31.8142C31.2199 32.5333 30.8915 33.2475 30.5617 33.9611C30.3303 33.9611 30.099 33.9611 29.8606 33.9611C29.6495 33.5437 29.4476 33.1238 29.2545 32.6978C29.2276 32.6385 29.2006 32.5792 29.1736 32.5198C29.1181 32.3981 29.0628 32.2763 29.0075 32.1545C28.9297 31.983 28.8516 31.8117 28.7735 31.6403C28.5432 31.135 28.3138 30.6293 28.0862 30.1228C28.0636 30.0726 28.041 30.0224 28.0183 29.9722C27.9874 29.9034 27.9565 29.8347 27.9256 29.7659C27.9082 29.7269 27.8907 29.688 27.8726 29.6479C27.8354 29.5602 27.8354 29.5602 27.8354 29.5212Z" fill="#352610"/>
<path d="M57.785 29.5212C59.0446 29.5212 60.3041 29.5212 61.6018 29.5212C61.6018 29.714 61.6018 29.9068 61.6018 30.1054C61.0877 30.1054 60.5736 30.1054 60.0439 30.1054C60.0439 31.3778 60.0439 32.6502 60.0439 33.9611C59.8126 33.9611 59.5812 33.9611 59.3429 33.9611C59.3429 32.6887 59.3429 31.4164 59.3429 30.1054C58.8288 30.1054 58.3147 30.1054 57.785 30.1054C57.785 29.9126 57.785 29.7199 57.785 29.5212Z" fill="#352610"/>
</g>
<defs>
<clipPath id="clip0_6310_17800">
<rect width="127.159" height="34" fill="white" transform="translate(0.612061)"/>
</clipPath>
</defs>
</svg>
