<svg width="24" height="24" viewBox="0 0 24 24" fill="none" xmlns="http://www.w3.org/2000/svg">
<path d="M13.105 19.696L8.42727 19.6086C6.91275 19.5781 5.39445 19.6389 3.90962 19.3233C1.65085 18.8517 1.49083 16.5396 1.32338 14.6002C1.09266 11.8736 1.18198 9.09748 1.61738 6.39363C1.86318 4.87649 2.83049 3.9712 4.3264 3.87269C9.37619 3.51518 14.4596 3.55754 19.4982 3.72434C20.0303 3.73963 20.5661 3.8232 21.0908 3.91833C23.681 4.3823 23.7441 7.00245 23.912 9.20813C24.0795 11.4366 24.0088 13.6764 23.6887 15.8897C23.432 17.7222 22.9407 19.259 20.8675 19.4073C18.27 19.6013 15.7321 19.7575 13.1272 19.7078C13.1273 19.696 13.1124 19.696 13.105 19.696ZM10.3549 15.0566C12.3124 13.908 14.2325 12.7786 16.1788 11.6378C14.2177 10.4893 12.3012 9.35987 10.3549 8.21903V15.0566Z" fill="#CF32E5"/>
</svg>
