<svg width="41" height="40" viewBox="0 0 41 40" fill="none" xmlns="http://www.w3.org/2000/svg">
<path fill-rule="evenodd" clip-rule="evenodd" d="M3.20304 5.42871H23.9811L4.30296 35.2192L2.87256 34.2743L20.7942 7.143H3.20304V5.42871Z" fill="black"/>
<path fill-rule="evenodd" clip-rule="evenodd" d="M23.0645 12.1444L9.20466 33.4287H22.7357V35.143H6.04265L21.628 11.2089L23.0645 12.1444Z" fill="black"/>
<path fill-rule="evenodd" clip-rule="evenodd" d="M36.7958 7.33523C27.1723 5.89736 20.0653 12.742 20.0653 20.3018C20.0653 27.8517 27.062 34.5683 36.809 33.2665L37.6586 33.1531L37.8856 34.8523L37.036 34.9657C26.3567 36.392 18.3511 28.9828 18.3511 20.3018C18.3511 11.6309 26.4532 4.0566 37.0491 5.63976L37.8969 5.76642L37.6436 7.46189L36.7958 7.33523Z" fill="black"/>
</svg>
