<svg width="49" height="25" viewBox="0 0 49 25" fill="none" xmlns="http://www.w3.org/2000/svg">
<mask id="mask0_6152_13249" style="mask-type:alpha" maskUnits="userSpaceOnUse" x="0" y="1" width="49" height="24">
<path d="M20.0903 20.9948C15.671 25.4141 8.58912 25.5483 4.00809 21.3973L7.73004 17.6753C7.73003 17.6753 7.73004 17.6753 7.73004 17.6753L14.3136 11.0918L15.5515 12.3296L9.25883 18.6223C11.6098 19.6527 14.4522 19.2057 16.3767 17.2812C18.8835 14.7745 18.8835 10.7102 16.3767 8.20346C13.87 5.6967 9.80571 5.6967 7.29895 8.20346C5.07403 10.4284 4.82388 13.8803 6.54851 16.3811L2.80081 20.1288C-0.955423 15.5445 -0.693929 8.76894 3.5853 4.48972C8.14304 -0.068024 15.5326 -0.068024 20.0903 4.48972C24.6481 9.04746 24.6481 16.437 20.0903 20.9948Z" fill="#FF3CD4"/>
<path d="M36.6884 24.3758C42.9383 24.3758 48.0408 19.4631 48.3449 13.2886H33.7707V15.0392H42.6698C41.7361 17.4302 39.4101 19.124 36.6884 19.124C33.1434 19.124 30.2695 16.2502 30.2695 12.7051C30.2695 9.15997 33.1434 6.28611 36.6884 6.28611C39.835 6.28611 42.4527 8.55011 43.0016 11.538H48.3016C47.7161 5.64031 42.7402 1.03418 36.6884 1.03418C30.2428 1.03418 25.0176 6.25939 25.0176 12.705C25.0176 19.1506 30.2428 24.3758 36.6884 24.3758Z" fill="#FF3CD4"/>
</mask>
<g mask="url(#mask0_6152_13249)">
<path d="M-0.571289 0.5H50.2859V24.943H-0.571289V0.5Z" fill="#FDFDFD"/>
</g>
</svg>
